<?xml version="1.0" encoding="UTF-8"?><svg id="Layer_1" xmlns="http://www.w3.org/2000/svg" width="240" height="43.66" viewBox="0 0 240 43.66"><defs><style>.cls-1{fill:#fff;}.cls-2{fill:#aaf2df;}.cls-3{fill:#91eddb;}.cls-4{fill:#5eead6;}.cls-5{fill:#038e8e;}.cls-6{letter-spacing:-.01em;}.cls-7{fill:#00a4bf;}.cls-8{fill:#c9f4e6;}.cls-9{fill:#046f7a;}.cls-10{fill:#0fcac7;}.cls-11{fill:#07a3a3;}.cls-12{font-family:FiraSans-Regular, 'Fira Sans';font-size:12px;}.cls-13{fill:#0bb5b5;}.cls-14{fill:#37dacf;}</style></defs><rect class="cls-1" width="240" height="43.66"/><rect class="cls-8" x="5.83" y="4.5" width="22.85" height="22.85"/><rect class="cls-3" x="51.54" y="4.5" width="22.85" height="22.85"/><rect class="cls-13" x="142.87" y="4.5" width="22.85" height="22.85"/><rect class="cls-7" x="188.72" y="4.5" width="22.85" height="22.85"/><rect class="cls-14" x="97.32" y="4.5" width="22.85" height="22.85"/><rect class="cls-2" x="28.69" y="4.5" width="22.85" height="22.85"/><rect class="cls-4" x="74.39" y="4.5" width="22.85" height="22.85"/><rect class="cls-10" x="120.09" y="4.5" width="22.85" height="22.85"/><rect class="cls-11" x="165.8" y="4.5" width="22.85" height="22.85"/><rect class="cls-5" x="188.72" y="4.5" width="22.85" height="22.85"/><rect class="cls-9" x="211.5" y="4.5" width="22.85" height="22.85"/><text class="cls-12" transform="translate(22.74 39.58)"><tspan x="0" y="0">10</tspan></text><text class="cls-12" transform="translate(45.22 39.58)"><tspan x="0" y="0">20</tspan></text><text class="cls-12" transform="translate(68.05 39.71)"><tspan x="0" y="0">30</tspan></text><text class="cls-12" transform="translate(90.7 39.58)"><tspan x="0" y="0">40</tspan></text><text class="cls-12" transform="translate(113.81 39.58)"><tspan x="0" y="0">50</tspan></text><text class="cls-12" transform="translate(136.4 39.58)"><tspan x="0" y="0">60</tspan></text><text class="cls-12" transform="translate(159.78 39.58)"><tspan class="cls-6" x="0" y="0">7</tspan><tspan x="5.18" y="0">0</tspan></text><text class="cls-12" transform="translate(181.99 39.58)"><tspan x="0" y="0">80</tspan></text><text class="cls-12" transform="translate(205.08 39.58)"><tspan x="0" y="0">90</tspan></text></svg>