<?xml version="1.0" encoding="UTF-8"?><svg id="Layer_1" xmlns="http://www.w3.org/2000/svg" width="228.52" height="58.57" viewBox="0 0 228.52 58.57"><defs><style>.cls-1{fill:#aaf2df;}.cls-2{font-family:FiraSans-Medium, 'Fira Sans';font-size:14px;font-weight:500;}.cls-3{letter-spacing:-.04em;}.cls-4{fill:#91eddb;}.cls-5{fill:#5eead6;}.cls-6{fill:#038e8e;}.cls-7{letter-spacing:-.01em;}.cls-8{fill:#00a4bf;}.cls-9{fill:#c9f4e6;}.cls-10{fill:#046f7a;}.cls-11{fill:#0fcac7;}.cls-12{fill:#07a3a3;}.cls-13{font-family:FiraSans-Regular, 'Fira Sans';font-size:12px;}.cls-14{fill:#0bb5b5;}.cls-15{fill:#37dacf;}</style></defs><rect class="cls-9" y="19.14" width="22.85" height="22.85"/><rect class="cls-4" x="45.7" y="19.14" width="22.85" height="22.85"/><rect class="cls-14" x="137.04" y="19.14" width="22.85" height="22.85"/><rect class="cls-8" x="182.89" y="19.14" width="22.85" height="22.85"/><rect class="cls-15" x="91.48" y="19.14" width="22.85" height="22.85"/><rect class="cls-1" x="22.85" y="19.14" width="22.85" height="22.85"/><rect class="cls-5" x="68.55" y="19.14" width="22.85" height="22.85"/><rect class="cls-11" x="114.26" y="19.14" width="22.85" height="22.85"/><rect class="cls-12" x="159.96" y="19.14" width="22.85" height="22.85"/><rect class="cls-6" x="182.89" y="19.14" width="22.85" height="22.85"/><rect class="cls-10" x="205.67" y="19.14" width="22.85" height="22.85"/><text class="cls-2" transform="translate(76.93 11.93)"><tspan class="cls-3" x="0" y="0">T</tspan><tspan x="6.86" y="0">urnout (%)</tspan></text><text class="cls-13" transform="translate(16.91 54.21)"><tspan x="0" y="0">10</tspan></text><text class="cls-13" transform="translate(39.39 54.21)"><tspan x="0" y="0">20</tspan></text><text class="cls-13" transform="translate(62.21 54.34)"><tspan x="0" y="0">30</tspan></text><text class="cls-13" transform="translate(84.87 54.21)"><tspan x="0" y="0">40</tspan></text><text class="cls-13" transform="translate(107.98 54.21)"><tspan x="0" y="0">50</tspan></text><text class="cls-13" transform="translate(130.56 54.21)"><tspan x="0" y="0">60</tspan></text><text class="cls-13" transform="translate(153.95 54.21)"><tspan class="cls-7" x="0" y="0">7</tspan><tspan x="5.18" y="0">0</tspan></text><text class="cls-13" transform="translate(176.16 54.21)"><tspan x="0" y="0">80</tspan></text><text class="cls-13" transform="translate(199.24 54.21)"><tspan x="0" y="0">90</tspan></text></svg>