<?xml version="1.0" encoding="UTF-8"?><svg id="Layer_1" xmlns="http://www.w3.org/2000/svg" width="240" height="66.06" viewBox="0 0 240 66.06"><defs><style>.cls-1{fill:#fff;}.cls-2{fill:#aaf2df;}.cls-3{font-family:FiraSans-Medium, 'Fira Sans';font-size:14px;font-weight:500;}.cls-4{letter-spacing:-.04em;}.cls-5{fill:#91eddb;}.cls-6{fill:#5eead6;}.cls-7{fill:#038e8e;}.cls-8{letter-spacing:-.01em;}.cls-9{fill:#00a4bf;}.cls-10{fill:#c9f4e6;}.cls-11{fill:#046f7a;}.cls-12{fill:#0fcac7;}.cls-13{fill:#07a3a3;}.cls-14{font-family:FiraSans-Regular, 'Fira Sans';font-size:12px;}.cls-15{fill:#0bb5b5;}.cls-16{fill:#37dacf;}</style></defs><rect class="cls-1" width="240" height="66.06"/><rect class="cls-10" x="5.83" y="23.63" width="22.85" height="22.85"/><rect class="cls-5" x="51.54" y="23.63" width="22.85" height="22.85"/><rect class="cls-15" x="142.87" y="23.63" width="22.85" height="22.85"/><rect class="cls-9" x="188.72" y="23.63" width="22.85" height="22.85"/><rect class="cls-16" x="97.32" y="23.63" width="22.85" height="22.85"/><rect class="cls-2" x="28.69" y="23.63" width="22.85" height="22.85"/><rect class="cls-6" x="74.39" y="23.63" width="22.85" height="22.85"/><rect class="cls-12" x="120.09" y="23.63" width="22.85" height="22.85"/><rect class="cls-13" x="165.8" y="23.63" width="22.85" height="22.85"/><rect class="cls-7" x="188.72" y="23.63" width="22.85" height="22.85"/><rect class="cls-11" x="211.5" y="23.63" width="22.85" height="22.85"/><text class="cls-3" transform="translate(82.76 16.42)"><tspan class="cls-4" x="0" y="0">T</tspan><tspan x="6.86" y="0">urnout (%)</tspan></text><text class="cls-14" transform="translate(22.74 58.71)"><tspan x="0" y="0">10</tspan></text><text class="cls-14" transform="translate(45.22 58.71)"><tspan x="0" y="0">20</tspan></text><text class="cls-14" transform="translate(68.05 58.83)"><tspan x="0" y="0">30</tspan></text><text class="cls-14" transform="translate(90.7 58.71)"><tspan x="0" y="0">40</tspan></text><text class="cls-14" transform="translate(113.81 58.71)"><tspan x="0" y="0">50</tspan></text><text class="cls-14" transform="translate(136.4 58.71)"><tspan x="0" y="0">60</tspan></text><text class="cls-14" transform="translate(159.78 58.71)"><tspan class="cls-8" x="0" y="0">7</tspan><tspan x="5.18" y="0">0</tspan></text><text class="cls-14" transform="translate(181.99 58.71)"><tspan x="0" y="0">80</tspan></text><text class="cls-14" transform="translate(205.08 58.71)"><tspan x="0" y="0">90</tspan></text></svg>