<?xml version="1.0" encoding="UTF-8"?><svg id="Layer_1" xmlns="http://www.w3.org/2000/svg" viewBox="0 0 544.6 132.26"><defs><style>.cls-1{font-family:ArialMT, Arial;font-size:18px;}.cls-1,.cls-2{isolation:isolate;}.cls-3{fill:#aaf2df;}.cls-4{fill:#91eddb;}.cls-5{fill:#5eead6;}.cls-6{fill:#038e8e;}.cls-7{fill:#00a4bf;}.cls-8{fill:#c9f4e6;}.cls-9{fill:#046f7a;}.cls-10{fill:#0fcac7;}.cls-11{fill:#07a3a3;}.cls-2{font-family:Arial-BoldMT, Arial;font-size:22px;}.cls-12{fill:#005772;}.cls-13{fill:#0bb5b5;}.cls-14{fill:#37dacf;}</style></defs><text class="cls-2" transform="translate(52.22 29.67)"><tspan x="0" y="0">Homeless population per 10,000 residents</tspan></text><rect class="cls-8" x="13.78" y="45.58" width="47.1" height="47.1"/><rect class="cls-4" x="107.88" y="45.58" width="47.1" height="47.1"/><rect class="cls-13" x="296.08" y="45.58" width="47.1" height="47.1"/><rect class="cls-7" x="390.48" y="45.58" width="47.1" height="47.1"/><rect class="cls-14" x="202.18" y="45.58" width="47.1" height="47.1"/><rect class="cls-12" x="484.48" y="45.58" width="47.1" height="47.1"/><rect class="cls-3" x="60.78" y="45.58" width="47.1" height="47.1"/><rect class="cls-5" x="154.98" y="45.58" width="47.1" height="47.1"/><rect class="cls-10" x="249.08" y="45.58" width="47.1" height="47.1"/><rect class="cls-11" x="343.28" y="45.58" width="47.1" height="47.1"/><rect class="cls-6" x="390.48" y="45.58" width="47.1" height="47.1"/><rect class="cls-9" x="437.38" y="45.58" width="47.1" height="47.1"/><text class="cls-1" transform="translate(50.77 116.54)"><tspan x="0" y="0">20</tspan></text><text class="cls-1" transform="translate(97.84 116.54)"><tspan x="0" y="0">40</tspan></text><text class="cls-1" transform="translate(144.91 116.54)"><tspan x="0" y="0">60</tspan></text><text class="cls-1" transform="translate(191.98 116.54)"><tspan x="0" y="0">80</tspan></text><text class="cls-1" transform="translate(232.42 116.54)"><tspan x="0" y="0">100</tspan></text><text class="cls-1" transform="translate(279.2 116.53)"><tspan x="0" y="0">120</tspan></text><text class="cls-1" transform="translate(326.42 116.53)"><tspan x="0" y="0">140</tspan></text><text class="cls-1" transform="translate(373.49 116.53)"><tspan x="0" y="0">160</tspan></text><text class="cls-1" transform="translate(420.57 116.53)"><tspan x="0" y="0">180</tspan></text><text class="cls-1" transform="translate(467.64 116.53)"><tspan x="0" y="0">200</tspan></text></svg>