<?xml version="1.0" encoding="utf-8"?>
<!-- Generator: Adobe Illustrator 26.4.1, SVG Export Plug-In . SVG Version: 6.00 Build 0)  -->
<svg version="1.1" id="Layer_1" xmlns="http://www.w3.org/2000/svg" xmlns:xlink="http://www.w3.org/1999/xlink" x="0px" y="0px"
	 viewBox="0 0 543.3 125.7" style="enable-background:new 0 0 543.3 125.7;" xml:space="preserve">
<style type="text/css">
	.st0{font-family:'Arial-BoldMT';}
	.st1{font-size:22px;}
	.st2{fill:#C9F4E6;}
	.st3{fill:#91EDDB;}
	.st4{fill:#0BB5B5;}
	.st5{fill:#00A4BF;}
	.st6{fill:#37DACF;}
	.st7{fill:#005772;}
	.st8{fill:#AAF2DF;}
	.st9{fill:#5EEAD6;}
	.st10{fill:#0FCAC7;}
	.st11{fill:#07A3A3;}
	.st12{fill:#038E8E;}
	.st13{fill:#046F7A;}
	.st14{font-family:'ArialMT';}
	.st15{font-size:18px;}
</style>
<text transform="matrix(1 0 0 1 51.5948 30.19)" class="st0 st1">Homeless population per 10,000 residents</text>
<rect x="12.8" y="44.1" class="st2" width="47.1" height="47.1"/>
<rect x="106.9" y="44.1" class="st3" width="47.1" height="47.1"/>
<rect x="295.1" y="44.1" class="st4" width="47.1" height="47.1"/>
<rect x="389.5" y="44.1" class="st5" width="47.1" height="47.1"/>
<rect x="201.2" y="44.1" class="st6" width="47.1" height="47.1"/>
<rect x="483.5" y="44.1" class="st7" width="47.1" height="47.1"/>
<rect x="59.8" y="44.1" class="st8" width="47.1" height="47.1"/>
<rect x="154" y="44.1" class="st9" width="47.1" height="47.1"/>
<rect x="248.1" y="44.1" class="st10" width="47.1" height="47.1"/>
<rect x="342.3" y="44.1" class="st11" width="47.1" height="47.1"/>
<rect x="389.5" y="44.1" class="st12" width="47.1" height="47.1"/>
<rect x="436.4" y="44.1" class="st13" width="47.1" height="47.1"/>
<text transform="matrix(1 0 0 1 49.8293 111.8359)" class="st14 st15">20</text>
<text transform="matrix(1 0 0 1 96.8993 111.8358)" class="st14 st15">40</text>
<text transform="matrix(1 0 0 1 143.9691 111.8358)" class="st14 st15">60</text>
<text transform="matrix(1 0 0 1 191.0395 111.8358)" class="st14 st15">80</text>
<text transform="matrix(1 0 0 1 233.2637 111.8357)" class="st14 st15">100</text>
<text transform="matrix(1 0 0 1 280.0438 111.8356)" class="st14 st15">120</text>
<text transform="matrix(1 0 0 1 327.2639 111.836)" class="st14 st15">140</text>
<text transform="matrix(1 0 0 1 374.3338 111.836)" class="st14 st15">160</text>
<text transform="matrix(1 0 0 1 421.4138 111.836)" class="st14 st15">180</text>
<text transform="matrix(1 0 0 1 468.4838 111.836)" class="st14 st15">200</text>
</svg>
