<?xml version="1.0" encoding="UTF-8"?><svg id="Layer_1" xmlns="http://www.w3.org/2000/svg" viewBox="0 0 543.34 125.74"><defs><style>.cls-1{fill:#0dd6c7;}.cls-2{letter-spacing:-.07em;}.cls-3{fill:#65ead0;}.cls-4{fill:#10bdc6;}.cls-5{fill:#08b1c3;}.cls-6{fill:#0091be;}.cls-7{fill:#39e0cc;}.cls-8{font-family:Arial-BoldMT, Arial;font-size:24px;}.cls-9{fill:#00a4bf;}.cls-10{fill:#007dbc;}.cls-11{fill:#0fcac7;}.cls-12{fill:#81efd5;}.cls-13{fill:#9df4d9;}.cls-14{font-family:ArialMT, Arial;font-size:20px;}</style></defs><text class="cls-8" transform="translate(205.25 29.34)"><tspan class="cls-2" x="0" y="0">T</tspan><tspan x="12.88" y="0">urnout (%)</tspan></text><text class="cls-14" transform="translate(95.32 114.33)"><tspan x="0" y="0">10</tspan></text><text class="cls-14" transform="translate(53.81 114.33)"><tspan x="0" y="0">5</tspan></text><text class="cls-14" transform="translate(236.55 114.33)"><tspan x="0" y="0">25</tspan></text><text class="cls-14" transform="translate(330.55 114.33)"><tspan x="0" y="0">35</tspan></text><text class="cls-14" transform="translate(471.92 114.33)"><tspan x="0" y="0">50</tspan></text><rect class="cls-13" x="12.3" y="43.23" width="47.07" height="47.07"/><rect class="cls-3" x="106.45" y="43.23" width="47.07" height="47.07"/><rect class="cls-4" x="294.6" y="43.23" width="47.07" height="47.07"/><rect class="cls-9" x="389.04" y="43.23" width="47.07" height="47.07"/><rect class="cls-1" x="200.74" y="43.23" width="47.07" height="47.07"/><rect class="cls-10" x="483.04" y="43.23" width="47.07" height="47.07"/><rect class="cls-12" x="59.37" y="43.23" width="47.07" height="47.07"/><rect class="cls-7" x="153.52" y="43.23" width="47.07" height="47.07"/><rect class="cls-11" x="247.67" y="43.23" width="47.07" height="47.07"/><rect class="cls-5" x="341.82" y="43.23" width="47.07" height="47.07"/><rect class="cls-6" x="435.97" y="43.23" width="47.07" height="47.07"/><text class="cls-14" transform="translate(142.4 114.33)"><tspan x="0" y="0">15</tspan></text><text class="cls-14" transform="translate(189.47 114.33)"><tspan x="0" y="0">20</tspan></text><text class="cls-14" transform="translate(283.62 114.33)"><tspan x="0" y="0">30</tspan></text><text class="cls-14" transform="translate(377.77 114.33)"><tspan x="0" y="0">40</tspan></text><text class="cls-14" transform="translate(424.99 114.33)"><tspan x="0" y="0">45</tspan></text></svg>