<?xml version="1.0" encoding="UTF-8"?><svg id="Layer_1" xmlns="http://www.w3.org/2000/svg" viewBox="0 0 543.34 125.74"><defs><style>.cls-1{letter-spacing:-.07em;}.cls-2{fill:#aaf2df;}.cls-3{fill:#91eddb;}.cls-4{fill:#5eead6;}.cls-5{fill:#038e8e;}.cls-6{font-family:Arial-BoldMT, Arial;font-size:24px;}.cls-7{fill:#00a4bf;}.cls-8{fill:#c9f4e6;}.cls-9{fill:#046f7a;}.cls-10{fill:#0fcac7;}.cls-11{fill:#07a3a3;}.cls-12{font-family:ArialMT, Arial;font-size:20px;}.cls-13{fill:#005772;}.cls-14{fill:#0bb5b5;}.cls-15{fill:#37dacf;}</style></defs><text class="cls-6" transform="translate(205.71 30.19)"><tspan class="cls-1" x="0" y="0">T</tspan><tspan x="12.88" y="0">urnout (%)</tspan></text><text class="cls-12" transform="translate(95.79 115.18)"><tspan x="0" y="0">10</tspan></text><text class="cls-12" transform="translate(54.27 115.18)"><tspan x="0" y="0">5</tspan></text><text class="cls-12" transform="translate(237.01 115.18)"><tspan x="0" y="0">25</tspan></text><text class="cls-12" transform="translate(331.01 115.18)"><tspan x="0" y="0">35</tspan></text><text class="cls-12" transform="translate(472.38 115.18)"><tspan x="0" y="0">50</tspan></text><rect class="cls-8" x="12.76" y="44.08" width="47.07" height="47.07"/><rect class="cls-3" x="106.91" y="44.08" width="47.07" height="47.07"/><rect class="cls-14" x="295.06" y="44.08" width="47.07" height="47.07"/><rect class="cls-7" x="389.51" y="44.08" width="47.07" height="47.07"/><rect class="cls-15" x="201.21" y="44.08" width="47.07" height="47.07"/><rect class="cls-13" x="483.51" y="44.08" width="47.07" height="47.07"/><rect class="cls-2" x="59.84" y="44.08" width="47.07" height="47.07"/><rect class="cls-4" x="153.98" y="44.08" width="47.07" height="47.07"/><rect class="cls-10" x="248.13" y="44.08" width="47.07" height="47.07"/><rect class="cls-11" x="342.28" y="44.08" width="47.07" height="47.07"/><rect class="cls-5" x="389.51" y="44.08" width="47.07" height="47.07"/><text class="cls-12" transform="translate(142.86 115.18)"><tspan x="0" y="0">15</tspan></text><text class="cls-12" transform="translate(189.94 115.18)"><tspan x="0" y="0">20</tspan></text><text class="cls-12" transform="translate(284.08 115.18)"><tspan x="0" y="0">30</tspan></text><text class="cls-12" transform="translate(378.23 115.18)"><tspan x="0" y="0">40</tspan></text><text class="cls-12" transform="translate(425.46 115.18)"><tspan x="0" y="0">45</tspan></text><rect class="cls-9" x="436.43" y="44.08" width="47.07" height="47.07"/></svg>