<?xml version="1.0" encoding="UTF-8"?><svg id="a" xmlns="http://www.w3.org/2000/svg" viewBox="0 0 356.2 97.3"><defs><style>.cls-1{fill:#a7cf78;}.cls-2{fill:#78c360;}.cls-3{font-family:Arial-BoldMT, Arial;}.cls-3,.cls-4{fill:#231f20;font-size:16px;isolation:isolate;}.cls-5{fill:#cdda91;}.cls-6{fill:#e5deaa;}.cls-7{fill:#32a95b;}.cls-8{fill:#49b64e;}.cls-9{fill:#16828b;}.cls-4{font-family:ArialMT, Arial;}.cls-10{fill:#146183;}.cls-11{fill:#11437a;}.cls-12{letter-spacing:-.06em;}.cls-13{fill:#1d9a6c;}</style></defs><rect class="cls-11" x="308.9" y="35.8" width="32.8" height="32.8"/><rect class="cls-10" x="276.1" y="35.8" width="32.8" height="32.8"/><rect class="cls-9" x="243.3" y="35.8" width="32.8" height="32.8"/><rect class="cls-13" x="210.5" y="35.8" width="32.8" height="32.8"/><rect class="cls-7" x="177.8" y="35.8" width="32.8" height="32.8"/><rect class="cls-8" x="145" y="35.8" width="32.8" height="32.8"/><rect class="cls-2" x="112.2" y="35.8" width="32.8" height="32.8"/><rect class="cls-1" x="79.4" y="35.8" width="32.8" height="32.8"/><rect class="cls-5" x="46.6" y="35.8" width="32.8" height="32.8"/><rect class="cls-6" x="13.8" y="35.8" width="32.8" height="32.8"/><text class="cls-3" transform="translate(55.38 23.06)"><tspan x="0" y="0">3</tspan><tspan class="cls-12" x="8.9" y="0">1</tspan><tspan x="16.91" y="0">1 trash reports per 100 people</tspan></text><text class="cls-4" transform="translate(41.13 87.39)"><tspan x="0" y="0">10</tspan></text><text class="cls-4" transform="translate(73.66 87.54)"><tspan x="0" y="0">20</tspan></text><text class="cls-4" transform="translate(106.45 87.39)"><tspan x="0" y="0">30</tspan></text><text class="cls-4" transform="translate(139.12 87.39)"><tspan x="0" y="0">40</tspan></text><text class="cls-4" transform="translate(168.77 87.39)"><tspan x="0" y="0">50</tspan></text><text class="cls-4" transform="translate(202.01 87.39)"><tspan x="0" y="0">60</tspan></text><text class="cls-4" transform="translate(234.55 87.39)"><tspan x="0" y="0">70</tspan></text><text class="cls-4" transform="translate(267.33 87.39)"><tspan x="0" y="0">80</tspan></text><text class="cls-4" transform="translate(300 87.39)"><tspan x="0" y="0">90</tspan></text></svg>