<?xml version="1.0" encoding="utf-8"?>
<!-- Generator: Adobe Illustrator 26.2.1, SVG Export Plug-In . SVG Version: 6.00 Build 0)  -->
<svg version="1.1" id="a" xmlns="http://www.w3.org/2000/svg" xmlns:xlink="http://www.w3.org/1999/xlink" x="0px" y="0px"
	 viewBox="0 0 356.2 97.3" style="enable-background:new 0 0 356.2 97.3;" xml:space="preserve">
<style type="text/css">
	.st0{fill:#11437A;}
	.st1{fill:#146183;}
	.st2{fill:#16828B;}
	.st3{fill:#1D9A6C;}
	.st4{fill:#32A95B;}
	.st5{fill:#49B64E;}
	.st6{fill:#78C360;}
	.st7{fill:#A7CF78;}
	.st8{fill:#CDDA91;}
	.st9{fill:#E5DEAA;}
	.st10{fill:#231F20;}
	.st11{font-family:'FiraSans-Medium';}
	.st12{font-size:14px;}
	.st13{font-family:'FiraSans-Regular';}
</style>
<rect x="308.9" y="35.8" class="st0" width="32.8" height="32.8"/>
<rect x="276.1" y="35.8" class="st1" width="32.8" height="32.8"/>
<rect x="243.3" y="35.8" class="st2" width="32.8" height="32.8"/>
<rect x="210.5" y="35.8" class="st3" width="32.8" height="32.8"/>
<rect x="177.8" y="35.8" class="st4" width="32.8" height="32.8"/>
<rect x="145" y="35.8" class="st5" width="32.8" height="32.8"/>
<rect x="112.2" y="35.8" class="st6" width="32.8" height="32.8"/>
<rect x="79.4" y="35.8" class="st7" width="32.8" height="32.8"/>
<rect x="46.6" y="35.8" class="st8" width="32.8" height="32.8"/>
<rect x="13.8" y="35.8" class="st9" width="32.8" height="32.8"/>
<text transform="matrix(1 0 0 1 75.1576 23.06)" class="st10 st11 st12">311 trash reports per 100 people</text>
<text transform="matrix(1 0 0 1 39.063 86.4619)" class="st10 st13 st12">10</text>
<text transform="matrix(1 0 0 1 71.5918 86.6152)" class="st10 st13 st12">20</text>
<text transform="matrix(1 0 0 1 104.3838 86.4619)" class="st10 st13 st12">30</text>
<text transform="matrix(1 0 0 1 137.0444 86.4619)" class="st10 st13 st12">40</text>
<text transform="matrix(1 0 0 1 166.6968 86.4619)" class="st10 st13 st12">50</text>
<text transform="matrix(1 0 0 1 199.9385 86.4619)" class="st10 st13 st12">60</text>
<text transform="matrix(1 0 0 1 232.4785 86.4619)" class="st10 st13 st12">70</text>
<text transform="matrix(1 0 0 1 265.2598 86.4619)" class="st10 st13 st12">80</text>
<text transform="matrix(1 0 0 1 297.9307 86.4619)" class="st10 st13 st12">90</text>
</svg>
