<?xml version="1.0" encoding="UTF-8"?><svg id="Layer_1" xmlns="http://www.w3.org/2000/svg" viewBox="0 0 543.34 132.13"><defs><style>.cls-1{fill:#aaf2df;}.cls-2{font-family:FiraSans-Regular, 'Fira Sans';font-size:22px;}.cls-3{font-family:FiraSans-Medium, 'Fira Sans';font-size:24px;font-weight:500;}.cls-4{fill:#91eddb;}.cls-5{fill:#5eead6;}.cls-6{fill:#038e8e;}.cls-7{fill:#00a4bf;}.cls-8{fill:#c9f4e6;}.cls-9{fill:#046f7a;}.cls-10{fill:#0fcac7;}.cls-11{letter-spacing:-.01em;}.cls-12{letter-spacing:-.04em;}.cls-13{fill:#07a3a3;}.cls-14{fill:#0bb5b5;}.cls-15{fill:#37dacf;}</style></defs><rect class="cls-8" x="12.76" y="44.08" width="51.82" height="51.82"/><rect class="cls-4" x="116.41" y="44.08" width="51.82" height="51.82"/><rect class="cls-14" x="323.55" y="44.08" width="51.82" height="51.82"/><rect class="cls-7" x="427.53" y="44.08" width="51.82" height="51.82"/><rect class="cls-15" x="220.23" y="44.08" width="51.82" height="51.82"/><rect class="cls-1" x="64.59" y="44.08" width="51.82" height="51.82"/><rect class="cls-5" x="168.23" y="44.08" width="51.82" height="51.82"/><rect class="cls-10" x="271.88" y="44.08" width="51.82" height="51.82"/><rect class="cls-13" x="375.53" y="44.08" width="51.82" height="51.82"/><rect class="cls-6" x="427.53" y="44.08" width="51.82" height="51.82"/><rect class="cls-9" x="479.18" y="44.08" width="51.82" height="51.82"/><text class="cls-3" transform="translate(207.83 30)"><tspan class="cls-12" x="0" y="0">T</tspan><tspan x="11.76" y="0">urnout (%)</tspan></text><text class="cls-2" transform="translate(53.69 121.35)"><tspan x="0" y="0">10</tspan></text><text class="cls-2" transform="translate(104.83 121.35)"><tspan x="0" y="0">20</tspan></text><text class="cls-2" transform="translate(156.6 121.64)"><tspan x="0" y="0">30</tspan></text><text class="cls-2" transform="translate(208.06 121.35)"><tspan x="0" y="0">40</tspan></text><text class="cls-2" transform="translate(260.4 121.35)"><tspan x="0" y="0">50</tspan></text><text class="cls-2" transform="translate(311.7 121.35)"><tspan x="0" y="0">60</tspan></text><text class="cls-2" transform="translate(364.48 121.35)"><tspan class="cls-11" x="0" y="0">7</tspan><tspan x="9.5" y="0">0</tspan></text><text class="cls-2" transform="translate(415.15 121.35)"><tspan x="0" y="0">80</tspan></text><text class="cls-2" transform="translate(467.43 121.35)"><tspan x="0" y="0">90</tspan></text></svg>