<?xml version="1.0" encoding="UTF-8"?><svg id="Layer_1" xmlns="http://www.w3.org/2000/svg" width="589.79" height="132.46" viewBox="0 0 589.79 132.46"><defs><style>.cls-1{font-family:ArialMT, Arial;font-size:20px;isolation:isolate;}.cls-2{fill:none;stroke:#231f20;stroke-miterlimit:10;}.cls-3{fill:#0dd6c7;}.cls-4{fill:#65ead0;}.cls-5{fill:#900;}.cls-6{fill:#e02214;}.cls-7{fill:#0dc1d3;}.cls-8{fill:#ef9f6a;}.cls-9{fill:#ee7651;}.cls-10{fill:#00a4bf;}.cls-11{fill:#007dbc;}.cls-12{fill:#9df4d9;}.cls-13{fill:#ffcb78;}.cls-14{fill:#231f20;}.cls-15{fill:#e54c4c;}</style></defs><rect class="cls-13" x="247.67" y="11.03" width="47.07" height="47.07"/><rect class="cls-12" x="294.74" y="11.03" width="47.07" height="47.07"/><rect class="cls-4" x="341.82" y="11.03" width="47.07" height="47.07"/><rect class="cls-7" x="435.97" y="11.03" width="47.07" height="47.07"/><rect class="cls-6" x="59.37" y="11.03" width="47.07" height="47.07"/><rect class="cls-15" x="106.45" y="11.03" width="47.07" height="47.07"/><rect class="cls-9" x="153.52" y="11.03" width="47.07" height="47.07"/><rect class="cls-8" x="200.6" y="11.03" width="47.07" height="47.07"/><rect class="cls-5" x="12.3" y="11.03" width="47.07" height="47.07"/><rect class="cls-10" x="483.04" y="11.03" width="47.07" height="47.07"/><rect class="cls-3" x="388.89" y="11.03" width="47.07" height="47.07"/><rect class="cls-11" x="530.12" y="11.03" width="47.07" height="47.07"/><text class="cls-1" transform="translate(289.18 84.47)"><tspan x="0" y="0">0</tspan></text><text class="cls-1" transform="translate(377.77 84.95)"><tspan x="0" y="0">10</tspan></text><text class="cls-1" transform="translate(236.55 84.71)"><tspan x="0" y="0">5</tspan></text><text class="cls-1" transform="translate(330.7 84.47)"><tspan x="0" y="0">5</tspan></text><text class="cls-1" transform="translate(189.47 84.95)"><tspan x="0" y="0">10</tspan></text><text class="cls-1" transform="translate(424.85 84.95)"><tspan x="0" y="0">15</tspan></text><text class="cls-1" transform="translate(142.4 84.47)"><tspan x="0" y="0">15</tspan></text><text class="cls-1" transform="translate(95.32 84.47)"><tspan x="0" y="0">20</tspan></text><text class="cls-1" transform="translate(48.25 84.47)"><tspan x="0" y="0">25</tspan></text><text class="cls-1" transform="translate(471.92 85.19)"><tspan x="0" y="0">20</tspan></text><text class="cls-1" transform="translate(518.99 84.47)"><tspan x="0" y="0">25</tspan></text><g><text class="cls-1" transform="translate(252.66 116.42)"><tspan x="0" y="0">% change</tspan></text><line class="cls-2" x1="434.08" y1="110.93" x2="347.6" y2="110.93"/><path class="cls-14" d="m436.12,110.93c-2.84-1.05-6.36-2.85-8.55-4.76l1.72,4.76-1.72,4.75c2.18-1.9,5.71-3.7,8.55-4.75Z"/><line class="cls-2" x1="159.71" y1="110.93" x2="247.82" y2="110.93"/><path class="cls-14" d="m153.67,110.93c2.84,1.05,6.36,2.85,8.55,4.76l-1.72-4.76,1.72-4.75c-2.18,1.9-5.71,3.7-8.55,4.75Z"/></g></svg>