<?xml version="1.0" encoding="UTF-8"?><svg id="Layer_1" xmlns="http://www.w3.org/2000/svg" width="200" height="55" viewBox="0 0 200 55"><defs><style>.cls-1{fill:#dfe5e5;}.cls-1,.cls-2,.cls-3,.cls-4,.cls-5,.cls-6,.cls-7,.cls-8,.cls-9{stroke-width:0px;}.cls-2{fill:#9b0029;}.cls-10{font-family:Arial-BoldMT, Arial;font-weight:700;}.cls-10,.cls-11{font-size:12px;}.cls-3{fill:#c55471;}.cls-11{font-family:ArialMT, Arial;}.cls-4{fill:#d26f8a;}.cls-5{fill:#fcc3d2;}.cls-6{fill:#b73859;}.cls-7{fill:#a91c41;}.cls-8{fill:#e08ba2;}.cls-9{fill:#eea7ba;}</style></defs><rect class="cls-1" x="6.24" y="18.79" width="20.77" height="20.77"/><text class="cls-10" transform="translate(6.24 12.99)"><tspan x="0" y="0">Better prevention behaviors</tspan></text><rect class="cls-5" x="27.01" y="18.79" width="20.77" height="20.77"/><rect class="cls-9" x="47.77" y="18.79" width="20.77" height="20.77"/><rect class="cls-8" x="68.54" y="18.79" width="20.77" height="20.77"/><rect class="cls-4" x="89.31" y="18.79" width="20.77" height="20.77"/><rect class="cls-3" x="110.07" y="18.79" width="20.77" height="20.77"/><rect class="cls-6" x="130.84" y="18.79" width="20.77" height="20.77"/><rect class="cls-7" x="151.6" y="18.79" width="20.77" height="20.77"/><rect class="cls-2" x="172.37" y="18.79" width="20.77" height="20.77"/><text class="cls-11" transform="translate(13.29 52.26)"><tspan x="0" y="0">0</tspan></text><text class="cls-11" transform="translate(34.05 52.26)"><tspan x="0" y="0">1</tspan></text><text class="cls-11" transform="translate(54.82 52.26)"><tspan x="0" y="0">2</tspan></text><text class="cls-11" transform="translate(96.35 52.26)"><tspan x="0" y="0">4</tspan></text><text class="cls-11" transform="translate(75.59 52.26)"><tspan x="0" y="0">3</tspan></text><text class="cls-11" transform="translate(117.12 52.26)"><tspan x="0" y="0">5</tspan></text><text class="cls-11" transform="translate(137.88 52.26)"><tspan x="0" y="0">6</tspan></text><text class="cls-11" transform="translate(158.65 52.26)"><tspan x="0" y="0">7</tspan></text><text class="cls-11" transform="translate(179.42 52.26)"><tspan x="0" y="0">8</tspan></text></svg>