<?xml version="1.0" encoding="UTF-8"?><svg id="Layer_1" xmlns="http://www.w3.org/2000/svg" width="200" height="55" viewBox="0 0 200 55"><defs><style>.cls-1{fill:#ae274b;}.cls-1,.cls-2,.cls-3,.cls-4,.cls-5,.cls-6,.cls-7,.cls-8,.cls-9,.cls-10,.cls-11,.cls-12{stroke-width:0px;}.cls-2{fill:#dfe5e5;}.cls-3{fill:#9b0029;}.cls-4{fill:#b83a5c;}.cls-13{font-family:Arial-BoldMT, Arial;font-weight:700;}.cls-13,.cls-14{font-size:12px;}.cls-14{font-family:ArialMT, Arial;}.cls-5{fill:#f2b0c1;}.cls-6{fill:#fcc3d2;}.cls-7{fill:#cc627e;}.cls-8{fill:#d5758e;}.cls-9{fill:#c24e6d;}.cls-10{fill:#e99cb0;}.cls-11{fill:#df889f;}.cls-12{fill:#a5143a;}</style></defs><rect class="cls-2" x="5.73" y="19.34" width="15.73" height="15.73"/><text class="cls-13" transform="translate(5.73 12.54)"><tspan x="0" y="0">More prevalent diseases</tspan></text><rect class="cls-6" x="21.47" y="19.34" width="15.73" height="15.73"/><rect class="cls-5" x="37.2" y="19.34" width="15.73" height="15.73"/><rect class="cls-10" x="52.94" y="19.34" width="15.73" height="15.73"/><rect class="cls-11" x="68.67" y="19.34" width="15.73" height="15.73"/><rect class="cls-8" x="84.41" y="19.34" width="15.73" height="15.73"/><rect class="cls-7" x="100.14" y="19.34" width="15.73" height="15.73"/><rect class="cls-9" x="115.88" y="19.34" width="15.73" height="15.73"/><rect class="cls-4" x="131.61" y="19.34" width="15.73" height="15.73"/><text class="cls-14" transform="translate(9.95 50.42)"><tspan x="0" y="0">0</tspan></text><text class="cls-14" transform="translate(26 50.42)"><tspan x="0" y="0">1</tspan></text><text class="cls-14" transform="translate(41.73 50.42)"><tspan x="0" y="0">2</tspan></text><text class="cls-14" transform="translate(73.2 50.42)"><tspan x="0" y="0">4</tspan></text><text class="cls-14" transform="translate(57.47 50.42)"><tspan x="0" y="0">3</tspan></text><text class="cls-14" transform="translate(88.94 50.42)"><tspan x="0" y="0">5</tspan></text><text class="cls-14" transform="translate(104.67 50.42)"><tspan x="0" y="0">6</tspan></text><text class="cls-14" transform="translate(120.41 50.42)"><tspan x="0" y="0">7</tspan></text><text class="cls-14" transform="translate(136.14 50.42)"><tspan x="0" y="0">8</tspan></text><rect class="cls-1" x="147.35" y="19.34" width="15.73" height="15.73"/><rect class="cls-12" x="163.08" y="19.34" width="15.73" height="15.73"/><rect class="cls-3" x="178.82" y="19.34" width="15.73" height="15.73"/><text class="cls-14" transform="translate(151.88 50.42)"><tspan x="0" y="0">9</tspan></text><text class="cls-14" transform="translate(164.27 50.42)"><tspan x="0" y="0">10</tspan></text><text class="cls-14" transform="translate(183.18 50.42)"><tspan x="0" y="0">+</tspan></text></svg>