<?xml version="1.0" encoding="utf-8"?>
<!-- Generator: Adobe Illustrator 25.0.0, SVG Export Plug-In . SVG Version: 6.00 Build 0)  -->
<svg version="1.1" id="Layer_1" xmlns="http://www.w3.org/2000/svg" xmlns:xlink="http://www.w3.org/1999/xlink" x="0px" y="0px"
	 viewBox="0 0 380.7 111.9" style="enable-background:new 0 0 380.7 111.9;" xml:space="preserve">
<style type="text/css">
	.st0{fill:#89C2D9;}
	.st1{fill:#2A6F97;}
	.st2{fill:#468FAF;}
	.st3{fill:#61A5C2;}
	.st4{fill:#A9D6E5;}
	.st5{font-family:'FiraSans-Medium';}
	.st6{font-size:20px;}
	.st7{fill:#01497C;}
	.st8{fill:#013A63;}
	.st9{fill:#106B99;}
	.st10{fill:#DFE5E5;}
</style>
<rect x="89.7" y="36.2" class="st0" width="41.5" height="41.5"/>
<rect x="214.4" y="36.2" class="st1" width="41.5" height="41.5"/>
<rect x="172.8" y="36.2" class="st2" width="41.5" height="41.5"/>
<rect x="131.3" y="36.2" class="st3" width="41.5" height="41.5"/>
<rect x="48.1" y="36.2" class="st4" width="41.5" height="41.5"/>
<text transform="matrix(1 0 0 1 21.568 102.9693)" class="st5 st6">0</text>
<text transform="matrix(1 0 0 1 6.6042 24.17)" class="st5 st6">Number of better prevention behaviors</text>
<rect x="297.6" y="36.2" class="st7" width="41.5" height="41.5"/>
<rect x="339.2" y="36.2" class="st8" width="41.5" height="41.5"/>
<rect x="256" y="36.2" class="st9" width="41.5" height="41.5"/>
<rect x="6.5" y="36.2" class="st10" width="41.5" height="41.5"/>
<text transform="matrix(1 0 0 1 62.3953 103.2094)" class="st5 st6">1</text>
<text transform="matrix(1 0 0 1 105.3738 103.45)" class="st5 st6">2</text>
<text transform="matrix(1 0 0 1 147.3523 103.2094)" class="st5 st6">3</text>
<text transform="matrix(1 0 0 1 188.3314 103.2094)" class="st5 st6">4</text>
<text transform="matrix(1 0 0 1 354.2468 103.2094)" class="st5 st6">8</text>
<text transform="matrix(1 0 0 1 311.4198 103.2094)" class="st5 st6">7</text>
<text transform="matrix(1 0 0 1 271.2891 103.2094)" class="st5 st6">6</text>
<text transform="matrix(1 0 0 1 229.7723 103.2094)" class="st5 st6">5</text>
</svg>
