<?xml version="1.0" encoding="UTF-8"?><svg id="Layer_1" xmlns="http://www.w3.org/2000/svg" width="200" height="55" viewBox="0 0 200 55"><defs><style>.cls-1{fill:#9b0029;}.cls-1,.cls-2,.cls-3,.cls-4,.cls-5,.cls-6,.cls-7,.cls-8,.cls-9,.cls-10{stroke-width:0px;}.cls-2{fill:#dc829a;}.cls-3{fill:#e698ac;}.cls-11{font-family:ArialMT, Arial;}.cls-11,.cls-12{font-size:11px;}.cls-4{fill:#bb4161;}.cls-5{fill:#c65774;}.cls-6{fill:#f1adbf;}.cls-7{fill:#fcc3d2;}.cls-8{fill:#b12b4f;}.cls-12{font-family:Arial-BoldMT, Arial;font-weight:700;}.cls-9{fill:#a6163c;}.cls-10{fill:#d16c87;}</style></defs><rect class="cls-1" x="175.91" y="19.02" width="18.96" height="18.96"/><text class="cls-12" transform="translate(3.27 12.15)"><tspan x="0" y="0">Self-reported poor health (percentile)</tspan></text><rect class="cls-7" x="5.27" y="19.02" width="18.96" height="18.96"/><rect class="cls-6" x="24.23" y="19.02" width="18.96" height="18.96"/><rect class="cls-3" x="43.19" y="19.02" width="18.96" height="18.96"/><rect class="cls-2" x="62.15" y="19.02" width="18.96" height="18.96"/><rect class="cls-10" x="81.11" y="19.02" width="18.96" height="18.96"/><rect class="cls-5" x="100.07" y="19.02" width="18.96" height="18.96"/><rect class="cls-4" x="119.03" y="19.02" width="18.96" height="18.96"/><rect class="cls-8" x="137.99" y="19.02" width="18.96" height="18.96"/><text class="cls-11" transform="translate(17.36 50.8)"><tspan x="0" y="0">10</tspan></text><text class="cls-11" transform="translate(37.07 50.94)"><tspan x="0" y="0">20</tspan></text><text class="cls-11" transform="translate(74.99 50.8)"><tspan x="0" y="0">40</tspan></text><text class="cls-11" transform="translate(56.03 51.09)"><tspan x="0" y="0">30</tspan></text><text class="cls-11" transform="translate(93.95 51.09)"><tspan x="0" y="0">50</tspan></text><text class="cls-11" transform="translate(112.91 51.23)"><tspan x="0" y="0">60</tspan></text><text class="cls-11" transform="translate(131.87 51.09)"><tspan x="0" y="0">70</tspan></text><text class="cls-11" transform="translate(150.83 50.8)"><tspan x="0" y="0">80</tspan></text><text class="cls-11" transform="translate(169.79 50.8)"><tspan x="0" y="0">90</tspan></text><rect class="cls-9" x="156.95" y="19.02" width="18.96" height="18.96"/></svg>