<?xml version="1.0" encoding="UTF-8"?><svg id="Layer_1" xmlns="http://www.w3.org/2000/svg" width="238.79" height="61.28" viewBox="0 0 238.79 61.28"><defs><style>.cls-1{fill:#ff954a;}.cls-1,.cls-2,.cls-3,.cls-4,.cls-5,.cls-6,.cls-7,.cls-8,.cls-9,.cls-10,.cls-11,.cls-12,.cls-13,.cls-14{stroke-width:0px;}.cls-2{fill:#ff6b00;}.cls-15{fill:none;stroke:#000;stroke-linecap:round;stroke-miterlimit:10;}.cls-3{fill:#d2dbff;}.cls-5{fill:#ffc093;}.cls-16{letter-spacing:-.02em;}.cls-6{fill:#fff;}.cls-17{font-size:9px;}.cls-17,.cls-18{font-family:ArialMT, Arial;}.cls-7{fill:#6b73b4;}.cls-8{fill:#ffd5b8;}.cls-19{letter-spacing:0em;}.cls-9{fill:#858dc7;}.cls-10{fill:#b8c1ec;}.cls-11{fill:#5159a1;}.cls-12{fill:#9ea7d9;}.cls-18{font-size:8px;}.cls-13{fill:#ffab6e;}.cls-14{fill:#ff8025;}</style></defs><rect class="cls-2" x="0" y="15.27" width="19.9" height="19.9"/><rect class="cls-14" x="19.9" y="15.27" width="19.9" height="19.9"/><rect class="cls-1" x="39.8" y="15.27" width="19.9" height="19.9"/><rect class="cls-13" x="59.7" y="15.27" width="19.9" height="19.9"/><rect class="cls-5" x="79.6" y="15.27" width="19.9" height="19.9"/><rect class="cls-8" x="99.5" y="15.27" width="19.9" height="19.9"/><rect class="cls-3" x="119.39" y="15.27" width="19.9" height="19.9"/><rect class="cls-10" x="139.29" y="15.27" width="19.9" height="19.9"/><rect class="cls-12" x="159.19" y="15.27" width="19.9" height="19.9"/><rect class="cls-9" x="179.09" y="15.27" width="19.9" height="19.9"/><rect class="cls-7" x="198.99" y="15.27" width="19.9" height="19.9"/><rect class="cls-11" x="218.89" y="15.27" width="19.9" height="19.9"/><text class="cls-17" transform="translate(0 9.58)"><tspan x="0" y="0">Labor and </tspan><tspan class="cls-16" x="43.04" y="0">W</tspan><tspan class="cls-19" x="51.37" y="0">orking Families</tspan></text><text class="cls-17" transform="translate(148.25 9.58)"><tspan x="0" y="0">Democrats for Change</tspan></text><text class="cls-18" transform="translate(15.45 44.96)"><tspan x="0" y="0">50</tspan></text><text class="cls-18" transform="translate(35.35 44.96)"><tspan x="0" y="0">40</tspan></text><text class="cls-18" transform="translate(55.25 44.96)"><tspan x="0" y="0">30</tspan></text><text class="cls-18" transform="translate(75.15 44.96)"><tspan x="0" y="0">20</tspan></text><text class="cls-18" transform="translate(93.34 44.96)"><tspan x="0" y="0">10</tspan></text><text class="cls-18" transform="translate(117.17 44.96)"><tspan x="0" y="0">0</tspan></text><text class="cls-18" transform="translate(134.84 44.96)"><tspan x="0" y="0">10</tspan></text><text class="cls-18" transform="translate(154.74 44.96)"><tspan x="0" y="0">20</tspan></text><text class="cls-18" transform="translate(174.64 44.96)"><tspan x="0" y="0">30</tspan></text><text class="cls-18" transform="translate(194.54 44.96)"><tspan x="0" y="0">40</tspan></text><text class="cls-18" transform="translate(214.44 44.96)"><tspan x="0" y="0">50</tspan></text><text class="cls-18" transform="translate(102.5 58.68)"><tspan x="0" y="0">% margin</tspan></text><line class="cls-15" x1="99.39" y1="56.42" x2="63.22" y2="56.42"/><path class="cls-4" d="m59.6,56.42c1.7-.63,3.82-1.71,5.13-2.85l-1.03,2.85,1.03,2.85c-1.31-1.14-3.42-2.22-5.13-2.85Z"/><line class="cls-6" x1="139.39" y1="56.42" x2="179.19" y2="56.42"/><line class="cls-15" x1="139.39" y1="56.42" x2="175.57" y2="56.42"/><path class="cls-4" d="m179.19,56.42c-1.7.63-3.82,1.71-5.13,2.85l1.03-2.85-1.03-2.85c1.31,1.14,3.42,2.22,5.13,2.85Z"/></svg>