<?xml version="1.0" encoding="UTF-8"?><svg id="Layer_1" xmlns="http://www.w3.org/2000/svg" width="238.79" height="61.28" viewBox="0 0 238.79 61.28"><defs><style>.cls-1{font-size:10px;}.cls-1,.cls-2{font-family:ArialMT, Arial;}.cls-3{fill:#37dacf;}.cls-3,.cls-4,.cls-5,.cls-6,.cls-7,.cls-8,.cls-9,.cls-10,.cls-11,.cls-12{stroke-width:0px;}.cls-4{fill:#0bb5b5;}.cls-5{fill:#038e8e;}.cls-6{fill:#c9f4e6;}.cls-7{fill:#91eddb;}.cls-2{font-size:12px;}.cls-8{fill:#07a3a3;}.cls-9{fill:#0fcac7;}.cls-10{fill:#aaf2df;}.cls-11{fill:#046f7a;}.cls-12{fill:#5eead6;}.cls-13{letter-spacing:-.04em;}</style></defs><rect class="cls-6" x=".76" y="18.81" width="23.73" height="23.73"/><rect class="cls-10" x="24.49" y="18.81" width="23.73" height="23.73"/><rect class="cls-7" x="48.21" y="18.81" width="23.73" height="23.73"/><rect class="cls-12" x="71.94" y="18.81" width="23.73" height="23.73"/><rect class="cls-3" x="95.67" y="18.81" width="23.73" height="23.73"/><rect class="cls-9" x="119.39" y="18.81" width="23.73" height="23.73"/><rect class="cls-4" x="143.12" y="18.81" width="23.73" height="23.73"/><rect class="cls-8" x="166.85" y="18.81" width="23.73" height="23.73"/><rect class="cls-5" x="190.57" y="18.81" width="23.73" height="23.73"/><rect class="cls-11" x="214.3" y="18.81" width="23.73" height="23.73"/><text class="cls-2" transform="translate(91.94 13.14)"><tspan class="cls-13" x="0" y="0">T</tspan><tspan x="6.88" y="0">urnout %</tspan></text><text class="cls-1" transform="translate(18.93 55.19)"><tspan x="0" y="0">10</tspan></text><text class="cls-1" transform="translate(42.65 55.19)"><tspan x="0" y="0">20</tspan></text><text class="cls-1" transform="translate(66.38 55.19)"><tspan x="0" y="0">30</tspan></text><text class="cls-1" transform="translate(90.11 55.19)"><tspan x="0" y="0">40</tspan></text><text class="cls-1" transform="translate(113.83 55.19)"><tspan x="0" y="0">50</tspan></text><text class="cls-1" transform="translate(137.56 55.19)"><tspan x="0" y="0">60</tspan></text><text class="cls-1" transform="translate(161.29 55.19)"><tspan x="0" y="0">70</tspan></text><text class="cls-1" transform="translate(185.01 55.19)"><tspan x="0" y="0">80</tspan></text><text class="cls-1" transform="translate(208.74 55.19)"><tspan x="0" y="0">90</tspan></text></svg>