<?xml version="1.0" encoding="UTF-8"?><svg id="Layer_1" xmlns="http://www.w3.org/2000/svg" viewBox="0 0 589.79 131.89"><defs><style>.cls-1{fill:#aaf2df;}.cls-2{fill:#91eddb;}.cls-3{fill:#5eead6;}.cls-4{fill:#038e8e;}.cls-5{font-family:Arial-BoldMT, Arial;font-size:24px;}.cls-6{fill:#00a4bf;}.cls-7{fill:#c9f4e6;}.cls-8{fill:#046f7a;}.cls-9{fill:#0fcac7;}.cls-10{fill:#07a3a3;}.cls-11{font-family:ArialMT, Arial;font-size:20px;}.cls-12{fill:#005772;}.cls-13{fill:#0bb5b5;}.cls-14{fill:#37dacf;}</style></defs><text class="cls-5" transform="translate(124.2 30.5)"><tspan x="0" y="0">Homeless youth in school (%)</tspan></text><text class="cls-11" transform="translate(124.57 115.49)"><tspan x="0" y="0">4</tspan></text><text class="cls-11" transform="translate(77.5 115.49)"><tspan x="0" y="0">2</tspan></text><text class="cls-11" transform="translate(260.23 115.49)"><tspan x="0" y="0">10</tspan></text><text class="cls-11" transform="translate(354.23 115.49)"><tspan x="0" y="0">14</tspan></text><text class="cls-11" transform="translate(495.61 115.49)"><tspan x="0" y="0">20</tspan></text><rect class="cls-7" x="35.98" y="44.39" width="47.07" height="47.07"/><rect class="cls-2" x="130.13" y="44.39" width="47.07" height="47.07"/><rect class="cls-13" x="318.28" y="44.39" width="47.07" height="47.07"/><rect class="cls-6" x="412.73" y="44.39" width="47.07" height="47.07"/><rect class="cls-14" x="224.43" y="44.39" width="47.07" height="47.07"/><rect class="cls-12" x="506.73" y="44.39" width="47.07" height="47.07"/><rect class="cls-1" x="83.06" y="44.39" width="47.07" height="47.07"/><rect class="cls-3" x="177.21" y="44.39" width="47.07" height="47.07"/><rect class="cls-9" x="271.36" y="44.39" width="47.07" height="47.07"/><rect class="cls-10" x="365.51" y="44.39" width="47.07" height="47.07"/><rect class="cls-4" x="412.73" y="44.39" width="47.07" height="47.07"/><text class="cls-11" transform="translate(171.65 115.49)"><tspan x="0" y="0">6</tspan></text><text class="cls-11" transform="translate(218.72 115.49)"><tspan x="0" y="0">8</tspan></text><text class="cls-11" transform="translate(307.31 115.49)"><tspan x="0" y="0">12</tspan></text><text class="cls-11" transform="translate(401.46 115.49)"><tspan x="0" y="0">16</tspan></text><text class="cls-11" transform="translate(448.68 115.49)"><tspan x="0" y="0">18</tspan></text><rect class="cls-8" x="459.65" y="44.39" width="47.07" height="47.07"/></svg>