<?xml version="1.0" encoding="UTF-8"?><svg id="Layer_1" xmlns="http://www.w3.org/2000/svg" width="250" height="86.04" viewBox="0 0 250 86.04"><defs><style>.cls-1{fill:#97a7e3;}.cls-2{fill:#bad7f0;}.cls-3{fill:#a9bfea;}.cls-4{fill:#4130c2;}.cls-5{fill:#6460cf;}.cls-6{font-family:Arial-BoldMT, Arial;font-weight:700;}.cls-6,.cls-7{font-size:12px;}.cls-8{fill:#5348c9;}.cls-7{font-family:ArialMT, Arial;}.cls-9{fill:#e3fbff;}.cls-10{fill:#868fdd;}.cls-11{fill:#f266ef;}.cls-12{fill:#3018bc;}.cls-13{fill:#7578d6;}.cls-14{fill:#0f007c;}</style></defs><rect class="cls-9" x="2.79" y="24.02" width="25.29" height="16.86"/><rect class="cls-14" x="230.36" y="24.02" width="16.86" height="16.86"/><rect class="cls-2" x="28.07" y="24.02" width="16.86" height="16.86"/><rect class="cls-3" x="44.93" y="24.02" width="16.86" height="16.86"/><rect class="cls-1" x="61.79" y="24.02" width="16.86" height="16.86"/><rect class="cls-10" x="78.64" y="24.02" width="16.86" height="16.86"/><rect class="cls-13" x="95.5" y="24.02" width="16.86" height="16.86"/><rect class="cls-5" x="112.36" y="24.02" width="16.86" height="16.86"/><rect class="cls-8" x="129.21" y="24.02" width="16.86" height="16.86"/><rect class="cls-4" x="146.07" y="24.02" width="42.14" height="16.86"/><rect class="cls-12" x="188.21" y="24.02" width="42.14" height="16.86"/><rect class="cls-11" x="22.22" y="64.23" width="14.38" height="14.38"/><text class="cls-7" transform="translate(21.4 54)"><tspan x="0" y="0">30</tspan></text><text class="cls-7" transform="translate(56.44 54)"><tspan x="0" y="0">50</tspan></text><text class="cls-7" transform="translate(88.83 54)"><tspan x="0" y="0">70</tspan></text><text class="cls-7" transform="translate(178.2 54)"><tspan x="0" y="0">150</tspan></text><text class="cls-7" transform="translate(220.35 54)"><tspan x="0" y="0">200</tspan></text><text class="cls-7" transform="translate(38.26 54)"><tspan x="0" y="0">40</tspan></text><text class="cls-7" transform="translate(71.97 54)"><tspan x="0" y="0">60</tspan></text><text class="cls-7" transform="translate(105.68 54)"><tspan x="0" y="0">80</tspan></text><text class="cls-7" transform="translate(122.54 54)"><tspan x="0" y="0">90</tspan></text><text class="cls-7" transform="translate(146.07 54)"><tspan x="0" y="0">100</tspan></text><text class="cls-7" transform="translate(40.36 75.3)"><tspan x="0" y="0">= no height change, but extra density</tspan></text><text class="cls-6" transform="translate(82.67 15.05)"><tspan x="0" y="0">Height limit (ft)</tspan></text></svg>