<?xml version="1.0" encoding="utf-8"?>
<!-- Generator: Adobe Illustrator 27.7.0, SVG Export Plug-In . SVG Version: 6.00 Build 0)  -->
<svg version="1.1" id="Layer_1" xmlns="http://www.w3.org/2000/svg" xmlns:xlink="http://www.w3.org/1999/xlink" x="0px" y="0px"
	 viewBox="0 0 564.9 118" style="enable-background:new 0 0 564.9 118;" xml:space="preserve">
<style type="text/css">
	.st0{fill:#595DDA;}
	.st1{fill:#6870DF;}
	.st2{fill:#7782E4;}
	.st3{fill:#95A7EE;}
	.st4{fill:#1D13C6;}
	.st5{fill:#2C25CB;}
	.st6{fill:#3B38D0;}
	.st7{fill:#4A4AD5;}
	.st8{fill:#0400B2;}
	.st9{fill:#A4BAF3;}
	.st10{fill:#8695E9;}
	.st11{fill:#D8D8D8;}
	.st12{font-family:'Arial';}
	.st13{font-size:20px;}
	.st14{font-size:28px;}
</style>
<rect x="282.5" y="38.1" class="st0" width="47.1" height="47.1"/>
<rect x="235.4" y="38.1" class="st1" width="47.1" height="47.1"/>
<rect x="188.3" y="38.1" class="st2" width="47.1" height="47.1"/>
<rect x="94.2" y="38.1" class="st3" width="47.1" height="47.1"/>
<rect x="470.8" y="38.1" class="st4" width="47.1" height="47.1"/>
<rect x="423.7" y="38.1" class="st5" width="47.1" height="47.1"/>
<rect x="376.6" y="38.1" class="st6" width="47.1" height="47.1"/>
<rect x="329.5" y="38.1" class="st7" width="47.1" height="47.1"/>
<rect x="517.8" y="38.1" class="st8" width="47.1" height="47.1"/>
<rect x="47.1" y="38.1" class="st9" width="47.1" height="47.1"/>
<rect x="141.2" y="38.1" class="st10" width="47.1" height="47.1"/>
<rect y="38.1" class="st11" width="47.1" height="47.1"/>
<text transform="matrix(1 0 0 1 359.9152 110.9885)" class="st12 st13">350</text>
<text transform="matrix(1 0 0 1 218.6953 110.7485)" class="st12 st13">200</text>
<text transform="matrix(1 0 0 1 312.8453 110.5086)" class="st12 st13">300</text>
<text transform="matrix(1 0 0 1 171.6152 110.9885)" class="st12 st13">150</text>
<text transform="matrix(1 0 0 1 406.9952 110.9885)" class="st12 st13">400</text>
<text transform="matrix(1 0 0 1 124.5452 110.5086)" class="st12 st13">100</text>
<text transform="matrix(1 0 0 1 83.0267 110.5086)" class="st12 st13">50</text>
<text transform="matrix(1 0 0 1 41.5183 110.5086)" class="st12 st13">0</text>
<text transform="matrix(1 0 0 1 454.0652 111.2286)" class="st12 st13">450</text>
<text transform="matrix(1 0 0 1 501.1353 110.5086)" class="st12 st13">500</text>
<text transform="matrix(1 0 0 1 265.7603 110.5083)" class="st12 st13">250</text>
<text transform="matrix(1 0 0 1 129.2619 26.6974)" class="st12 st14">Employees living in county</text>
</svg>
