<?xml version="1.0" encoding="utf-8"?>
<!-- Generator: Adobe Illustrator 25.0.0, SVG Export Plug-In . SVG Version: 6.00 Build 0)  -->
<svg version="1.1" id="Layer_1" xmlns="http://www.w3.org/2000/svg" xmlns:xlink="http://www.w3.org/1999/xlink" x="0px" y="0px"
	 viewBox="0 0 609.2 181.1" style="enable-background:new 0 0 609.2 181.1;" xml:space="preserve">
<style type="text/css">
	.st0{fill:#FFCCD5;}
	.st1{fill:#C9184A;}
	.st2{fill:#FF4D6D;}
	.st3{fill:#FF758F;}
	.st4{fill:#FF8FA3;}
	.st5{fill:#FCE6EB;}
	.st6{font-family:'FiraSans-Medium';}
	.st7{font-size:23.2638px;}
	.st8{font-size:26.4067px;}
	.st9{fill:#800F2F;}
	.st10{fill:#19050C;}
	.st11{fill:#350917;}
	.st12{fill:#590D22;}
	.st13{fill:#A4133C;}
	.st14{fill:#FCF5F7;}
</style>
<rect x="112.3" y="58.4" class="st0" width="48.3" height="48.3"/>
<rect x="305.6" y="58.4" class="st1" width="48.3" height="48.3"/>
<rect x="257.3" y="58.4" class="st2" width="48.3" height="48.3"/>
<rect x="208.9" y="58.4" class="st3" width="48.3" height="48.3"/>
<rect x="160.6" y="58.4" class="st4" width="48.3" height="48.3"/>
<rect x="63.9" y="58.4" class="st5" width="48.3" height="48.3"/>
<text transform="matrix(1 0 0 1 33.0134 136.0979)" class="st6 st7">0</text>
<text transform="matrix(0.8556 0 0 1 15.6068 43.2333)" class="st6 st8">Number of diseases with higher risk than the overall city</text>
<rect x="402.4" y="58.4" class="st9" width="48.3" height="48.3"/>
<rect x="547.3" y="58.4" class="st10" width="48.3" height="48.3"/>
<rect x="499" y="58.4" class="st11" width="48.3" height="48.3"/>
<rect x="450.7" y="58.4" class="st12" width="48.3" height="48.3"/>
<rect x="354" y="58.4" class="st13" width="48.3" height="48.3"/>
<rect x="15.5" y="58.4" class="st14" width="48.3" height="48.3"/>
<text transform="matrix(1 0 0 1 80.5031 136.3772)" class="st6 st7">1</text>
<text transform="matrix(1 0 0 1 553.5788 136.0989)" class="st6 st7">10+</text>
<text transform="matrix(1 0 0 1 508.7263 136.0989)" class="st6 st7">10</text>
<text transform="matrix(1 0 0 1 468.8112 136.3772)" class="st6 st7">9</text>
<text transform="matrix(1 0 0 1 130.4948 136.6575)" class="st6 st7">2</text>
<text transform="matrix(1 0 0 1 179.3239 136.3772)" class="st6 st7">3</text>
<text transform="matrix(1 0 0 1 226.9909 136.3772)" class="st6 st7">4</text>
<text transform="matrix(1 0 0 1 419.9821 136.3772)" class="st6 st7">8</text>
<text transform="matrix(1 0 0 1 370.1657 136.3772)" class="st6 st7">7</text>
<text transform="matrix(1 0 0 1 323.486 136.3772)" class="st6 st7">6</text>
<text transform="matrix(1 0 0 1 275.194 136.3772)" class="st6 st7">5</text>
</svg>
