<?xml version="1.0" encoding="utf-8"?>
<!-- Generator: Adobe Illustrator 28.1.0, SVG Export Plug-In . SVG Version: 6.00 Build 0)  -->
<svg version="1.1" id="Layer_1" xmlns="http://www.w3.org/2000/svg" xmlns:xlink="http://www.w3.org/1999/xlink" x="0px" y="0px"
	 viewBox="0 0 600 460" style="enable-background:new 0 0 600 460;" xml:space="preserve">
<style type="text/css">
	.st0{fill:#FFFFFF;}
	.st1{fill:#FDDBC8;}
	.st2{fill:#E6E6E6;}
	.st3{fill:#94A18A;}
	.st4{fill:#FFE7DB;}
	.st5{fill:#D5AF9F;}
	.st6{fill:#CDEBFF;}
	.st7{fill:#8D5825;}
	.st8{fill:none;stroke:#000000;stroke-width:0.84;stroke-linecap:round;stroke-linejoin:round;stroke-miterlimit:10;}
</style>
<g id="Ink_00000039853241248859708300000004253071744731794870_" transform="translate(-769.00, -493.00)">
	<g id="XMLID_00000142157769327901578140000004405673788238962879_">
		<g>
			<path class="st0" d="M843.5,684.1L843.5,684.1L843.5,684.1L843.5,684.1z M844,685.2c0,0.2-0.1,0.5-0.1,0.6s0,0.1-0.1,0.1
				c0,0.1-0.1,0.1-0.1,0.1c-0.1,0.1-0.1,0.1-0.2,0.1c-0.1,0-0.2-0.1-0.3-0.3l0,0c0-0.1-0.1-0.2-0.1-0.3c0,0,0,0,0-0.1
				c0-0.2-0.1-0.4,0-0.6c0-0.2,0.1-0.6,0.2-0.8l0,0c0.1-0.1,0.2-0.1,0.3-0.1s0.1,0.1,0.1,0.1l0,0c0.1,0.1,0.1,0.2,0.1,0.3
				C843.9,684.5,844,685,844,685.2z"/>
			<path class="st0" d="M834.3,686.6c-0.1,0.1-0.2,0.1-0.2,0.1c-0.1,0-0.1-0.1-0.2-0.1v-0.1l0,0c0,0,0-0.1-0.1-0.1
				c-0.1-0.1-0.1-0.4-0.1-0.7c0-0.1,0-0.1,0-0.2c0-0.1,0-0.2,0-0.3l0,0c0-0.1,0-0.3,0-0.3c0-0.1,0.1-0.3,0.2-0.4l0,0
				c0.1,0,0.1-0.1,0.1-0.1c0.1,0,0.1,0.1,0.2,0.1c0.1,0.2,0.1,1.3,0.1,1.6C834.5,686.3,834.4,686.5,834.3,686.6z"/>
			<path class="st0" d="M841.8,696.1L841.8,696.1c-0.1,0.1-0.1,0-0.2,0c-0.3,0-0.9-0.3-1.1-0.4c-0.1-0.1-0.3-0.3-0.3-0.4
				c-0.1-0.2,0-0.6,0.1-0.6s0.3-0.1,0.4-0.1s0.4,0.1,0.4,0.1s0.3,0,0.6,0.1c0.1,0,0.1,0,0.1,0h0.1l0,0l0,0c-0.1,0.1-0.5,0.4-0.5,0.6
				c0,0.3,0.1,0.6,0.3,0.6C841.8,696.1,841.8,696.1,841.8,696.1z"/>
			<path class="st1" d="M838.5,683.5c0.1,0,0.1,0,0.2-0.1h0.1c0.1-0.1,0.1-0.1,0.1-0.1c0.1-0.1,0.1-0.1,0.2-0.2s0.1-0.4,0.1-0.6
				c-0.1-0.3-0.3-0.6-0.5-0.7c-0.2-0.1-1.3-0.1-1.8-0.2c-0.3-0.1-1.8-0.8-2.7-1.2c-0.4-0.2-1.1-0.3-1.5-0.4c-0.2,0-1.3,0.1-1.6,0.1
				c-0.2,0.1-0.5,0.3-0.6,0.4c-0.1,0.1-0.2,0.4-0.1,0.6c0,0.1,0.1,0.3,0.3,0.4c0.1,0.1,0.4,0.2,0.6,0.2c0.3,0,1.3-0.1,1.7-0.1
				c0.2,0,1.6,0.2,1.8,0.3c0.3,0.1,0.7,0.3,0.9,0.4c0.1,0.1,0.8,0.6,0.9,0.6c0.3,0.2,0.7,0.3,0.9,0.3
				C837.7,683.5,838.4,683.5,838.5,683.5z M843.3,686c0,0.1,0.1,0.1,0.1,0.2l0,0c0.1,0.1,0.1,0.3,0.2,0.3c0.1,0,0.3-0.1,0.3-0.2
				c0.1-0.3,0.2-1.2,0.2-1.6c0-0.2-0.1-0.4-0.2-0.5c0,0,0-0.1-0.1-0.1l0,0c-0.1-0.1-0.1-0.1-0.1-0.1c-0.1,0-0.2,0-0.3,0.1
				c0,0,0,0.1-0.1,0.1l0,0c-0.1,0.1-0.3,0.6-0.3,0.8c0,0.1,0.1,0.4,0.1,0.6l0,0C843.2,685.7,843.2,685.8,843.3,686L843.3,686
				C843.2,685.9,843.2,685.9,843.3,686z M821.3,686.1c-0.1,0.1-0.3,0.1-0.3,0.2l-1.6-0.1c0.1-0.2,0.2-0.5,0.3-0.6s0.1-0.1,0.1-0.2
				c0.3-0.3,0.6-0.6,0.8-0.7c0.4-0.2,1-0.4,1.3-0.4c0.6,0,0.9,0,1.3,0.1c0.4,0.1,0.7,0.3,0.8,0.4l0.1,0.1l0,0c0,0.1,0,0.1,0,0.4
				c0,0.1,0.1,0.3,0.1,0.3c0.1,0.1,0.3,0.1,0.8,0.1c0.2,0,0.6-0.1,0.6-0.1c0.1-0.1-0.1-2.3-0.1-2.3s0.6-0.4,1.3-1.1
				c0.2-0.1,0.6-0.5,0.8-0.6c0.3-0.2,0.5-0.4,0.5-0.6c0.1-0.1-0.1-0.4-0.2-0.8c-0.3-0.6-0.6-1.3-0.7-1.5v-0.1h0.1
				c0-0.1,0.1-0.4,0.3-0.6c0.1-0.2,1-0.8,1.5-1c0.3-0.1,1.1-0.5,1.6-0.7c0.8-0.3,1.5-0.5,2-0.6s1.5-0.1,2.2-0.1
				c0.9,0,2.8,0.3,4.1,0.3c0.6,0,3.7,0.7,4.2,0.8c0.6,0.1,0.9,0.1,1.4,0.1c0.1,0.1,0.1,0.3,0.2,0.4c0.1,0.4,0.4,1.5,0.5,1.9
				c0,0.1,0,0.4,0,0.4l0.1,0.1c-0.2,0.2-0.4,0.6-0.6,0.8c-0.2,0.3-0.4,0.6-0.7,0.7c-0.3,0.1-0.8,0.3-1.1,0.4c-0.1,0-0.8,0.1-0.9,0.1
				c-0.2,0.1-0.5,0.1-0.6,0.3c-0.1,0.1-0.3,0.3-0.4,0.4c-0.1,0.2-0.1,0.6,0,0.8c0.1,0.2,0.4,0.4,0.6,0.4c0.1,0,0.3,0,0.3-0.1v0.1
				c0.1,0,0.4-0.1,0.5-0.1c0.2-0.1,2.5-0.9,2.8-1.1c0.1-0.1,0.1-0.1,0.3-0.2v0.1c0.1,0.3,0.1,0.7,0.1,0.8c0,0.4,0.1,1.1,0.1,1.1
				c0,0.1,0,0.1,0,0.3l0.1,0.1l0,0l0.1,0.1c0,0,0.4,0.4,0.4,0.5c0.1,0.2,0.4,1.2,0.5,1.4c0,0,0,0.1,0,0.2v0.1c0.3,0,0.6,0.1,0.8,0.1
				c0.4,0.1,1.1,0.6,1.5,0.9c0.2,0.2,0.6,0.6,0.7,0.8c0.1,0.2,0.2,0.8,0.2,1c0,0.5-0.2,1.6-0.3,2.1c-0.1,0.3-0.2,0.4-0.3,0.6
				c-0.1,0.1-0.3,0.4-0.5,0.5c-0.2,0.1-0.5,0.3-0.8,0.3c-0.3,0.1-0.7,0.1-1.4,0.2c-0.1,0.1-0.1,0.1-0.1,0.1
				c-0.1,0.1-0.7,0.8-0.8,0.8l-0.1,0.1v0.1c-0.1,0-0.1,0-0.1,0c-1.9,0.2-2.8,0.3-3.7,0.4l0,0l0,0h-0.1c-0.1,0-0.1,0-0.1,0
				c-0.3,0-0.5-0.1-0.6-0.1s-0.4-0.1-0.4-0.1c-0.1,0-0.4,0.1-0.4,0.1c-0.1,0.1-0.1,0.4-0.1,0.6c0.1,0.1,0.1,0.3,0.3,0.4
				c0.2,0.1,0.8,0.4,1.1,0.4c0,0,0.1,0,0.2,0.1c0.1,0,0.1,0.1,0.1,0.1c0.4,0,1-0.1,1.9-0.1v0.1c-0.1,0.1-0.2,0.1-0.5,0.3l0,0
				l-0.1,0.1c-0.1,0.1-0.2,0.2-0.2,0.2c-0.2,0.2-1.1,0.7-1.3,0.9c-0.4,0.3-1.3,0.6-1.7,0.7c-0.3,0.1-1.8,0.4-2,0.4
				c-0.5,0.1-1.6,0.1-2.2,0.1c-0.4,0-1.6,0-2.3-0.1c-0.6-0.1-1.8-0.3-2.3-0.4c-0.7-0.1-1.4-0.4-1.7-0.6c-0.1,0-0.1-0.1-0.1-0.1
				c-0.5-0.3-1.3-0.6-1.5-0.8c-0.1-0.1-1.6-1.1-1.9-1.2c-0.4-0.2-1.1-0.6-1.3-0.8l0,0c-0.1-0.1-0.1-0.1-0.1-0.2
				c-0.1-0.1-0.3-0.4-0.4-0.7c-0.3-0.4-0.6-1.5-0.6-2c-0.1-0.8-0.1-1.2-0.1-2.1c0-0.4,0-0.6,0-0.7l-0.1-0.1c0.1-0.1,0.1-0.1,0.2-0.1
				l0.1-1.8h-0.1c0,0-0.3-0.5-0.4-0.8c-0.3-0.3-0.9-0.8-1.1-0.8C821.8,685.9,821.5,686,821.3,686.1z M834.7,686.4L834.7,686.4
				C834.7,686.3,834.7,686.3,834.7,686.4L834.7,686.4L834.7,686.4v-0.2l0,0c0.1-0.5,0.1-1.3,0-1.5l0,0v-0.1
				c-0.1-0.1-0.1-0.2-0.2-0.3h-0.1c-0.1,0-0.1,0-0.1,0c-0.1,0.1-0.3,0.3-0.3,0.4s0,0.3,0,0.5l0,0c0,0.1,0,0.2,0,0.3s0,0.1,0,0.2
				c0,0.4,0.1,0.7,0.1,0.8c0.1,0.2,0.2,0.3,0.3,0.4c0.1,0,0.2,0,0.3-0.1c0,0,0,0,0.1-0.1l0,0c0-0.1,0.1-0.1,0.1-0.3l0,0
				C834.8,686.5,834.8,686.5,834.7,686.4L834.7,686.4L834.7,686.4L834.7,686.4L834.7,686.4L834.7,686.4z"/>
			<path class="st2" d="M851.8,694.3L851.8,694.3L851.8,694.3z M841.8,696.2L841.8,696.2L841.8,696.2c-0.2-0.2-0.4-0.5-0.4-0.7
				c0-0.3,0.4-0.6,0.5-0.6c0.8-0.1,1.8-0.2,3.7-0.4c0.1,0,0.1,0,0.1,0c0.9-0.1,3.8-0.3,3.9-0.3c1.9,0,4.2-0.1,4.7-0.1l0,0
				c-0.1,0.1-0.1,0.1-0.3,0.3c-0.1,0.1-0.6,0.6-0.9,1c-0.1,0.1-0.1,0.1-0.1,0.2l0,0v0.1c-0.1,0-0.1,0-0.1,0
				c-0.7-0.1-2.1,0.1-3.8,0.2c-0.3,0-0.8,0.1-1.2,0.1s-0.9,0.1-0.9,0.1c-0.9,0-1.8,0.1-2.5,0.1c-0.3,0-0.5,0-0.8,0
				C842.8,696.2,842.2,696.2,841.8,696.2C841.9,696.3,841.8,696.3,841.8,696.2z"/>
			<path class="st1" d="M841.8,694.8C841.9,694.8,841.9,694.8,841.8,694.8C841.9,694.8,841.9,694.8,841.8,694.8z"/>
			<path class="st1" d="M841.8,694.8L841.8,694.8C841.8,694.8,841.8,694.8,841.8,694.8z"/>
			<path class="st3" d="M823.7,700.2c0.1-0.1,0.3-0.2,0.4-0.2l0,0c0.1,0.4,0.2,0.7,0.3,0.9c0.1,0.6,0.1,1.1,0.1,1.3h0.1l0,0l0,0
				c0.1-0.1,0.4-0.4,0.6-0.5c0.3-0.2,0.6-0.3,1-0.4c0.5-0.1,0.8-0.2,1.1-0.2c0.4,0.1,1.5,0.3,1.9,0.4c0.3,0.1,0.8,0.4,1.1,0.5
				c0.5,0.3,1,0.8,1.6,1.5c0.4,0.5,0.8,1.1,1.1,1.8c0.1,0.1,0.1,0.2,0.1,0.3v0.1l0,0c0.2,0.9,0.3,2.4,0.4,3.7c0,1.3,0.1,3.8,0.1,5.1
				c0.1,1.3,0.3,3.7,0.4,4.6c0.1,0.9,0.6,3.1,0.8,4.2c0.1,0.6,0.4,1.6,0.6,2.1c0.4,1.2,1.1,3.4,1.6,4.6c0.5,1.5,1.9,6.6,2.5,8.9
				c0.2,0.8,0.7,3.3,0.8,4c0.1,0.5,0.1,1.2,0.2,1.9c0,0.4,0.1,0.7,0.1,1.1c-0.1,0-0.1,0.1,0,0.1c0.1,0.8,0.1,1.4,0.1,1.6
				c0,0.3,0,0.5,0,0.8c0,1.1,0.1,2.2,0.1,2.5c0,0.2,0,0.3,0,0.5v0.1c-0.2,0.1-0.6,0.1-0.9,0.1s-1.5-0.3-2.1-0.3
				c-0.5-0.1-1.8-0.2-2.3-0.2c-0.8,0-3-0.1-4.2-0.1c-0.6-0.1-1.8-0.2-2.4-0.2c-0.9-0.1-1.6-0.3-2.2-0.4c-1-0.3-1.6-0.4-2.2-0.6
				c-1.1-0.4-2.8-1.3-3.2-1.5l0,0c-0.4-1-1-2.1-1.3-2.7c-0.5-0.8-2.5-3.6-2.7-3.9c-0.1-0.2-0.8-0.9-1.3-1.3
				c-0.2-0.2-0.9-0.7-1.6-1.2c-0.1-0.6-0.3-1.5-0.4-2.2c-0.1-0.6-0.1-2.2-0.2-2.4c0-0.4,0.2-2.5,0.4-4c0.3-1.6,0.5-3,0.9-4.7
				c0.1-0.3,0.2-0.7,0.3-1.1c0.3-0.9,0.6-2.2,0.7-2.9c0.1-1.1,0.4-3.2,0.4-4.3c0-1.3,0.1-3.6,0.1-4.7c-0.1-2.4-0.1-5.9-0.1-7
				c0-0.4,0-1,0-1.5c0-0.3,0.1-0.5,0.1-0.6c0.1-0.2,0.4-0.4,0.8-0.6C819.8,702,822.9,700.6,823.7,700.2z"/>
			<path class="st4" d="M842.8,745.3c0.2,0,1,0.1,1.1,0.1s0.2,0,0.4,0c0.5,0,1.3-0.1,1.7-0.1c0.3,0,0.6-0.1,0.7-0.1h0.1l0,0
				c-0.1,0.3-0.1,0.6-0.1,0.9c-0.2,0-0.6,0-0.6,0c-0.2,0-0.8,0.1-0.8,0.1c-0.1-0.1-0.4-0.1-0.6-0.1c-0.6-0.1-1.4,0-2.3-0.1
				c-0.3,0-0.6,0-0.6,0.1c-0.1,0-1.2-0.1-1.5-0.1c0-0.3-0.1-0.7-0.1-1.1h0.3c0.1,0,0.4,0.1,0.6,0.1
				C841.9,745.2,842.4,745.2,842.8,745.3z"/>
			<path class="st5" d="M812.2,726.5l0.1,0.2h-0.1c-0.1,0-0.1,0-0.1,0c-0.1,0-0.2,0-0.2,0c-0.2,0-0.8,0.3-0.9,0.3
				c-0.2,0.1-0.6,0.1-0.8,0.1c-0.5,0-1.3-0.3-1.8-0.4c-0.4-0.2-1-0.4-1.8-0.6c-0.1,0-1.3-0.4-1.6-0.4v-0.1l0,0c0,0-0.1-0.1-0.1-0.2
				c-0.1-0.1-0.9-1.1-1.3-1.4c-0.2-0.1-0.6-0.4-0.7-0.6c-0.2-0.2-0.6-0.8-1.1-1.3c-0.5-0.6-0.9-1.2-1-1.6c-0.1-0.2-0.1-0.5-0.1-0.6
				s0.3-0.4,0.4-0.5c0.2-0.1,0.5-0.1,1-0.1c0.3,0,0.7,0,0.8,0s0.4,0.2,0.8,0.3l0,0l0,0c0,0,0,0-0.1,0c0,0,0,0,0-0.1l-0.1-0.3
				c0-0.2,0-0.4,0-0.6c0.1-0.1,0.3-0.5,0.5-0.6c0.2-0.1,0.6-0.2,0.8-0.2c0.4,0,1.3,0.1,1.6,0.3c0.3,0.1,0.9,0.5,1.2,0.8l0.2-0.1
				c0.1,0,0.1-0.1,0.3-0.1c0.2-0.1,0.4-0.2,0.7-0.3c0.5-0.3,1-0.5,1.1-0.6s0.5-0.1,0.9-0.1c0.3,0,0.7,0.1,0.8,0.1
				c0.1,0.1,0.3,0.3,0.4,0.4c0.1,0.1,0.1,0.5,0,0.7c0.1-0.1,0.3-0.2,0.6-0.3c0.3-0.1,0.8-0.3,0.9-0.3c0.2,0,0.5,0.1,0.6,0.2
				s0.3,0.4,0.3,0.6c0.1,0.3,0.1,0.7,0.1,0.9c0,0.3-0.1,0.6-0.2,0.8c-0.1,0.1-0.3,0.4-0.4,0.6c-0.1,0.1-0.1,0.1-0.3,0.2l0,0
				c-0.1,0.1-0.3,0.2-0.3,0.3c-0.1,0.1-0.3,0.3-0.4,0.4c-0.1,0.2-0.3,0.3-0.3,0.4c0,0,0,0,0,0.1c-0.1,0-0.2,0-0.3,0.1
				s-0.5,0.2-0.8,0.3c-0.3,0.1-0.6,0.3-0.8,0.4c-0.1,0.1-0.6,0.6-0.7,0.7c-0.2,0.2-0.4,0.6-0.5,0.9s0,0.7,0.1,0.8s0.3,0.4,0.4,0.4
				c0.1,0.1,0.4,0.1,0.6,0.1c0.1,0,0.8-0.1,1.2-0.1v0.1C812.2,726.5,812.2,726.5,812.2,726.5z"/>
			<path class="st3" d="M825.2,701.8c-0.3,0.1-0.6,0.4-0.6,0.5l0,0l0,0h-0.1c0-0.3,0-0.7-0.1-1.3c-0.1-0.3-0.2-0.6-0.3-0.9
				c-0.1-0.4-0.2-0.8-0.2-0.9c-0.1-0.4-0.1-1.3,0-1.8s0.3-1.2,0.4-1.5c0.1-0.1,0.3-0.4,0.5-0.6l0,0l0,0c0.3,0.2,0.9,0.6,1.3,0.8
				c0.2,0.1,1.7,1.1,1.9,1.2c0.2,0.1,1,0.5,1.5,0.8l0,0c0.4,0.5,0.6,0.9,0.9,1.6c0,0.1,0.1,0.1,0.1,0.1c0.3,0.5,0.8,1.6,1.1,2.1
				c0.3,0.5,0.6,1.5,0.8,2c0.2,0.5,0.4,1.1,0.5,1.7c0,0.1,0.1,0.3,0.1,0.4c0,0.1,0,0.1,0,0.1c0-0.1,0-0.1,0-0.1
				c-0.1-0.1-0.1-0.2-0.1-0.3c-0.3-0.6-0.7-1.3-1.1-1.8c-0.6-0.7-1.1-1.3-1.6-1.5c-0.3-0.1-0.8-0.4-1.1-0.5
				c-0.4-0.2-1.5-0.4-1.9-0.4c-0.3,0-0.6,0.1-1.1,0.2C825.8,701.5,825.4,701.6,825.2,701.8z"/>
			<path d="M841.4,794.9c0.3,0.1,2.3,0.6,2.4,0.6c0,0,0.1,0,0.3,0h0.1c0,0,0-0.1-0.1-0.2c0-0.2-0.1-0.9-0.1-1.1
				c0.1,0,0.2,0.1,0.4,0.3c0.6,0.5,1.1,0.9,1.6,1.1c0.5,0.3,1.5,0.8,2,0.9c0.3,0.1,1.3,0.4,1.8,0.4c0.5,0.1,1.7,0.3,2,0.3
				c0.4,0.1,1.9,0,2,0c1.1,0,3.2-0.1,4.6-0.3c0.6-0.1,1.8-0.3,2.2-0.3c0.3-0.1,1.1-0.3,1.5-0.5c0.2-0.1,0.3-0.1,0.3-0.1
				c0.1,0,0.3,0,0.3,0.1c0.1,0.1,0.1,0.4,0.1,0.6c0,0.1-0.1,0.3-0.2,0.3c-0.1,0.1-0.5,0.3-0.8,0.4c-0.3,0.1-1.5,0.2-1.9,0.2
				c-0.6,0-1,0.1-2.2,0.3c-0.4,0.1-1.3,0.1-2,0.1c-0.9-0.1-1.3,0-2.3,0.1c-0.4,0-1.5,0.1-1.9,0.1c-0.8,0-1.5-0.1-2-0.3
				c-0.9-0.3-3.5-1.2-3.7-1.3c-0.3-0.2-0.6-0.5-0.8-0.8c-0.2-0.4-0.3-0.5-0.3-0.5l-0.1,1c-0.1,0-1.3-0.2-1.5-0.3
				c-1.8-0.5-2.4-0.7-2.5-0.8s-0.3-0.6-0.3-0.9c0-0.1,0-0.3,0-0.4c0.1,0,0.1,0,0.1,0s0.1,0,0.1,0.1
				C840.8,794.5,841.2,794.8,841.4,794.9z"/>
			<path class="st2" d="M821.2,748.4c0.5,0.3,2.2,1.1,3.2,1.5c0.5,0.2,1.1,0.4,2.2,0.6c0.5,0.1,1.3,0.3,2.2,0.4
				c0.6,0.1,1.8,0.2,2.4,0.2c1.2,0.1,3.4,0.1,4.2,0.1c0.5,0,1.8,0.1,2.3,0.2c0.6,0.1,1.8,0.3,2.1,0.3c0.3,0,0.6,0,0.9-0.1
				c0-0.1,0-0.1,0-0.1c0-0.2,0-0.3,0-0.5c0-0.3,0-1.3-0.1-2.5h0.2c0,0.1,0.1,0.1,0.1,0.1c0.1,0,0.8,0,1,0.1h0.1h0.1v0.4h0.1h0.1h0.1
				c0.2,0.1,0.3,0.1,0.5,0.2c0.1,0,1.6-0.1,2.1-0.1c0.3,0,0.6,0,0.6-0.1c0,0,0-0.1,0.1-0.3h0.1l0,0c0.1,0,0.3,0,0.3,0
				c0.1,0,0.3,0,0.3,0c0.1,0,0.1,0,0.2-0.1c0,0,0,0,0.1,0c-0.1,0.6-0.1,1.1-0.1,1.3c0.1,0.2,0.2,0.6,0.4,0.8
				c0.1,0.1,0.5,0.2,0.7,0.3c0.3,0.1,1.8,0.1,2.5,0.1c0.6,0,1.7-0.2,2.1-0.3c0.9-0.3,2.5-0.9,3.3-1.3c0.1-0.1,0.3-0.1,0.4-0.2
				l0.1-0.1h0.1c0,0.1,0,0.1,0,0.1c-0.1,0.1-0.3,1.4-0.4,2.1c-0.1,0.5-0.3,1.5-0.3,2.2c-0.1,0.9,0,3.7,0.1,4.3s0.2,1.2,0.4,2.1
				c0.1,0.6,0.4,1.6,0.7,2.2c0.2,0.4,0.4,1.1,0.8,1.8l-0.3,0.1c0,0.6,0,1.3-0.2,1.9c-0.1,0.6-0.3,1.1-0.6,1.9
				c-0.4,1.1-1.1,2.8-1.6,4.2c-0.8,2.2-2.1,5.6-2.6,6.8c-0.5,1.2-1.6,3.2-2.1,4.2c-0.1,0.3-0.4,0.8-0.4,0.9c0,0.1,0.1,0.4,0.2,0.6
				s0.4,0.7,0.6,0.8c0.1,0.1,0.1,0.3,0.1,0.4s-0.1,0.3-0.1,0.3c-0.1,0.1-0.4,0.4-0.6,0.5s-0.3,0.4-0.4,0.5c0,0.3,0.4,1.2,0.4,1.3
				s0,0.3-0.1,0.3l0,0c-0.1,0-0.1,0.1-0.1,0.1v-0.1c-0.2,0-0.4-0.1-0.5-0.1c0,0-2.3,0.1-3.5,0.3c-0.2,0-0.6,0.1-0.9,0.3
				c-0.8,0.3-1.6,0.7-2,0.9c-0.3,0.1-0.4,0.3-0.6,0.4c0,0.1-0.1,0.1-0.1,0.1c-0.2,0-0.4,0.1-0.7,0.1c-0.1,0-0.1,0-0.1,0
				c-0.3,0.1-0.6,0.1-0.8-0.1c-0.1-0.1-0.1-0.3-0.1-0.4c0.1-0.4,0.8-1.6,0.8-1.6l0.1-0.3c0-0.1-0.1-0.4-0.4-0.8
				c-0.2-0.3-0.4-0.7-0.4-0.8c0-0.2,0.2-2.1,0.2-2.3c0-0.1,0-3.2-0.1-4.4c0-2.3,0.1-7.1,0.1-9.6c0-1.3,0-3.6,0.1-5.1h-0.1
				c0,0.1,0,0.1-0.1,0.2c-0.1,0.6-0.3,2.1-0.4,2.3c-0.1,1-0.3,2.4-0.4,4.2c-0.1,1-0.7,6.8-0.9,9.2c-0.1,1.5-0.3,3.5-0.4,4.3
				c-0.1,0.5-0.6,1.8-0.6,1.8c0,0.1,0.8,0.9,0.9,1.1s0.1,0.6,0.1,0.8c0,0.1-0.1,0.3-0.3,0.3c-0.1,0.1-0.3,0.1-0.5,0.1v0.1l0,0h0.1
				v0.1c-0.1,0-0.6,0-1,0c-0.3,0-0.8,0.1-1.1,0.1c-0.4,0.1-0.9,0.3-1.6,0.6c-0.2,0.1-0.6,0.4-0.6,0.4l0,0l-0.1,0.1
				c-0.4-0.4-0.9-0.9-1.6-1.5c-0.6-0.4-0.9-0.7-1.3-0.9c-0.3-0.1-0.6-0.3-0.8-0.3c-0.1,0-0.2-0.1-0.3-0.1c-0.1-0.1-0.5-0.3-0.8-0.5
				c-0.3-0.1-0.6-0.4-0.8-0.6c-0.1-0.1-0.3-0.7-0.2-0.8s0.4-0.6,0.6-0.9c0.1-0.1,0.2-0.3,0.2-0.4c0-0.2-0.1-0.4-0.4-0.8
				c-0.3-0.4-0.6-0.6-0.6-0.8c-0.3-0.4-0.4-1.1-0.7-2c-0.3-0.9-0.4-1.5-0.6-2c-0.2-0.4-1.6-3.5-1.8-3.9c-0.9-2-1.2-2.5-1.3-3.1
				c0-0.1,0-0.1-0.1-0.3l-0.1-0.1c0.4-0.8,0.7-1.4,0.8-1.9c0.2-0.7,0.4-1.5,0.5-2c0.2-1,0.4-2.8,0.4-3.8c0-0.8,0-3.1-0.1-4.2
				c-0.1-1.2-0.4-3.5-0.6-4.6s-0.7-3.5-0.9-4.6c-0.1-0.5-0.5-1.5-0.7-2C821.4,749.3,821.3,748.9,821.2,748.4L821.2,748.4z"/>
			<path class="st6" d="M835.7,707.8c-0.6-0.2-2-1.6-2.1-1.7l-0.1-0.1l0,0c-0.1-0.1-0.1-0.1-0.2-0.2c-0.1-0.1-0.2-0.3-0.3-0.3
				c0,0,0-0.1-0.1-0.1h0.1c-0.1-0.6-0.3-1.3-0.5-1.7c-0.2-0.5-0.6-1.5-0.8-2c-0.3-0.5-0.8-1.6-1.1-2.1c0-0.1-0.1-0.1-0.1-0.1l0,0
				c0,0,1.3,0.9,1.5,1c0.3,0.1,0.9,0.4,1.6,0.6c0.4,0.2,1.1,0.4,1.8,0.6c0.9,0.2,1.5,0.4,1.8,0.6c0.1,0.1,0.4,0.4,0.5,0.7
				c0.1,0.1,0.4,1.3,0.5,1.8c0.1,0.2,0.1,0.5,0.1,0.9l-1.2,0.1c0-0.1-0.1-0.1-0.1-0.1c-0.1-0.1-0.2-0.4-0.3-0.4
				c-0.3-0.6-0.9-1.3-1-1.4l0,0c-0.2,0.3-0.3,0.9-0.3,2C835.4,706.7,835.5,707.2,835.7,707.8C835.7,707.6,835.7,707.7,835.7,707.8
				L835.7,707.8L835.7,707.8L835.7,707.8z"/>
			<path class="st2" d="M854.9,691.6c0.1,0.1,0.1,0.4-0.1,0.6c-0.1,0.1-0.1,0.1-0.2,0.1s-0.2,0-0.3-0.1c0,0-0.1-0.1-0.2-0.2
				l-0.1,0.1l0,0c-0.1,0.1-0.3,0.3-0.4,0.3c-0.3,0.1-0.9,0.2-1.1,0.1c-0.1-0.1-0.3-0.4-0.3-0.6s0-0.6,0.1-0.8
				c0.1-0.3,0.3-0.5,0.5-0.6c0.4-0.1,0.6-0.1,0.8,0c-0.1-0.1-0.1-0.4-0.1-0.6c0-0.2,0.2-0.5,0.3-0.6s0.3-0.2,0.4-0.3
				c0.1,0,0.3,0,0.4,0.1c0.1,0,0.1,0.1,0.2,0.1l0,0c0,0-0.1-0.1-0.1-0.2c-0.1-0.3-0.1-0.7,0-0.8s0.3-0.4,0.4-0.5
				c0.1-0.1,0.4-0.1,0.5-0.1c0.2,0.1,0.4,0.4,0.5,0.6c0,0.1,0.1,0.3,0.1,0.3c0.1-0.1,0.3-0.4,0.5-0.5c0.1-0.1,0.4-0.2,0.6-0.2
				c0.1,0,0.3,0.1,0.4,0.3c0.1,0.1,0.2,0.4,0.2,0.6c0,0.1-0.1,0.5-0.1,0.6s-0.1,0.1-0.4,0.3l0.1,0.1l0,0c0.1-0.1,0.2-0.1,0.3-0.1
				s0.4,0,0.6,0.1c0.1,0.1,0.4,0.4,0.4,0.5c0.1,0.1,0,0.3-0.1,0.4s-0.4,0.3-0.5,0.3c-0.4,0.1-0.8-0.1-0.9-0.1
				c0.1,0.1,0.3,0.4,0.3,0.6c0,0.1-0.1,0.4-0.2,0.5s-0.4,0.2-0.5,0.2c-0.2,0-0.6-0.3-0.6-0.4c-0.1-0.1-0.1-0.3-0.2-0.4
				c0-0.1-0.1-0.1-0.1-0.2l0,0c0,0.1,0,0.4-0.1,0.5c-0.1,0.2-0.2,0.4-0.3,0.4c-0.1,0.1-0.4,0.1-0.4,0
				C855,691.9,854.9,691.7,854.9,691.6z"/>
			<path class="st6" d="M864.2,724.4c-0.1,0.1-0.4,0.5-0.4,0.6c-0.1,0.2,0.1,1.5,0.1,1.6c0.1,0.1,0.5,0.3,0.8,0.3
				c0.1,0,0.3,0.1,0.4,0.1v0.1l0,0c0,0-0.1,0-0.1,0.1c-0.1,0-0.3,0.1-0.5,0.3c0,0.1-0.3,0.5-0.4,0.8c0,0.1-0.1,0.6-0.1,0.8
				c0.1,0.2,0.4,0.4,0.6,0.4c0.1,0.1,0.4,0.1,0.8,0.1v0.1c-0.1,0-0.1,0-0.1,0c-0.1,0-0.1,0-0.1,0.1c-0.1,0.1-0.3,0.2-0.3,0.3
				c-0.1,0.1-0.2,0.6-0.1,0.8c0.1,0.3,0.3,0.6,0.4,0.8c0.1,0.1,0.1,0.1,0.2,0.1l-0.1,0.3c-0.1,0.3-0.2,0.6-0.3,0.8
				c-0.1,0.3-0.4,0.6-0.6,0.8c-0.1,0.1-2.5,2.5-2.8,2.8l-0.1-0.1c0-0.1,0-0.1,0-0.2c0-0.1-0.1-0.3-0.1-0.4s-0.1-2-0.1-2.3
				c0-0.8-0.3-2.8-0.5-3.9c-0.2-1.1-0.6-3.9-0.8-4.6c-0.1-0.2-0.1-0.4-0.1-0.4l0,0l0.1-0.2c0.2,0.2,0.4,0.4,0.6,0.5
				c0.2,0.1,0.5,0.3,0.7,0.3c0.2,0.1,0.5,0.1,0.8,0.1c0.3,0,0.7,0,0.8-0.1c0,0,0.1,0,0.1-0.1l0,0l0,0c0.1-0.1,0.3-0.1,0.3-0.1
				c0.1-0.1,0.1-0.2,0.2-0.3c0.1-0.1,0.1-0.6,0.1-1c0-0.1,0-0.1,0-0.2l0,0c0.1,0.2,0.4,0.6,0.6,0.6c0.1,0,0.2,0.1,0.3,0.1l0,0l0,0
				C864.5,724.1,864.3,724.2,864.2,724.4z"/>
			<path class="st1" d="M843.8,696.3L843.8,696.3c0.3-0.1,0.5-0.1,0.8-0.1v0.1c0,0.1,0,0.1,0,0.3c0,0.1-0.1,0.4-0.1,0.7l0,0
				c-0.1,0.1-0.2,0.3-0.3,0.4c-0.3,0.4-0.8,1.1-1.2,1.6c-0.4,0.4-1.3,1.3-1.6,1.6c-0.3,0.3-1.3,1.1-1.3,1.1
				c-0.1,0.2-0.4,1.7-0.6,2.7c-0.1,0.4-0.1,0.6-0.1,0.8c-0.4,2.7-0.4,4-0.4,4h-0.1c-0.1-0.5-0.4-1.9-0.4-2.5c0-0.2-0.1-0.8-0.1-1.4
				c-0.1-0.3-0.1-0.6-0.1-0.9c-0.1-0.5-0.4-1.6-0.5-1.8c-0.1-0.3-0.4-0.6-0.5-0.7c-0.3-0.3-0.9-0.4-1.8-0.6
				c-0.8-0.2-1.4-0.4-1.8-0.6c-0.7-0.3-1.5-0.5-1.6-0.6s-1.5-1-1.5-1l0,0c-0.3-0.6-0.6-1.1-0.9-1.6l0,0c0.1,0,0.1,0.1,0.1,0.1
				c0.3,0.1,1,0.4,1.7,0.6c0.6,0.1,1.8,0.3,2.3,0.4c0.6,0.1,1.9,0.1,2.3,0.1c0.6,0,1.8,0.1,2.2-0.1c0.2,0,1.7-0.3,2-0.4
				c0.4-0.1,1.2-0.4,1.7-0.7c0.3-0.2,1.1-0.7,1.3-0.9c0.1,0,0.1-0.1,0.2-0.2l0.1-0.1l0,0C843.7,696.5,843.8,696.4,843.8,696.3z"/>
			<path class="st5" d="M804.9,751.4L804.9,751.4L804.9,751.4L804.9,751.4z M801.5,766.4c0.7,0.1,1.6,0.3,1.9,0.3
				c0.6,0.1,1.8,0,2.3-0.1s1.5-0.4,2-0.6c0.4-0.2,0.9-0.7,1.2-1c0.2-0.3,0.4-0.9,0.5-1.4c0.1-0.4,0.1-1.1,0.1-1.5
				c-0.1-0.4-0.3-1-0.4-1.3c-0.2-0.3-0.6-0.6-0.8-0.8c-0.4-0.3-1.2-0.8-1.6-0.9c-0.5-0.2-1.1-0.4-1.6-0.4c-0.4-0.1-1.9-0.3-2-0.3
				c-0.3-0.1-0.6-0.2-0.6-0.2h0.1v-0.1l0,0c0.1,0.1,0.2,0.1,0.3,0.1s2.5,0.1,3.4,0s1.9-0.2,2.3-0.4c0.2-0.1,0.6-0.3,0.8-0.4
				c0.2-0.1,0.4-0.5,0.6-0.8c0.3-0.4,0.5-1.3,0.5-1.7c0-0.3-0.2-0.9-0.3-1.3c-0.1-0.3-0.5-0.8-0.8-1c-0.3-0.2-0.8-0.4-1.1-0.6
				c-0.3-0.1-0.7-0.3-1.2-0.4c-0.2-0.1-0.4-0.1-0.6-0.1c-0.6-0.1-1.7-0.3-2.2-0.4c-0.2,0-0.5-0.1-0.8-0.1v0.1
				c-0.1,0.5-0.3,1.5-0.3,2.1c-0.1,0.6-0.4,3.5-0.5,4.4c0,0.1,0,0.3,0,0.4c-0.1,1.1-0.4,3.2-0.5,4.2c-0.1,1.5-0.2,2.5-0.3,3.2
				c0,0.2,0,0.3,0,0.4C801.5,766.2,801.5,766.3,801.5,766.4z M812,736.7c0,0.1,0.1,0.5,0.3,0.7c0.1,0.1,0.4,0.8,0.5,0.8
				c0.2,0.2,0.8,0.6,1.5,1.1c0.6,0.5,1.3,0.9,1.6,1.2c0.5,0.4,1.1,1.1,1.3,1.3c0.2,0.3,2.2,3,2.7,3.9c0.4,0.6,0.9,1.7,1.3,2.7
				c0.2,0.4,0.4,0.8,0.5,1.2c0.2,0.6,0.6,1.5,0.7,2c0.3,1.1,0.8,3.5,0.9,4.6c0.2,1.1,0.4,3.4,0.6,4.6c0.1,1.1,0.1,3.4,0.1,4.2
				c-0.1,0.9-0.3,2.8-0.4,3.8c-0.1,0.5-0.3,1.3-0.5,2c-0.2,0.5-0.4,1.2-0.8,1.9c0,0.1,0,0.1-0.1,0.1c-0.4,0.8-0.8,1.4-1.1,1.8
				c-0.3,0.3-1.1,1.3-1.6,1.7c-0.6,0.6-1,0.9-1.6,1.4c-0.4,0.3-1.4,0.9-1.8,1.1c-0.3,0.1-1.6,0.7-2.2,0.9c-0.5,0.2-1.5,0.4-2,0.5
				c-0.6,0.1-1.7,0.3-2.3,0.3c-0.7,0.1-1.2,0.1-2,0.1c-1.1,0-3.4-0.2-4.7-0.3c-0.8-0.1-1.6-0.2-2.2-0.3c-0.4-0.1-3-0.8-4-1.1
				c-1.3-0.4-3.4-1.1-3.8-1.3c-0.5-0.3-3-1.6-3.4-1.9c-0.4-0.3-1.1-1.1-1.4-1.5c-0.4-0.4-0.8-1.1-1.1-1.6c-0.2-0.3-0.8-1.5-1.1-2
				c-0.3-0.6-1.4-3.4-1.6-4c-0.1-0.4-0.7-3.7-0.8-4.2c-0.1-0.8-0.1-1.6-0.1-2.3c0.1-0.8,0.4-3.2,0.6-4.3c0.3-1,0.8-3,1.2-4
				c0.2-0.4,0.5-1.1,0.8-1.8c0.1-0.3,0.8-1.3,1.1-1.7c0.2-0.3,0.9-1.2,1.2-1.6c0.2-0.3,0.9-1.1,1.5-1.5c0.6-0.5,1.3-1.1,1.5-1.3
				c0.5-0.4,1-0.8,1.8-1.1c0.9-0.5,2.8-1.6,3.8-2.2s2.5-1.5,3.7-2c0.6-0.3,3.9-2,4-2c0.3-0.3,0.8-0.6,0.9-0.8h0.1h0.1v0.1
				c0.1,0.1,0.3,0.4,0.6,0.5c0.2,0.1,0.6,0.3,0.8,0.4c0.2,0.1,2.2,0.4,2.3,0.4s1.3-0.2,1.6-0.4c0.3-0.1,0.6-0.4,0.7-0.6
				c0,0,0-0.1,0.1-0.1h0.1C812.2,736.6,812,736.7,812,736.7z"/>
			<path class="st7" d="M832.9,791.6L832.9,791.6c0.1,0,0.5-0.3,0.7-0.4c0.8-0.3,1.3-0.5,1.6-0.6c0.3-0.1,0.8-0.1,1.1-0.1
				c0.4,0,0.9,0,1,0v-0.1h0.1l-0.1,0.1c0.1,0,0.5,0.6,0.9,1.2c0.3,0.6,0.7,1.5,0.9,2c0.3,1,0.5,1.8,0.6,2.5v0.1v0.1
				c-0.1,0.1-0.2,0.1-0.2,0.1c-0.1,0-0.6,0.3-1.1,0.5c-0.4,0.1-0.6,0.3-0.6,0.3l0,0v-0.1l-0.1,0.1c-0.1-0.2-0.1-0.6-0.1-0.9
				c-0.1-0.3-0.1-0.6-0.3-0.9c-0.1,0.1-0.5,0.9-0.5,0.9c-0.1,0.3-0.3,0.4-0.4,0.5l-0.1,0.1c-0.1,0-0.1,0.1-0.2,0.1
				c-0.1,0.1-0.3,0.2-0.4,0.3c-0.5,0.3-1.5,0.6-3,1.1c-0.5,0.1-1.5,0.3-2.1,0.4c-0.6,0.1-3.8,0.2-4.2,0.2c-0.3,0-1.4-0.1-1.8-0.1
				c-0.9-0.1-3-0.3-4.2-0.4c-0.6,0-2-0.2-2.2-0.3c-0.1,0-0.3,0-0.4-0.1v-0.1c0-0.1-0.1-0.1-0.1-0.1s0.2-1.7,0.3-2
				c0.1-0.6,0.4-1.5,0.6-2s0.6-1.3,0.9-1.7c0.3-0.3,0.9-1.1,1.4-1.5c0.4-0.3,1.2-0.9,1.6-1.1c0.4-0.1,1.5-0.4,2.2-0.6
				c0.6-0.1,1.5-0.3,2.2-0.3c0.5-0.1,1.3,0,1.8,0.1c0.1,0,0.2,0.1,0.3,0.1c0.2,0.1,0.6,0.2,0.8,0.3c0.4,0.2,0.7,0.4,1.3,0.9
				s1.2,1.1,1.6,1.5L832.9,791.6z"/>
			<path class="st5" d="M872.2,755.4c-0.1-0.7-0.2-1.3-0.3-1.6c-0.1-0.4-0.5-1.9-0.6-2.1c0-0.1-0.2-1.1-0.3-1.5l-0.1-0.1l0,0v0h0.1
				c0.5-0.1,1.3-0.2,2.1-0.2c0.4,0,0.8-0.1,1.5-0.1c0.2,0,0.4,0,0.6,0c0.6,0,1.6,0.1,1.9,0.1c0.4,0.1,1.1,0.4,1.3,0.7
				c0.1,0.1,0.3,0.4,0.3,0.6s0.1,0.6,0.1,0.8c0,0.2-0.1,0.6-0.1,0.8c-0.1,0.2-0.4,0.6-0.6,0.8c-0.3,0.3-1.3,0.8-1.8,1
				c-0.4,0.1-1.4,0.4-1.8,0.5c-0.2,0.1-0.9,0.2-1.6,0.3C872.5,755.5,872.2,755.5,872.2,755.4C872.2,755.4,872.2,755.4,872.2,755.4z"
				/>
			<path class="st6" d="M812.3,737.4c-0.1-0.2-0.3-0.6-0.3-0.7c0,0,0-0.1,0.1-0.1h-0.1c0.1-0.2,0.3-0.5,0.3-0.6s-0.3-0.6-0.4-0.7
				c0.2-0.2,0.4-0.3,0.4-0.5c0.1-0.1,0.1-0.5,0.1-0.7c0-0.1-0.1-0.4-0.1-0.4c-0.1-0.1-0.3-0.3-0.3-0.4c-0.1,0-0.1-0.1-0.1-0.1
				c0.1-0.1,0.3-0.1,0.3-0.2c0.1-0.1,0.3-0.3,0.3-0.5c0-0.3-0.1-1.5-0.4-2.1c-0.1-0.3-0.3-0.4-0.4-0.5c-0.2-0.1-0.3-0.1-0.3-0.1v0.1
				c0.1-0.1,0.2-0.1,0.3-0.2c0.2-0.1,0.4-0.5,0.6-0.8c0.1-0.2,0.3-0.9,0.3-1.1c0.1-0.3,0-0.8,0-0.9l-0.1-0.2v-0.1v-0.1
				c0.3,0,0.4-0.1,0.5-0.1c0.1-0.1,0.6-0.3,0.8-0.4l0,0c0.3-0.2,0.6-0.4,0.6-0.5c0.1-0.1,0.1-0.2,0.2-0.3c0-0.1,0-0.1,0.1-0.2l1,0.1
				c-0.1,0.4-0.3,0.8-0.3,1.1c-0.4,1.7-0.7,3.1-0.9,4.7c-0.2,1.6-0.4,3.6-0.4,4c0,0.2,0.1,1.8,0.2,2.4c0.1,0.6,0.3,1.6,0.4,2.2
				c-0.6-0.5-1.3-0.9-1.5-1.1C812.8,738.2,812.3,737.5,812.3,737.4z"/>
			<path class="st1" d="M834.7,686.3L834.7,686.3L834.7,686.3z"/>
			<path class="st6" d="M842.7,705.7c0.1-0.3,0.3-0.5,0.4-0.8c0-0.1,0.1-0.2,0.1-0.3s0-0.1,0.1-0.1h0.1c0,0.3,0,0.6,0.1,0.9
				c0,0.3,0.8,3.3,1.1,4.3c0.3,0.8,0.5,1.5,0.7,2c0.1,0.2,0.3,0.6,0.3,0.8h-0.1c0,0.1,0,0.2,0,0.2c0.2,0.4,0.6,1.3,0.6,1.7
				c0.1,0.3,0.4,1.6,0.5,2.2c0.2,0.8,0.6,3.2,0.8,4.3c0.2,1,0.5,3.2,0.6,4.4c0.1,1.2,0.2,3.5,0.3,4.7c0.1,1.2,0.1,3.6,0,4.6
				c-0.1,1.1-0.3,3.5-0.4,4.7c-0.1,1.2-0.4,3.8-0.8,6l0,0c-0.1,0-0.1,0-0.1,0s-0.4,0.1-0.7,0.1c-0.4,0-1.3,0.1-1.7,0.1v-0.1
				c0-0.1,0.2-0.8,0.2-1.3c0.1-0.5,0.1-1.6,0.2-2.2c0.1-1.6,0.2-3.2,0.2-4.7c0-1.4-0.1-3.2-0.3-4.3c-0.1-0.6-0.3-1.8-0.4-2.2
				c-0.3-1.3-0.7-2.7-1.3-4.4c-0.4-1.1-1.3-3.4-1.5-4c-0.3-1.1-0.8-3.1-1.1-4c-0.2-0.7-0.6-3.5-0.8-4.6c0-0.3-0.3-1.5-0.3-2
				c-0.1-0.4-0.3-1.5-0.4-1.6c0-0.1,0-0.1-0.1-0.2h-0.1c0-0.1,0-0.1,0-0.1v-0.1h0.2c0,0,0-1.4,0.4-4c0-0.1,0.1-0.4,0.1-0.8l0.8,0.1
				c0,0,0-0.1,0.1-0.1c0.3-0.6,0.6-1.5,0.6-1.6c0.1,0,0.3,0.4,0.3,0.6c0.1,0.3,0.2,1.3,0.3,1.9c0.1,0.8,0.1,1.5,0.1,1.5
				C841.8,706.8,842.5,705.8,842.7,705.7z"/>
			<path class="st2" d="M845.3,746.3c0.1,0.2,0.1,2-0.1,2.6c0,0.1,0,0.2-0.1,0.3s-0.3,0.1-0.6,0.1c-0.4,0-2,0.1-2.1,0.1
				s-0.3-0.1-0.5-0.2h0c-0.1,0-0.1,0-0.1,0h-0.1v-0.4l-0.1-2.5c0.1-0.1,0.4-0.1,0.6-0.1c0.9,0.1,1.6,0.1,2.3,0.1
				C844.9,746.1,845.2,746.2,845.3,746.3z"/>
			<path d="M840.4,746.5L840.4,746.5C840.5,746.5,840.5,746.5,840.4,746.5z M840.3,746.2C840.3,746.1,840.3,746.1,840.3,746.2
				c0.3-0.1,1.4,0,1.5,0l0.1,2.5h-0.1c-0.1,0-0.1,0-0.1,0c-0.2,0-0.9,0-1-0.1c0,0-0.1,0-0.1-0.1h-0.2c0-0.3,0-0.5,0-0.8
				C840.4,747.6,840.4,747,840.3,746.2z"/>
			<path class="st3" d="M848.8,701c-0.1-0.3-0.4-0.8-0.6-0.9c-0.1-0.1-0.3-0.2-0.4-0.2c-0.3-0.1-0.6,0-0.9,0.1s-0.6,0.3-0.8,0.4
				c-0.3,0.3-0.7,0.8-0.9,1.3c-0.2,0.3-0.4,1-0.5,1.5c-0.1,0.4-0.3,1.3-0.3,1.8c0,0.3,0,1.3,0,1.9c0,0.5,0.1,1.6,0.2,1.9
				c0.2,1.1,0.6,3.1,0.9,3.7l0,0l0,0c-0.1-0.2-0.3-0.6-0.3-0.8c-0.2-0.5-0.4-1.2-0.7-2c-0.3-1-1.1-4-1.1-4.3
				c-0.1-0.3-0.1-0.6-0.1-0.9s0-0.7,0.1-0.9c0.1-0.5,0.4-1.6,0.5-2.2c0.2-0.8,0.3-1.3,0.4-2c0.1-0.5,0.3-1.7,0.3-1.9
				c0-0.1,0-0.1,0-0.2c0-0.3,0.1-0.6,0.1-0.7s0-0.2,0-0.3v-0.1c0.7,0,1.6-0.1,2.5-0.1c0.1,0,0.4,0,0.9-0.1v0.1
				c0,0.1,0.1,0.1,0.1,0.1s0.3,0.4,0.3,0.5c0.2,0.3,0.5,1.3,0.6,1.8c0.1,0.3,0.1,0.8,0.2,1.3c0,0.1,0,0.3,0,0.3
				c0,0.4-0.3,1.3-0.3,1.4C848.9,701.5,848.8,701,848.8,701z"/>
			<path class="st5" d="M872.9,755.3c0.1,0,0.1,0,0.3-0.1c0.2,0,0.6,0,0.7,0c0.4-0.1,1.5-0.2,1.6-0.2c0.7-0.1,1.5-0.1,1.8-0.1
				c0.4,0.1,1.1,0.3,1.4,0.6c0.1,0.1,0.4,0.3,0.6,0.4c0.1,0.1,0.3,0.4,0.3,0.6c0.1,0.1,0.1,0.5,0.1,0.7c0,0.4-0.3,1.1-0.4,1.6
				c-0.1,0.2-0.4,0.6-0.5,0.8c-0.3,0.3-1.1,0.8-1.5,1c-0.4,0.1-1.5,0.4-2,0.6c-0.4,0.1-1.6,0.3-2.1,0.4v-0.1c0-0.1,0-0.1-0.1-0.1
				c0,0-0.6-3.6-0.9-6c0.1,0,0.1,0,0.1,0C872.2,755.4,872.5,755.4,872.9,755.3L872.9,755.3z"/>
			<path class="st1" d="M834.7,686.5C834.5,686.5,834.5,686.5,834.7,686.5C834.5,686.5,834.5,686.5,834.7,686.5z"/>
			<path class="st2" d="M859.7,680c0.1,0.1,0.2,0.3,0.3,0.3C860,680.2,859.9,680,859.7,680z M860.9,685.2c0.1,0.3,0.1,0.6,0.1,0.8
				c0,0.3-0.2,0.6-0.3,0.8c-0.1,0.1-0.3,0.1-0.3,0.1c-0.1,0-0.3-0.1-0.4-0.2c-0.1-0.1-0.3-0.3-0.3-0.4c-0.1-0.1-0.1-0.3-0.2-0.5
				c-0.1,0.1-0.3,0.1-0.3,0.1c-0.3,0.1-0.7,0-0.9-0.1c-0.1-0.1-0.3-0.4-0.3-0.7c0-0.3,0.1-0.7,0.3-0.8c0.1-0.1,0.3-0.3,0.4-0.3
				c-0.2,0-0.5-0.1-0.6-0.3c-0.1-0.1-0.1-0.3-0.2-0.4c-0.1-0.3,0.1-0.8,0.3-0.9c0.1-0.2,0.4-0.4,0.6-0.4c-0.1-0.2-0.2-0.4-0.3-0.5
				c-0.1-0.3-0.1-0.7,0.1-1c0.1-0.3,0.3-0.6,0.5-0.7c0.1-0.1,0.6-0.1,0.7,0c0-0.1-0.1-0.1-0.1-0.1c-0.1-0.1-0.1-0.4-0.1-0.5
				c0-0.3,0.3-0.7,0.4-0.8c0.1-0.1,0.5-0.3,0.8-0.4c0.1,0,0.3,0,0.3,0c0.1,0.1,0.2,0.1,0.2,0.2c0,0,0,0,0,0.1
				c0.1-0.1,0.1-0.1,0.1-0.1s0.4-0.4,0.6-0.5c0.2-0.1,0.6-0.1,0.7-0.1c0.2,0,0.4,0.1,0.4,0.3c0.1,0.1,0.1,0.4,0.1,0.4
				s0.4-0.2,0.6-0.3c0.3-0.1,0.7-0.1,0.9,0.1c0.1,0.1,0.3,0.2,0.3,0.3s0,0.3-0.1,0.5c-0.1,0.1-0.1,0.3-0.3,0.4
				c-0.1,0.1-0.2,0.3-0.3,0.4l0,0c0,0,0.1-0.1,0.2-0.1c0.1,0,0.4-0.1,0.4,0c0.1,0.1,0.3,0.3,0.4,0.4c0.1,0.1,0,0.4,0,0.5
				c-0.1,0.1-0.3,0.3-0.4,0.4c-0.1,0.1-0.4,0.2-0.6,0.3c0.1,0,0.4,0.1,0.5,0.2c0.1,0.1,0.2,0.4,0.2,0.5c0,0.2-0.1,0.5-0.3,0.6
				c-0.1,0.1-0.3,0.1-0.4,0.1s-0.2-0.1-0.3-0.1l0,0c0.1,0.1,0.3,0.3,0.3,0.4c0.1,0.1,0.1,0.6,0.1,0.8c0,0.3-0.1,0.7-0.1,0.9
				c-0.1,0.1-0.3,0.4-0.5,0.5c-0.1,0.1-0.4,0.1-0.6,0c-0.3-0.1-0.4-0.5-0.5-0.6c0.1,0.1,0.1,0.4,0.1,0.6c0,0.3-0.2,0.6-0.4,0.8
				c-0.1,0.1-0.5,0.3-0.7,0.2c-0.2-0.1-0.4-0.3-0.6-0.5C861,685.5,860.9,685.2,860.9,685.2z"/>
			<path class="st3" d="M849.5,699.8c0.3,0.2,0.7,0.5,0.9,0.7c0.2,0.1,1.5,0.8,1.6,0.8c0.3,0.1,1.4,0.4,1.9,0.4
				c0.1,0,0.8,0.1,1.1,0.1c0.3,0.1,0.8,0.4,0.9,0.6c0.1,0.2,0.4,0.6,0.5,0.8c0.1,0.1,0.1,0.2,0.1,0.3c0.1,0.3,0.2,0.8,0.3,1.4
				c0.1,0.6,0.3,3.4,0.4,4.6c0.1,1.1,0.3,3.4,0.4,4.2c0.1,0.3,0.1,0.7,0.3,1.2c0.3,1,0.6,2.3,0.8,3c0.2,0.6,0.6,2.7,0.6,2.8v0.1
				c-0.1,0.1-0.1,0.1-0.1,0.1c-0.1,0.1-0.2,0.5-0.2,0.6c0,0.2,0,0.8,0,1c0.1,0.3,0.2,0.7,0.3,0.9c0.1,0.1,0.3,0.4,0.4,0.6l-0.1,0.2
				l0,0c0,0,0.1,0.3,0.1,0.4c0.2,0.7,0.6,3.5,0.8,4.6c0.2,1,0.5,3.1,0.5,3.9c0,0.3,0.1,2.2,0.1,2.3s0.1,0.3,0.1,0.4
				c0,0.1,0,0.1,0,0.2l0.1,0.1c-0.4,0.4-0.8,1.3-1.1,1.9c-0.5,1.2-1.4,3.3-1.6,3.7c-0.1,0.3-0.8,1.5-1.1,2c-0.5,1.1-1.6,3.3-1.8,3.8
				c-0.1,0.3-0.3,1.1-0.3,1.5h-0.1c-0.1,0.1-0.1,0.1-0.1,0.1c-0.1,0.1-0.3,0.2-0.4,0.2c-0.8,0.3-2.4,1-3.3,1.3
				c-0.4,0.1-1.5,0.3-2.1,0.3s-2.2,0-2.5-0.1c-0.2,0-0.6-0.2-0.7-0.3c-0.3-0.2-0.4-0.6-0.4-0.8c0-0.2,0-0.7,0.1-1.3
				c0-0.1,0.1-0.3,0.1-0.4c0.1-0.6,0.2-1.3,0.3-2.2c0.1-0.3,0.1-0.6,0.1-0.9c0.3-2.2,0.6-4.8,0.8-6c0.1-1.3,0.3-3.6,0.4-4.7
				c0.1-0.9,0-3.3,0-4.6c-0.1-1.2-0.2-3.5-0.3-4.7c-0.1-1.1-0.4-3.3-0.6-4.4c-0.2-1.1-0.6-3.5-0.8-4.3c-0.1-0.6-0.4-1.8-0.5-2.2
				s-0.4-1.3-0.6-1.7c0,0,0-0.1,0-0.2h0.1l0,0l0,0c-0.3-0.6-0.8-2.5-0.9-3.7c-0.1-0.3-0.1-1.4-0.2-1.9c0-0.6,0-1.6,0-1.9
				c0.1-0.5,0.1-1.3,0.3-1.8c0.1-0.4,0.4-1.1,0.5-1.5c0.2-0.4,0.6-1,0.9-1.3c0.2-0.2,0.5-0.4,0.8-0.4c0.3-0.1,0.7-0.1,0.9-0.1
				c0.1,0,0.3,0.1,0.4,0.2c0.2,0.1,0.5,0.6,0.6,0.9c0,0.1,0.2,0.5,0.2,0.5c0.1-0.1,0.3-0.9,0.3-1.4c0-0.1,0-0.2,0-0.3L849.5,699.8z"
				/>
			<path class="st5" d="M802.3,758.3c0-0.1,0-0.3,0-0.4c0.1-0.9,0.4-3.9,0.5-4.4s0.3-1.6,0.3-2.1c0-0.1,0-0.1,0-0.1
				c0.3,0,0.6,0.1,0.8,0.1c0.5,0.1,1.6,0.3,2.2,0.4c0.2,0.1,0.4,0.1,0.6,0.1c0.5,0.1,0.9,0.3,1.2,0.4c0.4,0.1,0.9,0.3,1.1,0.6
				c0.3,0.2,0.6,0.7,0.8,1c0.1,0.3,0.3,0.9,0.3,1.3c0,0.4-0.3,1.3-0.5,1.7c-0.1,0.3-0.4,0.6-0.6,0.8c-0.2,0.1-0.6,0.4-0.8,0.4
				c-0.4,0.1-1.4,0.3-2.3,0.4s-3.3,0.1-3.4,0C802.7,758.5,802.5,758.4,802.3,758.3L802.3,758.3L802.3,758.3L802.3,758.3L802.3,758.3
				z"/>
			<path class="st1" d="M834.8,686.1C834.8,686.2,834.8,686.2,834.8,686.1C834.8,686.2,834.8,686.2,834.8,686.1z"/>
			<path class="st5" d="M882.9,743.1c0.1,0.1,0.2,0.2,0.4,0.4c0.4,0.5,0.7,0.8,1.1,1.5c0.3,0.5,1.1,1.6,1.2,1.8
				c0.4,0.6,0.7,1.2,1,1.9c0.2,0.5,0.6,1.5,0.8,2c0.2,0.5,0.5,1.5,0.6,1.8c0.3,1.1,0.5,3,0.6,3.9c0.1,0.6,0.3,3,0.3,4.6
				c0,0.6-0.1,1.5-0.1,2c-0.1,0.2-0.3,1.6-0.4,1.9c-0.1,0.2-0.4,1.3-0.4,1.4v0.1l-0.1,0.1c-0.1,0.5-0.3,1-0.6,1.8
				c-0.3,0.8-0.5,1.3-0.8,1.8c-0.2,0.3-0.8,1.1-1.1,1.5c-0.4,0.4-1.3,1.5-1.5,1.6c-0.4,0.4-1.1,0.9-1.5,1.2
				c-0.4,0.3-1.3,0.7-1.8,0.9c-0.4,0.1-3.7,1.3-4.1,1.3c-0.6,0.1-1.3,0.2-2,0.2c-0.8,0-1.5,0-2.3-0.1c-0.5-0.1-1.5-0.3-1.9-0.4
				c-0.3-0.1-1.6-0.6-2.1-0.8c-1.1-0.5-3.7-1.8-4.2-2.2c-0.6-0.4-1.3-0.9-1.7-1.3c-0.2-0.1-1.1-1.2-1.5-1.6
				c-0.4-0.5-1.3-1.5-1.6-1.9c-0.3-0.6-0.7-1.1-1-1.8c-0.2-0.4-0.6-1.5-1.1-2.5c-0.3-0.7-0.6-1.4-0.8-1.8c-0.2-0.6-0.5-1.6-0.7-2.2
				c-0.3-0.9-0.4-1.4-0.4-2.1c-0.1-0.6-0.1-3.4-0.1-4.3c0.1-0.8,0.2-1.7,0.3-2.2c0.1-0.7,0.4-2,0.4-2.1v-0.1
				c0.1-0.4,0.2-1.2,0.3-1.5c0.1-0.5,1.3-2.7,1.8-3.8c0.3-0.5,0.9-1.8,1.1-2c0.3-0.5,1.1-2.5,1.6-3.7c0.3-0.6,0.8-1.5,1.1-1.9
				c0.3-0.3,2.7-2.8,2.8-2.8c0.2-0.2,0.4-0.6,0.6-0.8c0.1-0.2,0.2-0.5,0.3-0.8l0.1-0.3c0.3,0.1,0.6,0.3,0.7,0.3
				c0.3,0.1,2.6,0.1,3.7,0.1c0.3,0,0.6-0.1,0.9-0.2c0.1-0.1,0.4-0.3,0.6-0.5l0.3,0.1c0,0.1,0,0.1,0,0.2c0,0,0.1,0.3,0.6,0.9
				c0.4,0.6,0.8,1.1,1.3,1.6c0.4,0.4,1.3,1.2,1.5,1.5c0.3,0.3,3.1,2.5,3.5,2.9c0.8,0.7,3,2.8,3.3,3
				C882,741.9,882.5,742.5,882.9,743.1L882.9,743.1z M877.3,755c-0.3-0.1-1.1-0.1-1.8,0.1c-0.3,0-1.3,0.1-1.6,0.2
				c-0.1,0-0.5,0-0.7,0c-0.1,0-0.2,0-0.3,0.1v-0.1c0.6-0.1,1.4-0.3,1.6-0.3c0.5-0.1,1.5-0.4,1.8-0.5c0.5-0.2,1.5-0.8,1.8-1
				c0.2-0.2,0.5-0.6,0.6-0.8c0.1-0.2,0.2-0.6,0.1-0.8c0-0.2-0.1-0.6-0.1-0.8c-0.1-0.2-0.2-0.4-0.3-0.6c-0.3-0.3-0.9-0.6-1.3-0.7
				c-0.3-0.1-1.3-0.1-1.9-0.1c-0.3,0-0.4,0-0.6,0c-0.6,0-1.1,0.1-1.5,0.1c-0.7,0-1.6,0.1-2.1,0.2H871v0.1l0,0l0.1,0.1
				c0.1,0.4,0.3,1.4,0.3,1.5c0.1,0.3,0.5,1.7,0.6,2.1s0.1,0.9,0.3,1.6c0.4,2.4,0.9,6,0.9,6s0,0.1,0.1,0.1v0.1
				c0.5-0.1,1.6-0.3,2.1-0.4c0.6-0.1,1.7-0.4,2-0.6c0.4-0.2,1.2-0.7,1.5-1c0.1-0.2,0.4-0.6,0.5-0.8c0.2-0.4,0.4-1.2,0.4-1.6
				c0-0.2-0.1-0.6-0.1-0.7c-0.1-0.2-0.2-0.4-0.3-0.6c-0.1-0.1-0.4-0.4-0.6-0.4C878.4,755.4,877.8,755.1,877.3,755z"/>
			<path class="st7" d="M843.8,795.6c-0.1,0-2.2-0.6-2.4-0.6c-0.1-0.1-0.6-0.4-0.8-0.6l-0.1-0.1l0.1-0.1c-0.1-0.3-0.2-0.6-0.3-0.9
				c-0.2-1.1,0-1.8,0-1.9c0,0,0.1-0.1,0.1-0.3v0c0.1,0,0.1,0,0.1,0c0.3-0.1,0.5-0.1,0.7-0.1c0,0,0-0.1,0.1-0.1
				c0.2-0.2,0.4-0.3,0.6-0.4c0.5-0.3,1.2-0.6,2-0.9c0.4-0.1,0.8-0.3,0.9-0.3c1.2-0.1,3.5-0.3,3.5-0.3c0.1,0,0.3,0,0.5,0.1v0.1
				c0.1,0,0.1-0.1,0.1-0.1c0.4-0.2,0.9-0.4,1.2-0.4c0.6-0.2,1.6-0.4,2-0.4c0.2,0,1.7-0.1,2-0.1c0.7,0.1,1.3,0.1,2,0.3
				c0.5,0.1,1.6,0.4,2,0.6s1.3,0.7,1.6,1c0.3,0.3,0.9,1.1,1.1,1.5c0.3,0.4,0.4,1.3,0.6,1.7c0.3,1.8,0.4,2.6,0.4,3c0,0.1,0,0.3,0,0.4
				c-0.4,0.1-1.3,0.4-1.5,0.5c-0.3,0.1-1.6,0.3-2.2,0.3c-1.4,0.1-3.4,0.3-4.6,0.3c-0.2,0-1.6,0-2,0c-0.2,0-1.5-0.3-2-0.3
				c-0.6-0.1-1.5-0.3-1.8-0.4c-0.4-0.1-1.5-0.7-2-0.9c-0.6-0.3-1-0.6-1.6-1.1c-0.3-0.3-0.4-0.3-0.4-0.3c0,0.3,0.1,0.9,0.1,1.1
				c0,0.1,0.1,0.2,0.1,0.2h-0.1C844,795.5,843.8,795.5,843.8,795.6z"/>
			<path class="st1" d="M872.2,726.8c0.1,0.1,0.1,0.2,0.2,0.3c0.1,0.2,0.1,0.6,0.1,0.7c0,0.1-0.3,0.4-0.4,0.6
				c-0.1,0.1-0.1,0.1-0.1,0.2c-0.1,0.1-0.3,0.3-0.4,0.3c-0.2,0.1-1.8,0.5-2,0.6c-0.3,0.1-0.7,0.1-1,0.1c-0.6,0-1.7,0-2.3,0
				c-0.3,0-0.6,0-0.9-0.1s-0.6-0.1-0.8-0.1c-0.2-0.1-0.4-0.3-0.6-0.4c-0.1-0.1,0.1-0.6,0.1-0.8c0.1-0.3,0.4-0.7,0.4-0.8
				c0.1-0.2,0.4-0.3,0.5-0.3s0.1-0.1,0.1-0.1l0,0v-0.1c0.4,0.1,0.9,0.1,1.2,0.1c0.3,0,0.8,0,1.5-0.1c0.5-0.1,1.7-0.1,1.8-0.1
				c0.4,0,1.2-0.2,1.7-0.3h0.6c0.1,0.1,0.1,0.1,0.1,0.1C872.2,726.8,872.2,726.8,872.2,726.8z"/>
			<path class="st2" d="M870.8,670c-0.1,0.2-0.3,0.4-0.5,0.5c-0.1,0.1-0.4,0.1-0.5,0.1c0.2,0.1,0.4,0.2,0.6,0.3s0.4,0.4,0.4,0.7
				c0.1,0.3,0.1,0.7,0.1,0.8s-0.1,0.3-0.1,0.4c-0.1,0.2-0.5,0.4-0.7,0.4c-0.2,0-0.6-0.1-0.8-0.2c-0.2-0.1-0.4-0.3-0.6-0.5
				c0.1,0.2,0.2,0.5,0.2,0.7c0.1,0.3,0,0.7,0,0.8c-0.1,0.3-0.3,0.6-0.4,0.7c-0.1,0.1-0.3,0.1-0.3,0.2c-0.1,0.1-0.3,0.1-0.4,0.1
				s-0.4-0.3-0.6-0.4c-0.1-0.1-0.3-0.4-0.3-0.5s0.1-0.2,0.1-0.3c0-0.2-0.1-0.4-0.2-0.5c0,0.1,0,0.4,0.1,0.6c0,0.1,0,0.1,0.1,0.1
				c-0.1,0.3-0.1,0.5-0.2,0.6c-0.1,0.2-0.3,0.4-0.4,0.5c-0.1,0.1-0.4,0.3-0.6,0.3s-0.4-0.1-0.6-0.3c-0.1-0.1-0.3-0.5-0.4-0.8
				c-0.1-0.3-0.1-0.5-0.1-0.6h-0.1l-0.1-0.1l0,0c0,0.1,0.1,0.3,0.1,0.4c0.1,0.3,0,0.7-0.1,0.9c-0.1,0.2-0.4,0.6-0.5,0.6
				c-0.1,0.1-0.3,0.2-0.4,0.3c-0.2,0.1-0.5-0.1-0.6-0.3c-0.1-0.2-0.3-0.8-0.4-1.3c0-0.1,0-0.2,0-0.3c0,0.1,0,0.1,0,0.3
				c0,0.1,0,0.1,0,0.1c0,0.2-0.1,0.4-0.2,0.5s-0.4,0.3-0.6,0.4c-0.2,0.1-0.6,0.1-0.7,0c-0.1-0.1-0.3-0.2-0.3-0.3
				c-0.1-0.1-0.2-0.5-0.3-0.7c0,0.1,0,0.1-0.1,0.1c-0.1,0.2-0.4,0.5-0.6,0.6c-0.1,0.1-0.4,0.2-0.6,0.3s-0.7,0.1-0.9,0.1
				c-0.3-0.1-0.6-0.3-0.8-0.6c-0.1-0.2-0.3-0.6-0.3-0.8c-0.1-0.3,0-0.4,0-0.5c0,0.1-0.4,0.3-0.6,0.3c-0.1,0-0.4,0-0.5,0
				s-0.4-0.2-0.4-0.3c-0.1-0.2-0.3-0.6-0.3-0.8c0-0.1,0-0.4,0-0.6c0.1-0.1,0.2-0.3,0.3-0.4c0.1-0.1,0.2-0.2,0.3-0.3c0,0,0,0,0.1,0
				l-0.1-0.1c-0.1-0.1-0.2-0.1-0.4-0.1c-0.2,0-0.6,0-0.8-0.1c-0.2-0.1-0.4-0.2-0.6-0.3s-0.3-0.4-0.4-0.5c-0.1-0.1-0.2-0.6-0.2-0.8
				c0-0.2,0.1-0.6,0.1-0.8c0.1-0.2,0.4-0.4,0.5-0.5c0.2-0.1,0.4-0.2,0.6-0.2c0.1,0.1,0.1,0.1,0.2,0.1c0.1,0.1,0.1,0.1,0.2,0
				c0-0.1-0.1-0.1-0.2-0.1c-0.1,0-0.1,0-0.2,0c-0.1-0.1-0.3-0.3-0.3-0.4c-0.1-0.2-0.1-0.6-0.1-0.8c0-0.2,0.2-0.6,0.3-0.8
				c0.1-0.2,0.5-0.4,0.6-0.5c0.1,0,0.3-0.1,0.3-0.1c0.2,0,0.4,0.2,0.5,0.3l0,0v0.5c0-0.1,0.1-0.6,0.1-0.8c0.1-0.2,0.3-0.5,0.4-0.6
				s0.4-0.4,0.6-0.4c0.1-0.1,0.5-0.2,0.7-0.2c0.1,0,0.3,0,0.4,0.1c0.2,0.1,0.5,0.4,0.5,0.6c0,0.1,0.1,0.3,0.1,0.3
				c0.1-0.3,0.3-0.5,0.4-0.6c0.1-0.2,0.4-0.4,0.6-0.4c0.1-0.1,0.4-0.1,0.6-0.1c0.1,0.1,0.3,0.3,0.3,0.5c0,0.1,0.1,0.3,0.1,0.4
				c0,0.1,0,0.1,0,0.3h0.1c0-0.1,0.1-0.3,0.3-0.5c0.3-0.3,0.8-0.8,1.1-0.9c0.2-0.1,0.6-0.1,0.7-0.1c0.1,0.1,0.3,0.1,0.4,0.3
				c0.1,0.1,0.2,0.3,0.3,0.3c0.1,0.2,0.1,0.6,0,0.6c0.1-0.2,0.4-0.4,0.6-0.5s0.5-0.2,0.7-0.2c0.2,0,0.6,0.1,0.7,0.1
				c0.1,0.1,0.3,0.4,0.4,0.6c0.1,0.3-0.1,1-0.2,1.1c0,0,0,0.1-0.1,0.1c0,0,0.1,0,0.1-0.1c0.3-0.1,1.3-0.8,1.5-0.9
				c0.1-0.1,0.5-0.2,0.7-0.2c0.3,0,0.6,0.3,0.9,0.4c0.2,0.2,0.4,0.5,0.5,0.6c0,0.1-0.2,0.5-0.3,0.6s-0.1,0.1-0.1,0.1
				c-0.1,0-0.1,0-0.1,0.1c0,0,0.1,0,0.1-0.1c0.1-0.1,0.3-0.1,0.4-0.1c0.3,0.1,0.6,0.3,0.8,0.5c0.1,0.2,0.2,0.7,0.2,0.9
				c-0.1,0.3-0.3,0.6-0.3,0.7c-0.1,0.1-0.2,0.2-0.3,0.3l0.1,0.1v0.1c0.1,0,0.6,0,0.8,0c0.1,0.1,0.3,0.3,0.4,0.4
				C870.8,669.5,870.8,669.9,870.8,670z"/>
			<path class="st5" d="M863.7,714.1L863.7,714.1c0.2,0,0.5,0,0.7-0.1c0.3-0.1,1.6-0.9,1.9-0.9c0.2-0.1,1.2-0.5,1.6-0.8
				c0.2-0.1,0.4-0.2,0.5-0.3c0.2-0.1,0.8,0.1,0.9,0.1c0.3,0,0.6,0.1,0.7,0.2c0.1,0.1,0.4,0.4,0.5,0.6s0.1,0.6,0.1,0.7s0,0.1-0.1,0.2
				h0.1l0,0l0,0c0.3-0.1,1.6-0.8,1.8-0.9c0.3-0.1,1.5-0.5,1.8-0.6c0.1,0,0.4,0,0.6,0.2c0.1,0.1,0.4,0.4,0.5,0.5s0.1,0.4,0,0.6
				c-0.1,0.2-0.2,0.6-0.3,0.7c-0.3,0.3-0.6,0.6-1.3,1.2c-0.4,0.4-1.6,1.3-1.7,1.4s-0.4,0.4-0.6,0.6c-0.2,0.1-0.4,0.3-0.5,0.4
				c-0.2,0.3-0.5,1.1-0.6,1.6c0,0.1-0.1,0.3,0,0.3c0,0,0,0,0,0.1v0.3c-0.8-0.1-1.8-0.1-2.2-0.1c-0.4,0.1-1.8,0.1-1.8,0.1
				c-0.6,0.1-1.1,0.1-1.5,0.2v-0.1l0,0c0-0.1-0.1-0.3-0.2-0.6c-0.2-0.4-0.6-0.9-1.1-1.3c-0.4-0.4-1.4-1.2-1.6-1.3
				c-0.4-0.3-1.3-0.9-1.6-1.3c-0.1-0.1-0.4-0.6-0.5-0.6c-0.1-0.1-0.2-0.3-0.3-0.5c-0.1-0.1-0.1-0.2-0.1-0.3s0.1-0.4,0.3-0.5
				c0.1-0.1,0.5-0.3,0.8-0.3c0.4-0.1,1-0.1,1.4,0c0.1,0,0.6,0.2,0.8,0.2l0,0C862.8,713.9,863.4,714,863.7,714.1L863.7,714.1z"/>
			<path class="st1" d="M872.7,723.9c0.1,0.1,0.3,1,0.3,1.4c-0.1,0.2-0.3,0.5-0.4,0.7c-0.1,0.1-0.5,0.4-0.7,0.4c0,0-0.2,0.1-0.4,0.1
				c-0.5,0.1-1.3,0.3-1.7,0.3c-0.1,0-1.3,0-1.8,0.1c-0.7,0.1-1.1,0.1-1.5,0.1c-0.3,0-0.8-0.1-1.2-0.1c-0.2,0-0.3-0.1-0.4-0.1
				c-0.3-0.1-0.6-0.2-0.8-0.3c-0.1-0.1-0.2-1.4-0.1-1.6c0.1-0.2,0.4-0.6,0.4-0.6c0.1-0.1,0.3-0.2,0.3-0.2l0,0l0,0c0.1,0,0.3,0,0.4,0
				c0.3,0,1.6,0.1,2,0.1c0.3,0,1.7-0.2,1.9-0.2c0.4-0.1,1.3-0.1,1.9-0.1c0.4-0.1,1-0.2,1.4-0.3h0.1c0.1,0.1,0.1,0.1,0.2,0.1
				C872.4,723.7,872.5,723.9,872.7,723.9z"/>
			<path class="st1" d="M872.5,722.2c0.1,0.1,0,0.5-0.1,0.8c-0.1,0.2-0.2,0.5-0.3,0.6c-0.1,0-0.1,0.1-0.2,0.1
				c-0.3,0.1-1,0.3-1.4,0.3c-0.7,0.1-1.6,0.1-1.9,0.1c-0.2,0-1.6,0.2-1.9,0.2c-0.4,0-1.6-0.1-2-0.1c-0.1,0-0.3,0-0.4,0
				c-0.1,0-0.3-0.1-0.3-0.1c-0.1-0.1-0.4-0.5-0.6-0.6l0,0c-0.1-0.3-0.1-0.7-0.2-0.9c-0.1-0.1-0.1-0.3-0.2-0.4l0.1-0.1
				c0-0.1,0-0.2,0.1-0.3c0.1-0.3,0.6-1.1,0.9-1.3c0.1-0.1,0.3-0.1,0.6-0.1c0.3-0.1,0.8-0.1,1.5-0.2c0,0,1.3-0.1,1.8-0.1
				c0.4,0,1.5,0.1,2.2,0.1c0.4,0,0.7,0.1,0.8,0.1c0.3,0.1,0.5,0.2,0.6,0.3C871.8,720.6,872.5,722,872.5,722.2z"/>
			<path class="st1" d="M872,729.2c0,0.3-0.1,0.8-0.2,1.1c-0.1,0.3-0.4,0.8-0.6,0.9l-0.1,0.1c-0.2,0.1-0.5,0.4-0.6,0.5
				c-0.2,0.1-0.6,0.2-0.9,0.2c-1.1,0-3.4-0.1-3.7-0.1c-0.1-0.1-0.4-0.1-0.7-0.3c-0.1-0.1-0.1-0.1-0.2-0.1c-0.1-0.1-0.4-0.4-0.4-0.8
				c-0.1-0.2,0.1-0.7,0.1-0.8c0.1-0.1,0.2-0.3,0.3-0.3s0.1-0.1,0.1-0.1h0.1v-0.1c0.3,0.1,0.6,0.1,0.9,0.1c0.6,0,1.7,0,2.3,0
				c0.3,0,0.7,0,1-0.1c0.2-0.1,1.8-0.5,2-0.6c0.1-0.1,0.3-0.2,0.4-0.3l0.1,0.1C872,728.8,872,729.1,872,729.2z"/>
			<path class="st6" d="M864.8,720.3L864.8,720.3c-0.3,0.2-0.4,0.2-0.6,0.2c-0.3,0.1-0.8,0.9-0.9,1.3c0,0.1-0.1,0.1-0.1,0.3
				l-0.1,0.1c-0.1-0.2-0.3-0.4-0.3-0.5c-0.2-0.3-0.7-0.8-0.9-0.9c-0.1-0.1-0.5-0.2-0.7-0.2c-0.4-0.1-1.3,0.1-1.6,0.2
				c-0.1,0.1-0.2,0.1-0.3,0.3c0-0.1,0-0.1,0-0.1s-0.4-2.2-0.6-2.8c-0.2-0.7-0.6-2-0.8-3l1.6-0.3c0.1,0.1,0.1,0.3,0.3,0.5
				c0,0.1,0.4,0.5,0.5,0.6c0.3,0.3,1.1,0.9,1.6,1.3c0.3,0.2,1.1,0.9,1.6,1.3c0.4,0.4,0.9,0.9,1.1,1.3
				C864.8,720,864.8,720.3,864.8,720.3L864.8,720.3z"/>
			<path class="st1" d="M859.5,720.9c0.1-0.1,0.2-0.2,0.3-0.3c0.3-0.1,1.2-0.3,1.6-0.2c0.2,0,0.6,0.1,0.7,0.2
				c0.3,0.1,0.8,0.7,0.9,0.9c0.1,0.1,0.2,0.3,0.3,0.5c0.1,0.1,0.1,0.3,0.2,0.4c0.1,0.2,0.2,0.6,0.2,0.9c0,0.1,0,0.1,0,0.2
				c0,0.4-0.1,0.9-0.1,1c-0.1,0.1-0.1,0.3-0.2,0.3c-0.1,0-0.2,0.1-0.3,0.1l0,0l0,0c-0.1,0-0.1,0.1-0.1,0.1c-0.1,0-0.6,0-0.8,0.1
				c-0.3,0-0.6,0-0.8-0.1c-0.2-0.1-0.6-0.3-0.7-0.3c-0.1-0.1-0.4-0.3-0.6-0.5c-0.2-0.2-0.4-0.4-0.4-0.6c-0.1-0.2-0.3-0.6-0.3-0.9
				c-0.1-0.3-0.1-0.8,0-1c0-0.2,0.1-0.6,0.2-0.6C859.4,721,859.5,721,859.5,720.9z"/>
			<path class="st6" d="M862.7,713.8L862.7,713.8c-0.1,0.1-0.6-0.1-0.8-0.1c-0.4-0.1-1-0.1-1.4,0c-0.3,0.1-0.6,0.2-0.8,0.3
				c-0.1,0.1-0.3,0.4-0.3,0.5s0,0.1,0.1,0.3l-1.6,0.3c-0.1-0.4-0.2-0.9-0.3-1.2c-0.2-0.8-0.4-3.1-0.4-4.2c-0.1-1.3-0.3-4-0.4-4.6
				s-0.2-1-0.3-1.4c0.1,0.1,0.4,0.3,0.6,0.4c0.4,0.1,1.5,1.1,1.6,1.3c0.2,0.1,1,1.1,1.3,1.5c0.3,0.3,0.7,1.1,0.9,1.6
				c0.3,0.9,1.3,4.9,1.4,5.1C862.5,713.6,862.7,713.7,862.7,713.8C862.7,713.7,862.7,713.7,862.7,713.8z"/>
			<path class="st7" d="M824.2,685.1L824.2,685.1L824.2,685.1c-0.2-0.2-0.5-0.4-0.9-0.5c-0.4-0.1-0.8-0.1-1.3-0.1
				c-0.3,0-0.9,0.2-1.3,0.4c-0.3,0.1-0.6,0.4-0.8,0.7h-0.1c-0.1-0.1-0.1-0.1-0.1-0.2c-0.1-0.1-0.3-0.7-0.4-1
				c-0.1-0.4-0.3-1.6-0.3-1.9c0-0.8,0-1.6,0.1-2.1c0.1-0.4,0.6-1.4,0.9-1.7c0.3-0.3,1.1-0.9,1.4-1.1c0.2-0.1,0.7-0.1,0.8-0.1l0,0
				c0-0.1,0-0.1,0-0.1c0-0.2,0.1-0.6,0.2-0.8c0.1-0.3,0.3-0.5,0.6-0.8c0.4-0.4,1.7-1.4,2.5-1.8c0.4-0.2,1.6-0.7,2-0.8
				c0.8-0.3,3.4-1,4.2-1.3c0.4-0.1,3.3-0.6,4-0.7c0.9-0.1,1.5-0.1,2.1-0.1c1.8,0.1,4,0.1,4.1,0.2c0.3,0.1,1.8,0.4,2.5,0.5
				c0.6,0.1,1.5,0.4,1.9,0.6c0.4,0.3,1.4,0.9,1.5,1.1c0.1,0.1,0.4,0.5,0.4,0.8c0.1,0.3,0,0.8-0.1,1c-0.1,0.2-0.9,0.9-1.3,1.2
				c-0.3,0.1-0.9,0.3-1.5,0.4c-0.3,0.1-0.4,0.1-0.7,0.1c-0.4,0-0.8,0-1.4-0.1s-3.6-0.7-4.2-0.8c-1.3-0.1-3.2-0.3-4.1-0.3
				c-0.6,0-1.6,0-2.2,0.1c-0.4,0.1-1.2,0.3-2,0.6c-0.5,0.2-1.4,0.6-1.6,0.7c-0.4,0.2-1.3,0.9-1.5,1c-0.1,0.1-0.3,0.4-0.3,0.6h-0.1
				v0.1c0.1,0.2,0.4,0.9,0.7,1.5c0.1,0.3,0.3,0.6,0.2,0.8c-0.1,0.2-0.3,0.4-0.5,0.6c-0.2,0.2-0.6,0.5-0.8,0.6
				c-0.8,0.7-1.3,1.1-1.3,1.1c0,0.1,0.2,2.2,0.1,2.3c0,0.1-0.4,0.1-0.6,0.1c-0.5,0-0.8,0-0.8-0.1s-0.1-0.2-0.1-0.3
				C824.2,685.2,824.2,685.1,824.2,685.1z"/>
			<path class="st7" d="M842.2,683.5c-0.1,0-0.3,0.1-0.3,0.1c-0.2,0-0.5-0.3-0.6-0.4c-0.1-0.1-0.1-0.6,0-0.8
				c0.1-0.1,0.3-0.4,0.4-0.4c0.1-0.1,0.4-0.2,0.6-0.3c0.1,0,0.8-0.1,0.9-0.1c0.3-0.1,0.8-0.3,1.1-0.4c0.2-0.1,0.5-0.4,0.7-0.7
				c0.1-0.2,0.4-0.6,0.6-0.8c0.2-0.2,0.6-0.4,0.8-0.5c0.2-0.1,0.6,0,0.6,0.1c0.1,0.1,0.1,0.6,0.1,0.8c-0.1,0.2-0.5,0.7-0.6,0.8
				s-0.2,0.6-0.3,0.8c-0.1,0.1-0.2,0.3-0.3,0.4c-0.1,0.1-0.2,0.1-0.3,0.2c-0.3,0.2-2.7,1.1-2.8,1.1
				C842.7,683.5,842.3,683.5,842.2,683.5L842.2,683.5z"/>
			<path d="M845.4,748.9L845.4,748.9L845.4,748.9c0-0.6,0.1-2.4,0-2.6c0,0,0.6-0.2,0.8-0.1c0,0,0.4,0,0.6,0
				c-0.1,0.9-0.3,1.6-0.3,2.2c0,0.1-0.1,0.3-0.1,0.4c0,0,0,0-0.1,0s-0.2,0.1-0.2,0.1c-0.1,0-0.2,0-0.3,0S845.4,748.9,845.4,748.9z"
				/>
			<path class="st6" d="M838.8,709.6L838.8,709.6c0.1,0.1,0.1,0.1,0.1,0.2c0.1,0.2,0.3,1.2,0.4,1.6c0.1,0.5,0.3,1.8,0.3,2
				c0.1,1.1,0.6,3.9,0.8,4.6c0.3,0.9,0.8,3,1.1,4c0.2,0.6,1.1,2.9,1.5,4c0.6,1.7,1,3.1,1.3,4.4c0.1,0.4,0.3,1.7,0.4,2.2
				c0.1,1.1,0.2,2.9,0.3,4.3c0,1.5-0.1,3.2-0.2,4.7c-0.1,0.6-0.1,1.7-0.2,2.2c-0.1,0.4-0.2,1.2-0.2,1.3v0.1c-0.2,0-0.3,0-0.4,0
				c-0.1,0-0.9,0-1.1-0.1c-0.4-0.1-0.9-0.1-1.7-0.1c-0.3,0-0.6-0.1-0.6-0.1h-0.3c-0.1-0.7-0.1-1.4-0.2-1.9c-0.1-0.8-0.6-3.2-0.8-4
				c-0.6-2.3-2-7.4-2.5-8.9c-0.4-1.1-1.1-3.4-1.6-4.6c-0.1-0.5-0.4-1.5-0.6-2.1c-0.2-1.1-0.6-3.4-0.8-4.2c-0.2-0.8-0.3-3.2-0.4-4.6
				c-0.1-1.3-0.1-3.8-0.1-5.1c-0.1-1.4-0.2-2.8-0.4-3.7l0,0c0-0.1,0-0.1,0-0.1c0-0.1-0.1-0.3-0.1-0.4h0.1c0,0,0,0.1,0.1,0.1
				c0.1,0.1,0.2,0.3,0.3,0.3c0.1,0.1,0.1,0.1,0.2,0.2l0,0c0.1,0.1,0.1,0.1,0.1,0.1c0.1,0.1,1.5,1.5,2.1,1.7h0.1v-0.1l-0.1,0.1
				c0-0.1-0.1-0.1-0.1-0.2c-0.1-0.6-0.2-1.1-0.2-2c0-1,0.1-1.7,0.3-2l0,0c0.1,0.1,0.7,0.9,1,1.4c0.1,0.1,0.2,0.4,0.3,0.4
				c0,0.1,0.1,0.1,0.1,0.1l1.2-0.1c0.1,0.6,0.1,1.2,0.1,1.4c0.1,0.6,0.4,2,0.4,2.5c0,0.1,0,0.1,0,0.1
				C838.8,709.4,838.8,709.5,838.8,709.6z"/>
			<path class="st6" d="M844.5,697.2L844.5,697.2c0,0.1,0,0.1,0,0.2c0,0.2-0.2,1.3-0.3,1.9c-0.1,0.7-0.3,1.3-0.4,2
				c-0.1,0.6-0.4,1.7-0.5,2.2c-0.1,0.3-0.1,0.6-0.1,0.9h-0.1c0,0,0,0.1-0.1,0.1c0,0.1-0.1,0.2-0.1,0.3c-0.1,0.3-0.3,0.6-0.4,0.8
				c-0.1,0.1-0.9,1.1-0.9,1.1s0-0.6-0.1-1.5c-0.1-0.6-0.2-1.6-0.3-1.9c-0.1-0.3-0.3-0.6-0.3-0.6c-0.1,0.1-0.4,1-0.6,1.6
				c0,0.1-0.1,0.1-0.1,0.1l-0.8-0.1c0.2-0.9,0.6-2.5,0.6-2.7c0,0,1-0.8,1.3-1.1c0.3-0.3,1.1-1.1,1.6-1.6s0.9-1.1,1.2-1.6
				C844.3,697.5,844.3,697.4,844.5,697.2z"/>
			<path d="M840.2,796.5c0.1,0.1-0.1,0.7-0.2,0.8c-0.2,0.1-1,0.4-1.8,0.8c-0.3,0.1-0.6,0.3-0.9,0.3c-0.1,0-0.1-0.1-0.1-0.2
				c-0.1-0.4-0.1-0.8-0.1-0.8s-0.3,0.3-0.4,0.4c-0.2,0.2-0.5,0.4-0.8,0.6c-0.3,0.2-0.8,0.4-0.9,0.5c-0.3,0.1-1.8,0.6-2.1,0.6
				c-0.5,0.1-1.6,0.3-2.2,0.4c-0.6,0.1-1.4,0.1-2.1,0.2c-1.2,0.1-3.4,0.1-4.6,0.1c-1,0-3-0.2-4.1-0.2c-0.6,0-1.8,0-2-0.1
				c-0.1,0-0.3-0.2-0.3-0.3c-0.1-0.3-0.3-0.9-0.2-1.1c0.1-0.1,0.2-0.2,0.2-0.3c0.1,0,0.1,0,0.1,0s0.2,0.1,0.3,0.1l0,0
				c0.1,0,0.1,0,0.1,0c0.1,0,0.3,0.1,0.4,0.1c0.1,0,1.5,0.2,2.2,0.3c1.2,0,3.3,0.3,4.2,0.4c0.4,0.1,1.6,0.1,1.8,0.1
				c0.4,0,3.6-0.1,4.2-0.2c0.6-0.1,1.6-0.2,2.1-0.4c1.5-0.4,2.5-0.8,3-1.1c0.1-0.1,0.3-0.2,0.4-0.3c0.1,0,0.1-0.1,0.2-0.1l0.1-0.1
				c0.2-0.1,0.3-0.3,0.4-0.5c0,0,0.4-0.8,0.5-0.9c0.1,0.3,0.2,0.6,0.3,0.9c0,0.2,0.1,0.7,0.1,0.9l0.1-0.1v0.1l0,0
				c0,0,0.3-0.1,0.6-0.3c0.4-0.2,1-0.4,1.1-0.5c0.1,0,0.1-0.1,0.2-0.1v-0.1c0-0.1,0-0.1,0-0.1h0.3
				C840.2,796.4,840.3,796.4,840.2,796.5C840.2,796.4,840.2,796.4,840.2,796.5z"/>
			<path class="st7" d="M839,682.6c0,0.1,0,0.4-0.1,0.6c-0.1,0.1-0.1,0.1-0.2,0.2l-0.1,0.1h-0.1c0,0-0.1,0.1-0.2,0.1
				c-0.1,0-0.8,0-1,0c-0.2,0-0.6-0.1-0.9-0.3c-0.1-0.1-0.8-0.6-0.9-0.6c-0.3-0.1-0.7-0.4-0.9-0.4c-0.2-0.1-1.6-0.3-1.8-0.3
				c-0.4,0-1.5,0.1-1.7,0.1c-0.3,0-0.5-0.1-0.6-0.2c-0.1-0.1-0.3-0.3-0.3-0.4c0-0.1,0.1-0.4,0.1-0.6c0.1-0.1,0.4-0.4,0.6-0.4
				c0.3-0.1,1.4-0.2,1.6-0.1c0.4,0.1,1,0.2,1.5,0.4c0.8,0.4,2.4,1.1,2.7,1.2c0.5,0.1,1.6,0.1,1.8,0.2
				C838.8,682.1,839,682.4,839,682.6z"/>
			<path class="st1" d="M823.5,687.6l-0.1,1.8c-0.1,0-0.1,0.1-0.2,0.1s-0.1,0-0.1,0.1c-0.3,0.1-0.5,0.3-0.6,0.3
				c-0.4,0.1-1.5-0.1-1.8-0.1c-0.1-0.1-0.4-0.2-0.6-0.3c-0.1-0.1-0.3-0.3-0.4-0.5c-0.1-0.2-0.3-0.5-0.3-0.8c-0.1-0.4-0.1-1.3,0-1.6
				v-0.1l1.6,0.1c0.1-0.1,0.3-0.1,0.3-0.2c0.2-0.1,0.4-0.2,0.6-0.2c0.2,0.1,0.9,0.5,1.1,0.8C823.3,687,823.5,687.5,823.5,687.6
				L823.5,687.6z"/>
			<path class="st6" d="M809,718.1c0.1-0.3,0.3-1.3,0.4-1.8s0.3-1.6,0.4-2.2c0.2-0.9,0.8-3.2,1.1-4.2c0.3-0.9,0.6-1.8,0.8-2.2
				c0.2-0.3,0.7-1,1-1.3c0.3-0.3,0.6-0.6,0.8-0.7c0.2-0.1,0.6-0.4,0.9-0.5c0.1-0.1,0.8-0.3,0.9-0.4c0.2-0.1,0.5-0.3,0.9-0.4
				c0.1,0,0.1-0.1,0.2-0.1h0.2c0,0.5,0,1.1,0,1.5c0,1.1,0.1,4.6,0.1,7c0,1.1-0.1,3.5-0.1,4.7c-0.1,1.1-0.3,3.2-0.4,4.3
				c-0.1,0.8-0.4,1.9-0.7,2.9l-1-0.1c0-0.2,0.1-0.5,0-0.8c-0.1-0.3-0.2-0.8-0.3-0.9s-0.3-0.3-0.4-0.3c-0.2-0.1-0.4-0.1-0.7-0.1
				c0,0,0,0,0-0.1s0.1-0.2,0.3-0.4c0.1-0.2,0.3-0.3,0.4-0.4c0,0,0.1-0.1,0.3-0.3l0,0c0.1-0.1,0.2-0.1,0.3-0.2
				c0.2-0.2,0.4-0.4,0.4-0.6c0.1-0.1,0.2-0.6,0.2-0.8c0-0.2,0-0.6-0.1-0.9c-0.1-0.2-0.2-0.5-0.3-0.6s-0.4-0.2-0.6-0.2
				s-0.7,0.1-0.9,0.3c-0.2,0.1-0.4,0.2-0.6,0.3c0.1-0.2,0.1-0.6,0-0.7c-0.1-0.1-0.3-0.4-0.4-0.4c-0.2-0.1-0.5-0.1-0.8-0.1
				c-0.4,0-0.8,0.1-0.9,0.1c-0.1,0.1-0.6,0.3-1.1,0.6H809L809,718.1z"/>
			<path class="st1" d="M813.5,725.8c-0.2,0.1-0.6,0.4-0.8,0.4c-0.1,0.1-0.3,0.1-0.5,0.1c-0.5,0.1-1.1,0.1-1.2,0.1
				c-0.1,0-0.4-0.1-0.6-0.1c-0.1-0.1-0.3-0.3-0.4-0.4c-0.1-0.2-0.1-0.6-0.1-0.8c0.1-0.2,0.3-0.6,0.5-0.9c0.1-0.2,0.6-0.6,0.7-0.7
				c0.2-0.1,0.5-0.3,0.8-0.4c0.3-0.1,0.6-0.3,0.8-0.3c0.1,0,0.1-0.1,0.3-0.1c0.3,0,0.5,0,0.7,0.1c0.1,0.1,0.3,0.2,0.4,0.3
				c0.1,0.1,0.3,0.6,0.3,0.9c0,0.3,0,0.6,0,0.8c0,0.1,0,0.1-0.1,0.2c-0.1,0.1-0.1,0.2-0.2,0.3C814,725.4,813.8,725.6,813.5,725.8
				L813.5,725.8z"/>
			<path class="st1" d="M811.9,735.4c-0.1,0.1-0.1,0.1-0.3,0.2c-0.2,0.1-0.6,0.4-0.8,0.4c-0.4,0.1-0.9,0.1-1.8,0.2
				c-0.7,0-1.1-0.1-1.9-0.3c-0.6-0.1-0.9-0.2-1.1-0.3c-0.1-0.1-0.3-0.1-0.3-0.1c-0.3-0.1-0.6-0.4-0.8-0.6c-0.1-0.1-0.4-0.8-0.4-0.8
				c-0.1-0.3-0.1-0.6-0.1-0.9c0-0.2,0.2-0.6,0.3-0.8c0.1,0.1,0.1,0.1,0.1,0.1c0.2,0.1,0.8,0.4,1,0.4c0.4,0.2,1.5,0.4,1.9,0.4
				c0.2,0,1.7,0.1,2,0.1c0.4,0,1.3-0.1,1.7-0.1c0.1,0,0.3-0.1,0.4-0.2l0,0c0.1,0.1,0.1,0.1,0.1,0.1c0.1,0.1,0.3,0.3,0.3,0.4
				c0.1,0.1,0.1,0.4,0.1,0.4c0,0.2,0,0.6-0.1,0.7C812.3,735,812.2,735.2,811.9,735.4z"/>
			<path class="st1" d="M811.8,733.3c-0.1,0.1-0.3,0.1-0.4,0.2c-0.4,0.1-1.3,0.1-1.7,0.1c-0.3,0-1.8-0.1-2-0.1
				c-0.4-0.1-1.4-0.3-1.9-0.4c-0.2-0.1-0.8-0.3-1-0.4l-0.1-0.1c-0.1-0.1-0.3-0.3-0.4-0.3c-0.1-0.1-0.3-0.5-0.4-0.7
				c-0.1-0.2-0.2-0.6-0.1-0.8c0-0.3,0.2-0.8,0.3-0.9s0.1-0.1,0.2-0.2c0.1-0.1,0.4-0.1,0.6-0.1l0,0l0.1,0.1c0.2,0.2,0.5,0.4,0.8,0.5
				c0.2,0.1,0.6,0.3,0.9,0.3s1.4-0.1,2.1,0c0.9,0,1.4,0,1.8-0.1c0.3-0.1,0.7-0.3,1-0.4l0.1,0.1c0,0,0,0.1,0.3,0.1
				c0.1,0,0.3,0.2,0.4,0.5c0.3,0.6,0.4,1.9,0.4,2.1c0,0.1-0.1,0.4-0.3,0.5C812.2,733.1,812,733.2,811.8,733.3L811.8,733.3z"/>
			<path class="st1" d="M804.8,729.4c-0.2-0.2-0.4-0.5-0.6-0.7c-0.1-0.2-0.3-0.8-0.3-0.9c-0.1-0.2-0.1-0.6-0.1-0.8
				c0-0.2,0.1-0.6,0.2-0.7c0.1-0.1,0.3-0.4,0.4-0.4c0.1-0.1,0.4-0.2,0.6-0.2h0.1c0.4,0.1,1.6,0.4,1.6,0.4c0.8,0.3,1.3,0.4,1.8,0.6
				s1.3,0.4,1.8,0.4c0.2,0,0.6-0.1,0.8-0.1c0.1,0,0.7-0.3,0.9-0.3c0.1,0,0.1,0,0.2,0c0.1,0,0.1,0,0.1,0h0.1c0.1,0.1,0.1,0.7,0,0.9
				c-0.1,0.3-0.3,0.9-0.3,1.1c-0.1,0.3-0.4,0.6-0.6,0.8c-0.1,0.1-0.1,0.1-0.3,0.2c-0.3,0.2-0.7,0.4-1,0.4c-0.3,0.1-0.9,0.1-1.8,0.1
				c-0.7,0-1.8,0.1-2.1,0c-0.3,0-0.7-0.1-0.9-0.3C805.2,729.8,804.9,729.6,804.8,729.4C804.8,729.5,804.8,729.5,804.8,729.4z"/>
			<path class="st1" d="M812.3,736c0,0.1-0.1,0.4-0.3,0.6c0,0,0,0.1-0.1,0.1c-0.1,0.3-0.4,0.5-0.7,0.6c-0.3,0.1-1.5,0.4-1.6,0.4
				s-2.2-0.4-2.3-0.4c-0.3-0.1-0.6-0.3-0.8-0.4c-0.2-0.1-0.4-0.4-0.6-0.5v-0.1c-0.1-0.1-0.1-0.3-0.1-0.4c0-0.1,0.1-0.1,0.1-0.2
				c0,0,0,0,0.1,0c0.3,0.1,0.6,0.2,1.1,0.3c0.7,0.2,1.2,0.3,1.9,0.3c0.9,0,1.5,0,1.8-0.2c0.3-0.1,0.6-0.3,0.8-0.4
				c0.1-0.1,0.2-0.1,0.3-0.2C812,735.5,812.3,735.9,812.3,736z"/>
			<path class="st5" d="M809.5,762.1c0.1,0.4,0,1.1-0.1,1.5s-0.3,1.1-0.5,1.4c-0.3,0.3-0.9,0.9-1.2,1c-0.5,0.3-1.4,0.6-2,0.6
				c-0.5,0.1-1.8,0.1-2.3,0.1c-0.3,0-1.2-0.2-1.9-0.3c0-0.1,0-0.1,0-0.1c0-0.1,0-0.3,0-0.4c0.1-0.6,0.1-1.6,0.3-3.2
				c0.1-1.1,0.4-3.2,0.5-4.2h0.1c0,0.1,0.4,0.2,0.6,0.2c0.1,0,1.6,0.2,2,0.3c0.5,0,1.1,0.2,1.6,0.4c0.4,0.1,1.2,0.6,1.6,0.9
				c0.2,0.1,0.6,0.5,0.8,0.8C809.2,761.1,809.5,761.8,809.5,762.1z"/>
		</g>
		<g>
			<path class="st8" d="M834.7,684.6c0.1,0.2,0.1,0.6,0.1,0.8c0,0.6-0.1,1-0.1,1.1s-0.1,0.1-0.1,0.2l-0.1,0.1"/>
			<path class="st8" d="M834,684.5c0.1-0.1,0.1-0.1,0.1-0.2l0.1-0.1c0.1,0,0.1,0,0.1,0c0.1,0,0.1,0.1,0.2,0.3v0.1"/>
			<path class="st8" d="M833.8,685.2c0-0.1,0-0.3,0-0.3c0-0.1,0.1-0.3,0.2-0.4"/>
			<path class="st8" d="M834.5,686.6c-0.1,0.1-0.1,0.3-0.1,0.3l0,0c-0.1,0.1-0.2,0.1-0.3,0s-0.2-0.2-0.3-0.4c0,0,0-0.1-0.1-0.1
				c-0.1-0.1-0.1-0.4-0.1-0.7"/>
			<path class="st8" d="M834.7,686.5C834.5,686.5,834.5,686.5,834.7,686.5"/>
			<path class="st8" d="M834.7,686.4L834.7,686.4"/>
			<path class="st8" d="M834.7,686.3L834.7,686.3"/>
			<path class="st8" d="M834.8,686.1C834.8,686.2,834.8,686.2,834.8,686.1"/>
			<path class="st8" d="M834.2,684.1L834.2,684.1c0-0.1,0.1-0.1,0.2,0c0.1,0.1,0.2,0.3,0.3,0.4v0.1l0,0c0.1,0.3,0.1,1.1,0,1.5l0,0
				c0,0.1,0,0.1,0,0.1l0,0v0.1l0,0v0.1l0,0v0.1l0,0l0,0l0,0c0,0,0,0,0,0.1l0,0c-0.1,0.1-0.1,0.3-0.1,0.3s-0.1,0-0.1,0.1
				c-0.1,0.1-0.2,0.1-0.3,0.1s-0.2-0.2-0.3-0.4c-0.1-0.1-0.1-0.5-0.1-0.8c0-0.1,0-0.1,0-0.2s0-0.2,0-0.3l0,0c0-0.3,0-0.4,0-0.5
				c0.1-0.1,0.2-0.4,0.3-0.4s0.1,0,0.1,0c0.1,0,0.1,0.1,0.2,0.1c0.1,0.1,0.1,0.6,0.2,0.8c0,0.2,0.1,0.8,0.1,0.9"/>
			<path class="st8" d="M843.8,684.1c0.1,0.1,0.1,0.2,0.1,0.3c0.1,0.2,0.1,0.6,0.1,0.8c0,0.2-0.1,0.5-0.1,0.6"/>
			<path class="st8" d="M843.3,684.1C843.3,684.1,843.3,684,843.3,684.1c0.1-0.2,0.3-0.2,0.3-0.2l0.1,0.1"/>
			<path class="st8" d="M843.2,685.5C843.2,685.4,843.2,685.4,843.2,685.5c0-0.3-0.1-0.5,0-0.7c0-0.2,0.1-0.6,0.2-0.8"/>
			<path class="st8" d="M843.2,685.7c0-0.1,0-0.1,0-0.2"/>
			<path class="st8" d="M843.3,686.2c-0.1-0.1-0.1-0.3-0.1-0.4v-0.1"/>
			<path class="st8" d="M843.2,685.5c-0.1-0.2-0.1-0.4-0.1-0.6c0-0.3,0.1-0.6,0.3-0.8l0,0c0.1-0.1,0.2-0.1,0.3-0.1s0.1,0.1,0.1,0.1
				l0,0c0,0,0.1,0,0.1,0.1c0.1,0.1,0.1,0.3,0.2,0.5c0.1,0.4-0.1,1.4-0.2,1.6c-0.1,0.1-0.2,0.2-0.3,0.2s-0.1-0.1-0.2-0.3"/>
			<path class="st8" d="M843.3,685.7c0-0.1,0-0.1-0.1-0.2l0,0v-0.1"/>
			<path class="st8" d="M844,685.2L844,685.2c0,0.2-0.1,0.5-0.1,0.6s0,0.1-0.1,0.1c0,0.1-0.1,0.1-0.1,0.1c-0.1,0.1-0.1,0.1-0.2,0.1
				c-0.1,0-0.2-0.1-0.3-0.3"/>
			<path class="st8" d="M834,684.5L834,684.5c0.1,0,0.1-0.1,0.2-0.1c0.1,0,0.1,0.1,0.2,0.1c0.1,0.2,0.1,1.3,0.1,1.6
				c0,0.2-0.1,0.4-0.1,0.4c-0.1,0.1-0.2,0.1-0.2,0.1c-0.1,0-0.1-0.1-0.2-0.1v-0.1c-0.1-0.3-0.1-1.1-0.1-1.5c0-0.1,0.1-0.3,0.1-0.3
				S834,684.6,834,684.5"/>
			<line class="st8" x1="834" y1="684.5" x2="834" y2="684.5"/>
			<path class="st8" d="M843.5,684.1c0.1,0,0.1,0.1,0.2,0.2c0,0.1,0.1,0.2,0.1,0.4c0.1,0.4,0,0.9,0,1.1c0,0.1-0.1,0.1-0.1,0.2
				c-0.1,0.1-0.1,0.3-0.1,0.3c-0.1,0.1-0.1,0-0.2-0.1c-0.1-0.1-0.1-0.3-0.1-0.4l0,0c0-0.1-0.1-0.2-0.1-0.3c0,0,0,0,0-0.1
				s0-0.3,0-0.4v-0.1"/>
			<path class="st8" d="M843.5,684.1L843.5,684.1L843.5,684.1L843.5,684.1z"/>
			<path class="st8" d="M839.2,689C839.2,689,839.2,689.1,839.2,689c-0.2,0.2-0.3,0.2-0.4,0.3c-0.1,0.1-0.3,0.8-0.3,0.9
				c-0.1,0.3,0,0.7,0.1,0.9c0.1,0.3,0.3,0.7,0.6,0.9c0.2,0.3,0.8,0.6,1.1,0.8c0.3,0.1,1.1,0.4,1.4,0.4c0.1,0,1.6,0.2,1.8,0.2
				c0.6,0.1,1.3,0.1,1.6,0c0.7-0.1,1.3-0.2,1.8-0.3c0.7-0.1,1.1-0.1,1.4-0.2c0.3-0.1,0.6-0.2,0.8-0.3c0.1-0.1,0.4-0.4,0.5-0.5
				s0.3-0.4,0.3-0.6c0.1-0.5,0.3-1.6,0.3-2.1c0-0.3-0.1-0.8-0.2-1c-0.1-0.3-0.5-0.7-0.7-0.8c-0.3-0.3-1.1-0.8-1.5-0.9
				c-0.2-0.1-0.4-0.1-0.8-0.1c-0.1,0-0.3,0-0.3,0c-0.3,0-1.3,0.1-2,0c-0.3,0-1.1-0.1-1.1-0.1c-0.3,0-0.9-0.1-1-0.3
				c-0.1,0-0.2-0.2-0.3-0.3l-0.1-0.1"/>
			<path class="st8" d="M838.7,683.5c0,0-0.1,0.1-0.2,0.1c-0.1,0-0.8,0-1,0c-0.2,0-0.6-0.1-0.9-0.3c-0.1-0.1-0.8-0.6-0.9-0.6
				c-0.3-0.1-0.7-0.4-0.9-0.4c-0.2-0.1-1.6-0.3-1.8-0.3c-0.4,0-1.5,0.1-1.7,0.1c-0.3,0-0.5-0.1-0.6-0.2c-0.1-0.1-0.3-0.3-0.3-0.4
				c0-0.1,0.1-0.4,0.1-0.6c0.1-0.1,0.4-0.4,0.6-0.4c0.3-0.1,1.4-0.2,1.6-0.1c0.4,0.1,1,0.2,1.5,0.4c0.8,0.4,2.4,1.1,2.7,1.2
				c0.5,0.1,1.6,0.1,1.8,0.2c0.2,0.1,0.4,0.4,0.5,0.7c0,0.1,0,0.4-0.1,0.6c-0.1,0.1-0.1,0.1-0.2,0.2
				C838.8,683.4,838.8,683.5,838.7,683.5"/>
			<path class="st8" d="M842.3,683.4C842.3,683.4,842.3,683.5,842.3,683.4c-0.1,0.1-0.1,0.1-0.2,0.1s-0.3,0.1-0.3,0.1
				c-0.2,0-0.5-0.3-0.6-0.4s-0.1-0.6,0-0.8c0.1-0.1,0.3-0.4,0.4-0.4c0.1-0.1,0.4-0.2,0.6-0.3c0.1,0,0.8-0.1,0.9-0.1
				c0.3-0.1,0.8-0.3,1.1-0.4c0.2-0.1,0.5-0.4,0.7-0.7c0.1-0.2,0.4-0.6,0.6-0.8c0.2-0.2,0.6-0.4,0.8-0.5c0.2-0.1,0.6,0,0.6,0.1
				c0.1,0.1,0.1,0.6,0.1,0.8c-0.1,0.2-0.5,0.7-0.6,0.8s-0.2,0.6-0.3,0.8c-0.1,0.1-0.2,0.3-0.3,0.4s-0.2,0.1-0.3,0.2
				c-0.3,0.2-2.7,1.1-2.8,1.1C842.8,683.4,842.3,683.5,842.3,683.4"/>
			<path class="st8" d="M843.8,686.1l-0.1,0.3c-0.1,0-0.1,0-0.2-0.1l-0.1-0.1l0,0c-0.1-0.1-0.1-0.1-0.1-0.2c0-0.1,0-0.1-0.1-0.2l0,0
				c0-0.1,0-0.2-0.1-0.3l0,0c0-0.2-0.1-0.4-0.1-0.4c0-0.2,0.1-0.6,0.1-0.6"/>
			<path class="st8" d="M843.5,684.3L843.5,684.3c0.2,0.2,0.2,0.4,0.3,0.4c0.1,0,0.1,0.1,0.1,0.2c0,0.1,0,0.1,0,0.2"/>
			<path class="st8" d="M845.8,682.3L845.8,682.3L845.8,682.3c0.1,0.3,0.1,0.6,0.1,0.8c0,0.4,0.1,1.1,0.1,1.1c0,0.1,0,0.1,0,0.3"/>
			<path class="st8" d="M846,684.4L846,684.4L846,684.4c0.2,0.1,0.5,0.5,0.5,0.6c0.1,0.2,0.4,1.2,0.5,1.4c0,0,0,0.1,0,0.2"/>
			<path class="st8" d="M845.3,679.7c0-0.1,0-0.4,0-0.4c0-0.4-0.3-1.5-0.5-1.9c-0.1-0.1-0.1-0.3-0.2-0.4l0,0"/>
			<path class="st8" d="M824.2,685.1L824.2,685.1c-0.2-0.2-0.5-0.4-0.9-0.5c-0.4-0.1-0.8-0.1-1.3-0.1c-0.3,0-0.9,0.2-1.3,0.4
				c-0.3,0.1-0.6,0.4-0.8,0.7c-0.1,0.1-0.1,0.1-0.1,0.2c-0.1,0.1-0.2,0.4-0.3,0.6v0.1c-0.1,0.3-0.1,1.3,0,1.6
				c0.1,0.2,0.2,0.6,0.3,0.8c0.1,0.1,0.3,0.4,0.4,0.5c0.1,0.1,0.4,0.3,0.6,0.3c0.3,0.1,1.4,0.2,1.8,0.1c0.1,0,0.4-0.1,0.6-0.3
				c0,0,0.1,0,0.1-0.1c0.1-0.1,0.1-0.1,0.2-0.1"/>
			<path class="st8" d="M823.5,687.6L823.5,687.6c-0.1,0-0.3-0.5-0.5-0.8c-0.3-0.3-0.9-0.8-1.1-0.8c-0.1,0-0.4,0.1-0.6,0.2
				c-0.1,0.1-0.3,0.1-0.3,0.2"/>
			<path class="st8" d="M824.2,685L824.2,685L824.2,685L824.2,685c-0.1,0.1-0.1,0.2-0.1,0.5c0,0.1,0.1,0.3,0.1,0.3s0.3,0.1,0.8,0.1
				c0.2,0,0.6-0.1,0.6-0.1c0.1-0.1-0.1-2.3-0.1-2.3s0.6-0.4,1.3-1.1c0.2-0.1,0.6-0.5,0.8-0.6c0.3-0.2,0.5-0.4,0.5-0.6
				c0.1-0.1-0.1-0.4-0.2-0.8c-0.3-0.6-0.6-1.3-0.7-1.5v-0.1"/>
			<path class="st8" d="M827.5,678.9L827.5,678.9L827.5,678.9c-0.1-0.2,0.1-0.5,0.2-0.6c0.1-0.2,1-0.8,1.5-1
				c0.3-0.1,1.1-0.5,1.6-0.7c0.8-0.3,1.5-0.5,2-0.6s1.5-0.1,2.2-0.1c0.9,0,2.8,0.3,4.1,0.3c0.6,0,3.7,0.7,4.2,0.8
				c0.6,0.1,0.9,0.1,1.4,0.1c0.2,0,0.4,0,0.7-0.1c0.6-0.1,1.2-0.3,1.5-0.4c0.4-0.3,1.1-0.9,1.3-1.2c0.1-0.3,0.2-0.8,0.1-1
				c-0.1-0.3-0.3-0.7-0.4-0.8s-1.1-0.8-1.5-1.1c-0.4-0.3-1.3-0.5-1.9-0.6s-2.2-0.5-2.5-0.5c-0.1,0-2.3-0.1-4.1-0.2
				c-0.6,0-1.1,0-2.1,0.1c-0.7,0.1-3.6,0.6-4,0.7c-0.9,0.3-3.5,0.9-4.2,1.3c-0.4,0.1-1.6,0.6-2,0.8c-0.8,0.4-2.1,1.4-2.5,1.8
				c-0.3,0.3-0.5,0.6-0.6,0.8c-0.1,0.2-0.1,0.6-0.2,0.8v0.1l0,0"/>
			<path class="st8" d="M822.3,677.4L822.3,677.4L822.3,677.4c-0.2-0.1-0.7-0.1-0.9,0c-0.3,0.1-1.1,0.8-1.4,1.1
				c-0.3,0.4-0.8,1.3-0.9,1.7s-0.1,1.3-0.1,2.1c0,0.3,0.1,1.6,0.3,1.9c0.2,0.3,0.4,0.9,0.4,1s0.1,0.1,0.1,0.2"/>
			<path class="st8" d="M823.3,689.5L823.3,689.5L823.3,689.5c-0.1,0.1-0.1,0.3-0.1,0.7c0,0.9,0.1,1.3,0.1,2.1
				c0.1,0.4,0.4,1.5,0.6,2c0.1,0.3,0.3,0.6,0.4,0.7c0,0,0.1,0.1,0.1,0.2l0.1,0.1"/>
			<path class="st8" d="M824.7,695L824.7,695L824.7,695c0.3,0.2,0.9,0.6,1.3,0.8c0.2,0.1,1.7,1.1,1.9,1.2c0.2,0.1,1,0.5,1.5,0.8
				c0.1,0,0.1,0.1,0.1,0.1c0.3,0.1,1,0.4,1.7,0.6c0.6,0.1,1.8,0.3,2.3,0.4c0.6,0.1,1.9,0.1,2.3,0.1c0.6,0,1.8,0.1,2.2-0.1
				c0.2,0,1.7-0.3,2-0.4c0.4-0.1,1.2-0.4,1.7-0.7c0.3-0.2,1.1-0.7,1.3-0.9c0.1,0,0.1-0.1,0.2-0.2l0.1-0.1l0.1-0.1"/>
			<path class="st8" d="M842,696.4C842.2,696.4,842.2,696.3,842,696.4C842,696.4,842,696.4,842,696.4c-0.2,0-0.2,0-0.2-0.1
				c-0.1,0-0.1-0.1-0.2-0.1c-0.3,0-0.9-0.3-1.1-0.4c-0.1-0.1-0.3-0.3-0.3-0.4c-0.1-0.2,0-0.6,0.1-0.6s0.3-0.1,0.4-0.1
				s0.4,0.1,0.4,0.1s0.3,0,0.6,0.1c0.1,0,0.1,0,0.1,0c0.1,0,0.1,0,0.1,0"/>
			<path class="st8" d="M841.9,694.8L841.9,694.8L841.9,694.8c-0.2,0-0.2,0-0.2,0l0,0"/>
			<path class="st8" d="M841.8,696.1L841.8,696.1C841.8,696.1,841.8,696.1,841.8,696.1c-0.2-0.1-0.4-0.4-0.4-0.6
				c0-0.3,0.4-0.6,0.5-0.6"/>
			<path class="st8" d="M841.8,694.8L841.8,694.8c0,0,0.1,0,0.2-0.1l0,0c0.8-0.1,1.8-0.2,3.7-0.4c0.1,0,0.1,0,0.1,0
				c0.9-0.1,3.8-0.3,3.9-0.3c1.9,0,4.2-0.1,4.7-0.1c0,0,0,0,0.1,0c0,0,0.1,0,0.2,0"/>
			<path class="st8" d="M854.8,694.2C854.8,694.2,854.8,694.1,854.8,694.2C854.8,694.1,854.8,694.1,854.8,694.2
				c-0.1-0.1-0.1,0.2-0.1,0.5c0,0.2,0,0.4,0,0.5s0,0.2,0,0.3"/>
			<path class="st8" d="M854.8,695.8C854.8,695.7,854.8,695.7,854.8,695.8C854.8,695.7,854.8,695.7,854.8,695.8
				C854.8,695.7,854.8,695.7,854.8,695.8c-0.4,0-0.7,0-0.9,0c-0.2,0-0.5,0-0.7,0c-0.1,0-0.1,0-0.1,0c-0.7-0.1-2.1,0.1-3.8,0.2
				c-0.3,0-0.8,0.1-1.2,0.1s-0.9,0.1-0.9,0.1c-0.9,0-1.8,0.1-2.5,0.1c-0.3,0-0.5,0-0.8,0c-0.9,0.1-1.6,0.1-1.9,0.1
				c-0.1,0-0.1,0-0.2,0h-0.1"/>
			<path class="st8" d="M841.8,695.9L841.8,695.9c0.1-0.1,0.3-0.1,0.6-0.1c0.8,0,1.7,0,2,0c0.8-0.1,3.2-0.3,4.2-0.3
				c0.9-0.1,2.3-0.1,2.7-0.1h0.1"/>
			<path class="st8" d="M841.8,695.9C841.8,695.9,841.8,695.9,841.8,695.9c-0.2,0-0.1,0-0.2,0"/>
			<path class="st8" d="M842.3,696C842.2,696,842.2,696,842.3,696L842.3,696c-0.1,0,0.1,0,0.4,0c0.1,0,0.4,0,0.5,0s0.4,0,0.4,0"/>
			<path class="st8" d="M848.4,695.8c0.1,0,0.3,0,0.4,0s0.4,0,0.6,0c0.1,0,0.3,0,0.4,0"/>
			<path class="st8" d="M851.4,695.6L851.4,695.6c0-0.1-0.1-0.5-0.1-0.8c0-0.2,0-0.5,0.1-0.6l0,0"/>
			<path class="st8" d="M851.5,695.2c0,0,0-0.1,0.1-0.3c0.1-0.1,0.1-0.3,0.2-0.3c0.1-0.1,0.2-0.3,0.3-0.4v-0.1"/>
			<path class="st8" d="M851.5,695.5C851.6,695.4,851.6,695.4,851.5,695.5c0.2-0.2,0.5-0.6,0.7-0.8c0.1-0.1,0.3-0.3,0.3-0.3l0.1-0.1
				"/>
			<path class="st8" d="M853.2,695.7L853.2,695.7c0,0,0-0.1,0.1-0.2c0.3-0.4,0.7-0.9,0.9-1c0.2-0.2,0.3-0.3,0.3-0.3"/>
			<polyline class="st8" points="851.8,694.4 851.7,694.6 851.7,694.6 			"/>
			<path class="st8" d="M851.8,694.4C851.8,694.3,851.8,694.3,851.8,694.4L851.8,694.4z"/>
			<path class="st8" d="M851.8,694.6L851.8,694.6v-0.2"/>
			<path class="st8" d="M853.8,695.7L853.8,695.7L853.8,695.7c0.1-0.1,0.6-0.7,0.6-0.7c0.1-0.1,0.1-0.1,0.1-0.1s0.1,0,0.1-0.1"/>
			<path class="st8" d="M853.4,690.7L853.4,690.7c-0.1-0.1-0.2-0.4-0.2-0.6s0.2-0.5,0.3-0.6s0.3-0.2,0.4-0.3c0.1,0,0.3,0,0.4,0.1
				c0.1,0,0.1,0.1,0.2,0.1l0,0c0.1,0,0.1,0.1,0.1,0.1"/>
			<path class="st8" d="M854,692.2L854,692.2C853.9,692.2,853.9,692.2,854,692.2c-0.1,0.1-0.4,0.3-0.4,0.3c-0.3,0.1-0.9,0.2-1.1,0.1
				c-0.1-0.1-0.3-0.4-0.3-0.6c0-0.2,0-0.6,0.1-0.8c0.1-0.3,0.3-0.5,0.5-0.6c0.4-0.1,0.6-0.1,0.8,0"/>
			<path class="st8" d="M854.8,689.5L854.8,689.5c-0.1,0-0.1-0.1-0.1-0.2c-0.1-0.3-0.1-0.7,0-0.8s0.3-0.4,0.4-0.5
				c0.1-0.1,0.4-0.1,0.5-0.1c0.2,0.1,0.4,0.4,0.5,0.6c0,0.1,0.1,0.3,0.1,0.3c0.1-0.1,0.3-0.4,0.5-0.5c0.1-0.1,0.4-0.2,0.6-0.2
				c0.1,0,0.3,0.1,0.4,0.3c0.1,0.1,0.2,0.4,0.2,0.6c0,0.1-0.1,0.5-0.1,0.6s-0.1,0.1-0.4,0.3"/>
			<path class="st8" d="M855.9,691.1L855.9,691.1"/>
			<path class="st8" d="M857.4,689.7L857.4,689.7c0.1,0,0.2-0.1,0.3-0.1s0.4,0,0.6,0.1c0.1,0.1,0.4,0.4,0.4,0.5
				c0.1,0.1,0,0.3-0.1,0.4s-0.4,0.3-0.5,0.3c-0.4,0.1-0.8-0.1-0.9-0.1c0.1,0.1,0.3,0.4,0.3,0.6c0,0.1-0.1,0.4-0.2,0.5
				s-0.4,0.2-0.5,0.2c-0.2,0-0.6-0.3-0.6-0.4c-0.1-0.1-0.1-0.3-0.2-0.4c0-0.1-0.1-0.1-0.1-0.2"/>
			<path class="st8" d="M856,691.1L856,691.1C855.9,691.1,855.9,691.1,856,691.1L856,691.1C856,691.2,856,691.2,856,691.1
				c0,0.2,0,0.4-0.1,0.6c-0.1,0.2-0.2,0.4-0.3,0.4c-0.1,0.1-0.4,0.1-0.4,0c-0.2-0.2-0.3-0.4-0.3-0.4c0.1,0.1,0.1,0.4-0.1,0.6
				c-0.1,0.1-0.1,0.1-0.2,0.1s-0.2,0-0.3-0.1c0,0-0.1-0.1-0.2-0.2c-0.1-0.1-0.1-0.1-0.1-0.1"/>
			<path class="st8" d="M858.5,684.1c-0.2,0-0.5-0.1-0.6-0.3c-0.1-0.1-0.1-0.3-0.2-0.4c-0.1-0.3,0.1-0.8,0.3-0.9
				c0.1-0.2,0.4-0.4,0.6-0.4h0.1c0.1,0,0.3-0.1,0.3-0.1"/>
			<path class="st8" d="M859.4,685.7C859.4,685.8,859.4,685.8,859.4,685.7L859.4,685.7c-0.2,0.2-0.4,0.2-0.4,0.2
				c-0.3,0.1-0.7,0-0.9-0.1c-0.1-0.1-0.3-0.4-0.3-0.7c0-0.3,0.1-0.7,0.3-0.8c0.1-0.1,0.3-0.3,0.4-0.3c0,0,0,0,0.1,0l0,0"/>
			<path class="st8" d="M859.7,680C859.7,679.9,859.6,679.9,859.7,680c-0.2-0.2-0.2-0.5-0.2-0.6c0-0.3,0.3-0.7,0.4-0.8
				c0.1-0.1,0.5-0.3,0.8-0.4c0.1,0,0.3,0,0.3,0c0.1,0.1,0.2,0.1,0.2,0.2c0,0,0,0,0,0.1s0.1,0.1,0.1,0.2"/>
			<path class="st8" d="M859.7,680c0.3,0.1,0.3,0.3,0.3,0.3C859.8,680.2,859.8,680.1,859.7,680z"/>
			<line class="st8" x1="859.7" y1="680" x2="859.7" y2="680"/>
			<path class="st8" d="M858.8,682.3L858.8,682.3l-0.2-0.1c-0.1-0.2-0.2-0.4-0.3-0.5c-0.1-0.3-0.1-0.7,0.1-1
				c0.1-0.3,0.3-0.6,0.5-0.7c0.1-0.1,0.6-0.1,0.7,0"/>
			<path class="st8" d="M861.2,678.5L861.2,678.5C861.3,678.4,861.3,678.4,861.2,678.5c0.2-0.2,0.5-0.5,0.7-0.6s0.6-0.1,0.7-0.1
				c0.2,0,0.4,0.1,0.4,0.3c0.1,0.1,0.1,0.4,0.1,0.4s0.4-0.2,0.6-0.3c0.3-0.1,0.7-0.1,0.9,0.1c0.1,0.1,0.3,0.2,0.3,0.3s0,0.3-0.1,0.5
				c-0.1,0.1-0.1,0.3-0.3,0.4c-0.1,0.1-0.2,0.3-0.3,0.4l0,0"/>
			<path class="st8" d="M864.3,681.3L864.3,681.3c0.2-0.1,0.4,0.1,0.6,0.2c0.1,0.1,0.2,0.4,0.2,0.5c0,0.2-0.1,0.5-0.3,0.6
				c-0.1,0.1-0.3,0.1-0.4,0.1c-0.1,0-0.2-0.1-0.3-0.1s-0.1-0.1-0.2-0.1"/>
			<path class="st8" d="M864.3,679.7L864.3,679.7c0,0,0.1-0.1,0.2-0.1c0.1,0,0.4-0.1,0.4,0c0.1,0.1,0.3,0.3,0.4,0.4
				c0.1,0.1,0,0.4,0,0.5c-0.1,0.1-0.3,0.3-0.4,0.4s-0.4,0.2-0.6,0.3"/>
			<path class="st8" d="M862.8,684.6L862.8,684.6c0.1,0.2,0.1,0.5,0.1,0.7c0,0.3-0.2,0.6-0.4,0.8c-0.1,0.1-0.5,0.3-0.7,0.2
				c-0.2-0.1-0.4-0.3-0.6-0.5c-0.1-0.2-0.3-0.5-0.3-0.5c0.1,0.3,0.1,0.6,0.1,0.8c0,0.3-0.2,0.6-0.3,0.8c-0.1,0.1-0.3,0.1-0.3,0.1
				c-0.1,0-0.3-0.1-0.4-0.2c-0.1-0.1-0.3-0.3-0.3-0.4c-0.1-0.1-0.1-0.3-0.2-0.5l0,0"/>
			<path class="st8" d="M863.9,682.6L863.9,682.6c0.1,0,0.3,0.3,0.3,0.4c0.1,0.1,0.1,0.6,0.1,0.8c0,0.3-0.1,0.7-0.1,0.9
				c-0.1,0.1-0.3,0.4-0.5,0.5c-0.1,0.1-0.4,0.1-0.6,0c-0.3-0.1-0.4-0.5-0.5-0.6"/>
			<path class="st8" d="M860.2,674.7C860.2,674.8,860.2,674.8,860.2,674.7c-0.2,0.3-0.5,0.6-0.7,0.7c-0.1,0.1-0.4,0.2-0.6,0.3
				c-0.2,0.1-0.7,0.1-0.9,0.1c-0.3-0.1-0.6-0.3-0.8-0.6c-0.1-0.2-0.3-0.6-0.3-0.8c-0.1-0.3,0-0.4,0-0.5c0,0.1-0.4,0.3-0.6,0.3
				c-0.1,0-0.4,0-0.5,0s-0.4-0.2-0.4-0.3c-0.1-0.2-0.3-0.6-0.3-0.8c0-0.1,0-0.4,0-0.6c0.1-0.1,0.2-0.3,0.3-0.4s0.2-0.2,0.3-0.3
				c0,0,0,0,0.1,0l0.1-0.1"/>
			<path class="st8" d="M860.3,674.5c0,0-0.1,0.1-0.1,0.2"/>
			<path class="st8" d="M854.5,668.5c-0.1-0.1-0.3-0.3-0.3-0.4c-0.1-0.2-0.1-0.6-0.1-0.8c0-0.2,0.2-0.6,0.3-0.8
				c0.1-0.2,0.5-0.4,0.6-0.5c0.1,0,0.3-0.1,0.3-0.1c0.2,0,0.4,0.2,0.5,0.3l0,0"/>
			<path class="st8" d="M854.5,668.5c0.1,0,0.1,0,0.2,0c0.1,0,0.2,0.1,0.2,0.1c-0.1,0-0.1,0-0.2,0S854.7,668.6,854.5,668.5z"/>
			<path class="st8" d="M855.8,671.8L855.8,671.8C855.8,671.7,855.8,671.7,855.8,671.8c-0.1-0.1-0.3-0.1-0.5-0.1
				c-0.2,0-0.6,0-0.8-0.1c-0.2-0.1-0.4-0.2-0.6-0.3c-0.1-0.1-0.3-0.4-0.4-0.5c-0.1-0.1-0.2-0.6-0.2-0.8c0-0.2,0.1-0.6,0.1-0.8
				c0.1-0.2,0.4-0.4,0.5-0.5c0.2-0.1,0.4-0.2,0.6-0.2"/>
			<path class="st8" d="M855.9,666.1L855.9,666.1c0-0.2,0.1-0.6,0.1-0.8c0.1-0.2,0.3-0.5,0.4-0.6s0.4-0.4,0.6-0.4
				c0.1-0.1,0.5-0.2,0.7-0.2c0.1,0,0.3,0,0.4,0.1c0.2,0.1,0.5,0.4,0.5,0.6c0,0.1,0.1,0.3,0.1,0.3c0.1-0.3,0.3-0.5,0.4-0.6
				c0.1-0.2,0.4-0.4,0.6-0.4c0.1-0.1,0.4-0.1,0.6-0.1c0.1,0.1,0.3,0.3,0.3,0.5c0,0.1,0.1,0.3,0.1,0.4c0,0.1,0,0.1,0,0.3v0.1"/>
			<path class="st8" d="M860.7,664.9L860.7,664.9c-0.1-0.1,0.1-0.3,0.3-0.5c0.3-0.3,0.8-0.8,1.1-0.9c0.2-0.1,0.6-0.1,0.7-0.1
				c0.1,0.1,0.3,0.1,0.4,0.3c0.1,0.1,0.2,0.3,0.3,0.3c0.1,0.2,0.1,0.6,0,0.6c0.1-0.2,0.4-0.4,0.6-0.5s0.5-0.2,0.7-0.2
				c0.2,0,0.6,0.1,0.7,0.1c0.1,0.1,0.3,0.4,0.4,0.6c0.1,0.3-0.1,1-0.2,1.1c0,0,0,0.1-0.1,0.1c0,0.1-0.1,0.1-0.1,0.2
				c0,0.1-0.1,0.1-0.1,0.1"/>
			<path class="st8" d="M868.7,666.6C868.7,666.6,868.8,666.6,868.7,666.6c0.2-0.1,0.4-0.1,0.5-0.1c0.3,0.1,0.6,0.3,0.8,0.5
				c0.1,0.2,0.2,0.7,0.2,0.9c-0.1,0.3-0.3,0.6-0.3,0.7c-0.1,0.1-0.2,0.2-0.3,0.3l-0.1,0.1c-0.1,0.1-0.4,0.1-0.6,0.1"/>
			<path class="st8" d="M865.5,665.9L865.5,665.9C865.5,665.9,865.6,665.9,865.5,665.9c0.4-0.2,1.4-0.9,1.6-1
				c0.1-0.1,0.5-0.2,0.7-0.2c0.3,0,0.6,0.3,0.9,0.4c0.2,0.2,0.4,0.5,0.5,0.6c0,0.1-0.2,0.5-0.3,0.6s-0.1,0.1-0.1,0.1l-0.1,0.1l0,0"
				/>
			<path class="st8" d="M869.7,670.7L869.7,670.7C869.8,670.7,869.8,670.7,869.7,670.7c0.3,0.1,0.5,0.2,0.6,0.3
				c0.2,0.1,0.4,0.4,0.4,0.7c0.1,0.3,0.1,0.7,0.1,0.8s-0.1,0.3-0.1,0.4c-0.1,0.2-0.5,0.4-0.7,0.4c-0.2,0-0.6-0.1-0.8-0.2
				c-0.2-0.1-0.4-0.3-0.6-0.5l0,0c0-0.1-0.1-0.1-0.1-0.1"/>
			<path class="st8" d="M869.7,668.8L869.7,668.8c0.1,0.1,0.6,0.1,0.8,0.1c0.1,0.1,0.3,0.3,0.4,0.4c0.1,0.1,0.1,0.6,0,0.7
				c-0.1,0.2-0.3,0.4-0.5,0.5c-0.1,0.1-0.4,0.1-0.5,0.1"/>
			<path class="st8" d="M866.8,674.2c-0.1,0.3-0.1,0.5-0.2,0.6c-0.1,0.2-0.3,0.4-0.4,0.5c-0.1,0.1-0.4,0.3-0.6,0.3
				c-0.1,0-0.4-0.1-0.6-0.3c-0.2-0.2-0.3-0.5-0.4-0.8c-0.1-0.3-0.1-0.5-0.1-0.6s0-0.1,0-0.1h-0.1"/>
			<path class="st8" d="M866.8,674.2C866.8,674.1,866.7,674.1,866.8,674.2c-0.2-0.4-0.2-0.7-0.2-0.7c0.1,0.1,0.2,0.3,0.2,0.5
				C866.8,674,866.8,674.1,866.8,674.2z"/>
			<path class="st8" d="M868.8,672.6L868.8,672.6C868.7,672.6,868.7,672.6,868.8,672.6c0.1,0.2,0.2,0.5,0.2,0.7c0.1,0.3,0,0.7,0,0.8
				c-0.1,0.3-0.3,0.6-0.4,0.7c-0.1,0.1-0.3,0.1-0.3,0.2c-0.1,0.1-0.3,0.1-0.4,0.1s-0.4-0.3-0.6-0.4c-0.1-0.1-0.3-0.4-0.3-0.5"/>
			<path class="st8" d="M862.2,674.6C862.2,674.7,862.2,674.7,862.2,674.6c0,0.3-0.1,0.5-0.2,0.6c-0.1,0.1-0.4,0.3-0.6,0.4
				c-0.2,0.1-0.6,0.1-0.7,0s-0.3-0.2-0.3-0.3c-0.1-0.1-0.2-0.5-0.3-0.7l0,0c0-0.1,0-0.1,0-0.1"/>
			<path class="st8" d="M862.2,674.6c0-0.1,0-0.1,0-0.3C862.2,674.4,862.2,674.5,862.2,674.6z"/>
			<path class="st8" d="M864.3,673.9L864.3,673.9L864.3,673.9c-0.1,0,0,0.3,0,0.3c0.1,0.3,0,0.7-0.1,0.9c-0.1,0.2-0.4,0.6-0.5,0.6
				c-0.1,0.1-0.3,0.2-0.4,0.3c-0.2,0.1-0.5-0.1-0.6-0.3c-0.1-0.2-0.3-0.8-0.4-1.3"/>
			<path class="st8" d="M843.4,696.7C843.4,696.6,843.4,696.6,843.4,696.7c0.3-0.2,0.4-0.3,0.5-0.3"/>
			<path class="st8" d="M845.8,694.3L845.8,694.3C845.8,694.3,845.8,694.3,845.8,694.3c0.2-0.2,0.8-0.8,0.9-0.9l0.1-0.1
				c0,0,0,0,0-0.1"/>
			<path class="st8" d="M833,705.8c0.2,0.9,0.3,2.4,0.4,3.7c0,1.3,0.1,3.8,0.1,5.1c0.1,1.3,0.3,3.7,0.4,4.6c0.1,0.9,0.6,3.1,0.8,4.2
				c0.1,0.6,0.4,1.6,0.6,2.1c0.4,1.2,1.1,3.4,1.6,4.6c0.5,1.5,1.9,6.6,2.5,8.9c0.2,0.8,0.7,3.3,0.8,4c0.1,0.5,0.1,1.2,0.2,1.9
				c0,0.4,0.1,0.7,0.1,1.1c0,0.1,0,0.1,0,0.1c0.1,0.8,0.1,1.4,0.1,1.6c0,0.3,0,0.5,0,0.8c0,1.1,0.1,2.2,0.1,2.5c0,0.2,0,0.3,0,0.5
				v0.1l0,0"/>
			<path class="st8" d="M829.3,697.7c0.4,0.5,0.6,0.9,0.9,1.6c0,0.1,0.1,0.1,0.1,0.1c0.3,0.5,0.8,1.6,1.1,2.1c0.3,0.5,0.6,1.5,0.8,2
				c0.2,0.5,0.4,1.1,0.5,1.7c0,0.1,0.1,0.3,0.1,0.4c0,0.1,0,0.1,0,0.1"/>
			<path class="st8" d="M840.5,751.6L840.5,751.6L840.5,751.6L840.5,751.6C840.4,751.7,840.4,751.7,840.5,751.6
				c-0.3,0.2-0.7,0.2-1,0.2c-0.3,0-1.5-0.3-2.1-0.3c-0.5-0.1-1.8-0.2-2.3-0.2c-0.8,0-3-0.1-4.2-0.1c-0.6-0.1-1.8-0.2-2.4-0.2
				c-0.9-0.1-1.6-0.3-2.2-0.4c-1-0.3-1.6-0.4-2.2-0.6c-1.1-0.4-2.8-1.3-3.2-1.5"/>
			<path class="st8" d="M814.3,739.4C814.3,739.4,814.2,739.4,814.3,739.4c-0.1-0.6-0.3-1.6-0.4-2.2c-0.1-0.6-0.1-2.2-0.2-2.4
				c0-0.4,0.2-2.5,0.4-4c0.3-1.6,0.5-3,0.9-4.7c0.1-0.3,0.2-0.7,0.3-1.1c0.3-0.9,0.6-2.2,0.7-2.9c0.1-1.1,0.4-3.2,0.4-4.3
				c0-1.3,0.1-3.6,0.1-4.7c-0.1-2.4-0.1-5.9-0.1-7c0-0.4,0-1,0-1.5c0-0.3,0.1-0.5,0.1-0.6c0.1-0.2,0.4-0.4,0.8-0.6
				c2.4-1.2,5.6-2.6,6.3-3c0.1-0.1,0.3-0.2,0.4-0.2"/>
			<path class="st8" d="M824.7,695L824.7,695L824.7,695c-0.3,0.3-0.4,0.6-0.5,0.7c-0.1,0.3-0.3,0.9-0.4,1.5c-0.1,0.5-0.1,1.4,0,1.8
				c0,0.2,0.1,0.6,0.2,0.9c0.1,0.3,0.2,0.7,0.3,0.9c0.1,0.6,0.1,1.1,0.1,1.3c0,0.1,0,0.1,0,0.1c0,0.1-0.1,0.3-0.1,0.3"/>
			<path class="st8" d="M824.5,702.2L824.5,702.2L824.5,702.2c0.1,0,0.4-0.3,0.6-0.5c0.3-0.2,0.6-0.3,1-0.4c0.5-0.1,0.8-0.2,1.1-0.2
				c0.4,0.1,1.5,0.3,1.9,0.4c0.3,0.1,0.8,0.4,1.1,0.5c0.5,0.3,1,0.8,1.6,1.5c0.4,0.5,0.8,1.1,1.1,1.8c0.1,0.1,0.1,0.2,0.1,0.3v0.1
				l0,0c0.1,0.1,0.1,0.3,0.1,0.4"/>
			<path class="st8" d="M813.5,725.8C813.4,725.8,813.4,725.9,813.5,725.8"/>
			<path class="st8" d="M813.8,725.6L813.8,725.6c-0.1,0.1-0.1,0.1-0.2,0.2l0,0c-0.2,0.1-0.6,0.4-0.8,0.4c-0.1,0.1-0.3,0.1-0.5,0.1
				c-0.5,0.1-1.1,0.1-1.2,0.1c-0.1,0-0.4-0.1-0.6-0.1c-0.1-0.1-0.3-0.3-0.4-0.4c-0.1-0.2-0.1-0.6-0.1-0.8c0.1-0.2,0.3-0.6,0.5-0.9
				c0.1-0.2,0.6-0.6,0.7-0.7c0.2-0.1,0.5-0.3,0.8-0.4c0.3-0.1,0.6-0.3,0.8-0.3c0.1,0,0.1-0.1,0.3-0.1c0.3,0,0.5,0,0.7,0.1
				c0.1,0.1,0.3,0.2,0.4,0.3c0.1,0.1,0.3,0.6,0.3,0.9c0,0.3,0,0.6,0,0.8c0,0.1,0,0.1-0.1,0.2c-0.1,0.1-0.1,0.2-0.2,0.3
				s-0.4,0.3-0.6,0.5"/>
			<path class="st8" d="M812.2,726.5L812.2,726.5l0.1,0.3c0.1,0.1,0.1,0.7,0,0.9c-0.1,0.3-0.3,0.9-0.3,1.1c-0.1,0.3-0.4,0.6-0.6,0.8
				c-0.1,0.1-0.1,0.1-0.3,0.2c-0.3,0.2-0.7,0.4-1,0.4c-0.3,0.1-0.9,0.1-1.8,0.1c-0.7,0-1.8,0.1-2.1,0c-0.3,0-0.7-0.1-0.9-0.3
				c-0.3-0.1-0.6-0.3-0.8-0.5l-0.1-0.1c-0.2-0.2-0.4-0.5-0.6-0.7c-0.1-0.2-0.3-0.8-0.3-0.9c-0.1-0.2-0.1-0.6-0.1-0.8
				c0-0.2,0.1-0.6,0.2-0.7c0.1-0.1,0.3-0.4,0.4-0.4c0.1-0.1,0.4-0.2,0.6-0.2h0.1c0.4,0.1,1.6,0.4,1.6,0.4c0.8,0.3,1.3,0.4,1.8,0.6
				c0.5,0.2,1.3,0.4,1.8,0.4c0.2,0,0.6-0.1,0.8-0.1c0.1,0,0.7-0.3,0.9-0.3c0.1,0,0.1,0,0.2,0c0.1,0,0.1,0,0.1,0"/>
			<path class="st8" d="M811.8,733.3c-0.1,0.1-0.3,0.1-0.4,0.2c-0.4,0.1-1.3,0.1-1.7,0.1c-0.3,0-1.8-0.1-2-0.1
				c-0.4-0.1-1.4-0.3-1.9-0.4c-0.2-0.1-0.8-0.3-1-0.4l-0.1-0.1c-0.1-0.1-0.3-0.3-0.4-0.3c-0.1-0.1-0.3-0.5-0.4-0.7
				c-0.1-0.2-0.2-0.6-0.1-0.8c0-0.3,0.2-0.8,0.3-0.9s0.1-0.1,0.2-0.2c0.1-0.1,0.4-0.1,0.6-0.1l0,0h0.1"/>
			<path class="st8" d="M811.3,729.8c0,0,0,0.1,0.3,0.1c0.1,0,0.3,0.2,0.4,0.5c0.3,0.6,0.4,1.9,0.4,2.1c0,0.1-0.1,0.4-0.3,0.5
				c-0.1,0.1-0.2,0.1-0.3,0.2"/>
			<path class="st8" d="M804.8,732.5C804.8,732.5,804.8,732.5,804.8,732.5c-0.1,0-0.2,0-0.2,0.1c-0.1,0.1-0.3,0.6-0.3,0.8
				c-0.1,0.3,0,0.6,0.1,0.9c0,0,0.4,0.6,0.4,0.8c0.2,0.2,0.6,0.4,0.8,0.6c0.1,0.1,0.2,0.1,0.3,0.1c0.3,0.1,0.6,0.2,1.1,0.3
				c0.7,0.2,1.2,0.3,1.9,0.3c0.9,0,1.5,0,1.8-0.2c0.3-0.1,0.6-0.3,0.8-0.4c0.1-0.1,0.2-0.1,0.3-0.2c0.2-0.2,0.4-0.3,0.4-0.5
				c0.1-0.1,0.1-0.5,0.1-0.7c0-0.1-0.1-0.4-0.1-0.4c-0.1-0.1-0.3-0.3-0.3-0.4c-0.1,0-0.1-0.1-0.1-0.1l0,0c-0.1,0-0.1-0.1-0.1-0.1"/>
			<path class="st8" d="M806.2,735.6C806.1,735.6,806.1,735.7,806.2,735.6c-0.1,0.1-0.1,0.1-0.2,0.1c-0.1,0.1-0.1,0.1-0.1,0.2
				c0,0.1,0,0.3,0.1,0.4v0.1c0.1,0.1,0.3,0.4,0.6,0.5c0.2,0.1,0.6,0.3,0.8,0.4c0.2,0.1,2.2,0.4,2.3,0.4s1.3-0.2,1.6-0.4
				c0.3-0.1,0.6-0.4,0.7-0.6c0,0,0-0.1,0.1-0.1c0.1-0.2,0.3-0.5,0.3-0.6s-0.3-0.6-0.4-0.7l0,0c0-0.1-0.1-0.1-0.1-0.1"/>
			<path class="st8" d="M805.2,725.6L805.2,725.6L805.2,725.6c-0.1,0-0.1-0.1-0.2-0.2c-0.1-0.1-0.9-1.1-1.3-1.4
				c-0.2-0.1-0.6-0.4-0.7-0.6c-0.2-0.2-0.6-0.8-1.1-1.3c-0.5-0.6-0.9-1.2-1-1.6c-0.1-0.2-0.1-0.5-0.1-0.6c0.1-0.1,0.3-0.4,0.4-0.5
				c0.2-0.1,0.5-0.1,1-0.1c0.3,0,0.7,0,0.8,0s0.4,0.2,0.8,0.3c0,0,0,0,0.1,0c0.4,0.2,0.8,0.4,0.9,0.5s0.4,0.3,0.5,0.4
				c0.1,0.1,0.5,0.5,0.6,0.6c0,0,0.1,0.1,0.2,0.1"/>
			<path class="st8" d="M803.8,719.6L803.8,719.6C803.8,719.5,803.8,719.5,803.8,719.6C803.8,719.5,803.8,719.5,803.8,719.6
				c-0.1-0.1-0.1-0.3-0.1-0.4c0-0.2,0-0.4,0-0.6c0.1-0.1,0.3-0.5,0.5-0.6c0.2-0.1,0.6-0.2,0.8-0.2c0.4,0,1.3,0.1,1.6,0.3
				c0.3,0.1,0.9,0.5,1.2,0.8c0.1,0.1,0.1,0.1,0.1,0.1c0.1,0.1,0.5,0.6,0.5,0.7l0.1,0.1"/>
			<path class="st8" d="M808.2,718.7L808.2,718.7c0.1,0,0.1-0.1,0.3-0.1c0.2-0.1,0.4-0.2,0.7-0.3c0.5-0.3,1-0.5,1.1-0.6
				s0.5-0.1,0.9-0.1c0.3,0,0.7,0.1,0.8,0.1c0.1,0.1,0.3,0.3,0.4,0.4c0.1,0.1,0.1,0.5,0,0.7c0,0,0,0,0,0.1c-0.1,0.2-0.3,0.6-0.4,0.8
				c-0.1,0.1-0.4,0.4-0.6,0.5"/>
			<path class="st8" d="M813.9,721.7c-0.2,0.1-0.4,0.3-0.5,0.3c-0.2,0.1-0.8,0.2-0.9,0.2c-0.2,0-0.8,0-0.9,0.1
				c-0.4,0-0.9,0.3-1.7,0.6c-0.3,0.1-0.6,0.2-1,0.2c-0.1,0-0.1,0-0.2,0"/>
			<path class="st8" d="M812.3,718.9L812.3,718.9C812.2,718.9,812.3,718.9,812.3,718.9c0.1-0.1,0.4-0.3,0.6-0.3
				c0.3-0.1,0.8-0.3,0.9-0.3c0.2,0,0.5,0.1,0.6,0.2s0.3,0.4,0.3,0.6c0.1,0.3,0.1,0.7,0.1,0.9c0,0.3-0.1,0.6-0.2,0.8
				c-0.1,0.1-0.3,0.4-0.4,0.6c-0.1,0.1-0.1,0.1-0.3,0.2"/>
			<path class="st8" d="M813,722.8C813,722.8,813,722.7,813,722.8C813,722.7,813,722.7,813,722.8c-0.1-0.1,0.1-0.3,0.2-0.4
				c0.1-0.2,0.3-0.3,0.4-0.4c0,0,0.1-0.1,0.3-0.3l0,0c0.1-0.1,0.1-0.1,0.2-0.1"/>
			<path class="st8" d="M812.2,736.6C812.2,736.7,812.1,736.7,812.2,736.6c-0.1,0.2,0,0.6,0.2,0.8c0.1,0.1,0.4,0.8,0.5,0.8
				c0.2,0.2,0.8,0.6,1.5,1.1c0.6,0.5,1.3,0.9,1.6,1.2c0.5,0.4,1.1,1.1,1.3,1.3c0.2,0.3,2.2,3,2.7,3.9c0.4,0.6,0.9,1.7,1.3,2.7
				c0.2,0.4,0.4,0.8,0.5,1.2c0.2,0.6,0.6,1.5,0.7,2c0.3,1.1,0.8,3.5,0.9,4.6c0.2,1.1,0.4,3.4,0.6,4.6c0.1,1.1,0.1,3.4,0.1,4.2
				c-0.1,0.9-0.3,2.8-0.4,3.8c-0.1,0.5-0.3,1.3-0.5,2c-0.2,0.5-0.4,1.2-0.8,1.9c0,0.1,0,0.1-0.1,0.1c-0.4,0.8-0.8,1.4-1.1,1.8
				c-0.3,0.3-1.1,1.3-1.6,1.7c-0.6,0.6-1,0.9-1.6,1.4c-0.4,0.3-1.4,0.9-1.8,1.1c-0.3,0.1-1.6,0.7-2.2,0.9c-0.5,0.2-1.5,0.4-2,0.5
				c-0.6,0.1-1.7,0.3-2.3,0.3c-0.7,0.1-1.2,0.1-2,0.1c-1.1,0-3.4-0.2-4.7-0.3c-0.8-0.1-1.6-0.2-2.2-0.3c-0.4-0.1-3-0.8-4-1.1
				c-1.3-0.4-3.4-1.1-3.8-1.3c-0.5-0.3-3-1.6-3.4-1.9c-0.4-0.3-1.1-1.1-1.4-1.5c-0.4-0.4-0.8-1.1-1.1-1.6c-0.2-0.3-0.8-1.5-1.1-2
				c-0.3-0.6-1.4-3.4-1.6-4c-0.1-0.4-0.7-3.7-0.8-4.2c-0.1-0.8-0.1-1.6-0.1-2.3c0.1-0.8,0.4-3.2,0.6-4.3c0.3-1,0.8-3,1.2-4
				c0.2-0.4,0.5-1.1,0.8-1.8c0.1-0.3,0.8-1.3,1.1-1.7c0.2-0.3,0.9-1.2,1.2-1.6c0.2-0.3,0.9-1.1,1.5-1.5c0.6-0.5,1.3-1.1,1.5-1.3
				c0.5-0.4,1-0.8,1.8-1.1c0.9-0.5,2.8-1.6,3.8-2.2s2.5-1.5,3.7-2c0.6-0.3,3.9-2,4-2c0.3-0.3,0.8-0.6,0.9-0.8h0.1"/>
			<path class="st8" d="M801.5,751.1c0.1,0.1,0.5,0.3,0.7,0.3c0.1,0,0.6,0,1.1,0.1c0.3,0,0.6,0.1,0.8,0.1c0.5,0.1,1.6,0.3,2.2,0.4
				c0.2,0.1,0.4,0.1,0.6,0.1c0.5,0.1,0.9,0.3,1.2,0.4c0.4,0.1,0.9,0.3,1.1,0.6c0.3,0.2,0.6,0.7,0.8,1c0.1,0.3,0.3,0.9,0.3,1.3
				c0,0.4-0.3,1.3-0.5,1.7c-0.1,0.3-0.4,0.6-0.6,0.8c-0.2,0.1-0.6,0.4-0.8,0.4c-0.4,0.1-1.4,0.3-2.3,0.4s-3.3,0.1-3.4,0
				c-0.1,0-0.1-0.1-0.3-0.1l0,0c-0.1,0-0.1,0-0.1-0.1"/>
			<path class="st8" d="M802.5,758.4L802.5,758.4c-0.1,0.1,0.3,0.2,0.5,0.2c0.1,0,1.6,0.2,2,0.3c0.5,0,1.1,0.2,1.6,0.4
				c0.4,0.1,1.2,0.6,1.6,0.9c0.2,0.1,0.6,0.5,0.8,0.8c0.2,0.3,0.4,0.9,0.4,1.3c0.1,0.4,0,1.1-0.1,1.5s-0.3,1.1-0.5,1.4
				c-0.3,0.3-0.9,0.9-1.2,1c-0.5,0.3-1.4,0.6-2,0.6c-0.5,0.1-1.8,0.1-2.3,0.1c-0.3,0-1.2-0.2-1.9-0.3c-0.6-0.1-1.1-0.2-1.1-0.3
				c-0.1,0-0.1-0.1-0.3-0.1l-0.1-0.1"/>
			<path class="st8" d="M803.3,751.3L803.3,751.3C803.3,751.4,803.3,751.4,803.3,751.3c-0.1,0.6-0.3,1.6-0.3,2.2
				c-0.1,0.6-0.4,3.5-0.5,4.4c0,0.1,0,0.3,0,0.4c-0.1,1.1-0.4,3.2-0.5,4.2c-0.1,1.5-0.2,2.5-0.3,3.2c0,0.2,0,0.3,0,0.4v0.1l0,0"/>
			<path class="st8" d="M803.2,766.8L803.2,766.8c0,0-0.1,0.4-0.1,0.6c-0.1,0.3-0.1,0.8-0.1,0.9c0,0.1,0,0.2,0,0.3"/>
			<path class="st8" d="M805.4,766.8c0,0.1,0,0.2,0,0.3s-0.3,0.9-0.3,1.1c0,0.2-0.1,0.5-0.1,0.6v0.1"/>
			<path class="st8" d="M804.9,751.4c0.1-0.3,0.1-0.6,0.1-0.8c0-0.1,0.1-0.8,0.2-0.9c0-0.1,0.1-0.1,0.1-0.3"/>
			<path class="st8" d="M804.9,751.4L804.9,751.4L804.9,751.4L804.9,751.4z"/>
			<path class="st8" d="M804.9,751.4L804.9,751.4"/>
			<path class="st8" d="M806.9,752L806.9,752C807,752,807,752,806.9,752c0-0.1,0.1-0.1,0.1-0.3c0.1-0.3,0.1-0.6,0.2-0.9
				c0.1-0.2,0.1-0.4,0.1-0.6"/>
			<path class="st8" d="M809,718.1L809,718.1c0.1-0.3,0.3-1.3,0.4-1.8s0.3-1.6,0.4-2.2c0.2-0.9,0.8-3.2,1.1-4.2
				c0.3-0.9,0.6-1.8,0.8-2.2c0.2-0.3,0.7-1,1-1.3c0.3-0.3,0.6-0.6,0.8-0.7c0.2-0.1,0.6-0.4,0.9-0.5c0.1-0.1,0.8-0.3,0.9-0.4
				c0.1-0.1,0.5-0.3,0.9-0.4c0.1,0,0.1-0.1,0.2-0.1"/>
			<line class="st8" x1="809" y1="718.1" x2="809" y2="718.1"/>
			<path class="st8" d="M830.4,699.2L830.4,699.2c0,0.1,1.3,1,1.5,1.1c0.3,0.1,0.9,0.4,1.6,0.6c0.4,0.2,1.1,0.4,1.8,0.6
				c0.9,0.2,1.5,0.4,1.8,0.6c0.1,0.1,0.4,0.4,0.5,0.7c0.1,0.1,0.4,1.3,0.5,1.8c0.1,0.2,0.1,0.5,0.1,0.9c0.1,0.6,0.1,1.2,0.1,1.4
				c0.1,0.6,0.4,2,0.4,2.5c0,0.1,0,0.1,0,0.1v0.1c0,0.1,0.1,0.2,0.1,0.3"/>
			<path class="st8" d="M838.9,709.6c0,0.1,0.1,0.1,0.1,0.2c0.1,0.2,0.3,1.2,0.4,1.6c0.1,0.5,0.3,1.8,0.3,2c0.1,1.1,0.6,3.9,0.8,4.6
				c0.3,0.9,0.8,3,1.1,4c0.2,0.6,1.1,2.9,1.5,4c0.6,1.7,1,3.1,1.3,4.4c0.1,0.4,0.3,1.7,0.4,2.2c0.1,1.1,0.2,2.9,0.3,4.3
				c0,1.5-0.1,3.2-0.2,4.7c-0.1,0.6-0.1,1.7-0.2,2.2c-0.1,0.4-0.2,1.2-0.2,1.3v0.1v0.1"/>
			<path class="st8" d="M835.8,707.7L835.8,707.7c-0.1,0-0.1-0.1-0.1-0.2c-0.1-0.6-0.2-1.1-0.2-2c0-1,0.1-1.7,0.3-2l0,0
				c0.1,0.1,0.7,0.9,1,1.4c0.1,0.1,0.2,0.4,0.3,0.4c0,0.1,0.1,0.1,0.1,0.1"/>
			<path class="st8" d="M833.4,705.9C833.4,705.9,833.4,705.8,833.4,705.9c-0.1-0.1-0.1-0.2-0.1-0.3"/>
			<path class="st8" d="M835.8,707.8L835.8,707.8C835.8,707.8,835.8,707.8,835.8,707.8c-0.7-0.2-2.1-1.6-2.2-1.7l-0.1-0.1"/>
			<path class="st8" d="M832.9,705.3L832.9,705.3C832.9,705.4,833,705.4,832.9,705.3c0.2,0.2,0.3,0.4,0.4,0.4
				c0.1,0.1,0.1,0.1,0.2,0.2l0,0c0,0,0,0.1,0.1,0.1"/>
			<path class="st8" d="M839,709.3L839,709.3c0,0,0-1.3,0.4-4c0-0.1,0.1-0.4,0.1-0.8c0.2-0.9,0.6-2.5,0.6-2.7c0,0,1-0.8,1.3-1.1
				c0.3-0.3,1.1-1.1,1.6-1.6s0.9-1.1,1.2-1.6c0.1-0.1,0.1-0.3,0.3-0.4"/>
			<path class="st8" d="M840.4,704.6C840.4,704.6,840.4,704.5,840.4,704.6c0.4-0.7,0.7-1.6,0.7-1.7c0.1,0,0.3,0.4,0.3,0.6
				c0.1,0.3,0.2,1.3,0.3,1.9c0.1,0.8,0.1,1.5,0.1,1.5s0.9-1,0.9-1.1c0.1-0.3,0.3-0.5,0.4-0.8c0-0.1,0.1-0.2,0.1-0.3s0-0.1,0.1-0.1"
				/>
			<path class="st8" d="M844.7,696.2c0,0.1,0,0.1,0,0.3c0,0.1-0.1,0.4-0.1,0.7c0,0.1,0,0.1,0,0.2c0,0.2-0.2,1.3-0.3,1.9
				c-0.1,0.7-0.3,1.3-0.4,2c-0.1,0.6-0.4,1.7-0.5,2.2c-0.1,0.3-0.1,0.6-0.1,0.9s0,0.6,0.1,0.9c0,0.3,0.8,3.3,1.1,4.3
				c0.3,0.8,0.5,1.5,0.7,2c0.1,0.2,0.3,0.6,0.3,0.8l0,0c0,0,0,0,0,0.1"/>
			<path class="st8" d="M845.3,712.4c0,0.1,0,0.2,0,0.2c0.2,0.4,0.6,1.3,0.6,1.7c0.1,0.3,0.4,1.6,0.5,2.2c0.2,0.8,0.6,3.2,0.8,4.3
				c0.2,1,0.5,3.2,0.6,4.4c0.1,1.2,0.2,3.5,0.3,4.7c0.1,1.2,0.1,3.6,0,4.6c-0.1,1.1-0.3,3.5-0.4,4.7c-0.1,1.2-0.4,3.8-0.8,6
				c-0.1,0.3-0.1,0.6-0.1,0.9c-0.1,0.9-0.3,1.6-0.3,2.2c0,0.1-0.1,0.3-0.1,0.4c-0.1,0.6-0.1,1.1-0.1,1.3c0.1,0.2,0.2,0.6,0.4,0.8
				c0.1,0.1,0.5,0.2,0.7,0.3c0.3,0.1,1.8,0.1,2.5,0.1c0.7,0,1.7-0.2,2.1-0.3c0.9-0.3,2.5-0.9,3.3-1.3c0.1-0.1,0.3-0.1,0.4-0.2
				l0.1-0.1"/>
			<path class="st8" d="M845.4,712.6C845.4,712.5,845.3,712.5,845.4,712.6c-0.1-0.1-0.1-0.2-0.2-0.2c-0.3-0.6-0.8-2.5-0.9-3.7
				c-0.1-0.3-0.1-1.4-0.2-1.9c0-0.6,0-1.6,0-1.9c0.1-0.5,0.1-1.3,0.3-1.8c0.1-0.4,0.4-1.1,0.5-1.5c0.2-0.4,0.6-1,0.9-1.3
				c0.2-0.2,0.5-0.4,0.8-0.4c0.3-0.1,0.7-0.1,0.9-0.1c0.1,0,0.3,0.1,0.4,0.2c0.2,0.1,0.5,0.6,0.6,0.9c0,0.1,0.2,0.5,0.2,0.5
				c0.1-0.1,0.3-0.9,0.3-1.4c0-0.1,0-0.2,0-0.3c0-0.4-0.1-1-0.2-1.3c-0.1-0.4-0.5-1.5-0.6-1.8c-0.1-0.1-0.3-0.4-0.3-0.5l0,0"/>
			<path class="st8" d="M849.5,699.7L849.5,699.7c0.3,0.3,0.7,0.6,0.9,0.8c0.2,0.1,1.5,0.8,1.6,0.8c0.3,0.1,1.4,0.4,1.9,0.4
				c0.1,0,0.8,0.1,1.1,0.1c0.3,0.1,0.8,0.4,0.9,0.6c0.1,0.2,0.4,0.6,0.5,0.8c0.1,0.1,0.1,0.2,0.1,0.3c0.1,0.3,0.2,0.8,0.3,1.4
				s0.3,3.4,0.4,4.6c0.1,1.1,0.3,3.4,0.4,4.2c0.1,0.3,0.1,0.7,0.3,1.2c0.3,1,0.6,2.3,0.8,3c0.2,0.6,0.6,2.7,0.6,2.8v0.1
				c0,0,0,0,0,0.1"/>
			<path class="st8" d="M859.9,724.4L859.9,724.4c0,0.1,0.1,0.3,0.1,0.5c0.2,0.7,0.6,3.5,0.8,4.6c0.2,1,0.5,3.1,0.5,3.9
				c0,0.3,0.1,2.2,0.1,2.3s0.1,0.3,0.1,0.4c0,0.1,0,0.1,0,0.2"/>
			<path class="st8" d="M863.2,724.9L863.2,724.9C863.2,724.9,863,724.9,863.2,724.9C863.1,725,863.1,725,863.2,724.9
				c-0.2,0.1-0.7,0.1-0.9,0.2c-0.3,0-0.6,0-0.8-0.1c-0.2-0.1-0.6-0.3-0.7-0.3c-0.1,0-0.4-0.3-0.6-0.5c-0.2-0.2-0.4-0.4-0.4-0.6
				c-0.1-0.2-0.3-0.6-0.3-0.9c-0.1-0.3-0.1-0.8,0-1c0-0.2,0.1-0.6,0.2-0.6c0-0.1,0.1-0.1,0.1-0.1c0.1-0.1,0.2-0.2,0.3-0.3
				c0.3-0.1,1.2-0.3,1.6-0.2c0.2,0,0.6,0.1,0.7,0.2c0.3,0.1,0.8,0.7,0.9,0.9c0.1,0.1,0.2,0.3,0.3,0.5c0.1,0.1,0.1,0.3,0.2,0.4
				c0.1,0.2,0.2,0.6,0.2,0.9c0,0.1,0,0.1,0,0.2c0,0.4-0.1,0.9-0.1,1c-0.1,0.1-0.1,0.3-0.2,0.3C863.3,724.9,863.2,724.9,863.2,724.9
				c-0.1,0.1-0.2,0.1-0.2,0.1"/>
			<path class="st8" d="M863.3,722.1c0-0.1,0-0.2,0.1-0.3c0.1-0.3,0.6-1.1,0.9-1.3c0.1-0.1,0.3-0.1,0.6-0.1c0.3-0.1,0.8-0.1,1.5-0.2
				c0,0,1.3-0.1,1.8-0.1c0.4,0,1.5,0.1,2.2,0.1c0.4,0,0.7,0.1,0.8,0.1c0.3,0.1,0.5,0.2,0.6,0.3c0,0,0.9,1.4,0.9,1.5
				c0.1,0.1,0,0.5-0.1,0.8c-0.1,0.2-0.2,0.5-0.3,0.6c-0.1,0-0.1,0.1-0.2,0.1c-0.3,0.1-1,0.3-1.4,0.3c-0.7,0.1-1.6,0.1-1.9,0.1
				c-0.2,0-1.6,0.2-1.9,0.2c-0.4,0-1.6-0.1-2-0.1c-0.1,0-0.3,0-0.4,0c-0.1,0-0.3-0.1-0.3-0.1c-0.1-0.1-0.4-0.5-0.6-0.6"/>
			<path class="st8" d="M864.5,724.1L864.5,724.1L864.5,724.1c0,0-0.2,0.1-0.3,0.2c-0.1,0.1-0.4,0.5-0.4,0.6
				c-0.1,0.2,0.1,1.5,0.1,1.6c0.1,0.1,0.5,0.3,0.8,0.3c0.1,0,0.3,0.1,0.4,0.1c0.4,0.1,0.9,0.1,1.2,0.1c0.3,0,0.8,0,1.5-0.1
				c0.5-0.1,1.7-0.1,1.8-0.1c0.4,0,1.2-0.2,1.7-0.3c0.3-0.1,0.4-0.1,0.4-0.1c0.2-0.1,0.6-0.3,0.7-0.4c0.2-0.2,0.4-0.5,0.4-0.7
				c0.1-0.4-0.2-1.3-0.3-1.4c-0.1-0.1-0.1-0.2-0.3-0.3c-0.1-0.1-0.1-0.1-0.2-0.1"/>
			<path class="st8" d="M865.2,727L865.2,727L865.2,727c-0.2,0.1-0.4,0.2-0.6,0.4c0,0.1-0.3,0.5-0.4,0.8c0,0.1-0.1,0.6-0.1,0.8
				c0.1,0.2,0.4,0.4,0.6,0.4c0.1,0.1,0.4,0.1,0.8,0.1c0.3,0.1,0.6,0.1,0.9,0.1c0.6,0,1.7,0,2.3,0c0.3,0,0.7,0,1-0.1
				c0.2-0.1,1.8-0.5,2-0.6c0.1-0.1,0.3-0.2,0.4-0.3c0.1-0.1,0.1-0.1,0.1-0.2c0.1-0.2,0.4-0.5,0.4-0.6c0.1-0.2,0.1-0.6-0.1-0.7
				c-0.1-0.1-0.1-0.3-0.2-0.3c-0.1-0.1-0.1-0.1-0.2-0.2l-0.1-0.1"/>
			<path class="st8" d="M865.3,729.5L865.3,729.5c-0.1,0-0.1,0-0.2,0.1s-0.3,0.2-0.3,0.3c-0.1,0.1-0.2,0.6-0.1,0.8
				c0.1,0.3,0.3,0.6,0.4,0.8c0.1,0.1,0.1,0.1,0.2,0.1c0.3,0.1,0.6,0.3,0.7,0.3c0.3,0.1,2.6,0.1,3.7,0.1c0.3,0,0.6-0.1,0.9-0.2
				c0.1-0.1,0.4-0.3,0.6-0.5c0.1-0.1,0.1-0.1,0.1-0.1c0.2-0.2,0.4-0.6,0.6-0.9c0.1-0.3,0.2-0.8,0.2-1.1c0-0.1,0-0.3-0.1-0.6"/>
			<path class="st8" d="M864.8,720.3L864.8,720.3L864.8,720.3c-0.1-0.1-0.1-0.4-0.3-0.6c-0.2-0.4-0.6-0.9-1.1-1.3
				c-0.4-0.4-1.4-1.2-1.6-1.3c-0.4-0.3-1.3-0.9-1.6-1.3c-0.1-0.1-0.4-0.6-0.5-0.6c-0.1-0.1-0.2-0.3-0.3-0.5
				c-0.1-0.1-0.1-0.2-0.1-0.3s0.1-0.4,0.3-0.5c0.1-0.1,0.5-0.3,0.8-0.3c0.4-0.1,1-0.1,1.4,0c0.1,0,0.6,0.2,0.8,0.2l0,0
				c0.1,0.1,0.8,0.1,0.9,0.2c0,0,0,0,0.1,0c0.2,0.1,0.4,0.2,0.8,0.3c0.3,0.1,0.7,0.3,0.9,0.4c0.1,0.1,0.2,0.1,0.3,0.1"/>
			<path class="st8" d="M863.7,713.9L863.7,713.9c0.1,0.1,0.4,0.1,0.6,0.1c0.3-0.1,1.6-0.9,1.9-0.9c0.2-0.1,1.2-0.5,1.6-0.8
				c0.2-0.1,0.4-0.2,0.5-0.3c0.2-0.1,0.8,0.1,0.9,0.1c0.3,0,0.6,0.1,0.7,0.2s0.4,0.4,0.5,0.6s0.1,0.6,0.1,0.7c0,0.1,0,0.1-0.1,0.2
				c-0.1,0.3-0.1,0.6-0.2,0.8c-0.1,0.1-0.2,0.4-0.3,0.6"/>
			<path class="st8" d="M870.7,713.8L870.7,713.8C870.5,713.8,870.5,713.8,870.7,713.8C870.5,713.8,870.5,713.8,870.7,713.8
				L870.7,713.8c0.3-0.1,1.6-0.8,1.8-0.9c0.3-0.1,1.5-0.5,1.8-0.6c0.1,0,0.4,0,0.6,0.2c0.1,0.1,0.4,0.4,0.5,0.5s0.1,0.4,0,0.6
				c-0.1,0.2-0.2,0.6-0.3,0.7c-0.3,0.3-0.6,0.6-1.3,1.2c-0.4,0.4-1.6,1.3-1.7,1.4c-0.1,0.1-0.4,0.4-0.6,0.6
				c-0.2,0.1-0.4,0.3-0.5,0.4c-0.2,0.3-0.5,1.1-0.6,1.6c0,0.1-0.1,0.3,0,0.3c0,0,0,0,0,0.1v0.1"/>
			<path class="st8" d="M856.7,703.6L856.7,703.6L856.7,703.6c0.1,0.2,0.5,0.4,0.6,0.4c0.4,0.1,1.5,1.1,1.6,1.3
				c0.2,0.1,1,1.1,1.3,1.5c0.3,0.3,0.7,1.1,0.9,1.6c0.3,0.9,1.3,4.9,1.4,5.1c0,0.1,0.1,0.3,0.1,0.3l0.1,0.1"/>
			<path class="st8" d="M865.2,732L865.2,732c-0.1,0.3-0.2,0.5-0.3,0.7c-0.1,0.3-0.4,0.6-0.6,0.8c-0.1,0.1-2.5,2.5-2.8,2.8
				c-0.4,0.4-0.8,1.3-1.1,1.9c-0.5,1.2-1.4,3.3-1.6,3.7c-0.1,0.3-0.8,1.5-1.1,2c-0.5,1.1-1.6,3.3-1.8,3.8c-0.1,0.3-0.3,1.1-0.3,1.5
				c0,0.1,0,0.1,0,0.1c-0.1,0.1-0.3,1.4-0.4,2.1c-0.1,0.5-0.3,1.5-0.3,2.2c-0.1,0.9,0,3.7,0.1,4.3s0.2,1.2,0.4,2.1
				c0.1,0.6,0.4,1.6,0.7,2.2c0.2,0.4,0.4,1.1,0.8,1.8c0.4,1,0.9,2.1,1.1,2.5c0.3,0.7,0.6,1.3,1,1.8c0.3,0.4,1.1,1.4,1.6,1.9
				c0.4,0.4,1.3,1.5,1.5,1.6c0.4,0.4,1.1,0.9,1.7,1.3c0.5,0.3,3,1.6,4.2,2.2c0.6,0.2,1.8,0.7,2.1,0.8c0.4,0.1,1.4,0.4,1.9,0.4
				c0.8,0.1,1.5,0.1,2.3,0.1c0.8,0,1.5-0.1,2-0.2c0.4-0.1,3.7-1.2,4.1-1.3c0.5-0.2,1.4-0.6,1.8-0.9c0.4-0.3,1.1-0.8,1.5-1.2
				c0.3-0.2,1.1-1.2,1.5-1.6c0.3-0.4,0.9-1.3,1.1-1.5c0.3-0.6,0.6-1,0.8-1.8c0.3-0.8,0.4-1.2,0.6-1.8"/>
			<path class="st8" d="M882.9,743c-0.4-0.5-1-1.1-1.4-1.6c-0.3-0.3-2.5-2.3-3.3-3c-0.4-0.4-3.2-2.7-3.5-2.9
				c-0.3-0.3-1.1-1.1-1.5-1.5s-0.9-1.1-1.3-1.6c-0.4-0.6-0.6-0.9-0.6-0.9s0-0.1,0-0.2"/>
			<path class="st8" d="M882.9,743L882.9,743c0.1,0.1,0.3,0.3,0.4,0.4c0.4,0.5,0.7,0.8,1.1,1.5c0.3,0.5,1.1,1.6,1.2,1.8
				c0.4,0.6,0.7,1.2,1,1.9c0.2,0.5,0.6,1.5,0.8,2c0.2,0.5,0.5,1.5,0.6,1.8c0.3,1.1,0.5,3,0.6,3.9c0.1,0.6,0.3,3,0.3,4.6
				c0,0.6-0.1,1.5-0.1,2c-0.1,0.2-0.3,1.6-0.4,1.9c-0.1,0.2-0.4,1.3-0.4,1.4v0.1"/>
			<path class="st8" d="M869.5,750.4C869.4,750.4,869.4,750.3,869.5,750.4l-0.2-0.2c0.4,0,1.1-0.3,1.6-0.3h0.1
				c0.5-0.1,1.3-0.2,2.1-0.2c0.4,0,0.8-0.1,1.5-0.1c0.2,0,0.4,0,0.6,0c0.6,0,1.6,0.1,1.9,0.1c0.4,0.1,1.1,0.4,1.3,0.7
				c0.1,0.1,0.3,0.4,0.3,0.6s0.1,0.6,0.1,0.8c0,0.2-0.1,0.6-0.1,0.8c0,0.2-0.4,0.6-0.6,0.8c-0.3,0.3-1.3,0.8-1.8,1
				c-0.4,0.1-1.4,0.4-1.8,0.5c-0.2,0.1-0.9,0.2-1.6,0.3c-0.4,0.1-0.7,0.1-0.7,0.1h-0.1c0,0-0.1,0-0.2,0"/>
			<path class="st8" d="M872.8,755.4C872.8,755.4,872.9,755.4,872.8,755.4c0.2-0.1,0.2-0.1,0.4-0.2c0.2,0,0.6,0,0.7,0
				c0.4-0.1,1.5-0.2,1.6-0.2c0.7-0.1,1.5-0.1,1.8-0.1c0.4,0.1,1.1,0.3,1.4,0.6c0.1,0.1,0.4,0.3,0.6,0.4c0.2,0.1,0.3,0.4,0.3,0.6
				c0.1,0.1,0.1,0.5,0.1,0.7c0,0.4-0.3,1.1-0.4,1.6c-0.1,0.2-0.4,0.6-0.5,0.8c-0.3,0.3-1.1,0.8-1.5,1c-0.4,0.1-1.5,0.4-2,0.6
				c-0.4,0.1-1.6,0.3-2.1,0.4c-0.1,0.1-0.3,0.1-0.3,0.1c-0.2,0.1-0.6,0.2-0.8,0.2c-0.1,0-0.3,0.1-0.4,0.1"/>
			<path class="st8" d="M870.9,750.1L870.9,750.1L870.9,750.1c0.1,0.4,0.3,1.5,0.3,1.6c0.1,0.3,0.5,1.7,0.6,2.1
				c0.1,0.4,0.1,0.9,0.3,1.6c0.4,2.4,0.9,6,0.9,6s0,0.1,0.1,0.1"/>
			<path class="st8" d="M874.2,761.5c0,0,0.1,0.3,0.1,0.8c0.1,0.4,0.1,0.9,0.2,1.1c0,0.1,0.1,0.2,0.1,0.3"/>
			<path class="st8" d="M876.2,761.1C876.2,761.1,876.2,761.2,876.2,761.1c0,0.2,0,0.3,0.1,0.5c0.1,0.3,0.1,0.8,0.2,0.9
				c0.1,0.2,0.1,0.4,0.1,0.6"/>
			<path class="st8" d="M872.4,749.7L872.4,749.7c-0.2-0.5-0.4-1.5-0.4-1.5s0-0.2-0.1-0.4"/>
			<path class="st8" d="M874.5,749.7c-0.1-0.1-0.1-0.1-0.1-0.2s-0.1-0.4-0.1-0.5c-0.1-0.9-0.3-1.3-0.3-1.4"/>
			<path class="st8" d="M842,749C841.9,749,841.9,749,842,749L842,749l-0.1-0.4l-0.1-2.5c0.1-0.1,0.4-0.1,0.6-0.1
				c0.9,0.1,1.6,0.1,2.3,0.1c0.2,0,0.6,0,0.6,0.1c0.1,0.2,0.1,2-0.1,2.6c0,0.1,0,0.2-0.1,0.3s-0.3,0.1-0.6,0.1c-0.4,0-2,0.1-2.1,0.1
				C842.4,749.2,842.3,749.1,842,749"/>
			<path class="st8" d="M842.8,747.7c0,0.1,0.2,0.1,0.4,0.1c0.1,0,0.4,0,0.6-0.1c0.1,0,0.1,0,0.2-0.1"/>
			<path class="st8" d="M841.9,748.7L841.9,748.7C841.8,748.7,841.8,748.7,841.9,748.7c-0.1,0-0.1,0-0.2,0c-0.2,0-0.9,0-1-0.1
				c0,0-0.1,0-0.1-0.1"/>
			<path class="st8" d="M840.4,746.5L840.4,746.5c0.2,0-0.1-0.2-0.1-0.3c-0.1-0.1-0.1-0.1,0-0.1c0.3,0,1.4,0.1,1.5,0.1"/>
			<path class="st8" d="M840.5,746.5L840.5,746.5L840.5,746.5"/>
			<path class="st8" d="M840.4,745c0.1,0,0.4,0.1,0.6,0.1c0.8,0.1,1.3,0.1,1.7,0.1c0.2,0,1,0.1,1.1,0.1s0.2,0,0.4,0
				c0.5,0,1.3-0.1,1.7-0.1c0.3,0,0.6-0.1,0.7-0.1h0.1"/>
			<path class="st8" d="M845.4,748.9L845.4,748.9c0.1,0,0.3,0,0.3,0c0.1,0,0.3,0,0.3,0c0.1,0,0.1,0,0.2-0.1c0,0,0,0,0.1,0h0.1"/>
			<line class="st8" x1="845.4" y1="748.8" x2="845.4" y2="748.9"/>
			<path class="st8" d="M845.3,746.3c0,0,0.6-0.2,0.8-0.1c0,0,0.4,0,0.6,0c0.1,0,0.1,0,0.1,0"/>
			<path class="st8" d="M856.7,764.3L856.7,764.3c0.1,0.6,0,1.3-0.1,1.9c-0.1,0.6-0.3,1.1-0.6,1.9c-0.4,1.1-1.1,2.8-1.6,4.2
				c-0.8,2.2-2.1,5.6-2.6,6.8c-0.5,1.2-1.6,3.2-2.1,4.2c-0.1,0.3-0.4,0.8-0.4,0.9s0.1,0.4,0.2,0.6c0.1,0.2,0.4,0.7,0.6,0.8
				c0.1,0.1,0.1,0.3,0.1,0.4c0,0.1-0.1,0.3-0.1,0.3c-0.1,0.1-0.4,0.4-0.6,0.5s-0.3,0.4-0.4,0.5c0,0.3,0.4,1.2,0.4,1.3s0,0.3-0.1,0.3
				"/>
			<path class="st8" d="M841.3,790.9c-0.2,0-0.4,0.1-0.7,0.1c-0.1,0-0.1,0-0.1,0c-0.3,0.1-0.6,0.1-0.8-0.1c-0.1-0.1-0.1-0.3-0.1-0.4
				c0.1-0.4,0.8-1.6,0.8-1.6l0.1-0.3c0-0.1-0.1-0.4-0.4-0.8c-0.2-0.3-0.4-0.7-0.4-0.8c0-0.2,0.2-2.1,0.2-2.3c0-0.1,0-3.2-0.1-4.4
				c0-2.3,0.1-7.1,0.1-9.6c0-1.3,0-3.6,0.1-5.1c0-0.8,0-1.5,0-1.6c0-0.3,0.1-1.5,0.2-1.6"/>
			<path class="st8" d="M841.3,790.9c0.1,0,0.1,0,0.2,0"/>
			<path class="st8" d="M837,790.3L837,790.3c0.1,0,0.2,0,0.3,0c0.2,0,0.4-0.1,0.5-0.1c0.1-0.1,0.2-0.3,0.3-0.3
				c0.1-0.2,0-0.6-0.1-0.8c-0.1-0.3-0.9-1-0.9-1.1s0.5-1.3,0.6-1.8c0.1-0.8,0.3-2.8,0.4-4.3c0.3-2.3,0.9-8.2,0.9-9.2
				c0.1-1.8,0.3-3.2,0.4-4.2c0-0.3,0.3-1.8,0.4-2.3c0-0.1,0-0.1,0.1-0.2"/>
			<path class="st8" d="M828.8,789.1L828.8,789.1C828.8,789,828.8,789,828.8,789.1c-0.2-0.2-0.6-0.4-0.9-0.6
				c-0.3-0.1-0.6-0.4-0.8-0.6c-0.1-0.1-0.3-0.7-0.2-0.8s0.4-0.6,0.6-0.9c0.1-0.1,0.2-0.3,0.2-0.4c0-0.2-0.1-0.4-0.4-0.8
				c-0.3-0.4-0.6-0.6-0.6-0.8c-0.3-0.4-0.4-1.1-0.7-2c-0.3-0.9-0.4-1.5-0.6-2c-0.2-0.4-1.6-3.5-1.8-3.9c-0.9-2-1.2-2.5-1.3-3.1
				c0-0.1,0-0.1-0.1-0.3"/>
			<path class="st8" d="M838.5,760.2c-0.1,0-0.2,0-0.4,0c-0.2,0-0.7,0-1,0.1c-0.6,0.1-1.8,0.4-2.2,0.6c-0.4,0.1-1.2,0.6-1.6,0.9
				c-0.2,0.1-0.5,0.4-0.6,0.4"/>
			<path class="st8" d="M838,759C837.9,759,837.9,759,838,759c-0.1,0-0.5-0.3-0.7-0.4c-0.5-0.2-2.8-0.8-3.4-1
				c-0.1,0-0.4-0.1-0.5-0.1"/>
			<path class="st8" d="M841.8,760.6l-0.2,0.1v0.1c0.1,0.1,1.8,0.6,2,0.7c0.3,0.1,1.5,0.7,1.9,0.9c0.6,0.3,1,0.6,1.2,0.8"/>
			<path class="st8" d="M841.8,759.5c0.3,0,1.6-0.3,2.2-0.4c0.4-0.1,1.7-0.5,1.9-0.6c0.4-0.1,1.2-0.2,1.3-0.2"/>
			<path class="st8" d="M846.2,788.7L846.2,788.7c-0.1-0.2,0.2-0.5,0.3-0.8c0.1-0.1,0.1-0.4,0.1-0.5s-0.1-0.4-0.1-0.5
				c-0.1-0.1-0.6-0.7-0.6-0.7c-0.1-0.1-0.2-0.3-0.2-0.4c0-0.2,0.2-0.5,0.5-0.8c0.3-0.3,0.4-0.5,0.4-0.6c0.1-0.3,0.2-0.5,0.2-0.7
				c0-0.6,0.1-1.6,0.1-2.2c0.3-1.2,0.6-3.3,1-4.7c0.3-1.1,0.6-2.5,0.7-2.8"/>
			<path class="st8" d="M832,788.8L832,788.8L832,788.8c0.1,0-0.8-0.1-0.8-0.1c-0.1-0.1-0.4-0.1-0.4-0.2c-0.1-0.1-0.1-0.5-0.1-0.8
				c0.1-0.3,0.3-1.1,0.4-1.3c0-0.1,0-0.3-0.1-0.3s-0.5-0.4-0.6-0.6c-0.1-0.1-0.3-1.5-0.4-1.9c-0.4-1.1-1.1-3.4-1.5-4.5
				c-0.2-0.6-0.8-3.4-1-4c-0.1-0.1-0.9-2.5-1-2.7c-0.1-0.3-0.3-0.8-0.3-0.9"/>
			<path class="st8" d="M841.3,790.9L841.3,790.9C841.3,790.8,841.3,790.8,841.3,790.9c0.3-0.3,0.5-0.4,0.7-0.5
				c0.5-0.3,1.2-0.6,2-0.9c0.4-0.1,0.8-0.3,0.9-0.3c1.2-0.1,3.5-0.3,3.5-0.3c0.1,0,0.3,0,0.5,0.1"/>
			<path class="st8" d="M845.4,792.6L845.4,792.6c-0.1,0,0.1-0.3,0.3-0.6c0.4-0.4,0.9-1,1.6-1.6c0.4-0.4,1.1-0.9,1.3-1.1
				c0.1-0.1,0.3-0.1,0.5-0.3c0.1,0,0.1-0.1,0.1-0.1c0.4-0.2,0.9-0.4,1.2-0.4c0.6-0.2,1.6-0.4,2-0.4c0.2,0,1.7-0.1,2-0.1
				c0.7,0.1,1.3,0.1,2,0.3c0.5,0.1,1.6,0.4,2,0.6c0.4,0.2,1.3,0.7,1.6,1c0.3,0.3,0.9,1.1,1.1,1.5c0.3,0.4,0.4,1.3,0.6,1.7
				c0.3,1.8,0.4,2.6,0.4,3c0,0.1,0,0.3,0,0.4c0,0.1,0,0.1,0,0.1"/>
			<path class="st8" d="M844.8,795.5L844.8,795.5l-0.1,1c-0.1,0-1.3-0.2-1.5-0.3c-1.8-0.5-2.4-0.7-2.5-0.8s-0.3-0.6-0.3-0.9
				c0-0.1,0-0.3,0-0.4c0.1,0,0.1,0,0.1,0s0.1,0,0.1,0.1c0.2,0.1,0.6,0.5,0.8,0.6c0.3,0.1,2.3,0.6,2.4,0.6c0,0,0.1,0,0.3,0"/>
			<path class="st8" d="M844.2,795.5L844.2,795.5C844.2,795.5,844.2,795.5,844.2,795.5c-0.1,0-0.1-0.1-0.1-0.2
				c0-0.2-0.1-0.9-0.1-1.1c0.1,0,0.2,0.1,0.4,0.3c0.6,0.5,1.1,0.9,1.6,1.1c0.5,0.3,1.5,0.8,2,0.9c0.3,0.1,1.3,0.4,1.8,0.4
				c0.5,0.1,1.7,0.3,2,0.3c0.4,0.1,1.9,0,2,0c1.1,0,3.2-0.1,4.6-0.3c0.6-0.1,1.8-0.3,2.2-0.3c0.3-0.1,1.1-0.3,1.5-0.5
				c0.2-0.1,0.3-0.1,0.3-0.1c0.1,0,0.3,0,0.3,0.1c0.1,0.1,0.1,0.4,0.1,0.6c0,0.1-0.1,0.3-0.2,0.3c-0.1,0.1-0.5,0.3-0.8,0.4
				c-0.3,0.1-1.5,0.2-1.9,0.2c-0.6,0-1,0.1-2.2,0.3c-0.4,0.1-1.3,0.1-2,0.1c-0.9-0.1-1.3,0-2.3,0.1c-0.4,0-1.5,0.1-1.9,0.1
				c-0.8,0-1.5-0.1-2-0.3c-0.9-0.3-3.5-1.2-3.7-1.3c-0.3-0.2-0.6-0.5-0.8-0.8c-0.2-0.4-0.3-0.5-0.3-0.5"/>
			<path class="st8" d="M840.8,794.1L840.8,794.1c-0.2-0.3-0.3-0.6-0.4-0.9c-0.2-1.1,0-1.8,0-1.9c0,0,0.1-0.1,0.1-0.3"/>
			<path class="st8" d="M834.2,793.2L834.2,793.2C834.2,793.1,834.2,793.1,834.2,793.2c-0.3-0.4-1.2-1.2-1.3-1.4l0,0
				c-0.4-0.4-0.9-0.9-1.6-1.5c-0.6-0.4-0.9-0.7-1.3-0.9c-0.3-0.1-0.6-0.3-0.8-0.3c-0.1,0-0.2-0.1-0.3-0.1c-0.5-0.1-1.3-0.1-1.8-0.1
				c-0.6,0.1-1.6,0.2-2.2,0.3c-0.7,0.1-1.8,0.4-2.2,0.6s-1.3,0.8-1.6,1.1c-0.5,0.4-1.1,1.1-1.4,1.5s-0.7,1.2-0.9,1.7
				c-0.2,0.5-0.4,1.3-0.6,2c-0.1,0.3-0.3,2-0.3,2s0,0.1,0.1,0.1"/>
			<path class="st8" d="M817.8,798.2L817.8,798.2L817.8,798.2C817.8,798.3,817.9,798.3,817.8,798.2l0.2,0.1c0.1,0,0.3,0.1,0.4,0.1
				c0.1,0,1.5,0.2,2.2,0.3c1.2,0,3.3,0.3,4.2,0.4c0.4,0.1,1.6,0.1,1.8,0.1c0.4,0,3.6-0.1,4.2-0.2c0.6-0.1,1.6-0.2,2.1-0.4
				c1.5-0.4,2.5-0.8,3-1.1c0.1-0.1,0.3-0.2,0.4-0.3c0.1,0,0.1-0.1,0.2-0.1"/>
			<path class="st8" d="M836.4,797.2c0.2-0.1,0.3-0.3,0.4-0.5c0,0,0.4-0.8,0.5-0.9c0.1,0.3,0.2,0.6,0.3,0.9c0,0.2,0.1,0.7,0.1,0.9
				l0.1-0.1"/>
			<path class="st8" d="M837.8,797.4L837.8,797.4L837.8,797.4L837.8,797.4c0,0.1,0.3-0.1,0.6-0.3c0.4-0.2,1-0.4,1.1-0.5
				c0.1,0,0.1-0.1,0.2-0.1"/>
			<path class="st8" d="M832.9,791.6L832.9,791.6c0.1,0,0.5-0.3,0.7-0.4c0.8-0.3,1.3-0.5,1.6-0.6c0.3-0.1,0.8-0.1,1.1-0.1
				c0.4,0,0.9,0,1,0"/>
			<line class="st8" x1="833" y1="791.6" x2="832.9" y2="791.6"/>
			<path class="st8" d="M837.3,790.4L837.3,790.4C837.4,790.4,837.4,790.4,837.3,790.4L837.3,790.4h0.2"/>
			<path class="st8" d="M837.4,790.5L837.4,790.5c0,0,0.5,0.6,0.8,1.2c0.3,0.6,0.7,1.5,0.9,2c0.3,1,0.5,1.8,0.6,2.5v0.1"/>
			<path class="st8" d="M817.8,798.3L817.8,798.3L817.8,798.3c-0.1,0.1-0.3-0.1-0.3-0.1h-0.1c-0.1,0-0.2,0.2-0.2,0.3
				c-0.1,0.1,0.1,0.8,0.2,1.1c0.1,0.1,0.2,0.3,0.3,0.3c0.2,0.1,1.4,0.1,2,0.1c1.1,0,3.1,0.2,4.1,0.2c1.2,0,3.4-0.1,4.6-0.1
				c0.7,0,1.5-0.1,2.1-0.2s1.7-0.3,2.2-0.4c0.2-0.1,1.8-0.5,2.1-0.6c0.2-0.1,0.6-0.3,0.9-0.5c0.3-0.2,0.6-0.4,0.8-0.6
				c0.1-0.1,0.4-0.4,0.4-0.4s0.1,0.3,0.1,0.8c0,0.1,0.1,0.2,0.1,0.2c0.3,0,0.6-0.1,0.9-0.3c0.8-0.4,1.6-0.7,1.8-0.8
				c0.1-0.1,0.3-0.6,0.2-0.8c0-0.1-0.1-0.1-0.1-0.1s-0.1,0-0.2,0"/>
		</g>
	</g>
</g>
</svg>
