<?xml version="1.0" encoding="utf-8"?>
<!-- Generator: Adobe Illustrator 28.1.0, SVG Export Plug-In . SVG Version: 6.00 Build 0)  -->
<svg version="1.1" id="Layer_1" xmlns="http://www.w3.org/2000/svg" xmlns:xlink="http://www.w3.org/1999/xlink" x="0px" y="0px"
	 viewBox="0 0 280 600" style="enable-background:new 0 0 280 600;" xml:space="preserve">
<style type="text/css">
	.st0{fill:#FFFFFF;}
	.st1{fill:#FDDBC8;}
	.st2{fill:#E6E6E6;}
	.st3{fill:#94A18A;}
	.st4{fill:#FFE7DB;}
	.st5{fill:#D5AF9F;}
	.st6{fill:#CDEBFF;}
	.st7{fill:#8D5825;}
	.st8{fill:none;stroke:#000000;stroke-width:0.84;stroke-linecap:round;stroke-linejoin:round;stroke-miterlimit:10;}
</style>
<g id="Ink" transform="translate(-769.00, -493.00)">
	<g id="XMLID_00000025443104390741873220000000453185584347454863_">
		<g>
			<path class="st0" d="M915.4,523.8L915.4,523.8C915.4,523.8,915.3,523.8,915.4,523.8C915.3,523.8,915.3,523.8,915.4,523.8z
				 M915.8,524.8c0,0.2-0.1,0.5-0.1,0.6c0,0.1,0,0.1-0.1,0.1c0,0.1-0.1,0.1-0.1,0.1c-0.1,0.1-0.1,0.1-0.2,0.1s-0.2-0.1-0.2-0.3l0,0
				c0-0.1-0.1-0.2-0.1-0.2c0,0,0,0,0-0.1c0-0.2-0.1-0.4,0-0.5c0-0.2,0.1-0.5,0.2-0.7l0,0c0.1-0.1,0.2-0.1,0.2-0.1
				c0.1,0,0.1,0.1,0.1,0.1l0,0c0.1,0.1,0.1,0.2,0.1,0.3C915.7,524.2,915.8,524.6,915.8,524.8z"/>
			<path class="st0" d="M907,526.1c-0.1,0.1-0.2,0.1-0.2,0.1c-0.1,0-0.1-0.1-0.2-0.1v-0.1l0,0c0,0,0-0.1-0.1-0.1
				c-0.1-0.1-0.1-0.3-0.1-0.6c0-0.1,0-0.1,0-0.2c0-0.1,0-0.2,0-0.3l0,0c0-0.1,0-0.2,0-0.2c0-0.1,0.1-0.2,0.2-0.3l0,0
				c0.1,0,0.1-0.1,0.1-0.1c0.1,0,0.1,0.1,0.2,0.1c0.1,0.2,0.1,1.2,0.1,1.4C907.1,525.8,907,526,907,526.1z"/>
			<path class="st0" d="M913.8,534.8v0.1c-0.1,0-0.1-0.1-0.2-0.1c-0.3,0-0.9-0.3-1-0.3c-0.1-0.1-0.2-0.2-0.2-0.3
				c-0.1-0.2,0-0.5,0.1-0.6c0.1-0.1,0.3-0.1,0.4-0.1c0.1,0,0.3,0.1,0.3,0.1s0.3,0,0.5,0.1c0.1,0,0.1,0,0.1,0c0.1,0,0.1,0,0.1,0l0,0
				l0,0c-0.1,0.1-0.5,0.3-0.5,0.6s0.1,0.5,0.2,0.6C913.8,534.8,913.8,534.8,913.8,534.8z"/>
			<path class="st1" d="M910.7,523.3c0.1,0,0.1,0,0.2-0.1h0.1c0.1-0.1,0.1-0.1,0.1-0.1c0.1-0.1,0.1-0.1,0.2-0.2
				c0.1-0.1,0.1-0.4,0.1-0.5c-0.1-0.2-0.3-0.6-0.5-0.6c-0.2-0.1-1.2-0.1-1.7-0.2c-0.2-0.1-1.7-0.8-2.4-1.1c-0.4-0.2-1-0.3-1.4-0.3
				c-0.2,0-1.2,0.1-1.4,0.1c-0.2,0.1-0.5,0.3-0.6,0.4s-0.2,0.4-0.1,0.5c0,0.1,0.1,0.3,0.2,0.4c0.1,0.1,0.3,0.2,0.6,0.2
				s1.2-0.1,1.6-0.1c0.2,0,1.4,0.2,1.6,0.2c0.2,0.1,0.6,0.3,0.9,0.4c0.1,0.1,0.8,0.5,0.8,0.6c0.3,0.2,0.6,0.3,0.9,0.3
				C909.9,523.3,910.7,523.3,910.7,523.3z M915.1,525.5c0,0.1,0.1,0.1,0.1,0.2l0,0c0.1,0.1,0.1,0.2,0.2,0.2c0.1,0,0.2-0.1,0.2-0.2
				c0.1-0.2,0.2-1.1,0.2-1.5c0-0.2-0.1-0.4-0.2-0.5c0,0,0-0.1-0.1-0.1l0,0c-0.1-0.1-0.1-0.1-0.1-0.1c-0.1,0-0.2,0-0.2,0.1
				c0,0,0,0.1-0.1,0.1l0,0c-0.1,0.1-0.2,0.5-0.2,0.8c0,0.1,0.1,0.3,0.1,0.5l0,0c0,0.1,0,0.2,0.1,0.2l0,0
				C915.1,525.4,915.1,525.5,915.1,525.5z M895,525.6c-0.1,0.1-0.2,0.1-0.3,0.2l-1.4-0.1c0.1-0.2,0.2-0.5,0.2-0.6
				c0.1-0.1,0.1-0.1,0.1-0.2c0.2-0.2,0.6-0.5,0.8-0.6c0.3-0.2,0.9-0.3,1.2-0.3c0.5,0,0.8,0,1.2,0.1s0.6,0.2,0.8,0.3l0.1,0.1l0,0
				c0,0.1,0,0.1,0,0.4c0,0.1,0.1,0.2,0.1,0.3c0.1,0.1,0.3,0.1,0.8,0.1c0.2,0,0.5-0.1,0.6-0.1c0.1-0.1-0.1-2.1-0.1-2.1
				c0,0,0.5-0.3,1.2-1c0.2-0.1,0.5-0.5,0.8-0.6c0.2-0.2,0.5-0.4,0.5-0.5c0.1-0.1-0.1-0.4-0.2-0.7c-0.2-0.5-0.5-1.2-0.6-1.3v-0.1h0.1
				c0-0.1,0.1-0.4,0.2-0.5c0.1-0.2,0.9-0.8,1.3-0.9c0.2-0.1,1-0.5,1.5-0.6c0.8-0.3,1.4-0.5,1.8-0.6c0.5-0.1,1.4-0.1,2-0.1
				c0.9,0,2.6,0.2,3.8,0.3c0.6,0,3.4,0.6,3.9,0.7c0.6,0.1,0.9,0.1,1.3,0.1c0.1,0.1,0.1,0.3,0.2,0.4c0.1,0.3,0.4,1.4,0.5,1.7
				c0,0.1,0,0.3,0,0.4l0.1,0.1c-0.2,0.2-0.4,0.5-0.5,0.7c-0.2,0.2-0.4,0.5-0.6,0.6c-0.2,0.1-0.7,0.3-1,0.3c-0.1,0-0.7,0.1-0.8,0.1
				c-0.2,0.1-0.5,0.1-0.5,0.2c-0.1,0.1-0.3,0.3-0.3,0.4c-0.1,0.2-0.1,0.5,0,0.7c0.1,0.2,0.3,0.3,0.5,0.4c0.1,0,0.2,0,0.3-0.1v0.1
				c0.1,0,0.4-0.1,0.5-0.1c0.2-0.1,2.3-0.9,2.6-1c0.1-0.1,0.1-0.1,0.2-0.2v0.1c0.1,0.3,0.1,0.6,0.1,0.8c0,0.4,0.1,1,0.1,1
				c0,0.1,0,0.1,0,0.2l0.1,0.1l0,0c0,0,0.1,0.1,0.1,0.1c0.1,0,0.3,0.3,0.4,0.5c0.1,0.2,0.4,1.1,0.5,1.3c0,0,0,0.1,0,0.2v0.1
				c0.2,0,0.5,0.1,0.7,0.1c0.3,0.1,1,0.5,1.3,0.8c0.2,0.2,0.5,0.6,0.6,0.8c0.1,0.2,0.2,0.7,0.2,0.9c0,0.5-0.2,1.4-0.3,1.9
				c-0.1,0.2-0.2,0.4-0.3,0.6c-0.1,0.1-0.3,0.3-0.5,0.5c-0.2,0.1-0.5,0.2-0.8,0.3c-0.3,0.1-0.6,0.1-1.3,0.2
				c-0.1,0.1-0.1,0.1-0.1,0.1c-0.1,0.1-0.6,0.7-0.8,0.8l-0.1,0.1v0.1c-0.1,0-0.1,0-0.1,0c-1.7,0.2-2.6,0.2-3.4,0.3l0,0l0,0H914
				c-0.1,0-0.1,0-0.1,0c-0.2,0-0.5-0.1-0.5-0.1c-0.1,0-0.3-0.1-0.3-0.1c-0.1,0-0.3,0.1-0.4,0.1c-0.1,0.1-0.1,0.4-0.1,0.6
				c0.1,0.1,0.1,0.2,0.2,0.3s0.7,0.3,1,0.3c0,0,0.1,0,0.2,0.1c0.1,0,0.1,0.1,0.1,0.1c0.3,0,0.9-0.1,1.7-0.1v0.1
				c-0.1,0.1-0.2,0.1-0.5,0.2l0,0l-0.1,0.1c-0.1,0.1-0.2,0.2-0.2,0.2c-0.2,0.2-1,0.6-1.2,0.8c-0.4,0.2-1.2,0.5-1.6,0.6
				c-0.2,0.1-1.6,0.3-1.8,0.4c-0.5,0.1-1.5,0.1-2,0.1c-0.3,0-1.5,0-2.1-0.1c-0.5-0.1-1.6-0.3-2.1-0.4c-0.6-0.1-1.3-0.4-1.6-0.5
				c-0.1,0-0.1-0.1-0.1-0.1c-0.5-0.2-1.2-0.6-1.4-0.7c-0.1-0.1-1.5-1-1.7-1.1c-0.3-0.2-1-0.5-1.2-0.7l0,0c-0.1-0.1-0.1-0.1-0.1-0.2
				c-0.1-0.1-0.3-0.4-0.4-0.6c-0.2-0.4-0.5-1.4-0.6-1.8c-0.1-0.7-0.1-1.1-0.1-1.9c0-0.4,0-0.6,0-0.6l-0.1-0.1
				c0.1-0.1,0.1-0.1,0.2-0.1l0.1-1.6h-0.1c0,0-0.2-0.5-0.4-0.7c-0.2-0.3-0.9-0.7-1-0.7C895.4,525.5,895.2,525.6,895,525.6z
				 M907.2,525.9L907.2,525.9C907.2,525.8,907.2,525.8,907.2,525.9v-0.1l0,0c0,0,0-0.1,0-0.1l0,0c0.1-0.5,0.1-1.2,0-1.4l0,0v-0.1
				c-0.1-0.1-0.1-0.2-0.2-0.2c0,0-0.1,0-0.1,0c-0.1,0-0.1,0-0.1,0c-0.1,0.1-0.2,0.2-0.2,0.3c0,0.1,0,0.2,0,0.5l0,0
				c0,0.1,0,0.2,0,0.3c0,0.1,0,0.1,0,0.2c0,0.3,0.1,0.6,0.1,0.8c0.1,0.2,0.2,0.3,0.2,0.3c0.1,0,0.2,0,0.2-0.1c0,0,0,0,0.1-0.1l0,0
				c0-0.1,0.1-0.1,0.1-0.2l0,0C907.3,526,907.3,526,907.2,525.9L907.2,525.9L907.2,525.9L907.2,525.9
				C907.2,525.9,907.2,525.9,907.2,525.9L907.2,525.9z"/>
			<path class="st2" d="M922.9,533.2L922.9,533.2L922.9,533.2z M913.8,534.9v-0.1c0,0-0.1,0-0.1,0c-0.1-0.1-0.2-0.3-0.2-0.6
				s0.3-0.5,0.5-0.6c0.8-0.1,1.6-0.2,3.4-0.3c0.1,0,0.1,0,0.1,0c0.8-0.1,3.5-0.2,3.6-0.2c1.7,0,3.9-0.1,4.3-0.1l0,0
				c-0.1,0.1-0.1,0.1-0.3,0.3c-0.1,0.1-0.6,0.6-0.8,0.9c-0.1,0.1-0.1,0.1-0.1,0.2l0,0v0.1c-0.1,0-0.1,0-0.1,0
				c-0.6-0.1-1.9,0.1-3.5,0.2c-0.2,0-0.7,0.1-1.1,0.1s-0.8,0.1-0.9,0.1c-0.9,0-1.7,0.1-2.3,0.1c-0.2,0-0.5,0-0.7,0
				C914.7,534.9,914.1,534.9,913.8,534.9C913.9,535,913.8,535,913.8,534.9z"/>
			<path class="st1" d="M913.8,533.6C913.9,533.6,913.9,533.6,913.8,533.6C913.9,533.6,913.9,533.6,913.8,533.6z"/>
			<path class="st1" d="M913.8,533.6c0,0-0.1,0-0.1,0C913.8,533.6,913.8,533.6,913.8,533.6z"/>
			<path class="st3" d="M897.1,538.6c0.1-0.1,0.3-0.2,0.3-0.2l0,0c0.1,0.3,0.2,0.6,0.2,0.9c0.1,0.5,0.1,1,0.1,1.2h0.1l0,0l0,0
				c0.1-0.1,0.3-0.3,0.6-0.5c0.3-0.2,0.6-0.3,0.9-0.4c0.5-0.1,0.8-0.2,1-0.2c0.3,0.1,1.3,0.2,1.7,0.4c0.2,0.1,0.8,0.3,1,0.5
				c0.5,0.2,0.9,0.8,1.4,1.4c0.3,0.5,0.8,1,1,1.6c0.1,0.1,0.1,0.2,0.1,0.3c0,0,0,0.1,0,0.1l0,0c0.2,0.9,0.3,2.2,0.3,3.4
				c0,1.2,0.1,3.5,0.1,4.7c0.1,1.2,0.2,3.4,0.3,4.2c0.1,0.9,0.5,2.8,0.7,3.9c0.1,0.5,0.3,1.4,0.5,1.9c0.3,1.1,1,3.1,1.4,4.2
				c0.5,1.4,1.7,6.1,2.3,8.2c0.2,0.8,0.6,3,0.8,3.7c0.1,0.5,0.1,1.1,0.2,1.7c0,0.3,0.1,0.6,0.1,1c-0.1,0-0.1,0.1,0,0.1
				c0.1,0.7,0.1,1.3,0.1,1.4c0,0.2,0,0.5,0,0.7c0,1,0.1,2,0.1,2.3c0,0.2,0,0.3,0,0.5c0,0,0,0.1,0,0.1c-0.2,0.1-0.5,0.1-0.8,0.1
				s-1.3-0.2-1.9-0.3c-0.5-0.1-1.7-0.2-2.1-0.2c-0.8,0-2.8-0.1-3.9-0.1c-0.6-0.1-1.7-0.2-2.2-0.2c-0.8-0.1-1.5-0.2-2-0.3
				c-0.9-0.2-1.4-0.3-2-0.5c-1-0.3-2.5-1.2-3-1.4l0,0c-0.4-0.9-0.9-1.9-1.2-2.5c-0.5-0.8-2.3-3.3-2.4-3.5c-0.1-0.2-0.7-0.8-1.2-1.2
				c-0.2-0.2-0.8-0.6-1.4-1.1c-0.1-0.5-0.3-1.4-0.3-2c-0.1-0.6-0.1-2-0.2-2.2c0-0.4,0.2-2.3,0.4-3.7c0.2-1.4,0.5-2.8,0.9-4.3
				c0.1-0.3,0.2-0.6,0.3-1c0.2-0.9,0.5-2,0.6-2.7c0.1-1,0.3-3,0.4-3.9c0-1.2,0.1-3.3,0.1-4.3c-0.1-2.2-0.1-5.4-0.1-6.4
				c0-0.3,0-0.9,0-1.4c0-0.3,0.1-0.5,0.1-0.6c0.1-0.2,0.4-0.4,0.7-0.6C893.6,540.2,896.5,538.9,897.1,538.6z"/>
			<path class="st4" d="M914.7,579.9c0.2,0,0.9,0.1,1,0.1c0.1,0,0.2,0,0.3,0c0.5,0,1.2-0.1,1.6-0.1c0.3,0,0.6-0.1,0.6-0.1
				c0,0,0.1,0,0.1,0l0,0c-0.1,0.3-0.1,0.6-0.1,0.9c-0.2,0-0.6,0-0.6,0c-0.2,0-0.7,0.1-0.7,0.1c-0.1-0.1-0.3-0.1-0.5-0.1
				c-0.6-0.1-1.3,0-2.1-0.1c-0.2,0-0.6,0-0.6,0.1c-0.1,0-1.1-0.1-1.3-0.1c0-0.3-0.1-0.6-0.1-1h0.2c0.1,0,0.4,0.1,0.6,0.1
				C913.9,579.8,914.3,579.8,914.7,579.9z"/>
			<path class="st5" d="M886.7,562.7l0.1,0.2h-0.1c-0.1,0-0.1,0-0.1,0c-0.1,0-0.2,0-0.2,0c-0.2,0-0.7,0.2-0.8,0.3
				c-0.2,0.1-0.6,0.1-0.8,0.1c-0.5,0-1.2-0.2-1.6-0.3c-0.4-0.2-0.9-0.3-1.6-0.6c-0.1,0-1.2-0.3-1.5-0.4v-0.1l0,0
				c0,0-0.1-0.1-0.1-0.2c-0.1-0.1-0.9-1-1.2-1.3c-0.2-0.1-0.5-0.4-0.6-0.6c-0.2-0.2-0.6-0.7-1-1.2c-0.5-0.6-0.8-1.1-0.9-1.4
				c-0.1-0.2-0.1-0.5-0.1-0.6c0.1-0.1,0.2-0.4,0.3-0.5c0.2-0.1,0.5-0.1,0.9-0.1c0.2,0,0.6,0,0.8,0s0.4,0.2,0.7,0.3l0,0l0,0
				c0,0,0,0-0.1,0c0,0,0,0,0-0.1c0,0-0.1-0.2-0.1-0.3c0-0.2,0-0.4,0-0.5c0.1-0.1,0.3-0.5,0.5-0.6s0.6-0.2,0.8-0.2
				c0.3,0,1.2,0.1,1.5,0.2s0.8,0.5,1.1,0.7l0.2-0.1c0.1,0,0.1-0.1,0.3-0.1c0.2-0.1,0.4-0.2,0.6-0.3c0.5-0.2,0.9-0.5,1-0.5
				c0.1-0.1,0.5-0.1,0.8-0.1c0.3,0,0.6,0.1,0.8,0.1c0.1,0.1,0.3,0.3,0.3,0.4c0.1,0.1,0.1,0.5,0,0.6c0.1-0.1,0.3-0.2,0.5-0.3
				s0.7-0.2,0.9-0.2c0.2,0,0.5,0.1,0.6,0.2c0.1,0.1,0.2,0.3,0.3,0.5c0.1,0.2,0.1,0.6,0.1,0.8c0,0.2-0.1,0.6-0.2,0.8
				c-0.1,0.1-0.2,0.4-0.4,0.6c-0.1,0.1-0.1,0.1-0.2,0.2l0,0c-0.1,0.1-0.2,0.2-0.3,0.2c-0.1,0.1-0.2,0.2-0.3,0.4s-0.2,0.3-0.2,0.3
				c0,0,0,0,0,0.1c-0.1,0-0.2,0-0.2,0.1c-0.1,0.1-0.5,0.2-0.8,0.2c-0.3,0.1-0.6,0.2-0.8,0.4c-0.1,0.1-0.5,0.5-0.6,0.6
				c-0.2,0.2-0.4,0.6-0.5,0.8s0,0.6,0.1,0.8s0.3,0.3,0.4,0.4c0.1,0.1,0.4,0.1,0.5,0.1s0.7-0.1,1.1-0.1v0.1
				C886.7,562.6,886.7,562.7,886.7,562.7z"/>
			<path class="st3" d="M898.5,540c-0.2,0.1-0.5,0.4-0.6,0.5l0,0l0,0h-0.1c0-0.2,0-0.6-0.1-1.2c-0.1-0.2-0.2-0.6-0.2-0.9
				c-0.1-0.3-0.2-0.7-0.2-0.9c-0.1-0.4-0.1-1.2,0-1.6c0.1-0.5,0.2-1.1,0.3-1.3c0.1-0.1,0.2-0.3,0.5-0.6l0,0l0,0
				c0.2,0.2,0.9,0.5,1.2,0.7c0.2,0.1,1.6,1,1.7,1.1s0.9,0.5,1.4,0.7l0,0c0.3,0.5,0.6,0.9,0.9,1.4c0,0.1,0.1,0.1,0.1,0.1
				c0.3,0.5,0.8,1.4,1,1.9c0.2,0.5,0.6,1.4,0.8,1.9c0.2,0.5,0.3,1,0.5,1.6c0,0.1,0.1,0.2,0.1,0.3c0,0.1,0,0.1,0,0.1
				c0-0.1,0-0.1,0-0.1c-0.1-0.1-0.1-0.2-0.1-0.3c-0.2-0.5-0.6-1.2-1-1.6c-0.5-0.6-1-1.2-1.4-1.4c-0.2-0.1-0.8-0.3-1-0.5
				c-0.4-0.2-1.4-0.3-1.7-0.4c-0.3,0-0.6,0.1-1,0.2C899.1,539.7,898.8,539.8,898.5,540z"/>
			<path d="M913.4,625.3c0.2,0.1,2.1,0.6,2.2,0.6c0,0,0.1,0,0.2,0h0.1c0,0,0-0.1-0.1-0.2c0-0.2-0.1-0.8-0.1-1c0.1,0,0.2,0.1,0.4,0.3
				c0.5,0.5,1,0.8,1.5,1c0.5,0.2,1.4,0.8,1.8,0.9c0.3,0.1,1.2,0.3,1.7,0.4c0.5,0.1,1.6,0.3,1.8,0.3c0.4,0.1,1.7,0,1.9,0
				c1,0,3-0.1,4.2-0.3c0.5-0.1,1.6-0.2,2-0.3c0.2-0.1,1-0.3,1.4-0.5c0.2-0.1,0.3-0.1,0.3-0.1c0.1,0,0.2,0,0.3,0.1
				c0.1,0.1,0.1,0.4,0.1,0.6c0,0.1-0.1,0.2-0.2,0.3c-0.1,0.1-0.5,0.2-0.7,0.3c-0.2,0.1-1.3,0.2-1.7,0.2c-0.5,0-0.9,0.1-2,0.3
				c-0.4,0.1-1.2,0.1-1.9,0.1c-0.8-0.1-1.2,0-2.1,0.1c-0.4,0-1.4,0.1-1.7,0.1c-0.7,0-1.4-0.1-1.9-0.2c-0.9-0.3-3.2-1.1-3.4-1.2
				c-0.3-0.2-0.6-0.5-0.7-0.7c-0.2-0.4-0.2-0.5-0.2-0.5l-0.1,0.9c-0.1,0-1.2-0.2-1.4-0.2c-1.7-0.5-2.2-0.6-2.3-0.7
				c-0.1-0.1-0.2-0.5-0.3-0.8c0-0.1,0-0.2,0-0.3c0.1,0,0.1,0,0.1,0c0,0,0.1,0,0.1,0.1C912.9,625,913.3,625.3,913.4,625.3z"/>
			<path class="st2" d="M894.8,582.7c0.5,0.2,2,1,3,1.4c0.5,0.2,1,0.3,2,0.5c0.5,0.1,1.2,0.2,2,0.3c0.5,0.1,1.6,0.2,2.2,0.2
				c1.1,0.1,3.1,0.1,3.9,0.1c0.5,0,1.6,0.1,2.1,0.2c0.6,0.1,1.6,0.3,1.9,0.3s0.6,0,0.8-0.1c0-0.1,0-0.1,0-0.1c0-0.2,0-0.3,0-0.5
				c0-0.2,0-1.2-0.1-2.3h0.2c0,0.1,0.1,0.1,0.1,0.1c0.1,0,0.8,0,0.9,0.1c0,0,0.1,0,0.1,0h0.1v0.3h0.1h0.1h0.1
				c0.2,0.1,0.3,0.1,0.5,0.2c0.1,0,1.5-0.1,1.9-0.1c0.3,0,0.5,0,0.5-0.1c0,0,0-0.1,0.1-0.2h0.1l0,0c0.1,0,0.2,0,0.3,0
				c0.1,0,0.3,0,0.3,0c0.1,0,0.1,0,0.2-0.1c0,0,0,0,0.1,0c-0.1,0.5-0.1,1-0.1,1.2c0.1,0.2,0.2,0.5,0.4,0.7c0.1,0.1,0.5,0.2,0.6,0.2
				c0.3,0.1,1.7,0.1,2.3,0.1c0.6,0,1.6-0.2,1.9-0.3c0.8-0.2,2.3-0.9,3-1.2c0.1-0.1,0.3-0.1,0.4-0.2c0,0,0.1-0.1,0.1-0.1h0.1
				c0,0.1,0,0.1,0,0.1c-0.1,0.1-0.3,1.3-0.4,1.9c-0.1,0.5-0.2,1.3-0.3,2c-0.1,0.8,0,3.4,0.1,3.9c0.1,0.6,0.2,1.1,0.4,1.9
				c0.1,0.5,0.4,1.5,0.6,2c0.2,0.4,0.4,1,0.7,1.6l-0.2,0.1c0,0.5,0,1.2-0.2,1.7c-0.1,0.6-0.3,1-0.6,1.7c-0.4,1-1,2.6-1.5,3.9
				c-0.8,2-1.9,5.2-2.4,6.2c-0.5,1.1-1.4,2.9-1.9,3.8c-0.1,0.2-0.3,0.7-0.3,0.8s0.1,0.4,0.2,0.6c0.1,0.2,0.4,0.6,0.5,0.8
				c0.1,0.1,0.1,0.2,0.1,0.3s-0.1,0.2-0.1,0.3c-0.1,0.1-0.3,0.3-0.6,0.5c-0.2,0.1-0.3,0.3-0.3,0.5c0,0.2,0.3,1.1,0.3,1.2
				c0,0.1,0,0.2-0.1,0.3l0,0c-0.1,0-0.1,0.1-0.1,0.1v-0.1c-0.2,0-0.3-0.1-0.5-0.1c0,0-2.1,0.1-3.2,0.3c-0.2,0-0.5,0.1-0.9,0.2
				c-0.8,0.3-1.4,0.6-1.9,0.9c-0.2,0.1-0.4,0.3-0.6,0.4c0,0.1-0.1,0.1-0.1,0.1c-0.2,0-0.4,0.1-0.6,0.1c-0.1,0-0.1,0-0.1,0
				c-0.3,0.1-0.6,0.1-0.7-0.1c-0.1-0.1-0.1-0.2-0.1-0.3c0.1-0.3,0.8-1.4,0.8-1.5s0.1-0.2,0.1-0.3c0-0.1-0.1-0.3-0.4-0.7
				c-0.2-0.2-0.3-0.6-0.3-0.8c0-0.2,0.2-1.9,0.2-2.1c0-0.1,0-2.9-0.1-4c0-2.1,0.1-6.5,0.1-8.8c0-1.2,0-3.3,0.1-4.7h-0.1
				c0,0.1,0,0.1-0.1,0.2c-0.1,0.5-0.3,1.9-0.3,2.1c-0.1,0.9-0.2,2.2-0.3,3.9c-0.1,0.9-0.6,6.2-0.9,8.4c-0.1,1.3-0.3,3.2-0.4,3.9
				c-0.1,0.5-0.6,1.6-0.6,1.7c0,0.1,0.7,0.8,0.8,1c0.1,0.2,0.1,0.6,0.1,0.8c0,0.1-0.1,0.2-0.2,0.3s-0.3,0.1-0.5,0.1v0.1l0,0h0.1v0.1
				c-0.1,0-0.6,0-0.9,0c-0.3,0-0.7,0.1-1,0.1c-0.3,0.1-0.9,0.3-1.5,0.5c-0.2,0.1-0.5,0.3-0.6,0.3l0,0l-0.1,0.1
				c-0.3-0.3-0.9-0.9-1.4-1.4c-0.5-0.4-0.8-0.6-1.2-0.8c-0.3-0.1-0.6-0.3-0.8-0.3c-0.1,0-0.2-0.1-0.3-0.1c-0.1-0.1-0.5-0.3-0.7-0.5
				c-0.2-0.1-0.6-0.4-0.7-0.5s-0.2-0.6-0.2-0.8c0.1-0.1,0.4-0.6,0.5-0.8c0.1-0.1,0.2-0.3,0.2-0.4c0-0.2-0.1-0.4-0.4-0.8
				c-0.3-0.3-0.5-0.6-0.6-0.8c-0.2-0.3-0.4-1-0.6-1.9c-0.2-0.8-0.4-1.4-0.6-1.9c-0.2-0.4-1.4-3.2-1.6-3.5c-0.9-1.8-1.1-2.3-1.2-2.8
				c0-0.1,0-0.1-0.1-0.2l-0.1-0.1c0.3-0.7,0.6-1.3,0.8-1.7c0.2-0.6,0.4-1.4,0.5-1.9c0.2-0.9,0.3-2.6,0.4-3.5c0-0.7,0-2.8-0.1-3.8
				c-0.1-1.1-0.4-3.2-0.5-4.2c-0.2-1-0.6-3.2-0.9-4.2c-0.1-0.5-0.5-1.3-0.6-1.9C895.1,583.5,895,583.1,894.8,582.7L894.8,582.7z"/>
			<path class="st6" d="M908.1,545.5c-0.6-0.2-1.9-1.4-1.9-1.6c0,0-0.1-0.1-0.1-0.1l0,0c-0.1-0.1-0.1-0.1-0.2-0.2
				c-0.1-0.1-0.2-0.2-0.2-0.3c0,0,0-0.1-0.1-0.1h-0.1c-0.1-0.5-0.3-1.2-0.5-1.6c-0.2-0.5-0.5-1.4-0.8-1.9c-0.3-0.5-0.8-1.4-1-1.9
				c0-0.1-0.1-0.1-0.1-0.1l0,0c0,0,1.2,0.9,1.3,0.9c0.2,0.1,0.9,0.3,1.5,0.6c0.4,0.2,1,0.3,1.6,0.5c0.8,0.2,1.4,0.3,1.7,0.6
				c0.1,0.1,0.3,0.3,0.5,0.6c0.1,0.1,0.3,1.2,0.5,1.7c0.1,0.2,0.1,0.5,0.1,0.8l-1.1,0.1c0-0.1-0.1-0.1-0.1-0.1
				c-0.1-0.1-0.2-0.3-0.2-0.4c-0.3-0.5-0.8-1.2-0.9-1.3l0,0c-0.2,0.2-0.2,0.9-0.2,1.8C908,544.5,908,544.9,908.1,545.5
				C908.1,545.3,908.1,545.4,908.1,545.5l0.1-0.1L908.1,545.5L908.1,545.5z"/>
			<path class="st2" d="M925.8,530.7c0.1,0.1,0.1,0.4-0.1,0.6c-0.1,0.1-0.1,0.1-0.2,0.1c-0.1,0-0.2,0-0.3-0.1c0,0-0.1-0.1-0.2-0.2
				l-0.1,0.1l0,0c-0.1,0.1-0.3,0.2-0.3,0.3c-0.3,0.1-0.9,0.2-1,0.1c-0.1-0.1-0.2-0.3-0.3-0.5c0-0.2,0-0.6,0.1-0.8
				c0.1-0.2,0.3-0.5,0.5-0.5c0.3-0.1,0.6-0.1,0.7,0c-0.1-0.1-0.1-0.3-0.1-0.5c0-0.2,0.2-0.5,0.2-0.6c0.1-0.1,0.3-0.2,0.4-0.2
				c0.1,0,0.3,0,0.3,0.1c0.1,0,0.1,0.1,0.2,0.1l0,0c0,0-0.1-0.1-0.1-0.2c-0.1-0.3-0.1-0.6,0-0.8s0.2-0.4,0.3-0.5
				c0.1-0.1,0.3-0.1,0.5-0.1c0.2,0.1,0.4,0.3,0.5,0.6c0,0.1,0.1,0.2,0.1,0.2c0.1-0.1,0.3-0.4,0.5-0.5c0.1-0.1,0.4-0.2,0.5-0.2
				s0.3,0.1,0.4,0.2s0.2,0.3,0.2,0.5c0,0.1-0.1,0.5-0.1,0.5c0,0.1-0.1,0.1-0.3,0.2l0.1,0.1l0,0c0.1-0.1,0.2-0.1,0.3-0.1
				c0.1,0,0.4,0,0.5,0.1s0.3,0.3,0.3,0.5c0.1,0.1,0,0.3-0.1,0.4c-0.1,0.1-0.3,0.2-0.5,0.3c-0.4,0.1-0.7-0.1-0.8-0.1
				c0.1,0.1,0.2,0.4,0.3,0.5c0,0.1-0.1,0.3-0.2,0.5c-0.1,0.1-0.3,0.2-0.5,0.2c-0.2,0-0.5-0.2-0.6-0.3c-0.1-0.1-0.1-0.2-0.2-0.3
				c0-0.1-0.1-0.1-0.1-0.2l0,0c0,0.1,0,0.3-0.1,0.5c-0.1,0.2-0.2,0.3-0.2,0.4c-0.1,0.1-0.3,0.1-0.4,0
				C925.9,530.9,925.8,530.7,925.8,530.7z"/>
			<path class="st6" d="M934.3,560.7c-0.1,0.1-0.3,0.5-0.4,0.6c-0.1,0.2,0.1,1.4,0.1,1.4c0.1,0.1,0.5,0.2,0.7,0.3
				c0.1,0,0.2,0.1,0.4,0.1v0.1l0,0c0,0-0.1,0-0.1,0.1c-0.1,0-0.3,0.1-0.5,0.3c0,0.1-0.3,0.5-0.3,0.7c0,0.1-0.1,0.6-0.1,0.7
				c0.1,0.2,0.3,0.3,0.5,0.4c0.1,0.1,0.4,0.1,0.7,0.1v0.1c-0.1,0-0.1,0-0.1,0c-0.1,0-0.1,0-0.1,0.1c-0.1,0.1-0.2,0.2-0.3,0.3
				c-0.1,0.1-0.2,0.6-0.1,0.8c0.1,0.3,0.3,0.6,0.4,0.7c0.1,0.1,0.1,0.1,0.2,0.1l-0.1,0.3c-0.1,0.3-0.2,0.5-0.3,0.7
				c-0.1,0.2-0.3,0.5-0.5,0.8c-0.1,0.1-2.3,2.3-2.5,2.6l-0.1-0.1c0-0.1,0-0.1,0-0.2s-0.1-0.2-0.1-0.3c0-0.1-0.1-1.9-0.1-2.1
				c0-0.8-0.3-2.6-0.5-3.5c-0.2-1-0.5-3.6-0.7-4.2c-0.1-0.2-0.1-0.4-0.1-0.4l0,0l0.1-0.2c0.2,0.2,0.3,0.3,0.5,0.5
				c0.2,0.1,0.5,0.2,0.6,0.3c0.2,0.1,0.5,0.1,0.8,0.1c0.2,0,0.6,0,0.8-0.1c0,0,0.1,0,0.1-0.1l0,0l0,0c0.1-0.1,0.2-0.1,0.2-0.1
				c0.1-0.1,0.1-0.2,0.2-0.2c0.1-0.1,0.1-0.6,0.1-0.9c0-0.1,0-0.1,0-0.2l0,0c0.1,0.2,0.3,0.5,0.5,0.6c0.1,0,0.2,0.1,0.3,0.1l0,0l0,0
				C934.6,560.5,934.4,560.5,934.3,560.7z"/>
			<path class="st1" d="M915.7,535v-0.1c0.2,0,0.5,0,0.7,0v0.1c0,0.1,0,0.1,0,0.2c0,0.1-0.1,0.3-0.1,0.6l0,0
				c-0.1,0.1-0.2,0.3-0.2,0.3c-0.2,0.4-0.7,1-1.1,1.4c-0.4,0.4-1.2,1.2-1.4,1.4c-0.2,0.3-1.2,1-1.2,1c-0.1,0.2-0.3,1.6-0.6,2.4
				c-0.1,0.3-0.1,0.6-0.1,0.7c-0.3,2.4-0.3,3.7-0.3,3.7h-0.2c-0.1-0.5-0.3-1.7-0.4-2.3c0-0.2-0.1-0.7-0.1-1.3
				c-0.1-0.3-0.1-0.6-0.1-0.8c-0.1-0.5-0.4-1.5-0.5-1.7c-0.1-0.2-0.3-0.5-0.5-0.6c-0.3-0.2-0.9-0.4-1.7-0.6
				c-0.7-0.2-1.3-0.3-1.6-0.5c-0.6-0.3-1.3-0.5-1.5-0.6c-0.1-0.1-1.3-0.9-1.3-0.9l0,0c-0.3-0.6-0.5-1-0.9-1.4l0,0
				c0.1,0,0.1,0.1,0.1,0.1c0.3,0.1,0.9,0.3,1.6,0.5c0.5,0.1,1.6,0.3,2.1,0.4c0.6,0.1,1.7,0.1,2.1,0.1c0.5,0,1.6,0.1,2-0.1
				c0.2,0,1.6-0.3,1.8-0.4c0.3-0.1,1.1-0.4,1.6-0.6c0.3-0.2,1-0.6,1.2-0.8c0.1,0,0.1-0.1,0.2-0.2l0.1-0.1l0,0
				C915.5,535.1,915.7,535,915.7,535z"/>
			<path class="st5" d="M880,585.5L880,585.5L880,585.5L880,585.5z M876.9,599.2c0.6,0.1,1.4,0.3,1.7,0.3c0.5,0.1,1.7,0,2.1-0.1
				c0.5-0.1,1.3-0.3,1.8-0.6c0.3-0.2,0.9-0.6,1.1-0.9c0.2-0.3,0.4-0.9,0.5-1.3c0.1-0.3,0.1-1,0.1-1.3c-0.1-0.3-0.2-0.9-0.4-1.2
				s-0.5-0.6-0.7-0.7c-0.4-0.3-1.1-0.7-1.4-0.9c-0.5-0.2-1-0.3-1.5-0.3c-0.3-0.1-1.7-0.2-1.9-0.2c-0.2-0.1-0.6-0.2-0.6-0.2h0.1v-0.1
				l0,0c0.1,0.1,0.2,0.1,0.2,0.1c0.1,0,2.3,0.1,3.1,0c0.9-0.1,1.7-0.2,2.1-0.3c0.2-0.1,0.5-0.3,0.7-0.4s0.4-0.5,0.5-0.7
				c0.2-0.4,0.5-1.2,0.5-1.6c0-0.3-0.2-0.9-0.3-1.2s-0.5-0.8-0.7-0.9s-0.7-0.3-1-0.5c-0.3-0.1-0.6-0.2-1.1-0.3
				c-0.2-0.1-0.3-0.1-0.5-0.1c-0.6-0.1-1.6-0.3-2-0.3c-0.2,0-0.5-0.1-0.8-0.1v0.1c-0.1,0.5-0.2,1.4-0.3,1.9
				c-0.1,0.5-0.4,3.2-0.5,4.1c0,0.1,0,0.2,0,0.3c-0.1,1-0.4,2.9-0.5,3.9c-0.1,1.4-0.2,2.3-0.2,2.9c0,0.2,0,0.3,0,0.4
				C876.9,599.1,876.9,599.1,876.9,599.2z M886.5,572c0,0.1,0.1,0.5,0.2,0.6c0.1,0.1,0.4,0.7,0.5,0.8c0.2,0.2,0.8,0.6,1.3,1
				c0.6,0.5,1.2,0.9,1.4,1.1c0.5,0.4,1,1,1.2,1.2c0.2,0.2,2,2.8,2.4,3.5c0.3,0.6,0.8,1.6,1.2,2.5c0.2,0.4,0.3,0.8,0.5,1.1
				c0.2,0.5,0.5,1.4,0.6,1.9c0.3,1,0.7,3.2,0.9,4.2s0.4,3.1,0.5,4.2c0.1,1,0.1,3.1,0.1,3.8c-0.1,0.9-0.2,2.5-0.4,3.5
				c-0.1,0.5-0.3,1.2-0.5,1.9c-0.2,0.5-0.4,1.1-0.8,1.7c0,0.1,0,0.1-0.1,0.1c-0.4,0.8-0.7,1.3-1,1.6c-0.2,0.3-1,1.2-1.4,1.6
				c-0.5,0.5-0.9,0.9-1.4,1.3c-0.3,0.3-1.3,0.8-1.7,1c-0.2,0.1-1.4,0.6-2,0.9c-0.5,0.2-1.3,0.4-1.8,0.5c-0.5,0.1-1.6,0.2-2.1,0.3
				c-0.6,0.1-1.1,0.1-1.9,0.1c-1,0-3.1-0.2-4.3-0.3c-0.7-0.1-1.4-0.2-2-0.3c-0.4-0.1-2.8-0.7-3.7-1c-1.2-0.4-3.1-1-3.5-1.2
				c-0.5-0.2-2.7-1.4-3.1-1.7c-0.3-0.3-1-1-1.3-1.3c-0.3-0.4-0.8-1-1-1.5c-0.2-0.2-0.8-1.4-1-1.9c-0.3-0.6-1.3-3.1-1.4-3.7
				c-0.1-0.4-0.6-3.4-0.7-3.9c-0.1-0.8-0.1-1.4-0.1-2.1c0.1-0.7,0.3-2.9,0.5-3.9c0.2-0.9,0.8-2.8,1.1-3.7c0.2-0.4,0.5-1,0.8-1.6
				c0.1-0.3,0.7-1.2,1-1.6c0.2-0.3,0.8-1.1,1.1-1.4c0.2-0.2,0.9-1,1.3-1.4c0.5-0.5,1.2-1,1.4-1.2c0.5-0.3,0.9-0.7,1.6-1
				c0.8-0.5,2.5-1.4,3.5-2c0.9-0.5,2.3-1.3,3.4-1.9c0.6-0.2,3.6-1.8,3.7-1.9c0.3-0.2,0.7-0.6,0.8-0.7h0.1h0.1v0.1
				c0.1,0.1,0.3,0.3,0.5,0.5c0.2,0.1,0.5,0.2,0.8,0.3c0.2,0.1,2,0.4,2.1,0.4s1.2-0.2,1.5-0.3c0.2-0.1,0.5-0.3,0.6-0.6
				c0,0,0-0.1,0.1-0.1h0.1C886.6,571.9,886.5,572,886.5,572z"/>
			<path class="st7" d="M905.6,622.3L905.6,622.3c0.1,0,0.5-0.3,0.6-0.3c0.7-0.3,1.2-0.5,1.5-0.5c0.3-0.1,0.7-0.1,1-0.1
				c0.3,0,0.9,0,0.9,0v-0.1h0.1l-0.1,0.1c0.1,0,0.5,0.5,0.8,1.1c0.3,0.6,0.6,1.4,0.8,1.9c0.3,0.9,0.5,1.7,0.5,2.3c0,0,0,0.1,0,0.1
				v0.1c-0.1,0.1-0.2,0.1-0.2,0.1c-0.1,0-0.6,0.3-1,0.5c-0.3,0.1-0.6,0.3-0.6,0.3l0,0v-0.1l-0.1,0.1c-0.1-0.2-0.1-0.6-0.1-0.8
				c-0.1-0.3-0.1-0.6-0.2-0.8c-0.1,0.1-0.5,0.9-0.5,0.9c-0.1,0.2-0.2,0.4-0.3,0.5l-0.1,0.1c-0.1,0-0.1,0.1-0.2,0.1
				c-0.1,0.1-0.3,0.2-0.4,0.2c-0.5,0.2-1.4,0.6-2.7,1c-0.5,0.1-1.4,0.3-1.9,0.3c-0.6,0.1-3.5,0.2-3.9,0.2c-0.2,0-1.3-0.1-1.7-0.1
				c-0.8-0.1-2.7-0.3-3.9-0.3c-0.6,0-1.9-0.2-2-0.2c-0.1,0-0.2,0-0.3-0.1v-0.2c0-0.1-0.1-0.1-0.1-0.1s0.2-1.6,0.2-1.8
				c0.1-0.6,0.3-1.3,0.5-1.8c0.2-0.5,0.6-1.2,0.9-1.6c0.2-0.3,0.9-1,1.3-1.4c0.3-0.3,1.1-0.9,1.5-1c0.3-0.1,1.3-0.4,2-0.5
				c0.5-0.1,1.4-0.2,2-0.3c0.5-0.1,1.2,0,1.6,0.1c0.1,0,0.2,0.1,0.3,0.1c0.2,0.1,0.5,0.2,0.8,0.3c0.3,0.2,0.6,0.3,1.2,0.8
				c0.6,0.5,1.1,1,1.4,1.4L905.6,622.3z"/>
			<path class="st5" d="M941.6,589.2c-0.1-0.6-0.2-1.2-0.2-1.5c-0.1-0.4-0.5-1.7-0.5-1.9c0-0.1-0.2-1-0.2-1.4l-0.1-0.1l0,0v-0.1h0.1
				c0.5-0.1,1.2-0.2,1.9-0.2c0.3,0,0.8-0.1,1.3-0.1c0.2,0,0.4,0,0.6,0c0.5,0,1.4,0.1,1.7,0.1c0.3,0.1,1,0.4,1.2,0.6
				c0.1,0.1,0.2,0.3,0.3,0.5c0.1,0.2,0.1,0.5,0.1,0.7s-0.1,0.6-0.1,0.8c-0.1,0.2-0.3,0.6-0.5,0.7c-0.3,0.3-1.2,0.8-1.7,0.9
				c-0.4,0.1-1.3,0.3-1.7,0.5c-0.2,0.1-0.9,0.2-1.4,0.3c-0.3,0.1-0.6,0.1-0.6,0.1C941.6,589.2,941.6,589.2,941.6,589.2z"/>
			<path class="st6" d="M886.8,572.6c-0.1-0.2-0.2-0.5-0.2-0.6c0,0,0-0.1,0.1-0.1h-0.1c0.1-0.2,0.2-0.5,0.2-0.5
				c0-0.1-0.2-0.5-0.3-0.6c0.2-0.2,0.3-0.3,0.4-0.5c0.1-0.1,0.1-0.5,0.1-0.6c0-0.1-0.1-0.3-0.1-0.4c-0.1-0.1-0.2-0.2-0.3-0.3
				c-0.1,0-0.1-0.1-0.1-0.1c0.1-0.1,0.2-0.1,0.3-0.2c0.1-0.1,0.2-0.3,0.2-0.5c0-0.2-0.1-1.3-0.4-1.9c-0.1-0.2-0.3-0.4-0.4-0.5
				c-0.2-0.1-0.2-0.1-0.2-0.1l0,0.1c0.1-0.1,0.2-0.1,0.2-0.2c0.2-0.1,0.4-0.5,0.5-0.7c0.1-0.2,0.2-0.8,0.3-1c0.1-0.3,0-0.8,0-0.9
				l-0.1-0.2v-0.1v-0.1c0.2,0,0.4-0.1,0.5-0.1c0.1-0.1,0.5-0.3,0.7-0.4l0,0c0.2-0.2,0.5-0.3,0.6-0.5c0.1-0.1,0.1-0.2,0.2-0.2
				c0-0.1,0-0.1,0.1-0.2l0.9,0.1c-0.1,0.4-0.2,0.8-0.3,1c-0.4,1.6-0.6,2.8-0.9,4.3c-0.2,1.4-0.4,3.3-0.4,3.7c0,0.2,0.1,1.6,0.2,2.2
				c0.1,0.6,0.2,1.4,0.3,2c-0.6-0.5-1.2-0.9-1.3-1C887.2,573.3,886.8,572.8,886.8,572.6z"/>
			<path class="st1" d="M907.2,525.8L907.2,525.8L907.2,525.8z"/>
			<path class="st6" d="M914.5,543.6c0.1-0.2,0.2-0.5,0.3-0.8c0-0.1,0.1-0.2,0.1-0.2c0-0.1,0-0.1,0.1-0.1h0.1c0,0.3,0,0.6,0.1,0.8
				c0,0.2,0.8,3,1,3.9c0.2,0.7,0.5,1.4,0.6,1.9c0.1,0.2,0.2,0.5,0.3,0.7H917c0,0.1,0,0.2,0,0.2c0.2,0.3,0.5,1.2,0.6,1.6
				c0.1,0.3,0.3,1.4,0.5,2c0.2,0.7,0.5,3,0.7,3.9c0.2,0.9,0.5,2.9,0.5,4c0.1,1.1,0.2,3.2,0.2,4.3c0.1,1.1,0.1,3.3,0,4.2
				c-0.1,1-0.3,3.2-0.3,4.3c-0.1,1.1-0.4,3.5-0.7,5.5l0,0c-0.1,0-0.1,0-0.1,0c-0.1,0-0.3,0.1-0.6,0.1c-0.4,0-1.2,0.1-1.6,0.1v-0.1
				c0-0.1,0.2-0.7,0.2-1.2c0.1-0.5,0.1-1.4,0.2-2c0.1-1.4,0.2-3,0.2-4.3c0-1.3-0.1-2.9-0.2-3.9c-0.1-0.5-0.3-1.7-0.3-2
				c-0.3-1.2-0.6-2.5-1.2-4.1c-0.4-1-1.2-3.1-1.3-3.7c-0.3-1-0.8-2.8-1-3.7c-0.2-0.6-0.6-3.2-0.7-4.2c0-0.2-0.2-1.4-0.3-1.9
				c-0.1-0.4-0.3-1.3-0.3-1.5c0-0.1,0-0.1-0.1-0.2h-0.1c0-0.1,0-0.1,0-0.1s0-0.1,0-0.1h0.2c0,0,0-1.3,0.3-3.7c0-0.1,0.1-0.3,0.1-0.7
				l0.8,0.1c0,0,0-0.1,0.1-0.1c0.2-0.5,0.5-1.4,0.6-1.4c0.1,0,0.2,0.3,0.3,0.6s0.2,1.2,0.2,1.7c0.1,0.7,0.1,1.3,0.1,1.3
				C913.7,544.6,914.5,543.7,914.5,543.6z"/>
			<path class="st2" d="M917,580.8c0.1,0.2,0.1,1.8-0.1,2.4c0,0.1,0,0.2-0.1,0.2c-0.1,0.1-0.2,0.1-0.5,0.1c-0.4,0-1.8,0.1-1.9,0.1
				s-0.3-0.1-0.5-0.2h-0.1c-0.1,0-0.1,0-0.1,0h-0.1V583l-0.1-2.3c0.1-0.1,0.3-0.1,0.6-0.1c0.9,0.1,1.5,0.1,2.1,0.1
				C916.7,580.6,916.9,580.7,917,580.8z"/>
			<path d="M912.5,581L912.5,581C912.6,581,912.6,581,912.5,581z M912.4,580.7c0-0.1,0-0.1,0-0.1c0.2,0,1.3,0.1,1.3,0.1l0.1,2.3
				h-0.1c-0.1,0-0.1,0-0.1,0c-0.2,0-0.9,0-0.9-0.1c0,0-0.1,0-0.1-0.1h-0.2c0-0.2,0-0.5,0-0.7C912.5,582,912.5,581.4,912.4,580.7z"/>
			<path class="st3" d="M920.1,539.3c-0.1-0.2-0.4-0.7-0.6-0.8c-0.1-0.1-0.3-0.2-0.4-0.2c-0.2-0.1-0.6,0-0.8,0.1
				c-0.2,0.1-0.5,0.2-0.7,0.4c-0.3,0.2-0.6,0.8-0.9,1.2c-0.2,0.3-0.4,0.9-0.5,1.3c-0.1,0.4-0.2,1.2-0.2,1.6c0,0.2,0,1.2,0,1.7
				c0,0.5,0.1,1.5,0.2,1.7c0.2,1,0.6,2.8,0.8,3.4l0,0l0,0c-0.1-0.2-0.2-0.5-0.3-0.7c-0.2-0.5-0.4-1.1-0.6-1.9c-0.3-0.9-1-3.7-1-3.9
				c-0.1-0.2-0.1-0.5-0.1-0.8s0-0.6,0.1-0.9c0.1-0.5,0.3-1.5,0.5-2c0.2-0.7,0.3-1.2,0.4-1.9c0.1-0.5,0.2-1.6,0.2-1.7
				c0-0.1,0-0.1,0-0.2c0-0.2,0.1-0.5,0.1-0.6c0-0.1,0-0.2,0-0.2v-0.1c0.6,0,1.4-0.1,2.3-0.1c0.1,0,0.4,0,0.9-0.1v0.1
				c0,0.1,0.1,0.1,0.1,0.1s0.2,0.3,0.3,0.5c0.2,0.3,0.5,1.2,0.6,1.7c0.1,0.2,0.1,0.8,0.2,1.2c0,0.1,0,0.2,0,0.3
				c0,0.3-0.2,1.2-0.3,1.3C920.3,539.7,920.2,539.3,920.1,539.3z"/>
			<path class="st5" d="M942.3,589c0.1,0,0.1,0,0.2-0.1c0.2,0,0.5,0,0.6,0c0.3-0.1,1.3-0.2,1.5-0.2c0.6-0.1,1.4-0.1,1.6-0.1
				c0.3,0.1,1,0.3,1.3,0.5c0.1,0.1,0.4,0.3,0.5,0.4s0.3,0.4,0.3,0.5c0.1,0.1,0.1,0.5,0.1,0.6c0,0.3-0.2,1-0.4,1.4
				c-0.1,0.2-0.3,0.5-0.5,0.7c-0.2,0.3-1,0.8-1.4,0.9c-0.3,0.1-1.3,0.4-1.9,0.6c-0.4,0.1-1.4,0.3-1.9,0.3v-0.1c0-0.1,0-0.1-0.1-0.1
				c0,0-0.5-3.3-0.9-5.5c0.1,0,0.1,0,0.1,0C941.7,589.2,942,589.1,942.3,589L942.3,589z"/>
			<path class="st1" d="M907.2,526C907.1,526,907.1,526,907.2,526C907.1,526,907.1,526,907.2,526z"/>
			<path class="st2" d="M930.2,520c0.1,0.1,0.2,0.2,0.3,0.2C930.4,520.3,930.4,520.1,930.2,520z M931.3,524.8
				c0.1,0.2,0.1,0.5,0.1,0.7c0,0.2-0.2,0.6-0.3,0.7c-0.1,0.1-0.2,0.1-0.3,0.1c-0.1,0-0.3-0.1-0.4-0.2c-0.1-0.1-0.3-0.2-0.3-0.3
				c-0.1-0.1-0.1-0.3-0.2-0.5c-0.1,0.1-0.2,0.1-0.3,0.1c-0.2,0.1-0.6,0-0.8-0.1c-0.1-0.1-0.3-0.4-0.3-0.6s0.1-0.6,0.2-0.8
				c0.1-0.1,0.3-0.2,0.4-0.2c-0.2,0-0.5-0.1-0.6-0.2c-0.1-0.1-0.1-0.2-0.2-0.3c-0.1-0.2,0.1-0.7,0.2-0.9s0.4-0.3,0.6-0.4
				c-0.1-0.2-0.2-0.4-0.2-0.5c-0.1-0.2-0.1-0.6,0.1-0.9c0.1-0.2,0.3-0.6,0.5-0.6c0.1-0.1,0.5-0.1,0.6,0c0-0.1-0.1-0.1-0.1-0.1
				c-0.1-0.1-0.1-0.3-0.1-0.5c0-0.2,0.2-0.6,0.3-0.8s0.5-0.3,0.7-0.3c0.1,0,0.2,0,0.3,0c0.1,0.1,0.2,0.1,0.2,0.2c0,0,0,0,0,0.1
				c0.1-0.1,0.1-0.1,0.1-0.1c0.1-0.1,0.4-0.4,0.5-0.5c0.2-0.1,0.5-0.1,0.6-0.1c0.2,0,0.3,0.1,0.4,0.2c0.1,0.1,0.1,0.3,0.1,0.4
				c0,0,0.4-0.2,0.6-0.2c0.2-0.1,0.6-0.1,0.8,0.1c0.1,0.1,0.2,0.2,0.2,0.3s0,0.3-0.1,0.5c-0.1,0.1-0.1,0.2-0.2,0.3
				c-0.1,0.1-0.2,0.2-0.3,0.3l0,0c0,0,0.1-0.1,0.2-0.1c0.1,0,0.3-0.1,0.4,0c0.1,0.1,0.3,0.2,0.3,0.4c0.1,0.1,0,0.3,0,0.5
				c-0.1,0.1-0.3,0.3-0.4,0.4c-0.1,0.1-0.4,0.2-0.5,0.2c0.1,0,0.4,0.1,0.5,0.2s0.2,0.3,0.2,0.5c0,0.2-0.1,0.5-0.3,0.6
				c-0.1,0.1-0.2,0.1-0.4,0.1c-0.1,0-0.2-0.1-0.3-0.1l0,0c0.1,0.1,0.2,0.3,0.3,0.4s0.1,0.6,0.1,0.8c0,0.2-0.1,0.6-0.1,0.8
				c-0.1,0.1-0.3,0.4-0.5,0.5c-0.1,0.1-0.4,0.1-0.5,0c-0.2-0.1-0.4-0.5-0.5-0.6c0.1,0.1,0.1,0.4,0.1,0.6c0,0.2-0.2,0.6-0.3,0.7
				c-0.1,0.1-0.5,0.2-0.6,0.2c-0.2-0.1-0.4-0.3-0.5-0.5C931.4,525.1,931.3,524.8,931.3,524.8z"/>
			<path class="st3" d="M920.9,538.2c0.2,0.2,0.6,0.5,0.9,0.6c0.2,0.1,1.4,0.8,1.5,0.8c0.3,0.1,1.3,0.4,1.7,0.4c0.1,0,0.7,0.1,1,0.1
				c0.2,0.1,0.7,0.3,0.9,0.5c0.2,0.2,0.4,0.5,0.5,0.7c0.1,0.1,0.1,0.2,0.1,0.3c0.1,0.3,0.2,0.8,0.2,1.3c0.1,0.6,0.2,3.1,0.3,4.2
				c0.1,1,0.3,3.1,0.4,3.9c0.1,0.3,0.1,0.6,0.2,1.1c0.2,0.9,0.6,2.1,0.8,2.8c0.2,0.5,0.6,2.5,0.6,2.5c0,0,0,0.1,0,0.1
				c-0.1,0.1-0.1,0.1-0.1,0.1c-0.1,0.1-0.2,0.5-0.2,0.6c0,0.2,0,0.7,0,0.9c0.1,0.2,0.2,0.6,0.3,0.8c0.1,0.1,0.2,0.3,0.4,0.5
				l-0.1,0.2l0,0c0,0,0.1,0.2,0.1,0.4c0.2,0.6,0.6,3.2,0.7,4.2c0.2,0.9,0.5,2.8,0.5,3.5c0,0.3,0.1,2,0.1,2.1s0.1,0.3,0.1,0.3
				s0,0.1,0,0.2l0.1,0.1c-0.3,0.4-0.8,1.2-1,1.7c-0.5,1.1-1.3,3-1.4,3.4c-0.1,0.2-0.8,1.4-1,1.9c-0.5,1-1.4,3-1.6,3.5
				c-0.1,0.3-0.2,1-0.2,1.4h-0.1c-0.1,0.1-0.1,0.1-0.1,0.1c-0.1,0.1-0.2,0.2-0.4,0.2c-0.8,0.3-2.2,0.9-3,1.2
				c-0.3,0.1-1.3,0.2-1.9,0.3c-0.6,0-2,0-2.3-0.1c-0.2,0-0.5-0.2-0.6-0.2c-0.2-0.2-0.3-0.5-0.4-0.7c0-0.2,0-0.6,0.1-1.2
				c0-0.1,0.1-0.3,0.1-0.4c0.1-0.5,0.2-1.2,0.3-2c0.1-0.3,0.1-0.6,0.1-0.9c0.3-2,0.6-4.4,0.7-5.5c0.1-1.2,0.3-3.3,0.3-4.3
				c0.1-0.9,0-3,0-4.2c-0.1-1.1-0.2-3.2-0.2-4.3c-0.1-1-0.3-3-0.5-4c-0.2-1-0.5-3.2-0.7-3.9c-0.1-0.5-0.4-1.7-0.5-2
				c-0.1-0.4-0.4-1.2-0.6-1.6c0,0,0-0.1,0-0.2h0.1l0,0l0,0c-0.2-0.5-0.7-2.3-0.8-3.4c-0.1-0.2-0.1-1.3-0.2-1.7c0-0.5,0-1.5,0-1.7
				c0.1-0.5,0.1-1.2,0.2-1.6c0.1-0.3,0.3-1,0.5-1.3c0.2-0.4,0.6-0.9,0.9-1.2c0.2-0.2,0.5-0.3,0.7-0.4c0.2-0.1,0.6-0.1,0.8-0.1
				c0.1,0,0.3,0.1,0.4,0.2c0.2,0.1,0.5,0.6,0.6,0.8c0,0.1,0.2,0.5,0.2,0.5c0.1-0.1,0.3-0.9,0.3-1.3c0-0.1,0-0.2,0-0.3L920.9,538.2z"
				/>
			<path class="st5" d="M877.7,591.8c0-0.1,0-0.3,0-0.3c0.1-0.9,0.4-3.5,0.5-4.1c0.1-0.5,0.2-1.4,0.3-1.9c0-0.1,0-0.1,0-0.1
				c0.3,0,0.6,0.1,0.8,0.1c0.5,0.1,1.5,0.3,2,0.3c0.2,0.1,0.3,0.1,0.5,0.1c0.5,0.1,0.8,0.2,1.1,0.3c0.4,0.1,0.8,0.3,1,0.5
				c0.2,0.2,0.6,0.6,0.7,0.9c0.1,0.2,0.3,0.9,0.3,1.2c0,0.3-0.2,1.2-0.5,1.6c-0.1,0.2-0.3,0.5-0.5,0.7c-0.2,0.1-0.5,0.3-0.7,0.4
				c-0.3,0.1-1.3,0.3-2.1,0.3c-0.9,0.1-3,0.1-3.1,0C877.9,591.9,877.8,591.9,877.7,591.8L877.7,591.8l0.1,0.1L877.7,591.8
				L877.7,591.8z"/>
			<path class="st1" d="M907.3,525.6c0,0.1,0,0.1,0,0.1C907.3,525.7,907.3,525.7,907.3,525.6z"/>
			<path class="st5" d="M951.5,577.9c0.1,0.1,0.2,0.2,0.3,0.3c0.3,0.5,0.6,0.8,1,1.4c0.3,0.5,1,1.5,1.1,1.7c0.3,0.6,0.6,1.1,0.9,1.7
				c0.2,0.5,0.6,1.4,0.8,1.8s0.5,1.3,0.5,1.6c0.2,1,0.5,2.8,0.5,3.6c0.1,0.6,0.2,2.8,0.2,4.2c0,0.6-0.1,1.3-0.1,1.8
				c-0.1,0.2-0.3,1.5-0.3,1.7c-0.1,0.2-0.3,1.2-0.3,1.3c0,0,0,0.1,0,0.1l-0.1,0.1c-0.1,0.5-0.3,0.9-0.5,1.6
				c-0.3,0.7-0.5,1.2-0.8,1.6c-0.2,0.2-0.8,1-1,1.4c-0.3,0.4-1.2,1.3-1.3,1.5c-0.3,0.3-1,0.8-1.4,1.1c-0.4,0.3-1.2,0.6-1.7,0.9
				c-0.3,0.1-3.4,1.2-3.8,1.2c-0.5,0.1-1.2,0.2-1.9,0.2c-0.8,0-1.4,0-2.1-0.1c-0.5-0.1-1.4-0.3-1.7-0.4c-0.3-0.1-1.4-0.6-1.9-0.8
				c-1-0.5-3.4-1.7-3.9-2c-0.5-0.3-1.2-0.8-1.6-1.2c-0.2-0.1-1-1.1-1.4-1.4c-0.4-0.5-1.2-1.3-1.4-1.7c-0.3-0.5-0.6-1-0.9-1.7
				c-0.2-0.3-0.6-1.3-1-2.3c-0.3-0.6-0.5-1.3-0.7-1.6c-0.2-0.5-0.5-1.5-0.6-2c-0.2-0.8-0.3-1.3-0.4-1.9c-0.1-0.5-0.1-3.1-0.1-3.9
				c0.1-0.7,0.2-1.6,0.3-2c0.1-0.6,0.3-1.8,0.4-1.9c0,0,0-0.1,0-0.1c0.1-0.3,0.2-1.1,0.2-1.4c0.1-0.5,1.2-2.5,1.6-3.5
				c0.2-0.5,0.9-1.6,1-1.9c0.2-0.5,1-2.3,1.4-3.4c0.3-0.6,0.7-1.3,1-1.7c0.3-0.3,2.5-2.5,2.5-2.6c0.2-0.2,0.4-0.5,0.5-0.8
				c0.1-0.2,0.2-0.5,0.3-0.7l0.1-0.3c0.2,0.1,0.5,0.2,0.6,0.2c0.3,0.1,2.4,0.1,3.4,0.1c0.2,0,0.6-0.1,0.8-0.2
				c0.1-0.1,0.4-0.3,0.6-0.5l0.2,0.1c0,0.1,0,0.1,0,0.2c0,0,0.1,0.2,0.5,0.8c0.3,0.5,0.8,1,1.2,1.5c0.3,0.4,1.2,1.1,1.4,1.4
				c0.2,0.2,2.8,2.3,3.2,2.7c0.7,0.6,2.8,2.5,3,2.8C950.6,576.8,951.1,577.3,951.5,577.9L951.5,577.9z M946.3,588.8
				c-0.2-0.1-1-0.1-1.6,0.1c-0.2,0-1.2,0.1-1.5,0.2c-0.1,0-0.5,0-0.6,0c-0.1,0-0.2,0-0.2,0.1V589c0.5-0.1,1.3-0.2,1.4-0.3
				c0.5-0.1,1.3-0.3,1.7-0.5c0.5-0.2,1.4-0.7,1.7-0.9c0.2-0.2,0.5-0.5,0.5-0.7c0.1-0.2,0.2-0.6,0.1-0.8c0-0.2-0.1-0.6-0.1-0.7
				c-0.1-0.2-0.2-0.4-0.3-0.5c-0.2-0.2-0.9-0.5-1.2-0.6c-0.3-0.1-1.2-0.1-1.7-0.1c-0.2,0-0.4,0-0.6,0c-0.5,0-1,0.1-1.3,0.1
				c-0.6,0-1.4,0.1-1.9,0.2h-0.1v0.1l0,0l0.1,0.1c0.1,0.3,0.2,1.3,0.2,1.4c0.1,0.2,0.5,1.6,0.5,1.9c0.1,0.3,0.1,0.9,0.2,1.5
				c0.3,2.2,0.9,5.5,0.9,5.5s0,0.1,0.1,0.1v0.1c0.5-0.1,1.5-0.3,1.9-0.3c0.5-0.1,1.6-0.4,1.9-0.6c0.3-0.2,1.1-0.6,1.4-0.9
				c0.1-0.2,0.3-0.5,0.5-0.7c0.2-0.3,0.4-1.1,0.4-1.4c0-0.2-0.1-0.5-0.1-0.6c-0.1-0.2-0.2-0.4-0.3-0.5s-0.4-0.3-0.5-0.4
				C947.3,589.1,946.7,588.9,946.3,588.8z"/>
			<path class="st7" d="M915.7,626c-0.1,0-2-0.5-2.2-0.6c-0.1-0.1-0.6-0.3-0.8-0.5l-0.1-0.1l0.1-0.1c-0.1-0.3-0.2-0.5-0.2-0.8
				c-0.2-1,0-1.7,0-1.7c0,0,0.1-0.1,0.1-0.2v-0.1c0.1,0,0.1,0,0.1,0c0.2-0.1,0.5-0.1,0.6-0.1c0,0,0-0.1,0.1-0.1
				c0.2-0.2,0.3-0.3,0.6-0.4c0.5-0.2,1.1-0.6,1.9-0.9c0.3-0.1,0.7-0.2,0.9-0.2c1.1-0.1,3.2-0.3,3.2-0.3c0.1,0,0.3,0,0.5,0.1v0.1
				c0.1,0,0.1-0.1,0.1-0.1c0.4-0.2,0.9-0.3,1.1-0.4c0.5-0.2,1.5-0.3,1.8-0.4c0.2,0,1.6-0.1,1.9-0.1c0.6,0.1,1.2,0.1,1.8,0.2
				c0.5,0.1,1.5,0.3,1.9,0.5c0.4,0.2,1.2,0.6,1.4,0.9s0.9,1,1,1.3c0.2,0.4,0.4,1.2,0.5,1.6c0.3,1.7,0.3,2.4,0.3,2.7
				c0,0.1,0,0.2,0,0.3c-0.4,0.1-1.2,0.4-1.4,0.5c-0.3,0.1-1.4,0.2-2,0.3c-1.3,0.1-3.1,0.2-4.2,0.3c-0.2,0-1.5,0-1.9,0
				c-0.2,0-1.3-0.2-1.8-0.3c-0.5-0.1-1.3-0.3-1.7-0.4s-1.3-0.6-1.8-0.9c-0.5-0.3-0.9-0.6-1.5-1c-0.2-0.2-0.3-0.3-0.4-0.3
				c0,0.2,0.1,0.8,0.1,1c0,0.1,0.1,0.2,0.1,0.2h-0.1C915.8,625.9,915.7,625.9,915.7,626z"/>
			<path class="st1" d="M941.7,563c0.1,0.1,0.1,0.2,0.2,0.2c0.1,0.2,0.1,0.5,0.1,0.6c0,0.1-0.3,0.3-0.4,0.5
				c-0.1,0.1-0.1,0.1-0.1,0.2c-0.1,0.1-0.2,0.2-0.3,0.3c-0.2,0.1-1.7,0.5-1.9,0.5c-0.3,0.1-0.6,0.1-0.9,0.1c-0.5,0-1.6,0-2.1,0
				c-0.2,0-0.6,0-0.9-0.1c-0.3-0.1-0.5-0.1-0.7-0.1c-0.2-0.1-0.4-0.2-0.5-0.4c-0.1-0.1,0.1-0.6,0.1-0.7c0.1-0.2,0.3-0.6,0.3-0.7
				c0.1-0.2,0.3-0.2,0.5-0.3c0.1,0,0.1-0.1,0.1-0.1l0,0v-0.1c0.3,0.1,0.8,0.1,1.1,0.1c0.3,0,0.7,0,1.3-0.1c0.5-0.1,1.6-0.1,1.7-0.1
				c0.3,0,1.1-0.2,1.6-0.2h0.6c0.1,0.1,0.1,0.1,0.1,0.1C941.6,562.9,941.7,562.9,941.7,563z"/>
			<path class="st2" d="M940.3,510.9c-0.1,0.2-0.3,0.4-0.5,0.5c-0.1,0.1-0.3,0.1-0.5,0.1c0.2,0.1,0.4,0.2,0.5,0.3
				c0.2,0.1,0.3,0.4,0.4,0.6c0.1,0.2,0.1,0.6,0.1,0.8s-0.1,0.3-0.1,0.4c-0.1,0.2-0.5,0.3-0.6,0.3s-0.5-0.1-0.7-0.2
				c-0.2-0.1-0.4-0.3-0.5-0.5c0.1,0.2,0.2,0.5,0.2,0.6c0.1,0.2,0,0.6,0,0.8c-0.1,0.3-0.3,0.5-0.4,0.6c-0.1,0.1-0.2,0.1-0.3,0.2
				c-0.1,0.1-0.3,0.1-0.4,0.1s-0.4-0.2-0.5-0.4c-0.1-0.1-0.2-0.3-0.3-0.5c0-0.1,0.1-0.2,0.1-0.2c0-0.2-0.1-0.4-0.2-0.5
				c0,0.1,0,0.3,0.1,0.6c0,0.1,0,0.1,0.1,0.1c-0.1,0.2-0.1,0.5-0.2,0.6c-0.1,0.2-0.3,0.3-0.4,0.5s-0.4,0.2-0.5,0.2s-0.4-0.1-0.5-0.2
				s-0.3-0.5-0.4-0.8c-0.1-0.2-0.1-0.5-0.1-0.6h-0.1l-0.1-0.1l0,0c0,0.1,0.1,0.3,0.1,0.3c0.1,0.2,0,0.6-0.1,0.9
				c-0.1,0.2-0.4,0.5-0.5,0.6c-0.1,0.1-0.3,0.2-0.3,0.2c-0.2,0.1-0.5-0.1-0.6-0.2c-0.1-0.2-0.3-0.7-0.4-1.2c0-0.1,0-0.2,0-0.2
				c0,0.1,0,0.1,0,0.2c0,0.1,0,0.1,0,0.1c0,0.2-0.1,0.3-0.2,0.5c-0.1,0.1-0.3,0.3-0.5,0.3c-0.2,0.1-0.5,0.1-0.6,0
				c-0.1-0.1-0.2-0.2-0.3-0.2c-0.1-0.1-0.2-0.5-0.2-0.6c0,0.1,0,0.1-0.1,0.1c-0.1,0.2-0.4,0.5-0.6,0.6c-0.1,0.1-0.3,0.2-0.5,0.2
				c-0.2,0.1-0.6,0.1-0.9,0.1c-0.2-0.1-0.6-0.3-0.7-0.5c-0.1-0.2-0.3-0.5-0.3-0.8c-0.1-0.2,0-0.4,0-0.5c0,0.1-0.3,0.2-0.6,0.2
				c-0.1,0-0.3,0-0.5,0s-0.3-0.2-0.4-0.2c-0.1-0.2-0.3-0.6-0.3-0.8c0-0.1,0-0.4,0-0.5c0.1-0.1,0.2-0.3,0.2-0.4
				c0.1-0.1,0.2-0.2,0.3-0.2c0,0,0,0,0.1,0l-0.1-0.1c-0.1-0.1-0.2-0.1-0.4-0.1c-0.2,0-0.6,0-0.7-0.1c-0.2-0.1-0.4-0.2-0.5-0.3
				s-0.3-0.3-0.3-0.5c-0.1-0.1-0.2-0.5-0.2-0.7c0-0.2,0.1-0.6,0.1-0.7c0.1-0.2,0.3-0.4,0.5-0.5c0.2-0.1,0.4-0.2,0.6-0.2
				c0.1,0.1,0.1,0.1,0.2,0.1c0.1,0.1,0.1,0.1,0.2,0c0-0.1-0.1-0.1-0.2-0.1c-0.1,0-0.1,0-0.2,0c-0.1-0.1-0.3-0.3-0.3-0.3
				c-0.1-0.2-0.1-0.5-0.1-0.7s0.2-0.6,0.3-0.8c0.1-0.2,0.5-0.4,0.6-0.5c0.1,0,0.2-0.1,0.3-0.1c0.2,0,0.3,0.2,0.5,0.2l0,0v-0.1
				c0-0.1,0.1-0.5,0.1-0.7c0.1-0.2,0.2-0.5,0.3-0.6c0.1-0.1,0.3-0.3,0.5-0.4c0.1-0.1,0.5-0.2,0.6-0.2c0.1,0,0.3,0,0.4,0.1
				c0.2,0.1,0.5,0.4,0.5,0.6c0,0.1,0.1,0.2,0.1,0.2c0.1-0.2,0.2-0.5,0.3-0.6c0.1-0.2,0.3-0.3,0.5-0.4c0.1-0.1,0.4-0.1,0.5-0.1
				s0.2,0.3,0.3,0.5c0,0.1,0.1,0.2,0.1,0.3c0,0.1,0,0.1,0,0.2h0.1c0-0.1,0.1-0.3,0.3-0.5c0.2-0.3,0.7-0.7,1-0.8
				c0.2-0.1,0.5-0.1,0.6-0.1c0.1,0.1,0.3,0.1,0.3,0.2c0.1,0.1,0.2,0.2,0.2,0.3c0.1,0.2,0.1,0.5,0,0.5c0.1-0.2,0.3-0.4,0.5-0.5
				c0.2-0.1,0.5-0.2,0.6-0.2s0.5,0.1,0.6,0.1s0.3,0.3,0.3,0.5c0.1,0.3-0.1,0.9-0.2,1c0,0,0,0.1-0.1,0.1c0,0,0.1,0,0.1-0.1
				c0.2-0.1,1.2-0.8,1.3-0.9c0.1-0.1,0.5-0.2,0.6-0.2c0.2,0,0.6,0.2,0.8,0.4c0.2,0.2,0.4,0.5,0.5,0.6c0,0.1-0.2,0.5-0.2,0.6
				c-0.1,0.1-0.1,0.1-0.1,0.1c-0.1,0-0.1,0-0.1,0.1c0,0,0.1,0,0.1-0.1c0.1-0.1,0.3-0.1,0.4-0.1c0.2,0.1,0.6,0.3,0.7,0.5
				c0.1,0.2,0.2,0.6,0.2,0.8c-0.1,0.2-0.2,0.5-0.3,0.6c-0.1,0.1-0.2,0.2-0.2,0.2l0.1,0.1v0.1c0.1,0,0.5,0,0.7,0
				c0.1,0.1,0.3,0.3,0.3,0.4C940.3,510.5,940.3,510.8,940.3,510.9z"/>
			<path class="st5" d="M933.8,551.3l0.1-0.1c0.1,0.1,0.3,0.1,0.5,0c0.3-0.1,1.4-0.8,1.7-0.9c0.2-0.1,1.1-0.5,1.4-0.7
				c0.2-0.1,0.3-0.2,0.5-0.2c0.2-0.1,0.7,0.1,0.9,0.1c0.3,0,0.5,0.1,0.6,0.2c0.1,0.1,0.4,0.4,0.5,0.6c0.1,0.2,0.1,0.5,0.1,0.6
				c0,0.1,0,0.1-0.1,0.2h0.1l0,0l0,0c0.2-0.1,1.5-0.8,1.7-0.8c0.3-0.1,1.4-0.5,1.6-0.5c0.1,0,0.3,0,0.5,0.2c0.1,0.1,0.4,0.3,0.5,0.5
				s0.1,0.4,0,0.6c-0.1,0.2-0.2,0.5-0.3,0.6c-0.2,0.3-0.6,0.6-1.2,1.1c-0.4,0.3-1.4,1.2-1.6,1.3c-0.1,0.1-0.4,0.4-0.6,0.5
				c-0.2,0.1-0.3,0.3-0.5,0.4c-0.2,0.3-0.5,1-0.6,1.5c0,0.1-0.1,0.2,0,0.3c0,0,0,0,0,0.1v0.3c-0.7-0.1-1.7-0.1-2-0.1
				c-0.4,0.1-1.6,0.1-1.6,0.1c-0.6,0.1-1,0.1-1.3,0.2V557l0,0c0-0.1-0.1-0.3-0.2-0.5c-0.2-0.3-0.6-0.9-1-1.2
				c-0.4-0.3-1.3-1.1-1.4-1.2c-0.4-0.3-1.2-0.9-1.5-1.2c-0.1-0.1-0.4-0.5-0.5-0.6c-0.1-0.1-0.2-0.3-0.2-0.5
				c-0.1-0.1-0.1-0.2-0.1-0.2c0-0.1,0.1-0.4,0.2-0.5c0.1-0.1,0.5-0.2,0.7-0.3c0.3-0.1,0.9-0.1,1.3,0c0.1,0,0.6,0.2,0.7,0.2l0,0
				C933.1,551.1,933.6,551.2,933.8,551.3C933.7,551.3,933.8,551.3,933.8,551.3z"/>
			<path class="st1" d="M942,560.3c0.1,0.1,0.3,0.9,0.2,1.3c-0.1,0.2-0.2,0.5-0.3,0.6c-0.1,0.1-0.5,0.3-0.6,0.4c0,0-0.2,0.1-0.4,0.1
				c-0.5,0.1-1.2,0.2-1.6,0.2c-0.1,0-1.2,0-1.7,0.1c-0.6,0.1-1,0.1-1.3,0.1s-0.8-0.1-1.1-0.1c-0.2,0-0.3-0.1-0.4-0.1
				c-0.2-0.1-0.6-0.2-0.7-0.3c-0.1-0.1-0.2-1.3-0.1-1.4c0.1-0.2,0.3-0.5,0.4-0.6c0.1-0.1,0.3-0.2,0.3-0.2l0,0l0,0c0.1,0,0.2,0,0.3,0
				c0.3,0,1.4,0.1,1.8,0.1c0.3,0,1.6-0.2,1.7-0.2c0.3-0.1,1.2-0.1,1.7-0.1c0.3-0.1,0.9-0.2,1.3-0.3h0.1c0.1,0.1,0.1,0.1,0.2,0.1
				C941.9,560.1,942,560.2,942,560.3z"/>
			<path class="st1" d="M942,558.7c0.1,0.1,0,0.5-0.1,0.7c-0.1,0.2-0.2,0.5-0.2,0.5c-0.1,0-0.1,0.1-0.2,0.1
				c-0.3,0.1-0.9,0.3-1.3,0.3c-0.6,0.1-1.4,0.1-1.7,0.1c-0.2,0-1.4,0.2-1.7,0.2c-0.3,0-1.5-0.1-1.8-0.1c-0.1,0-0.2,0-0.3,0
				c-0.1,0-0.3-0.1-0.3-0.1c-0.1-0.1-0.4-0.5-0.5-0.6l0,0c-0.1-0.3-0.1-0.6-0.2-0.8c-0.1-0.1-0.1-0.2-0.2-0.3l0.1-0.1
				c0-0.1,0-0.2,0.1-0.2c0.1-0.2,0.6-1,0.8-1.2c0.1-0.1,0.3-0.1,0.5-0.1c0.3-0.1,0.8-0.1,1.3-0.2c0,0,1.2-0.1,1.6-0.1
				c0.3,0,1.3,0.1,2,0.1c0.4,0,0.6,0.1,0.7,0.1c0.2,0.1,0.5,0.2,0.6,0.3C941.2,557.3,941.9,558.6,942,558.7z"/>
			<path class="st1" d="M941.5,565.1c0,0.3-0.1,0.7-0.2,1s-0.3,0.7-0.5,0.8c0,0-0.1,0.1-0.1,0.1c-0.2,0.1-0.5,0.4-0.6,0.5
				c-0.2,0.1-0.5,0.2-0.8,0.2c-1,0-3.1-0.1-3.4-0.1c-0.1-0.1-0.4-0.1-0.6-0.2c-0.1-0.1-0.1-0.1-0.2-0.1c-0.1-0.1-0.3-0.4-0.4-0.7
				c-0.1-0.2,0.1-0.6,0.1-0.8c0.1-0.1,0.2-0.2,0.3-0.3c0.1,0,0.1-0.1,0.1-0.1h0.1v-0.1c0.3,0.1,0.6,0.1,0.9,0.1c0.5,0,1.6,0,2.1,0
				c0.3,0,0.6,0,0.9-0.1c0.2-0.1,1.7-0.5,1.9-0.5c0.1-0.1,0.2-0.2,0.3-0.3l0.1,0.1C941.5,564.8,941.5,565,941.5,565.1z"/>
			<path class="st6" d="M934.9,557v0.1c-0.2,0.1-0.4,0.1-0.5,0.1c-0.2,0.1-0.7,0.9-0.8,1.2c0,0.1-0.1,0.1-0.1,0.2l-0.1,0.1
				c-0.1-0.2-0.2-0.3-0.3-0.5c-0.2-0.2-0.6-0.8-0.9-0.9c-0.1-0.1-0.5-0.2-0.6-0.2c-0.3-0.1-1.2,0.1-1.4,0.2
				c-0.1,0.1-0.2,0.1-0.2,0.2c0-0.1,0-0.1,0-0.1s-0.4-2-0.6-2.5c-0.2-0.6-0.5-1.8-0.8-2.8l1.4-0.2c0.1,0.1,0.1,0.3,0.2,0.5
				c0,0.1,0.3,0.5,0.5,0.6c0.2,0.3,1,0.9,1.5,1.2c0.2,0.2,1,0.9,1.4,1.2c0.4,0.3,0.8,0.9,1,1.2C934.8,556.7,934.8,556.9,934.9,557
				L934.9,557z"/>
			<path class="st1" d="M930,557.5c0.1-0.1,0.2-0.2,0.2-0.2c0.2-0.1,1.1-0.2,1.4-0.2c0.2,0,0.5,0.1,0.6,0.2c0.2,0.1,0.7,0.6,0.9,0.9
				c0.1,0.1,0.2,0.3,0.3,0.5c0.1,0.1,0.1,0.2,0.2,0.3c0.1,0.2,0.2,0.5,0.2,0.8c0,0.1,0,0.1,0,0.2c0,0.3-0.1,0.8-0.1,0.9
				c-0.1,0.1-0.1,0.2-0.2,0.2c-0.1,0-0.2,0.1-0.2,0.1l0,0l0,0c-0.1,0-0.1,0.1-0.1,0.1c-0.1,0-0.5,0-0.8,0.1c-0.3,0-0.6,0-0.8-0.1
				c-0.2-0.1-0.5-0.2-0.6-0.3c-0.1-0.1-0.3-0.3-0.5-0.5c-0.2-0.2-0.3-0.4-0.4-0.5c-0.1-0.2-0.2-0.6-0.3-0.8c-0.1-0.2-0.1-0.8,0-0.9
				c0-0.2,0.1-0.5,0.2-0.6C929.9,557.6,930,557.6,930,557.5z"/>
			<path class="st6" d="M932.9,551L932.9,551c-0.1,0.1-0.6-0.1-0.7-0.1c-0.3-0.1-0.9-0.1-1.3,0c-0.2,0.1-0.6,0.2-0.7,0.3
				s-0.2,0.3-0.2,0.5c0,0.1,0,0.1,0.1,0.2l-1.4,0.2c-0.1-0.4-0.2-0.8-0.2-1.1c-0.2-0.8-0.3-2.8-0.4-3.9c-0.1-1.2-0.2-3.7-0.3-4.2
				c-0.1-0.5-0.2-0.9-0.2-1.3c0.1,0.1,0.4,0.3,0.6,0.3c0.3,0.1,1.4,1,1.5,1.2c0.2,0.1,0.9,1,1.2,1.4c0.2,0.3,0.6,1,0.8,1.4
				c0.3,0.8,1.2,4.5,1.3,4.6C932.8,550.8,932.8,550.9,932.9,551C932.8,550.9,932.9,551,932.9,551z"/>
			<path class="st7" d="M897.7,524.7L897.7,524.7c0,0-0.1-0.1-0.1-0.1c-0.1-0.1-0.3-0.2-0.8-0.3c-0.4-0.1-0.7-0.1-1.2-0.1
				c-0.3,0-0.9,0.2-1.2,0.3c-0.2,0.1-0.6,0.4-0.8,0.6h-0.1c-0.1-0.1-0.1-0.1-0.1-0.2c-0.1-0.1-0.3-0.6-0.4-0.9
				c-0.1-0.3-0.2-1.4-0.2-1.7c0-0.8,0-1.5,0.1-1.9s0.5-1.3,0.8-1.6c0.2-0.3,1-0.8,1.3-1c0.2-0.1,0.6-0.1,0.7-0.1l0,0
				c0-0.1,0-0.1,0-0.1c0-0.2,0.1-0.5,0.2-0.7c0.1-0.2,0.3-0.5,0.6-0.7c0.3-0.3,1.6-1.3,2.3-1.7c0.3-0.2,1.4-0.6,1.8-0.7
				c0.8-0.2,3.1-0.9,3.9-1.2c0.3-0.1,3-0.6,3.7-0.6c0.9-0.1,1.4-0.1,1.9-0.1c1.7,0.1,3.7,0.1,3.8,0.2c0.3,0.1,1.7,0.3,2.3,0.5
				s1.3,0.3,1.7,0.6c0.3,0.2,1.3,0.9,1.4,1s0.3,0.5,0.4,0.8c0.1,0.2,0,0.7-0.1,0.9c-0.1,0.2-0.9,0.9-1.2,1.1
				c-0.2,0.1-0.8,0.3-1.3,0.4c-0.2,0.1-0.4,0.1-0.6,0.1c-0.3,0-0.7,0-1.3-0.1c-0.5-0.1-3.3-0.6-3.9-0.7c-1.2-0.1-2.9-0.3-3.8-0.3
				c-0.6,0-1.5,0-2,0.1c-0.4,0.1-1.1,0.3-1.8,0.6c-0.5,0.2-1.3,0.5-1.5,0.6c-0.3,0.2-1.2,0.8-1.3,0.9c-0.1,0.1-0.2,0.4-0.2,0.5h-0.1
				v0.1c0.1,0.2,0.3,0.8,0.6,1.3c0.1,0.3,0.2,0.6,0.2,0.7c-0.1,0.1-0.2,0.3-0.5,0.5c-0.2,0.2-0.6,0.5-0.8,0.6c-0.8,0.6-1.2,1-1.2,1
				c0,0.1,0.2,2,0.1,2.1c0,0.1-0.3,0.1-0.6,0.1c-0.5,0-0.7,0-0.8-0.1c-0.1-0.1-0.1-0.2-0.1-0.3C897.7,524.8,897.7,524.7,897.7,524.7
				z"/>
			<path class="st7" d="M914.1,523.3c-0.1,0-0.2,0.1-0.3,0.1c-0.2,0-0.5-0.2-0.5-0.4c-0.1-0.1-0.1-0.5,0-0.7
				c0.1-0.1,0.2-0.3,0.3-0.4c0.1-0.1,0.3-0.2,0.5-0.2c0.1,0,0.8-0.1,0.8-0.1c0.3-0.1,0.8-0.2,1-0.3c0.2-0.1,0.5-0.4,0.6-0.6
				c0.1-0.2,0.3-0.5,0.5-0.7c0.2-0.2,0.6-0.4,0.8-0.5s0.5,0,0.6,0.1c0.1,0.1,0.1,0.5,0.1,0.7c-0.1,0.2-0.5,0.6-0.5,0.8
				c-0.1,0.1-0.2,0.6-0.2,0.7c-0.1,0.1-0.2,0.2-0.3,0.3c-0.1,0.1-0.2,0.1-0.2,0.2c-0.3,0.2-2.4,1-2.6,1
				C914.6,523.2,914.2,523.3,914.1,523.3L914.1,523.3z"/>
			<path d="M917.1,583.1L917.1,583.1h-0.1c0.1-0.6,0.2-2.2,0.1-2.4c0,0,0.5-0.2,0.7-0.1c0,0,0.4,0,0.6,0c-0.1,0.8-0.2,1.5-0.3,2
				c0,0.1-0.1,0.3-0.1,0.4c0,0,0,0-0.1,0c-0.1,0-0.2,0.1-0.2,0.1c-0.1,0-0.2,0-0.3,0S917.1,583.1,917.1,583.1z"/>
			<path class="st6" d="M911.1,547.1L911.1,547.1c0.1,0.1,0.1,0.1,0.1,0.2c0.1,0.2,0.3,1.1,0.3,1.5c0.1,0.5,0.3,1.6,0.3,1.9
				c0.1,1,0.5,3.6,0.7,4.2c0.2,0.9,0.7,2.7,1,3.7c0.2,0.6,1,2.7,1.3,3.7c0.6,1.6,0.9,2.8,1.2,4.1c0.1,0.4,0.3,1.6,0.3,2
				c0.1,1,0.2,2.7,0.2,3.9c0,1.4-0.1,2.9-0.2,4.3c-0.1,0.6-0.1,1.6-0.2,2c-0.1,0.4-0.2,1.1-0.2,1.2v0.1c-0.2,0-0.3,0-0.3,0
				c-0.1,0-0.8,0-1-0.1c-0.3-0.1-0.9-0.1-1.6-0.1c-0.2,0-0.6-0.1-0.6-0.1h-0.2c-0.1-0.6-0.1-1.3-0.2-1.7c-0.1-0.7-0.5-3-0.8-3.7
				c-0.6-2.1-1.9-6.8-2.3-8.2c-0.3-1-1-3.1-1.4-4.2c-0.1-0.5-0.4-1.4-0.5-1.9c-0.2-1-0.6-3.1-0.7-3.9s-0.3-3-0.3-4.2
				c-0.1-1.2-0.1-3.5-0.1-4.7c-0.1-1.3-0.2-2.5-0.3-3.4l0,0c0-0.1,0-0.1,0-0.1c0-0.1-0.1-0.2-0.1-0.3h0.1c0,0,0,0.1,0.1,0.1
				c0.1,0.1,0.2,0.2,0.2,0.3c0.1,0.1,0.1,0.1,0.2,0.2l0,0c0.1,0.1,0.1,0.1,0.1,0.1c0.1,0.1,1.3,1.4,1.9,1.6h0.1v-0.1l-0.1,0.1
				c0-0.1-0.1-0.1-0.1-0.2c-0.1-0.5-0.2-1-0.2-1.8c0-0.9,0.1-1.6,0.2-1.8l0,0c0.1,0.1,0.6,0.8,0.9,1.3c0.1,0.1,0.2,0.3,0.2,0.4
				c0,0.1,0.1,0.1,0.1,0.1l1.1-0.1c0.1,0.5,0.1,1.1,0.1,1.3c0.1,0.5,0.3,1.8,0.4,2.3c0,0.1,0,0.1,0,0.1
				C911.1,547,911.1,547.1,911.1,547.1z"/>
			<path class="st6" d="M916.2,535.8L916.2,535.8c0,0.1,0,0.1,0,0.2c0,0.2-0.2,1.2-0.2,1.7c-0.1,0.6-0.2,1.2-0.4,1.9
				c-0.1,0.5-0.4,1.6-0.5,2c-0.1,0.2-0.1,0.5-0.1,0.9H915c0,0,0,0.1-0.1,0.1c0,0.1-0.1,0.2-0.1,0.2c-0.1,0.3-0.2,0.5-0.3,0.8
				c-0.1,0.1-0.9,1-0.9,1s0-0.6-0.1-1.3c-0.1-0.5-0.2-1.5-0.2-1.7c-0.1-0.2-0.2-0.5-0.3-0.6c-0.1,0.1-0.3,0.9-0.6,1.4
				c0,0.1-0.1,0.1-0.1,0.1l-0.8-0.1c0.2-0.9,0.5-2.3,0.6-2.4c0,0,0.9-0.8,1.2-1s1-1,1.4-1.4c0.5-0.5,0.9-1,1.1-1.4
				C916.1,536.1,916.1,536,916.2,535.8z"/>
			<path d="M912.4,626.8c0.1,0.1-0.1,0.6-0.2,0.7c-0.2,0.1-0.9,0.4-1.6,0.8c-0.2,0.1-0.6,0.2-0.8,0.2c-0.1,0-0.1-0.1-0.1-0.2
				c-0.1-0.4-0.1-0.7-0.1-0.7s-0.3,0.3-0.4,0.4c-0.2,0.2-0.5,0.4-0.8,0.6c-0.3,0.2-0.7,0.3-0.9,0.5c-0.3,0.1-1.7,0.5-1.9,0.6
				c-0.5,0.1-1.4,0.3-2,0.3c-0.5,0.1-1.3,0.1-1.9,0.2c-1.1,0.1-3.1,0.1-4.2,0.1c-0.9,0-2.8-0.2-3.8-0.2c-0.6,0-1.6,0-1.8-0.1
				c-0.1,0-0.2-0.2-0.2-0.2c-0.1-0.2-0.3-0.9-0.2-1c0.1-0.1,0.2-0.2,0.2-0.2c0.1,0,0.1,0,0.1,0s0.2,0.1,0.2,0.1l0,0
				c0.1,0,0.1,0,0.1,0c0.1,0,0.3,0.1,0.3,0.1c0.1,0,1.4,0.2,2,0.2c1.1,0,3,0.3,3.9,0.3c0.4,0.1,1.5,0.1,1.7,0.1
				c0.4,0,3.3-0.1,3.9-0.2c0.5-0.1,1.4-0.2,1.9-0.3c1.3-0.3,2.3-0.8,2.7-1c0.1-0.1,0.3-0.2,0.4-0.2c0.1,0,0.1-0.1,0.2-0.1l0.1-0.1
				c0.2-0.1,0.3-0.3,0.3-0.5c0,0,0.4-0.8,0.5-0.9c0.1,0.2,0.2,0.6,0.2,0.8c0,0.2,0.1,0.6,0.1,0.8l0.1-0.1v0.1l0,0
				c0,0,0.2-0.1,0.6-0.3c0.4-0.2,0.9-0.4,1-0.5c0.1,0,0.1-0.1,0.2-0.1v-0.1c0-0.1,0-0.1,0-0.1h0.2
				C912.4,626.7,912.4,626.7,912.4,626.8C912.3,626.7,912.4,626.7,912.4,626.8z"/>
			<path class="st7" d="M911.3,522.5c0,0.1,0,0.4-0.1,0.5c-0.1,0.1-0.1,0.1-0.2,0.2c0,0-0.1,0.1-0.1,0.1h-0.1c0,0-0.1,0.1-0.2,0.1
				c-0.1,0-0.8,0-0.9,0c-0.2,0-0.6-0.1-0.9-0.3c-0.1-0.1-0.7-0.5-0.8-0.6c-0.2-0.1-0.6-0.3-0.9-0.4c-0.2-0.1-1.4-0.2-1.6-0.2
				c-0.3,0-1.4,0.1-1.6,0.1c-0.2,0-0.5-0.1-0.6-0.2s-0.2-0.3-0.2-0.4s0.1-0.4,0.1-0.5c0.1-0.1,0.4-0.3,0.6-0.4
				c0.2-0.1,1.3-0.2,1.4-0.1c0.4,0.1,0.9,0.2,1.4,0.3c0.8,0.3,2.2,1,2.4,1.1c0.5,0.1,1.5,0.1,1.7,0.2
				C911,521.9,911.2,522.2,911.3,522.5z"/>
			<path class="st1" d="M897.1,527l-0.1,1.6c-0.1,0-0.1,0.1-0.2,0.1c-0.1,0-0.1,0-0.1,0.1c-0.2,0.1-0.5,0.2-0.6,0.2
				c-0.3,0.1-1.3-0.1-1.6-0.1c-0.1-0.1-0.4-0.2-0.5-0.3c-0.1-0.1-0.3-0.3-0.4-0.5c-0.1-0.2-0.2-0.5-0.3-0.7c-0.1-0.3-0.1-1.2,0-1.5
				v-0.1l1.4,0.1c0.1-0.1,0.2-0.1,0.3-0.2c0.2-0.1,0.4-0.2,0.5-0.2c0.2,0.1,0.8,0.5,1,0.7C896.8,526.5,897,526.9,897.1,527
				L897.1,527z"/>
			<path class="st6" d="M883.8,555c0.1-0.2,0.2-1.2,0.3-1.6c0.1-0.5,0.3-1.4,0.3-2c0.2-0.8,0.8-3,1-3.8c0.2-0.8,0.5-1.6,0.7-2
				c0.2-0.3,0.6-0.9,0.9-1.2c0.3-0.3,0.5-0.5,0.7-0.6c0.2-0.1,0.6-0.4,0.8-0.5c0.1-0.1,0.7-0.2,0.9-0.3c0.2-0.1,0.5-0.3,0.8-0.4
				c0.1,0,0.1-0.1,0.2-0.1h0.2c0,0.5,0,1,0,1.4c0,1,0.1,4.2,0.1,6.4c0,1-0.1,3.2-0.1,4.3c-0.1,1-0.2,2.9-0.4,3.9
				c-0.1,0.7-0.4,1.7-0.6,2.7l-0.9-0.1c0-0.2,0.1-0.5,0-0.7c-0.1-0.3-0.2-0.7-0.3-0.9c-0.1-0.1-0.3-0.2-0.4-0.3
				c-0.2-0.1-0.4-0.1-0.6-0.1c0,0,0,0,0-0.1s0.1-0.2,0.2-0.3c0.1-0.2,0.2-0.3,0.3-0.4c0,0,0.1-0.1,0.3-0.2l0,0
				c0.1-0.1,0.2-0.1,0.2-0.2c0.2-0.2,0.3-0.4,0.4-0.6c0.1-0.1,0.2-0.5,0.2-0.8c0-0.2,0-0.6-0.1-0.8c-0.1-0.2-0.2-0.5-0.3-0.5
				c-0.1-0.1-0.4-0.2-0.6-0.2c-0.2,0-0.6,0.1-0.9,0.2c-0.2,0.1-0.4,0.2-0.5,0.3c0.1-0.2,0.1-0.5,0-0.6c-0.1-0.1-0.2-0.3-0.3-0.4
				c-0.2-0.1-0.5-0.1-0.8-0.1c-0.3,0-0.7,0.1-0.8,0.1c-0.1,0.1-0.5,0.3-1,0.5L883.8,555L883.8,555z"/>
			<path class="st1" d="M887.9,562c-0.2,0.1-0.6,0.3-0.7,0.4c-0.1,0.1-0.3,0.1-0.5,0.1c-0.5,0.1-1,0.1-1.1,0.1
				c-0.1,0-0.4-0.1-0.5-0.1c-0.1-0.1-0.3-0.2-0.4-0.4c-0.1-0.2-0.1-0.5-0.1-0.8c0.1-0.2,0.3-0.6,0.5-0.8c0.1-0.2,0.5-0.5,0.6-0.6
				c0.2-0.1,0.5-0.3,0.8-0.4s0.6-0.2,0.8-0.2c0.1,0,0.1-0.1,0.2-0.1c0.2,0,0.5,0,0.6,0.1c0.1,0.1,0.3,0.2,0.4,0.3s0.2,0.5,0.3,0.9
				c0,0.2,0,0.5,0,0.7c0,0.1,0,0.1-0.1,0.2c-0.1,0.1-0.1,0.2-0.2,0.2C888.4,561.6,888.1,561.8,887.9,562L887.9,562z"/>
			<path class="st1" d="M886.4,570.8c-0.1,0.1-0.1,0.1-0.2,0.2c-0.2,0.1-0.5,0.3-0.8,0.4c-0.3,0.1-0.9,0.1-1.7,0.2
				c-0.6,0-1-0.1-1.7-0.2c-0.5-0.1-0.8-0.2-1-0.3c-0.1-0.1-0.2-0.1-0.3-0.1c-0.2-0.1-0.6-0.3-0.8-0.5c-0.1-0.1-0.4-0.7-0.4-0.7
				c-0.1-0.2-0.1-0.5-0.1-0.8c0-0.2,0.2-0.5,0.3-0.7c0.1,0.1,0.1,0.1,0.1,0.1c0.2,0.1,0.8,0.3,0.9,0.4c0.4,0.2,1.3,0.4,1.7,0.4
				c0.2,0,1.6,0.1,1.9,0.1c0.4,0,1.2-0.1,1.6-0.1c0.1,0,0.3-0.1,0.4-0.2l0,0c0.1,0.1,0.1,0.1,0.1,0.1c0.1,0.1,0.3,0.3,0.3,0.3
				c0.1,0.1,0.1,0.3,0.1,0.4c0,0.2,0,0.5-0.1,0.6C886.8,570.4,886.6,570.6,886.4,570.8z"/>
			<path class="st1" d="M886.3,568.9c-0.1,0.1-0.3,0.1-0.4,0.2c-0.3,0.1-1.2,0.1-1.6,0.1c-0.3,0-1.7-0.1-1.9-0.1
				c-0.4-0.1-1.3-0.3-1.7-0.4c-0.2-0.1-0.8-0.3-0.9-0.4c0,0-0.1-0.1-0.1-0.1c-0.1-0.1-0.2-0.2-0.3-0.3c-0.1-0.1-0.3-0.5-0.4-0.6
				c-0.1-0.2-0.2-0.5-0.1-0.8c0-0.3,0.2-0.8,0.3-0.8c0.1-0.1,0.1-0.1,0.2-0.2c0.1-0.1,0.4-0.1,0.5-0.1l0,0l0.1,0.1
				c0.2,0.2,0.5,0.3,0.7,0.5c0.2,0.1,0.6,0.2,0.8,0.2c0.3,0,1.3-0.1,1.9,0c0.8,0,1.3,0,1.6-0.1c0.2-0.1,0.6-0.2,0.9-0.4l0.1,0.1
				c0,0,0,0.1,0.2,0.1c0.1,0,0.3,0.2,0.4,0.5c0.3,0.6,0.4,1.7,0.4,1.9c0,0.1-0.1,0.3-0.2,0.5C886.6,568.7,886.5,568.8,886.3,568.9
				L886.3,568.9z"/>
			<path class="st1" d="M879.8,565.3c-0.2-0.2-0.4-0.5-0.5-0.6s-0.2-0.7-0.3-0.9c-0.1-0.2-0.1-0.5-0.1-0.8c0-0.2,0.1-0.5,0.2-0.6
				c0.1-0.1,0.2-0.3,0.3-0.4c0.1-0.1,0.4-0.2,0.6-0.2h0.1c0.3,0.1,1.4,0.3,1.5,0.4c0.7,0.2,1.2,0.4,1.6,0.6c0.5,0.2,1.2,0.3,1.6,0.3
				c0.2,0,0.6-0.1,0.8-0.1c0.1,0,0.6-0.3,0.8-0.3c0.1,0,0.1,0,0.2,0c0.1,0,0.1,0,0.1,0h0.1c0.1,0.1,0.1,0.6,0,0.9
				c-0.1,0.2-0.2,0.9-0.3,1c-0.1,0.3-0.3,0.6-0.5,0.7c-0.1,0.1-0.1,0.1-0.2,0.2c-0.3,0.2-0.6,0.3-0.9,0.4c-0.3,0.1-0.8,0.1-1.6,0.1
				c-0.6,0-1.6,0.1-1.9,0c-0.2,0-0.6-0.1-0.8-0.2C880.3,565.7,880,565.5,879.8,565.3C879.9,565.4,879.9,565.4,879.8,565.3z"/>
			<path class="st1" d="M886.8,571.4c0,0.1-0.1,0.3-0.2,0.5c0,0,0,0.1-0.1,0.1c-0.1,0.2-0.4,0.5-0.6,0.6c-0.3,0.1-1.3,0.3-1.5,0.3
				c-0.1,0-2-0.3-2.1-0.4c-0.2-0.1-0.5-0.2-0.8-0.3c-0.2-0.1-0.4-0.3-0.5-0.5v-0.1c-0.1-0.1-0.1-0.3-0.1-0.3c0-0.1,0.1-0.1,0.1-0.2
				c0,0,0,0,0.1,0c0.2,0.1,0.5,0.2,1,0.3c0.6,0.2,1.1,0.2,1.7,0.2c0.8,0,1.3,0,1.7-0.2c0.2-0.1,0.6-0.3,0.8-0.4
				c0.1-0.1,0.2-0.1,0.2-0.2C886.5,570.9,886.8,571.3,886.8,571.4z"/>
			<path class="st5" d="M884.2,595.3c0.1,0.3,0,1-0.1,1.3c-0.1,0.3-0.3,1-0.5,1.3c-0.2,0.3-0.8,0.8-1.1,0.9
				c-0.5,0.2-1.3,0.5-1.8,0.6c-0.5,0.1-1.6,0.1-2.1,0.1c-0.3,0-1.1-0.2-1.7-0.3c0-0.1,0-0.1,0-0.1c0-0.1,0-0.3,0-0.4
				c0.1-0.6,0.1-1.5,0.2-2.9c0.1-1,0.3-3,0.5-3.9h0.1c0,0.1,0.4,0.2,0.6,0.2c0.1,0,1.4,0.2,1.9,0.2c0.5,0,1,0.2,1.5,0.3
				c0.3,0.1,1.1,0.6,1.4,0.9c0.2,0.1,0.5,0.5,0.7,0.7C884,594.4,884.2,595,884.2,595.3z"/>
		</g>
		<g>
			<path class="st8" d="M907.2,524.3c0.1,0.2,0.1,0.6,0.1,0.8c0,0.6-0.1,0.9-0.1,1c0,0.1-0.1,0.1-0.1,0.2c0,0-0.1,0.1-0.1,0.1"/>
			<path class="st8" d="M906.7,524.1c0.1-0.1,0.1-0.1,0.1-0.2l0.1-0.1c0.1,0,0.1,0,0.1,0c0.1,0,0.1,0.1,0.2,0.2v0.1"/>
			<path class="st8" d="M906.5,524.8c0-0.1,0-0.2,0-0.2c0-0.1,0.1-0.2,0.2-0.3"/>
			<path class="st8" d="M907.1,526.1c-0.1,0.1-0.1,0.2-0.1,0.2l0,0c-0.1,0.1-0.2,0.1-0.2,0c-0.1-0.1-0.2-0.2-0.2-0.3
				c0,0,0-0.1-0.1-0.1c-0.1-0.1-0.1-0.3-0.1-0.6"/>
			<path class="st8" d="M907.2,526C907.1,526,907.1,526,907.2,526"/>
			<path class="st8" d="M907.2,525.9L907.2,525.9"/>
			<path class="st8" d="M907.2,525.8L907.2,525.8"/>
			<path class="st8" d="M907.3,525.6c0,0.1,0,0.1,0,0.1"/>
			<path class="st8" d="M906.8,523.8L906.8,523.8c0-0.1,0.1-0.1,0.2,0c0.1,0.1,0.2,0.2,0.2,0.4v0.1l0,0c0.1,0.2,0.1,1,0,1.4l0,0
				c0,0.1,0,0.1,0,0.1l0,0v0.1l0,0v0.1l0,0v0.1l0,0l0,0l0,0c0,0,0,0,0,0.1l0,0c-0.1,0.1-0.1,0.2-0.1,0.2s-0.1,0-0.1,0.1
				c-0.1,0.1-0.2,0.1-0.2,0.1c-0.1,0-0.2-0.2-0.2-0.3c-0.1-0.1-0.1-0.5-0.1-0.8c0-0.1,0-0.1,0-0.2c0-0.1,0-0.2,0-0.3l0,0
				c0-0.2,0-0.4,0-0.5c0.1-0.1,0.2-0.3,0.2-0.3c0.1,0,0.1,0,0.1,0c0.1,0,0.1,0.1,0.2,0.1c0.1,0.1,0.1,0.5,0.2,0.7
				c0,0.2,0.1,0.7,0.1,0.9"/>
			<path class="st8" d="M915.6,523.8c0.1,0.1,0.1,0.2,0.1,0.3c0.1,0.2,0.1,0.5,0.1,0.8c0,0.2-0.1,0.5-0.1,0.6"/>
			<path class="st8" d="M915.2,523.8C915.2,523.8,915.2,523.7,915.2,523.8c0.1-0.2,0.2-0.2,0.3-0.2c0,0,0.1,0.1,0.1,0.1"/>
			<path class="st8" d="M915.1,525.1c0-0.1,0-0.1,0-0.1c0-0.2-0.1-0.4,0-0.5c0-0.2,0.1-0.5,0.2-0.7"/>
			<path class="st8" d="M915.1,525.3c0-0.1,0-0.1,0-0.2"/>
			<path class="st8" d="M915.2,525.7c-0.1-0.1-0.1-0.2-0.1-0.3v-0.1"/>
			<path class="st8" d="M915,525.1c-0.1-0.2-0.1-0.4-0.1-0.5c0-0.2,0.1-0.6,0.2-0.8l0,0c0.1-0.1,0.2-0.1,0.2-0.1
				c0.1,0,0.1,0.1,0.1,0.1l0,0c0,0,0.1,0,0.1,0.1c0.1,0.1,0.1,0.3,0.2,0.5c0.1,0.3-0.1,1.3-0.2,1.5c-0.1,0.1-0.2,0.2-0.2,0.2
				c-0.1,0-0.1-0.1-0.2-0.2"/>
			<path class="st8" d="M915.1,525.3c0-0.1,0-0.1-0.1-0.2l0,0v-0.1"/>
			<path class="st8" d="M915.8,524.8v0.1c0,0.1-0.1,0.3-0.1,0.5c0,0.1,0,0.1-0.1,0.1c0,0.1-0.1,0.1-0.1,0.1
				c-0.1,0.1-0.1,0.1-0.2,0.1s-0.2-0.1-0.2-0.3"/>
			<path class="st8" d="M906.7,524.1L906.7,524.1c0.1,0,0.1-0.1,0.2-0.1c0.1,0,0.1,0.1,0.2,0.1c0.1,0.2,0.1,1.2,0.1,1.4
				c0,0.2-0.1,0.3-0.1,0.4c-0.1,0.1-0.2,0.1-0.2,0.1c-0.1,0-0.1-0.1-0.2-0.1V526c-0.1-0.3-0.1-1-0.1-1.4c0-0.1,0.1-0.2,0.1-0.3
				C906.7,524.3,906.7,524.3,906.7,524.1"/>
			<line class="st8" x1="906.7" y1="524.1" x2="906.6" y2="524.1"/>
			<path class="st8" d="M915.4,523.8c0.1,0,0.1,0.1,0.2,0.2c0,0.1,0.1,0.2,0.1,0.3c0.1,0.3,0,0.8,0,1c0,0.1-0.1,0.1-0.1,0.2
				c-0.1,0.1-0.1,0.2-0.1,0.2c-0.1,0.1-0.1,0-0.2-0.1s-0.1-0.2-0.1-0.4l0,0c0-0.1-0.1-0.2-0.1-0.2c0,0,0,0,0-0.1c0-0.1,0-0.2,0-0.4
				v-0.1"/>
			<path class="st8" d="M915.4,523.8L915.4,523.8C915.3,523.8,915.3,523.8,915.4,523.8C915.3,523.8,915.4,523.8,915.4,523.8z"/>
			<path class="st8" d="M911.4,528.3c-0.1,0-0.1,0.1-0.1,0.1c-0.1,0.1-0.2,0.1-0.2,0.2c-0.1,0.1-0.2,0.7-0.3,0.9
				c-0.1,0.2,0,0.6,0.1,0.9c0.1,0.2,0.3,0.6,0.5,0.8c0.2,0.2,0.7,0.6,1,0.7c0.2,0.1,1,0.3,1.3,0.4c0.1,0,1.4,0.2,1.6,0.2
				c0.5,0.1,1.2,0.1,1.5,0c0.6-0.1,1.2-0.2,1.6-0.2c0.6-0.1,1-0.1,1.3-0.2s0.6-0.2,0.8-0.3c0.1-0.1,0.4-0.4,0.5-0.5
				c0.1-0.1,0.3-0.3,0.3-0.6c0.1-0.5,0.3-1.4,0.3-1.9c0-0.2-0.1-0.8-0.2-0.9c-0.1-0.2-0.5-0.6-0.6-0.8c-0.3-0.3-1-0.7-1.3-0.8
				c-0.2-0.1-0.4-0.1-0.7-0.1c-0.1,0-0.2,0-0.3,0c-0.2,0-1.2,0.1-1.9,0c-0.3,0-1-0.1-1-0.1c-0.2,0-0.8-0.1-0.9-0.2
				c-0.1,0-0.2-0.2-0.3-0.3l-0.1-0.1"/>
			<path class="st8" d="M910.9,523.3c0,0-0.1,0.1-0.2,0.1c-0.1,0-0.8,0-0.9,0s-0.6-0.1-0.9-0.3c-0.1-0.1-0.7-0.5-0.8-0.6
				c-0.2-0.1-0.6-0.3-0.9-0.4c-0.2-0.1-1.4-0.2-1.6-0.2c-0.3,0-1.4,0.1-1.6,0.1c-0.2,0-0.5-0.1-0.6-0.2c-0.1-0.1-0.2-0.3-0.2-0.4
				s0.1-0.4,0.1-0.5c0.1-0.1,0.4-0.3,0.6-0.4c0.2-0.1,1.3-0.2,1.4-0.1c0.4,0.1,0.9,0.2,1.4,0.3c0.8,0.3,2.2,1,2.4,1.1
				c0.5,0.1,1.5,0.1,1.7,0.2c0.2,0.1,0.4,0.4,0.5,0.6c0,0.1,0,0.4-0.1,0.5c-0.1,0.1-0.1,0.1-0.2,0.2
				C911,523.2,911,523.2,910.9,523.3"/>
			<path class="st8" d="M914.3,523.2C914.3,523.2,914.3,523.2,914.3,523.2c-0.1,0.1-0.1,0.1-0.2,0.1c-0.1,0-0.2,0.1-0.3,0.1
				c-0.2,0-0.5-0.2-0.5-0.4c-0.1-0.1-0.1-0.5,0-0.7c0.1-0.1,0.2-0.3,0.3-0.4c0.1-0.1,0.3-0.2,0.5-0.2c0.1,0,0.8-0.1,0.8-0.1
				c0.3-0.1,0.8-0.2,1-0.3c0.2-0.1,0.5-0.4,0.6-0.6c0.1-0.2,0.3-0.5,0.5-0.7c0.2-0.2,0.6-0.4,0.8-0.5s0.5,0,0.6,0.1
				c0.1,0.1,0.1,0.5,0.1,0.7c-0.1,0.2-0.5,0.6-0.5,0.8c-0.1,0.1-0.2,0.6-0.2,0.7c-0.1,0.1-0.2,0.2-0.3,0.3c-0.1,0.1-0.2,0.1-0.2,0.2
				c-0.3,0.2-2.4,1-2.6,1c0,0-0.3,0.1-0.5,0.1"/>
			<path class="st8" d="M915.6,525.6l-0.1,0.2c-0.1,0-0.1,0-0.2-0.1l-0.1-0.1l0,0c-0.1-0.1-0.1-0.1-0.1-0.2s0-0.1-0.1-0.2l0,0
				c0-0.1,0-0.2-0.1-0.2l0,0c0-0.2-0.1-0.3-0.1-0.4c0-0.2,0.1-0.5,0.1-0.6"/>
			<path class="st8" d="M915.4,524c0,0,0.1,0.1,0.1,0.1c0.1,0.1,0.1,0.2,0.2,0.3c0.1,0.1,0.1,0.1,0.1,0.2s0,0.1,0,0.2"/>
			<path class="st8" d="M917.5,522.1L917.5,522.1L917.5,522.1c0.1,0.2,0.1,0.6,0.1,0.7c0,0.4,0.1,1,0.1,1c0,0.1,0,0.1,0,0.2"/>
			<path class="st8" d="M917.6,524.1L917.6,524.1c0,0,0.1,0.1,0.1,0.1c0.1,0,0.3,0.3,0.4,0.5c0.1,0.2,0.4,1.1,0.5,1.3
				c0,0,0,0.1,0,0.2"/>
			<path class="st8" d="M917,519.8c0-0.1,0-0.3,0-0.4c0-0.3-0.3-1.4-0.5-1.7c-0.1-0.1-0.1-0.3-0.2-0.4l0,0"/>
			<path class="st8" d="M897.7,524.7c0,0-0.1-0.1-0.1-0.1c-0.1-0.1-0.3-0.2-0.8-0.3c-0.4-0.1-0.7-0.1-1.2-0.1
				c-0.3,0-0.9,0.2-1.2,0.3c-0.2,0.1-0.6,0.4-0.8,0.6c-0.1,0.1-0.1,0.1-0.1,0.2c-0.1,0.1-0.2,0.4-0.2,0.6v0.1
				c-0.1,0.3-0.1,1.2,0,1.5c0.1,0.2,0.2,0.5,0.3,0.7c0.1,0.1,0.3,0.3,0.4,0.5s0.4,0.2,0.5,0.3c0.3,0.1,1.3,0.2,1.6,0.1
				c0.1,0,0.3-0.1,0.6-0.2c0,0,0.1,0,0.1-0.1c0.1-0.1,0.1-0.1,0.2-0.1"/>
			<path class="st8" d="M897.1,527L897.1,527c-0.1,0-0.2-0.5-0.5-0.7c-0.2-0.3-0.9-0.7-1-0.7c-0.1,0-0.3,0.1-0.5,0.2
				c-0.1,0.1-0.2,0.1-0.3,0.2"/>
			<path class="st8" d="M897.7,524.7L897.7,524.7L897.7,524.7L897.7,524.7c-0.1,0.1-0.1,0.2-0.1,0.5c0,0.1,0.1,0.2,0.1,0.3
				c0.1,0.1,0.3,0.1,0.8,0.1c0.2,0,0.5-0.1,0.6-0.1c0.1-0.1-0.1-2.1-0.1-2.1c0,0,0.5-0.3,1.2-1c0.2-0.1,0.5-0.5,0.8-0.6
				c0.2-0.2,0.5-0.4,0.5-0.5c0.1-0.1-0.1-0.4-0.2-0.7c-0.2-0.5-0.5-1.2-0.6-1.3V519"/>
			<path class="st8" d="M900.7,519L900.7,519L900.7,519c-0.1-0.2,0.1-0.5,0.2-0.6c0.1-0.2,0.9-0.8,1.3-0.9c0.2-0.1,1-0.5,1.5-0.6
				c0.8-0.3,1.4-0.5,1.8-0.6c0.5-0.1,1.4-0.1,2-0.1c0.9,0,2.6,0.2,3.8,0.3c0.6,0,3.4,0.6,3.9,0.7c0.6,0.1,0.9,0.1,1.3,0.1
				c0.2,0,0.4,0,0.6-0.1c0.5-0.1,1.1-0.2,1.3-0.4c0.3-0.2,1-0.9,1.2-1.1c0.1-0.2,0.2-0.7,0.1-0.9c-0.1-0.3-0.3-0.6-0.4-0.8
				s-1-0.8-1.4-1c-0.4-0.2-1.2-0.5-1.7-0.6c-0.6-0.1-2-0.5-2.3-0.5c-0.1,0-2.1-0.1-3.8-0.2c-0.5,0-1,0-1.9,0.1
				c-0.6,0.1-3.3,0.6-3.7,0.6c-0.8,0.2-3.2,0.9-3.9,1.2c-0.3,0.1-1.4,0.5-1.8,0.7c-0.7,0.4-1.9,1.3-2.3,1.7
				c-0.2,0.2-0.5,0.5-0.6,0.7c-0.1,0.2-0.1,0.5-0.2,0.7c0,0,0,0.1,0,0.1l0,0"/>
			<path class="st8" d="M895.9,517.6l-0.1-0.1l0,0c-0.1,0-0.5,0-0.7,0.1c-0.3,0.1-1,0.7-1.3,1c-0.3,0.3-0.7,1.2-0.8,1.6
				s-0.1,1.2-0.1,1.9c0,0.3,0.1,1.4,0.2,1.7c0.1,0.3,0.3,0.8,0.4,0.9c0,0.1,0.1,0.1,0.1,0.2"/>
			<path class="st8" d="M896.8,528.7L896.8,528.7L896.8,528.7c-0.1,0.1-0.1,0.2-0.1,0.6c0,0.8,0.1,1.2,0.1,1.9
				c0.1,0.4,0.4,1.4,0.6,1.8c0.1,0.2,0.3,0.5,0.4,0.6c0,0,0.1,0.1,0.1,0.2l0.1,0.1"/>
			<path class="st8" d="M898.1,533.8L898.1,533.8L898.1,533.8c0.2,0.2,0.9,0.6,1.2,0.8c0.2,0.1,1.6,1,1.7,1.1s0.9,0.5,1.4,0.7
				c0.1,0,0.1,0.1,0.1,0.1c0.3,0.1,0.9,0.3,1.6,0.5c0.5,0.1,1.6,0.3,2.1,0.4c0.6,0.1,1.7,0.1,2.1,0.1c0.5,0,1.6,0.1,2-0.1
				c0.2,0,1.6-0.3,1.8-0.4c0.3-0.1,1.1-0.4,1.6-0.6c0.3-0.2,1-0.6,1.2-0.8c0.1,0,0.1-0.1,0.2-0.2l0.1-0.1l0.1-0.1"/>
			<path class="st8" d="M914,535C914,535,914,535,914,535c0,0,0,0-0.1,0c-0.1,0-0.1,0-0.1-0.1c-0.1,0-0.1-0.1-0.2-0.1
				c-0.3,0-0.9-0.3-1-0.3c-0.1-0.1-0.2-0.2-0.2-0.3c-0.1-0.2,0-0.5,0.1-0.6c0.1-0.1,0.3-0.1,0.4-0.1c0.1,0,0.3,0.1,0.3,0.1
				s0.3,0,0.5,0.1c0.1,0,0.1,0,0.1,0c0.1,0,0.1,0,0.1,0"/>
			<path class="st8" d="M913.9,533.6L913.9,533.6c0,0-0.1,0-0.1,0c-0.1,0-0.1,0-0.1,0l0,0"/>
			<path class="st8" d="M913.8,534.8L913.8,534.8c-0.1,0-0.1,0-0.1,0c-0.1-0.1-0.2-0.3-0.2-0.6s0.3-0.5,0.5-0.6"/>
			<path class="st8" d="M913.8,533.6L913.8,533.6c0,0,0.1,0,0.2-0.1l0,0c0.8-0.1,1.6-0.2,3.4-0.3c0.1,0,0.1,0,0.1,0
				c0.8-0.1,3.5-0.2,3.6-0.2c1.7,0,3.9-0.1,4.3-0.1c0,0,0,0,0.1,0c0,0,0.1,0,0.2,0"/>
			<path class="st8" d="M925.8,533.1C925.7,533.1,925.7,533,925.8,533.1c-0.1-0.1-0.1-0.1-0.1-0.1c0,0,0,0.3,0,0.6
				c0,0.2,0,0.3,0,0.5c0,0.1,0,0.2,0,0.2"/>
			<path class="st8" d="M925.8,534.5C925.8,534.5,925.8,534.5,925.8,534.5C925.8,534.5,925.8,534.5,925.8,534.5
				C925.7,534.5,925.7,534.5,925.8,534.5c-0.3,0-0.6,0-0.9,0s-0.5,0-0.6,0c-0.1,0-0.1,0-0.1,0c-0.6-0.1-1.9,0.1-3.5,0.2
				c-0.2,0-0.7,0.1-1.1,0.1s-0.8,0.1-0.9,0.1c-0.9,0-1.7,0.1-2.3,0.1c-0.2,0-0.5,0-0.7,0c-0.9,0.1-1.4,0.1-1.7,0.1
				c-0.1,0-0.1,0-0.2,0c0,0-0.1,0-0.1,0"/>
			<path class="st8" d="M913.7,534.6L913.7,534.6c0.1-0.1,0.3-0.1,0.6-0.1c0.8,0,1.6,0,1.8,0c0.8-0.1,2.9-0.2,3.8-0.3
				c0.8-0.1,2.1-0.1,2.4-0.1h0.1"/>
			<path class="st8" d="M913.8,534.6c-0.1,0-0.1,0-0.1,0s0,0-0.1,0"/>
			<path class="st8" d="M914.2,534.7C914.2,534.7,914.2,534.7,914.2,534.7L914.2,534.7c-0.1,0,0.1,0,0.3,0c0.1,0,0.3,0,0.5,0
				s0.3,0,0.4,0"/>
			<path class="st8" d="M919.8,534.6c0.1,0,0.2,0,0.3,0c0.1,0,0.4,0,0.5,0c0.1,0,0.3,0,0.3,0"/>
			<path class="st8" d="M922.6,534.3L922.6,534.3c0-0.1-0.1-0.5-0.1-0.7c0-0.2,0-0.5,0.1-0.5l0,0"/>
			<path class="st8" d="M922.7,534c0,0,0-0.1,0.1-0.2c0.1-0.1,0.1-0.2,0.2-0.3c0.1-0.1,0.2-0.2,0.3-0.3v-0.1"/>
			<path class="st8" d="M922.7,534.3c0.1-0.1,0.1-0.1,0.1-0.1c0.1-0.1,0.3-0.5,0.5-0.6c0.1-0.1,0.2-0.2,0.2-0.3c0,0,0.1-0.1,0.1-0.1
				"/>
			<path class="st8" d="M924.2,534.5L924.2,534.5c0,0,0-0.1,0.1-0.2c0.2-0.3,0.6-0.8,0.8-0.9c0.2-0.2,0.2-0.3,0.3-0.3"/>
			<polyline class="st8" points="922.9,533.2 922.8,533.4 922.8,533.4 			"/>
			<path class="st8" d="M922.9,533.2C922.9,533.2,922.9,533.2,922.9,533.2L922.9,533.2z"/>
			<path class="st8" d="M922.9,533.4c0,0,0-0.1,0-0.1v-0.1"/>
			<path class="st8" d="M924.8,534.4L924.8,534.4L924.8,534.4c0.1-0.1,0.6-0.6,0.6-0.6c0.1-0.1,0.1-0.1,0.1-0.1s0.1,0,0.1-0.1"/>
			<path class="st8" d="M924.5,529.9L924.5,529.9c-0.1-0.1-0.2-0.4-0.2-0.6s0.2-0.5,0.2-0.6c0.1-0.1,0.3-0.2,0.4-0.2
				c0.1,0,0.3,0,0.3,0.1c0.1,0,0.1,0.1,0.2,0.1l0,0c0.1,0,0.1,0.1,0.1,0.1"/>
			<path class="st8" d="M924.9,531.2L924.9,531.2C924.9,531.2,924.9,531.2,924.9,531.2c-0.1,0.1-0.3,0.2-0.4,0.3
				c-0.3,0.1-0.9,0.2-1,0.1c-0.1-0.1-0.2-0.3-0.3-0.5c0-0.2,0-0.6,0.1-0.8c0.1-0.2,0.3-0.5,0.5-0.5c0.3-0.1,0.6-0.1,0.7,0"/>
			<path class="st8" d="M925.6,528.7L925.6,528.7c-0.1,0-0.1-0.1-0.1-0.2c-0.1-0.3-0.1-0.6,0-0.8s0.2-0.4,0.3-0.5
				c0.1-0.1,0.3-0.1,0.5-0.1c0.2,0.1,0.4,0.3,0.5,0.6c0,0.1,0.1,0.2,0.1,0.2c0.1-0.1,0.3-0.4,0.5-0.5c0.1-0.1,0.4-0.2,0.5-0.2
				s0.3,0.1,0.4,0.2s0.2,0.3,0.2,0.5c0,0.1-0.1,0.5-0.1,0.5c0,0.1-0.1,0.1-0.3,0.2"/>
			<path class="st8" d="M926.7,530.2L926.7,530.2"/>
			<path class="st8" d="M928.1,528.9L928.1,528.9c0.1,0,0.2-0.1,0.3-0.1c0.1,0,0.4,0,0.5,0.1s0.3,0.3,0.3,0.5c0.1,0.1,0,0.3-0.1,0.4
				c-0.1,0.1-0.3,0.2-0.5,0.3c-0.4,0.1-0.7-0.1-0.8-0.1c0.1,0.1,0.2,0.4,0.3,0.5c0,0.1-0.1,0.3-0.2,0.5c-0.1,0.1-0.3,0.2-0.5,0.2
				c-0.2,0-0.5-0.2-0.6-0.3c-0.1-0.1-0.1-0.2-0.2-0.3c0-0.1-0.1-0.1-0.1-0.2"/>
			<path class="st8" d="M926.8,530.2L926.8,530.2C926.7,530.2,926.7,530.2,926.8,530.2L926.8,530.2
				C926.8,530.3,926.8,530.3,926.8,530.2c0,0.2,0,0.4-0.1,0.5c-0.1,0.2-0.2,0.3-0.2,0.4c-0.1,0.1-0.3,0.1-0.4,0
				c-0.2-0.2-0.2-0.3-0.3-0.4c0.1,0.1,0.1,0.4-0.1,0.6c-0.1,0.1-0.1,0.1-0.2,0.1c-0.1,0-0.2,0-0.3-0.1c0,0-0.1-0.1-0.2-0.2
				c-0.1-0.1-0.1-0.1-0.1-0.1"/>
			<path class="st8" d="M929.1,523.8c-0.2,0-0.5-0.1-0.6-0.2c-0.1-0.1-0.1-0.2-0.2-0.3c-0.1-0.2,0.1-0.7,0.2-0.9
				c0.1-0.2,0.4-0.3,0.6-0.4h0.1c0.1,0,0.2-0.1,0.3-0.1"/>
			<path class="st8" d="M929.9,525.3c0,0.1,0,0.1-0.1,0.1l0,0c-0.1,0.1-0.2,0.1-0.3,0.1c-0.2,0.1-0.6,0-0.8-0.1
				c-0.1-0.1-0.3-0.4-0.3-0.6c0-0.2,0.1-0.6,0.2-0.8c0.1-0.1,0.3-0.2,0.4-0.2c0,0,0,0,0.1,0l0,0"/>
			<path class="st8" d="M930.2,520c0-0.1-0.1-0.1-0.1-0.1c-0.1-0.1-0.1-0.3-0.1-0.5c0-0.2,0.2-0.6,0.3-0.8c0.1-0.1,0.5-0.3,0.7-0.3
				c0.1,0,0.2,0,0.3,0c0.1,0.1,0.2,0.1,0.2,0.2c0,0,0,0,0,0.1s0.1,0.1,0.1,0.2"/>
			<path class="st8" d="M930.2,520c0.2,0.1,0.3,0.2,0.3,0.2C930.3,520.3,930.2,520.1,930.2,520z"/>
			<line class="st8" x1="930.2" y1="520" x2="930.2" y2="520"/>
			<path class="st8" d="M929.3,522.2c0,0-0.1,0-0.1,0c0,0-0.1-0.1-0.1-0.1c-0.1-0.2-0.2-0.4-0.2-0.5c-0.1-0.2-0.1-0.6,0.1-0.9
				c0.1-0.2,0.3-0.6,0.5-0.6c0.1-0.1,0.5-0.1,0.6,0"/>
			<path class="st8" d="M931.5,518.6L931.5,518.6c0.1-0.1,0.1-0.1,0.1-0.1c0.1-0.1,0.4-0.4,0.5-0.5c0.2-0.1,0.5-0.1,0.6-0.1
				c0.2,0,0.3,0.1,0.4,0.2c0.1,0.1,0.1,0.3,0.1,0.4c0,0,0.4-0.2,0.6-0.2c0.2-0.1,0.6-0.1,0.8,0.1c0.1,0.1,0.2,0.2,0.2,0.3
				s0,0.3-0.1,0.5c-0.1,0.1-0.1,0.2-0.2,0.3c-0.1,0.1-0.2,0.2-0.3,0.3l0,0"/>
			<path class="st8" d="M934.4,521.2C934.4,521.2,934.4,521.2,934.4,521.2c0.2-0.1,0.4,0.1,0.5,0.2c0.1,0.1,0.2,0.3,0.2,0.5
				c0,0.2-0.1,0.5-0.3,0.6c-0.1,0.1-0.2,0.1-0.4,0.1c-0.1,0-0.2-0.1-0.3-0.1c-0.1,0-0.1-0.1-0.2-0.1"/>
			<path class="st8" d="M934.4,519.8L934.4,519.8c0,0,0.1-0.1,0.2-0.1c0.1,0,0.3-0.1,0.4,0c0.1,0.1,0.3,0.2,0.3,0.4
				c0.1,0.1,0,0.3,0,0.5c-0.1,0.1-0.3,0.3-0.4,0.4c-0.1,0.1-0.4,0.2-0.5,0.2"/>
			<path class="st8" d="M932.9,524.3L932.9,524.3c0.1,0.2,0.1,0.5,0.1,0.6c0,0.2-0.2,0.6-0.3,0.7c-0.1,0.1-0.5,0.2-0.6,0.2
				c-0.2-0.1-0.4-0.3-0.5-0.5c-0.1-0.2-0.2-0.5-0.2-0.5c0.1,0.2,0.1,0.5,0.1,0.7c0,0.2-0.2,0.6-0.3,0.7c-0.1,0.1-0.2,0.1-0.3,0.1
				c-0.1,0-0.3-0.1-0.4-0.2c-0.1-0.1-0.3-0.2-0.3-0.3c-0.1-0.1-0.1-0.3-0.2-0.5l0,0"/>
			<path class="st8" d="M934.1,522.4L934.1,522.4c0.1,0,0.2,0.2,0.3,0.4c0.1,0.1,0.1,0.6,0.1,0.8c0,0.2-0.1,0.6-0.1,0.8
				c-0.1,0.1-0.3,0.4-0.5,0.5c-0.1,0.1-0.4,0.1-0.5,0c-0.2-0.1-0.4-0.5-0.5-0.6"/>
			<path class="st8" d="M930.7,515.2c0,0.1,0,0.1-0.1,0.1c-0.1,0.2-0.4,0.5-0.6,0.6c-0.1,0.1-0.3,0.2-0.5,0.2
				c-0.2,0.1-0.6,0.1-0.9,0.1c-0.2-0.1-0.6-0.3-0.7-0.5c-0.1-0.2-0.3-0.5-0.3-0.8c-0.1-0.2,0-0.4,0-0.5c0,0.1-0.3,0.2-0.6,0.2
				c-0.1,0-0.3,0-0.5,0s-0.3-0.2-0.4-0.2c-0.1-0.2-0.3-0.6-0.3-0.8c0-0.1,0-0.4,0-0.5c0.1-0.1,0.2-0.3,0.2-0.4
				c0.1-0.1,0.2-0.2,0.3-0.2c0,0,0,0,0.1,0c0,0,0.1-0.1,0.1-0.1"/>
			<path class="st8" d="M930.8,515c0,0-0.1,0.1-0.1,0.2"/>
			<path class="st8" d="M925.5,509.5c-0.1-0.1-0.3-0.3-0.3-0.3c-0.1-0.2-0.1-0.5-0.1-0.7c0-0.2,0.2-0.6,0.3-0.8s0.5-0.4,0.6-0.5
				c0.1,0,0.2-0.1,0.3-0.1c0.2,0,0.3,0.2,0.5,0.2l0,0"/>
			<path class="st8" d="M925.5,509.5c0.1,0,0.1,0,0.2,0c0.1,0,0.2,0.1,0.2,0.1c-0.1,0-0.1,0-0.2,0
				C925.5,509.6,925.5,509.6,925.5,509.5z"/>
			<path class="st8" d="M926.6,512.5L926.6,512.5C926.5,512.4,926.5,512.4,926.6,512.5c-0.1-0.1-0.2-0.1-0.5-0.1
				c-0.2,0-0.6,0-0.7-0.1c-0.2-0.1-0.4-0.2-0.5-0.3s-0.3-0.3-0.3-0.5c-0.1-0.1-0.2-0.5-0.2-0.7s0.1-0.6,0.1-0.7
				c0.1-0.2,0.3-0.4,0.5-0.5c0.2-0.1,0.4-0.2,0.6-0.2"/>
			<path class="st8" d="M926.7,507.3L926.7,507.3c0-0.2,0.1-0.6,0.1-0.8c0.1-0.2,0.2-0.5,0.3-0.6c0.1-0.1,0.3-0.3,0.5-0.4
				c0.1-0.1,0.5-0.2,0.6-0.2c0.1,0,0.3,0,0.4,0.1c0.2,0.1,0.5,0.4,0.5,0.6c0,0.1,0.1,0.2,0.1,0.2c0.1-0.2,0.2-0.5,0.3-0.6
				c0.1-0.2,0.3-0.3,0.5-0.4c0.1-0.1,0.4-0.1,0.5-0.1s0.2,0.3,0.3,0.5c0,0.1,0.1,0.2,0.1,0.3c0,0.1,0,0.1,0,0.2c0,0,0,0.1,0,0.1"/>
			<path class="st8" d="M931,506.2L931,506.2c-0.1-0.1,0.1-0.3,0.2-0.5c0.2-0.3,0.7-0.7,1-0.8c0.2-0.1,0.5-0.1,0.6-0.1
				c0.1,0.1,0.3,0.1,0.3,0.2c0.1,0.1,0.2,0.2,0.2,0.3c0.1,0.2,0.1,0.5,0,0.5c0.1-0.2,0.3-0.4,0.5-0.5c0.2-0.1,0.5-0.2,0.6-0.2
				c0.2,0,0.5,0.1,0.6,0.1c0.1,0.1,0.3,0.3,0.3,0.5c0.1,0.3-0.1,0.9-0.2,1c0,0,0,0.1-0.1,0.1c0,0.1-0.1,0.1-0.1,0.2
				c0,0.1-0.1,0.1-0.1,0.1"/>
			<path class="st8" d="M938.4,507.7C938.4,507.7,938.4,507.7,938.4,507.7c0.2-0.1,0.3-0.1,0.5-0.1c0.2,0.1,0.6,0.3,0.7,0.5
				c0.1,0.2,0.2,0.6,0.2,0.8c-0.1,0.2-0.2,0.5-0.3,0.6c-0.1,0.1-0.2,0.2-0.2,0.2l-0.1,0.1c-0.1,0.1-0.4,0.1-0.5,0.1"/>
			<path class="st8" d="M935.5,507.2L935.5,507.2c0,0,0.1,0,0.1-0.1c0.2-0.1,1.2-0.8,1.3-0.9c0.1-0.1,0.5-0.2,0.6-0.2
				c0.2,0,0.6,0.2,0.8,0.4c0.2,0.2,0.4,0.5,0.5,0.6c0,0.1-0.2,0.5-0.2,0.6c-0.1,0.1-0.1,0.1-0.1,0.1l-0.1,0.1l0,0"/>
			<path class="st8" d="M939.3,511.6L939.3,511.6C939.4,511.6,939.4,511.6,939.3,511.6c0.2,0.1,0.5,0.2,0.6,0.3
				c0.2,0.1,0.3,0.4,0.4,0.6c0.1,0.2,0.1,0.6,0.1,0.8s-0.1,0.3-0.1,0.4c-0.1,0.2-0.5,0.3-0.6,0.3c-0.2,0-0.5-0.1-0.7-0.2
				c-0.2-0.1-0.4-0.3-0.5-0.5l0,0c0-0.1-0.1-0.1-0.1-0.1"/>
			<path class="st8" d="M939.3,509.8L939.3,509.8c0.1,0.1,0.5,0.1,0.7,0.1c0.1,0.1,0.3,0.3,0.3,0.4s0.1,0.5,0,0.6
				c-0.1,0.2-0.3,0.4-0.5,0.5c-0.1,0.1-0.3,0.1-0.5,0.1"/>
			<path class="st8" d="M936.6,514.8c-0.1,0.2-0.1,0.5-0.2,0.6c-0.1,0.2-0.3,0.3-0.4,0.5s-0.4,0.2-0.5,0.2s-0.4-0.1-0.5-0.2
				s-0.3-0.5-0.4-0.8c-0.1-0.2-0.1-0.5-0.1-0.6c0-0.1,0-0.1,0-0.1h-0.1"/>
			<path class="st8" d="M936.6,514.8c0-0.1-0.1-0.1-0.1-0.1c-0.1-0.2-0.1-0.5-0.1-0.6c0.1,0.1,0.2,0.3,0.2,0.5
				C936.6,514.6,936.6,514.6,936.6,514.8z"/>
			<path class="st8" d="M938.4,513.3L938.4,513.3C938.4,513.3,938.4,513.3,938.4,513.3c0.1,0.2,0.2,0.5,0.2,0.6c0.1,0.2,0,0.6,0,0.8
				c-0.1,0.3-0.3,0.5-0.4,0.6c-0.1,0.1-0.2,0.1-0.3,0.2c-0.1,0.1-0.3,0.1-0.4,0.1s-0.4-0.2-0.5-0.4c-0.1-0.1-0.2-0.3-0.3-0.5"/>
			<path class="st8" d="M932.5,515.1c0,0.1,0,0.1,0,0.1c0,0.2-0.1,0.3-0.2,0.5c-0.1,0.1-0.3,0.3-0.5,0.3c-0.2,0.1-0.5,0.1-0.6,0
				c-0.1-0.1-0.2-0.2-0.3-0.2c-0.1-0.1-0.2-0.5-0.2-0.6l0,0c0-0.1,0-0.1,0-0.1"/>
			<path class="st8" d="M932.5,515.1c0-0.1,0-0.1,0-0.2C932.5,514.9,932.5,515,932.5,515.1z"/>
			<path class="st8" d="M934.4,514.5L934.4,514.5L934.4,514.5c-0.1,0,0,0.2,0,0.3c0.1,0.2,0,0.6-0.1,0.9c-0.1,0.2-0.4,0.5-0.5,0.6
				c-0.1,0.1-0.3,0.2-0.3,0.2c-0.2,0.1-0.5-0.1-0.6-0.2c-0.1-0.2-0.3-0.7-0.4-1.2"/>
			<path class="st8" d="M915.3,535.3C915.3,535.3,915.3,535.3,915.3,535.3c0.2-0.2,0.4-0.3,0.5-0.3"/>
			<path class="st8" d="M917.4,533.2L917.4,533.2c0.1,0,0.1,0,0.1-0.1c0.1-0.1,0.6-0.6,0.8-0.8c0,0,0.1-0.1,0.1-0.1c0,0,0,0,0-0.1"
				/>
			<path class="st8" d="M905.8,543.7c0.2,0.9,0.3,2.2,0.3,3.4c0,1.2,0.1,3.5,0.1,4.7c0.1,1.2,0.2,3.4,0.3,4.2
				c0.1,0.9,0.5,2.8,0.7,3.9c0.1,0.5,0.3,1.4,0.5,1.9c0.3,1.1,1,3.1,1.4,4.2c0.5,1.4,1.7,6.1,2.3,8.2c0.2,0.8,0.6,3,0.8,3.7
				c0.1,0.5,0.1,1.1,0.2,1.7c0,0.3,0.1,0.6,0.1,1c0,0.1,0,0.1,0,0.1c0.1,0.7,0.1,1.3,0.1,1.4c0,0.2,0,0.5,0,0.7c0,1,0.1,2,0.1,2.3
				c0,0.2,0,0.3,0,0.5c0,0,0,0.1,0,0.1l0,0"/>
			<path class="st8" d="M902.4,536.3c0.3,0.5,0.6,0.9,0.9,1.4c0,0.1,0.1,0.1,0.1,0.1c0.3,0.5,0.8,1.4,1,1.9c0.2,0.5,0.6,1.4,0.8,1.9
				c0.2,0.5,0.3,1,0.5,1.6c0,0.1,0.1,0.2,0.1,0.3c0,0.1,0,0.1,0,0.1"/>
			<path class="st8" d="M912.7,585.7L912.7,585.7L912.7,585.7L912.7,585.7c-0.1,0.1-0.1,0.1-0.1,0.1c-0.2,0.1-0.5,0.1-0.8,0.1
				s-1.3-0.2-1.9-0.3c-0.5-0.1-1.7-0.2-2.1-0.2c-0.8,0-2.8-0.1-3.9-0.1c-0.6-0.1-1.7-0.2-2.2-0.2c-0.8-0.1-1.5-0.2-2-0.3
				c-0.9-0.2-1.4-0.3-2-0.5c-1-0.3-2.5-1.2-3-1.4"/>
			<path class="st8" d="M888.6,574.5C888.6,574.5,888.5,574.5,888.6,574.5c-0.1-0.6-0.3-1.4-0.3-2c-0.1-0.6-0.1-2-0.2-2.2
				c0-0.4,0.2-2.3,0.4-3.7c0.2-1.4,0.5-2.8,0.9-4.3c0.1-0.3,0.2-0.6,0.3-1c0.2-0.9,0.5-2,0.6-2.7c0.1-1,0.3-3,0.4-3.9
				c0-1.2,0.1-3.3,0.1-4.3c-0.1-2.2-0.1-5.4-0.1-6.4c0-0.3,0-0.9,0-1.4c0-0.3,0.1-0.5,0.1-0.6c0.1-0.2,0.4-0.4,0.7-0.6
				c2.2-1.1,5.1-2.4,5.7-2.7c0.1-0.1,0.3-0.2,0.3-0.2"/>
			<path class="st8" d="M898.1,533.8L898.1,533.8L898.1,533.8c-0.2,0.3-0.4,0.5-0.5,0.6c-0.1,0.2-0.2,0.9-0.3,1.3
				c-0.1,0.5-0.1,1.3,0,1.6c0,0.2,0.1,0.5,0.2,0.9c0.1,0.3,0.2,0.6,0.2,0.9c0.1,0.5,0.1,1,0.1,1.2c0,0.1,0,0.1,0,0.1
				c0,0.1-0.1,0.2-0.1,0.3"/>
			<path class="st8" d="M897.9,540.4L897.9,540.4L897.9,540.4c0.1,0,0.3-0.3,0.6-0.5c0.3-0.2,0.6-0.3,0.9-0.4c0.5-0.1,0.8-0.2,1-0.2
				c0.3,0.1,1.3,0.2,1.7,0.4c0.2,0.1,0.8,0.3,1,0.5c0.5,0.2,0.9,0.8,1.4,1.4c0.3,0.5,0.8,1,1,1.6c0.1,0.1,0.1,0.2,0.1,0.3
				c0,0,0,0.1,0,0.1l0,0c0.1,0.1,0.1,0.2,0.1,0.3"/>
			<path class="st8" d="M887.9,562c-0.1,0-0.1,0.1-0.1,0.1"/>
			<path class="st8" d="M888,561.8C888,561.9,888,561.9,888,561.8c-0.1,0.1-0.1,0.1-0.2,0.2l0,0c-0.2,0.1-0.6,0.3-0.7,0.4
				c-0.1,0.1-0.3,0.1-0.5,0.1c-0.5,0.1-1,0.1-1.1,0.1c-0.1,0-0.4-0.1-0.5-0.1c-0.1-0.1-0.3-0.2-0.4-0.4c-0.1-0.2-0.1-0.5-0.1-0.8
				c0.1-0.2,0.3-0.6,0.5-0.8c0.1-0.2,0.5-0.5,0.6-0.6c0.2-0.1,0.5-0.3,0.8-0.4s0.6-0.2,0.8-0.2c0.1,0,0.1-0.1,0.2-0.1
				c0.2,0,0.5,0,0.6,0.1c0.1,0.1,0.3,0.2,0.4,0.3s0.2,0.5,0.3,0.9c0,0.2,0,0.5,0,0.7c0,0.1,0,0.1-0.1,0.2c-0.1,0.1-0.1,0.2-0.2,0.2
				c-0.1,0.1-0.3,0.3-0.6,0.5"/>
			<path class="st8" d="M886.7,562.6C886.7,562.7,886.7,562.7,886.7,562.6l0.1,0.2c0.1,0.1,0.1,0.6,0,0.9c-0.1,0.2-0.2,0.9-0.3,1
				c-0.1,0.3-0.3,0.6-0.5,0.7c-0.1,0.1-0.1,0.1-0.2,0.2c-0.3,0.2-0.6,0.3-0.9,0.4c-0.3,0.1-0.8,0.1-1.6,0.1c-0.6,0-1.6,0.1-1.9,0
				c-0.2,0-0.6-0.1-0.8-0.2c-0.2-0.1-0.5-0.3-0.7-0.5l-0.1-0.1c-0.2-0.2-0.4-0.5-0.5-0.6c-0.1-0.2-0.2-0.7-0.3-0.9
				c-0.1-0.2-0.1-0.5-0.1-0.8c0-0.2,0.1-0.5,0.2-0.6c0.1-0.1,0.2-0.3,0.3-0.4c0.1-0.1,0.4-0.2,0.6-0.2h0.1c0.3,0.1,1.4,0.3,1.5,0.4
				c0.7,0.2,1.2,0.4,1.6,0.6c0.5,0.2,1.2,0.3,1.6,0.3c0.2,0,0.6-0.1,0.8-0.1c0.1,0,0.6-0.3,0.8-0.3c0.1,0,0.1,0,0.2,0s0.1,0,0.1,0"
				/>
			<path class="st8" d="M886.3,568.9c-0.1,0.1-0.3,0.1-0.4,0.2c-0.3,0.1-1.2,0.1-1.6,0.1c-0.3,0-1.7-0.1-1.9-0.1
				c-0.4-0.1-1.3-0.3-1.7-0.4c-0.2-0.1-0.8-0.3-0.9-0.4c0,0-0.1-0.1-0.1-0.1c-0.1-0.1-0.2-0.2-0.3-0.3c-0.1-0.1-0.3-0.5-0.4-0.6
				c-0.1-0.2-0.2-0.5-0.1-0.8c0-0.3,0.2-0.8,0.3-0.8c0.1-0.1,0.1-0.1,0.2-0.2c0.1-0.1,0.4-0.1,0.5-0.1l0,0h0.1"/>
			<path class="st8" d="M885.8,565.7c0,0,0,0.1,0.2,0.1c0.1,0,0.3,0.2,0.4,0.5c0.3,0.6,0.4,1.7,0.4,1.9c0,0.1-0.1,0.3-0.2,0.5
				c-0.1,0.1-0.2,0.1-0.3,0.2"/>
			<path class="st8" d="M879.9,568.1c-0.1,0-0.1,0-0.1,0s-0.1,0-0.1,0.1c-0.1,0.1-0.2,0.5-0.3,0.7c-0.1,0.3,0,0.6,0.1,0.8
				c0,0,0.3,0.6,0.4,0.7c0.2,0.2,0.5,0.4,0.8,0.5c0.1,0.1,0.2,0.1,0.3,0.1c0.2,0.1,0.5,0.2,1,0.3c0.6,0.2,1.1,0.2,1.7,0.2
				c0.8,0,1.3,0,1.7-0.2c0.2-0.1,0.6-0.3,0.8-0.4c0.1-0.1,0.2-0.1,0.2-0.2c0.2-0.2,0.3-0.3,0.4-0.5c0.1-0.1,0.1-0.5,0.1-0.6
				c0-0.1-0.1-0.3-0.1-0.4c-0.1-0.1-0.2-0.2-0.3-0.3c-0.1,0-0.1-0.1-0.1-0.1l0,0c-0.1,0-0.1-0.1-0.1-0.1"/>
			<path class="st8" d="M881.1,571c-0.1,0-0.1,0.1-0.1,0.1c0,0,0,0-0.1,0c-0.1,0.1-0.1,0.1-0.1,0.2s0,0.2,0.1,0.3v0.1
				c0.1,0.1,0.3,0.3,0.5,0.5c0.2,0.1,0.5,0.2,0.8,0.3c0.2,0.1,2,0.4,2.1,0.4s1.2-0.2,1.5-0.3c0.2-0.1,0.5-0.3,0.6-0.6
				c0,0,0-0.1,0.1-0.1c0.1-0.2,0.2-0.5,0.2-0.5c0-0.1-0.2-0.5-0.3-0.6l0,0c0-0.1-0.1-0.1-0.1-0.1"/>
			<path class="st8" d="M880.1,561.8L880.1,561.8L880.1,561.8c-0.1,0-0.1-0.1-0.2-0.2c-0.1-0.1-0.9-1-1.2-1.3
				c-0.2-0.1-0.5-0.4-0.6-0.6c-0.2-0.2-0.6-0.7-1-1.2c-0.5-0.6-0.8-1.1-0.9-1.4c-0.1-0.2-0.1-0.5-0.1-0.6c0.1-0.1,0.2-0.4,0.3-0.5
				c0.2-0.1,0.5-0.1,0.9-0.1c0.2,0,0.6,0,0.8,0s0.4,0.2,0.7,0.3c0,0,0,0,0.1,0c0.3,0.2,0.7,0.4,0.8,0.5c0.1,0.1,0.3,0.3,0.5,0.4
				s0.5,0.5,0.6,0.6c0,0,0.1,0.1,0.2,0.1"/>
			<path class="st8" d="M879,556.3L879,556.3C878.9,556.2,878.9,556.2,879,556.3C878.9,556.2,878.9,556.2,879,556.3
				c-0.1-0.1-0.1-0.3-0.1-0.3c0-0.2,0-0.4,0-0.5c0.1-0.1,0.3-0.5,0.5-0.6c0.2-0.1,0.6-0.2,0.8-0.2c0.3,0,1.2,0.1,1.5,0.2
				c0.3,0.1,0.8,0.5,1.1,0.7c0.1,0.1,0.1,0.1,0.1,0.1c0.1,0.1,0.5,0.6,0.5,0.6c0,0,0.1,0.1,0.1,0.1"/>
			<path class="st8" d="M882.9,555.5L882.9,555.5c0.1,0,0.1-0.1,0.2-0.1c0.2-0.1,0.4-0.2,0.6-0.3c0.5-0.2,0.9-0.5,1-0.5
				c0.1-0.1,0.5-0.1,0.8-0.1c0.3,0,0.6,0.1,0.8,0.1c0.1,0.1,0.3,0.3,0.3,0.4s0.1,0.5,0,0.6c0,0,0,0,0,0.1c-0.1,0.2-0.2,0.6-0.3,0.7
				s-0.3,0.3-0.5,0.5"/>
			<path class="st8" d="M888.2,558.2c-0.2,0.1-0.3,0.2-0.5,0.3c-0.2,0.1-0.7,0.2-0.8,0.2c-0.2,0-0.8,0-0.8,0.1
				c-0.3,0-0.8,0.2-1.6,0.6c-0.2,0.1-0.6,0.2-0.9,0.2c-0.1,0-0.1,0-0.2,0"/>
			<path class="st8" d="M886.8,555.7L886.8,555.7C886.7,555.7,886.8,555.7,886.8,555.7c0.1-0.1,0.3-0.2,0.5-0.3
				c0.2-0.1,0.7-0.2,0.9-0.2c0.2,0,0.5,0.1,0.6,0.2c0.1,0.1,0.2,0.3,0.3,0.5c0.1,0.2,0.1,0.6,0.1,0.8c0,0.2-0.1,0.6-0.2,0.8
				c-0.1,0.1-0.2,0.4-0.4,0.6c-0.1,0.1-0.1,0.1-0.2,0.2"/>
			<path class="st8" d="M887.4,559.3C887.4,559.3,887.4,559.2,887.4,559.3C887.4,559.2,887.4,559.2,887.4,559.3
				c-0.1-0.1,0.1-0.2,0.2-0.4s0.2-0.3,0.3-0.4c0,0,0.1-0.1,0.3-0.2l0,0c0.1-0.1,0.1-0.1,0.2-0.1"/>
			<path class="st8" d="M886.6,571.9c0,0.1-0.1,0.1-0.1,0.1c0,0.1,0.1,0.5,0.2,0.6c0.1,0.1,0.4,0.7,0.5,0.8c0.2,0.2,0.8,0.6,1.3,1
				c0.6,0.5,1.2,0.9,1.4,1.1c0.5,0.4,1,1,1.2,1.2c0.2,0.2,2,2.8,2.4,3.5c0.3,0.6,0.8,1.6,1.2,2.5c0.2,0.4,0.3,0.8,0.5,1.1
				c0.2,0.5,0.5,1.4,0.6,1.9c0.3,1,0.7,3.2,0.9,4.2s0.4,3.1,0.5,4.2c0.1,1,0.1,3.1,0.1,3.8c-0.1,0.9-0.2,2.5-0.4,3.5
				c-0.1,0.5-0.3,1.2-0.5,1.9c-0.2,0.5-0.4,1.1-0.8,1.7c0,0.1,0,0.1-0.1,0.1c-0.4,0.8-0.7,1.3-1,1.6c-0.2,0.3-1,1.2-1.4,1.6
				c-0.5,0.5-0.9,0.9-1.4,1.3c-0.3,0.3-1.3,0.8-1.7,1c-0.2,0.1-1.4,0.6-2,0.9c-0.5,0.2-1.3,0.4-1.8,0.5c-0.5,0.1-1.6,0.2-2.1,0.3
				c-0.6,0.1-1.1,0.1-1.9,0.1c-1,0-3.1-0.2-4.3-0.3c-0.7-0.1-1.4-0.2-2-0.3c-0.4-0.1-2.8-0.7-3.7-1c-1.2-0.4-3.1-1-3.5-1.2
				c-0.5-0.2-2.7-1.4-3.1-1.7c-0.3-0.3-1-1-1.3-1.3c-0.3-0.4-0.8-1-1-1.5c-0.2-0.2-0.8-1.4-1-1.9c-0.3-0.6-1.3-3.1-1.4-3.7
				c-0.1-0.4-0.6-3.4-0.7-3.9c-0.1-0.8-0.1-1.4-0.1-2.1c0.1-0.7,0.3-2.9,0.5-3.9c0.2-0.9,0.8-2.8,1.1-3.7c0.2-0.4,0.5-1,0.8-1.6
				c0.1-0.3,0.7-1.2,1-1.6c0.2-0.3,0.8-1.1,1.1-1.4c0.2-0.2,0.9-1,1.3-1.4c0.5-0.5,1.2-1,1.4-1.2c0.5-0.3,0.9-0.7,1.6-1
				c0.8-0.5,2.5-1.4,3.5-2c0.9-0.5,2.3-1.3,3.4-1.9c0.6-0.2,3.6-1.8,3.7-1.9c0.3-0.2,0.7-0.6,0.8-0.7h0.1"/>
			<path class="st8" d="M876.8,585.2c0.1,0.1,0.5,0.2,0.6,0.2c0.1,0,0.5,0,1,0.1c0.3,0,0.6,0.1,0.8,0.1c0.5,0.1,1.5,0.3,2,0.3
				c0.2,0.1,0.3,0.1,0.5,0.1c0.5,0.1,0.8,0.2,1.1,0.3c0.4,0.1,0.8,0.3,1,0.5c0.2,0.2,0.6,0.6,0.7,0.9c0.1,0.2,0.3,0.9,0.3,1.2
				c0,0.3-0.2,1.2-0.5,1.6c-0.1,0.2-0.3,0.5-0.5,0.7c-0.2,0.1-0.5,0.3-0.7,0.4c-0.3,0.1-1.3,0.3-2.1,0.3c-0.9,0.1-3,0.1-3.1,0
				c-0.1,0-0.1-0.1-0.2-0.1l0,0c-0.1,0-0.1,0-0.1-0.1"/>
			<path class="st8" d="M877.8,591.9h-0.1c0,0.1,0.4,0.2,0.6,0.2c0.1,0,1.4,0.2,1.9,0.2c0.5,0,1,0.2,1.5,0.3
				c0.3,0.1,1.1,0.6,1.4,0.9c0.2,0.1,0.5,0.5,0.7,0.7c0.2,0.2,0.3,0.8,0.4,1.2c0.1,0.3,0,1-0.1,1.3c-0.1,0.3-0.3,1-0.5,1.3
				c-0.2,0.3-0.8,0.8-1.1,0.9c-0.5,0.2-1.3,0.5-1.8,0.6c-0.5,0.1-1.6,0.1-2.1,0.1c-0.3,0-1.1-0.2-1.7-0.3c-0.5-0.1-1-0.2-1-0.2
				c-0.1,0-0.1-0.1-0.2-0.1c0,0-0.1-0.1-0.1-0.1"/>
			<path class="st8" d="M878.5,585.4L878.5,585.4c0,0.1,0,0.1,0,0.1c-0.1,0.5-0.2,1.4-0.3,1.9c-0.1,0.5-0.4,3.2-0.5,4.1
				c0,0.1,0,0.2,0,0.3c-0.1,1-0.4,2.9-0.5,3.9c-0.1,1.4-0.2,2.3-0.2,2.9c0,0.2,0,0.3,0,0.4c0,0,0,0.1,0,0.1l0,0"/>
			<path class="st8" d="M878.4,599.6L878.4,599.6c0,0-0.1,0.3-0.1,0.5c-0.1,0.2-0.1,0.8-0.1,0.8c0,0.1,0,0.2,0,0.3"/>
			<path class="st8" d="M880.4,599.6c0,0.1,0,0.2,0,0.2c0,0.1-0.2,0.9-0.2,1c0,0.2-0.1,0.5-0.1,0.5c0,0,0,0.1,0,0.1"/>
			<path class="st8" d="M880,585.5c0.1-0.2,0.1-0.6,0.1-0.7c0-0.1,0.1-0.8,0.2-0.8c0-0.1,0.1-0.1,0.1-0.2"/>
			<path class="st8" d="M880,585.5L880,585.5L880,585.5L880,585.5z"/>
			<path class="st8" d="M880,585.4C880,585.4,880,585.5,880,585.4"/>
			<path class="st8" d="M881.8,586L881.8,586C881.9,586,881.9,586,881.8,586c0-0.1,0.1-0.1,0.1-0.2c0.1-0.2,0.1-0.6,0.2-0.9
				c0.1-0.2,0.1-0.4,0.1-0.5"/>
			<path class="st8" d="M883.7,555L883.7,555c0.1-0.3,0.3-1.2,0.3-1.7c0.1-0.5,0.3-1.4,0.3-2c0.2-0.8,0.8-3,1-3.8
				c0.2-0.8,0.5-1.6,0.7-2c0.2-0.3,0.6-0.9,0.9-1.2c0.3-0.3,0.5-0.5,0.7-0.6c0.2-0.1,0.6-0.4,0.8-0.5c0.1-0.1,0.7-0.2,0.9-0.3
				c0.2-0.1,0.5-0.3,0.8-0.4c0.1,0,0.1-0.1,0.2-0.1"/>
			<line class="st8" x1="883.8" y1="555" x2="883.8" y2="555"/>
			<path class="st8" d="M903.3,537.6L903.3,537.6c0,0.1,1.2,0.9,1.3,1c0.2,0.1,0.9,0.3,1.5,0.6c0.4,0.2,1,0.3,1.6,0.5
				c0.8,0.2,1.4,0.3,1.7,0.6c0.1,0.1,0.3,0.3,0.5,0.6c0.1,0.1,0.3,1.2,0.5,1.7c0.1,0.2,0.1,0.5,0.1,0.8c0.1,0.5,0.1,1.1,0.1,1.3
				c0.1,0.5,0.3,1.8,0.4,2.3c0,0.1,0,0.1,0,0.1s0,0.1,0,0.1c0,0.1,0.1,0.2,0.1,0.2"/>
			<path class="st8" d="M911.1,547.1c0,0.1,0.1,0.1,0.1,0.2c0.1,0.2,0.3,1.1,0.3,1.5c0.1,0.5,0.3,1.6,0.3,1.9c0.1,1,0.5,3.6,0.7,4.2
				c0.2,0.9,0.7,2.7,1,3.7c0.2,0.6,1,2.7,1.3,3.7c0.6,1.6,0.9,2.8,1.2,4.1c0.1,0.4,0.3,1.6,0.3,2c0.1,1,0.2,2.7,0.2,3.9
				c0,1.4-0.1,2.9-0.2,4.3c-0.1,0.6-0.1,1.6-0.2,2c-0.1,0.4-0.2,1.1-0.2,1.2v0.1v0.1"/>
			<path class="st8" d="M908.2,545.4L908.2,545.4c-0.1,0-0.1-0.1-0.1-0.2c-0.1-0.5-0.2-1-0.2-1.8c0-0.9,0.1-1.6,0.2-1.8l0,0
				c0.1,0.1,0.6,0.8,0.9,1.3c0.1,0.1,0.2,0.3,0.2,0.4c0,0.1,0.1,0.1,0.1,0.1"/>
			<path class="st8" d="M906.1,543.8C906.1,543.8,906.1,543.7,906.1,543.8c-0.1-0.1-0.1-0.2-0.1-0.2"/>
			<path class="st8" d="M908.3,545.5L908.3,545.5c-0.1,0-0.1,0-0.1,0c-0.6-0.2-1.9-1.4-1.9-1.6c0,0-0.1-0.1-0.1-0.1"/>
			<path class="st8" d="M905.6,543.2L905.6,543.2c0,0.1,0.1,0.1,0.1,0.1c0.1,0.1,0.2,0.2,0.2,0.3c0.1,0.1,0.1,0.1,0.2,0.2l0,0
				c0,0,0,0.1,0.1,0.1"/>
			<path class="st8" d="M911.2,546.9L911.2,546.9c0,0,0-1.2,0.3-3.7c0-0.1,0.1-0.3,0.1-0.7c0.2-0.9,0.5-2.3,0.6-2.4
				c0,0,0.9-0.8,1.2-1s1-1,1.4-1.4c0.5-0.5,0.9-1,1.1-1.4c0.1-0.1,0.1-0.2,0.2-0.3"/>
			<path class="st8" d="M912.5,542.6c0,0,0-0.1,0.1-0.1c0.2-0.5,0.5-1.4,0.6-1.4c0.1,0,0.2,0.3,0.3,0.6s0.2,1.2,0.2,1.7
				c0.1,0.7,0.1,1.3,0.1,1.3s0.8-0.9,0.9-1c0.1-0.2,0.2-0.5,0.3-0.8c0-0.1,0.1-0.2,0.1-0.2c0-0.1,0-0.1,0.1-0.1"/>
			<path class="st8" d="M916.4,534.9c0,0.1,0,0.1,0,0.2c0,0.1-0.1,0.3-0.1,0.6c0,0.1,0,0.1,0,0.2c0,0.2-0.2,1.2-0.2,1.7
				c-0.1,0.6-0.2,1.2-0.4,1.9c-0.1,0.5-0.4,1.6-0.5,2c-0.1,0.2-0.1,0.5-0.1,0.9c0,0.3,0,0.6,0.1,0.8c0,0.2,0.8,3,1,3.9
				c0.2,0.7,0.5,1.4,0.6,1.9c0.1,0.2,0.2,0.5,0.3,0.7l0,0c0,0,0,0,0,0.1"/>
			<path class="st8" d="M917,549.8c0,0.1,0,0.2,0,0.2c0.2,0.3,0.5,1.2,0.6,1.6c0.1,0.3,0.3,1.4,0.5,2c0.2,0.7,0.5,3,0.7,3.9
				c0.2,0.9,0.5,2.9,0.5,4c0.1,1.1,0.2,3.2,0.2,4.3c0.1,1.1,0.1,3.3,0,4.2c-0.1,1-0.3,3.2-0.3,4.3c-0.1,1.1-0.4,3.5-0.7,5.5
				c-0.1,0.3-0.1,0.6-0.1,0.9c-0.1,0.8-0.2,1.5-0.3,2c0,0.1-0.1,0.3-0.1,0.4c-0.1,0.5-0.1,1-0.1,1.2c0.1,0.2,0.2,0.5,0.4,0.7
				c0.1,0.1,0.5,0.2,0.6,0.2c0.3,0.1,1.7,0.1,2.3,0.1c0.6,0,1.6-0.2,1.9-0.3c0.8-0.2,2.3-0.9,3-1.2c0.1-0.1,0.3-0.1,0.4-0.2
				c0,0,0.1-0.1,0.1-0.1"/>
			<path class="st8" d="M917.1,549.9c0-0.1-0.1-0.1-0.1-0.1c0,0,0-0.1-0.1-0.1c-0.2-0.5-0.7-2.3-0.8-3.4c-0.1-0.2-0.1-1.3-0.2-1.7
				c0-0.5,0-1.5,0-1.7c0.1-0.5,0.1-1.2,0.2-1.6c0.1-0.3,0.3-1,0.5-1.3c0.2-0.4,0.6-0.9,0.9-1.2c0.2-0.2,0.5-0.3,0.7-0.4
				c0.2-0.1,0.6-0.1,0.8-0.1c0.1,0,0.3,0.1,0.4,0.2c0.2,0.1,0.5,0.6,0.6,0.8c0,0.1,0.2,0.5,0.2,0.5c0.1-0.1,0.3-0.9,0.3-1.3
				c0-0.1,0-0.2,0-0.3c0-0.4-0.1-0.9-0.2-1.2c-0.1-0.4-0.5-1.3-0.6-1.7c-0.1-0.1-0.3-0.4-0.3-0.5l-0.1-0.1"/>
			<path class="st8" d="M920.9,538.1L920.9,538.1c0.2,0.2,0.6,0.5,0.9,0.7c0.2,0.1,1.4,0.8,1.5,0.8c0.3,0.1,1.3,0.4,1.7,0.4
				c0.1,0,0.7,0.1,1,0.1c0.2,0.1,0.7,0.3,0.9,0.5c0.2,0.2,0.4,0.5,0.5,0.7c0.1,0.1,0.1,0.2,0.1,0.3c0.1,0.3,0.2,0.8,0.2,1.3
				c0.1,0.6,0.2,3.1,0.3,4.2c0.1,1,0.3,3.1,0.4,3.9c0.1,0.3,0.1,0.6,0.2,1.1c0.2,0.9,0.6,2.1,0.8,2.8c0.2,0.5,0.6,2.5,0.6,2.5
				c0,0,0,0.1,0,0.1c0,0,0,0,0,0.1"/>
			<path class="st8" d="M930.4,560.7L930.4,560.7c0,0.1,0.1,0.3,0.1,0.5c0.2,0.6,0.6,3.2,0.7,4.2c0.2,0.9,0.5,2.8,0.5,3.5
				c0,0.3,0.1,2,0.1,2.1s0.1,0.3,0.1,0.3s0,0.1,0,0.2"/>
			<path class="st8" d="M933.3,561.2L933.3,561.2C933.3,561.2,933.2,561.2,933.3,561.2c-0.1,0.1-0.1,0.1-0.1,0.1
				c-0.1,0-0.5,0-0.8,0.1c-0.3,0-0.6,0-0.8-0.1s-0.5-0.2-0.6-0.3s-0.3-0.3-0.5-0.5c-0.2-0.2-0.3-0.4-0.4-0.5
				c-0.1-0.2-0.2-0.6-0.3-0.8s-0.1-0.8,0-0.9c0-0.2,0.1-0.5,0.2-0.6c0-0.1,0.1-0.1,0.1-0.1c0.1-0.1,0.2-0.2,0.2-0.2
				c0.2-0.1,1.1-0.2,1.4-0.2c0.2,0,0.5,0.1,0.6,0.2c0.2,0.1,0.7,0.6,0.9,0.9c0.1,0.1,0.2,0.3,0.3,0.5c0.1,0.1,0.1,0.2,0.2,0.3
				c0.1,0.2,0.2,0.5,0.2,0.8c0,0.1,0,0.1,0,0.2c0,0.3-0.1,0.8-0.1,0.9c-0.1,0.1-0.1,0.2-0.2,0.2
				C933.5,561.2,933.4,561.2,933.3,561.2c-0.1,0.1-0.2,0.1-0.2,0.1"/>
			<path class="st8" d="M933.5,558.6c0-0.1,0-0.2,0.1-0.2c0.1-0.2,0.6-1,0.8-1.2c0.1-0.1,0.3-0.1,0.5-0.1c0.3-0.1,0.8-0.1,1.3-0.2
				c0,0,1.2-0.1,1.6-0.1c0.3,0,1.3,0.1,2,0.1c0.4,0,0.6,0.1,0.7,0.1c0.2,0.1,0.5,0.2,0.6,0.3c0,0,0.8,1.3,0.8,1.4
				c0.1,0.1,0,0.5-0.1,0.7c-0.1,0.2-0.2,0.5-0.2,0.5c-0.1,0-0.1,0.1-0.2,0.1c-0.3,0.1-0.9,0.3-1.3,0.3c-0.6,0.1-1.4,0.1-1.7,0.1
				c-0.2,0-1.4,0.2-1.7,0.2c-0.3,0-1.5-0.1-1.8-0.1c-0.1,0-0.2,0-0.3,0c-0.1,0-0.3-0.1-0.3-0.1c-0.1-0.1-0.4-0.5-0.5-0.6"/>
			<path class="st8" d="M934.6,560.5L934.6,560.5L934.6,560.5c0,0-0.2,0.1-0.3,0.2c-0.1,0.1-0.3,0.5-0.4,0.6
				c-0.1,0.2,0.1,1.4,0.1,1.4c0.1,0.1,0.5,0.2,0.7,0.3c0.1,0,0.2,0.1,0.4,0.1c0.3,0.1,0.8,0.1,1.1,0.1s0.7,0,1.3-0.1
				c0.5-0.1,1.6-0.1,1.7-0.1c0.3,0,1.1-0.2,1.6-0.2c0.2-0.1,0.3-0.1,0.4-0.1c0.2-0.1,0.5-0.2,0.6-0.4c0.2-0.2,0.3-0.5,0.3-0.6
				c0.1-0.3-0.2-1.2-0.2-1.3c-0.1-0.1-0.1-0.2-0.2-0.2c-0.1-0.1-0.1-0.1-0.2-0.1"/>
			<path class="st8" d="M935.1,563.1L935.1,563.1c0,0-0.1,0.1-0.1,0.1c-0.1,0-0.3,0.1-0.5,0.3c0,0.1-0.3,0.5-0.3,0.7
				c0,0.1-0.1,0.6-0.1,0.7c0.1,0.2,0.3,0.3,0.5,0.4c0.1,0.1,0.4,0.1,0.7,0.1c0.3,0.1,0.6,0.1,0.9,0.1c0.5,0,1.6,0,2.1,0
				c0.3,0,0.6,0,0.9-0.1c0.2-0.1,1.7-0.5,1.9-0.5c0.1-0.1,0.2-0.2,0.3-0.3c0.1-0.1,0.1-0.1,0.1-0.2c0.1-0.2,0.3-0.5,0.4-0.5
				c0.1-0.2,0.1-0.5-0.1-0.6c-0.1-0.1-0.1-0.2-0.2-0.2c-0.1-0.1-0.1-0.1-0.2-0.2c0,0-0.1-0.1-0.1-0.1"/>
			<path class="st8" d="M935.4,565.4C935.3,565.4,935.3,565.4,935.4,565.4c-0.1,0-0.1,0-0.2,0.1c-0.1,0.1-0.2,0.2-0.3,0.3
				c-0.1,0.1-0.2,0.6-0.1,0.8c0.1,0.3,0.3,0.6,0.4,0.7c0.1,0.1,0.1,0.1,0.2,0.1c0.2,0.1,0.5,0.2,0.6,0.2c0.3,0.1,2.4,0.1,3.4,0.1
				c0.2,0,0.6-0.1,0.8-0.2c0.1-0.1,0.4-0.3,0.6-0.5c0.1-0.1,0.1-0.1,0.1-0.1c0.2-0.2,0.4-0.6,0.5-0.8c0.1-0.3,0.2-0.7,0.2-1
				c0-0.1,0-0.3-0.1-0.5"/>
			<path class="st8" d="M934.9,557L934.9,557L934.9,557c-0.1-0.1-0.1-0.3-0.2-0.5c-0.2-0.3-0.6-0.9-1-1.2s-1.3-1.1-1.4-1.2
				c-0.4-0.3-1.2-0.9-1.5-1.2c-0.1-0.1-0.4-0.5-0.5-0.6c-0.1-0.1-0.2-0.3-0.2-0.5c-0.1-0.1-0.1-0.2-0.1-0.2c0-0.1,0.1-0.4,0.2-0.5
				c0.1-0.1,0.5-0.2,0.7-0.3c0.3-0.1,0.9-0.1,1.3,0c0.1,0,0.6,0.2,0.7,0.2l0,0c0.1,0.1,0.7,0.1,0.9,0.2c0,0,0,0,0.1,0
				c0.2,0.1,0.4,0.2,0.7,0.3c0.2,0.1,0.6,0.3,0.9,0.4c0.1,0.1,0.2,0.1,0.2,0.1"/>
			<path class="st8" d="M933.8,551.1L933.8,551.1c0.1,0.1,0.3,0.1,0.5,0.1c0.3-0.1,1.4-0.8,1.7-0.9c0.2-0.1,1.1-0.5,1.4-0.7
				c0.2-0.1,0.3-0.2,0.5-0.2c0.2-0.1,0.7,0.1,0.9,0.1c0.3,0,0.5,0.1,0.6,0.2s0.4,0.4,0.5,0.6s0.1,0.5,0.1,0.6c0,0.1,0,0.1-0.1,0.2
				c-0.1,0.2-0.1,0.5-0.2,0.7c-0.1,0.1-0.2,0.3-0.3,0.6"/>
			<path class="st8" d="M940.2,551L940.2,551C940.1,551,940.1,551,940.2,551C940.1,551,940.1,551,940.2,551L940.2,551
				c0.2-0.1,1.5-0.8,1.7-0.8c0.3-0.1,1.4-0.5,1.6-0.5c0.1,0,0.3,0,0.5,0.2c0.1,0.1,0.4,0.3,0.5,0.5s0.1,0.4,0,0.6
				c-0.1,0.2-0.2,0.5-0.3,0.6c-0.2,0.3-0.6,0.6-1.2,1.1c-0.4,0.3-1.4,1.2-1.6,1.3c-0.1,0.1-0.4,0.4-0.6,0.5
				c-0.2,0.1-0.3,0.3-0.5,0.4c-0.2,0.3-0.5,1-0.6,1.5c0,0.1-0.1,0.2,0,0.3c0,0,0,0,0,0.1v0.1"/>
			<path class="st8" d="M927.4,541.6L927.4,541.6L927.4,541.6c0.1,0.2,0.5,0.3,0.6,0.4c0.3,0.1,1.4,1,1.5,1.2c0.2,0.1,0.9,1,1.2,1.4
				c0.2,0.3,0.6,1,0.8,1.4c0.3,0.8,1.2,4.5,1.3,4.6c0,0.1,0.1,0.2,0.1,0.3c0,0,0.1,0.1,0.1,0.1"/>
			<path class="st8" d="M935.3,567.7L935.3,567.7c-0.1,0.2-0.2,0.5-0.3,0.6c-0.1,0.2-0.3,0.5-0.5,0.8c-0.1,0.1-2.3,2.3-2.5,2.6
				c-0.3,0.4-0.8,1.2-1,1.7c-0.5,1.1-1.3,3-1.4,3.4c-0.1,0.2-0.8,1.4-1,1.9c-0.5,1-1.4,3-1.6,3.5c-0.1,0.3-0.2,1-0.2,1.4
				c0,0.1,0,0.1,0,0.1c-0.1,0.1-0.3,1.3-0.4,1.9c-0.1,0.5-0.2,1.3-0.3,2c-0.1,0.8,0,3.4,0.1,3.9c0.1,0.6,0.2,1.1,0.4,1.9
				c0.1,0.5,0.4,1.5,0.6,2c0.2,0.4,0.4,1,0.7,1.6c0.4,0.9,0.8,1.9,1,2.3c0.3,0.6,0.6,1.2,0.9,1.7c0.2,0.3,1,1.3,1.4,1.7
				c0.3,0.3,1.2,1.3,1.4,1.4c0.4,0.4,1,0.9,1.6,1.2c0.5,0.3,2.8,1.5,3.9,2c0.5,0.2,1.6,0.6,1.9,0.8c0.3,0.1,1.3,0.3,1.7,0.4
				c0.7,0.1,1.4,0.1,2.1,0.1c0.7,0,1.3-0.1,1.9-0.2c0.3-0.1,3.4-1.1,3.8-1.2c0.5-0.2,1.3-0.6,1.7-0.9c0.4-0.3,1-0.8,1.4-1.1
				c0.2-0.2,1-1.1,1.3-1.5c0.3-0.3,0.9-1.2,1-1.4c0.3-0.5,0.5-0.9,0.8-1.6c0.2-0.7,0.4-1.1,0.5-1.6"/>
			<path class="st8" d="M951.5,577.8c-0.4-0.5-0.9-1-1.3-1.4c-0.2-0.2-2.3-2.1-3-2.8c-0.3-0.3-3-2.4-3.2-2.7s-1-1-1.4-1.4
				c-0.4-0.4-0.8-1-1.2-1.5c-0.4-0.6-0.5-0.8-0.5-0.8s0-0.1,0-0.2"/>
			<path class="st8" d="M951.4,577.8C951.4,577.8,951.5,577.8,951.4,577.8c0.1,0.1,0.2,0.2,0.4,0.4c0.3,0.5,0.6,0.8,1,1.4
				c0.3,0.5,1,1.5,1.1,1.7c0.3,0.6,0.6,1.1,0.9,1.7c0.2,0.5,0.6,1.4,0.8,1.8s0.5,1.3,0.5,1.6c0.2,1,0.5,2.8,0.5,3.6
				c0.1,0.6,0.2,2.8,0.2,4.2c0,0.6-0.1,1.3-0.1,1.8c-0.1,0.2-0.3,1.5-0.3,1.7c-0.1,0.2-0.3,1.2-0.3,1.3c0,0,0,0.1,0,0.1"/>
			<path class="st8" d="M939.2,584.5c-0.1,0-0.1-0.1-0.1-0.1l-0.1-0.1c0.3,0,1-0.2,1.5-0.3h0.1c0.5-0.1,1.2-0.2,1.9-0.2
				c0.3,0,0.8-0.1,1.3-0.1c0.2,0,0.4,0,0.6,0c0.5,0,1.4,0.1,1.7,0.1c0.3,0.1,1,0.4,1.2,0.6c0.1,0.1,0.2,0.3,0.3,0.5
				c0.1,0.2,0.1,0.5,0.1,0.7s-0.1,0.6-0.1,0.8c-0.1,0.2-0.3,0.6-0.5,0.7c-0.3,0.3-1.2,0.8-1.7,0.9c-0.4,0.1-1.3,0.3-1.7,0.5
				c-0.2,0.1-0.9,0.2-1.4,0.3c-0.3,0.1-0.6,0.1-0.6,0.1s-0.1,0-0.1,0c-0.1,0-0.1,0-0.2,0"/>
			<path class="st8" d="M942.2,589.1c0,0,0.1,0,0.1-0.1c0.1,0,0.1,0,0.2-0.1c0.2,0,0.5,0,0.6,0c0.3-0.1,1.3-0.2,1.5-0.2
				c0.6-0.1,1.4-0.1,1.6-0.1c0.3,0.1,1,0.3,1.3,0.5c0.1,0.1,0.4,0.3,0.5,0.4s0.3,0.4,0.3,0.5c0.1,0.1,0.1,0.5,0.1,0.6
				c0,0.3-0.2,1-0.4,1.4c-0.1,0.2-0.3,0.5-0.5,0.7c-0.2,0.3-1,0.8-1.4,0.9c-0.3,0.1-1.3,0.4-1.9,0.6c-0.4,0.1-1.4,0.3-1.9,0.3
				c-0.1,0.1-0.2,0.1-0.2,0.1c-0.2,0.1-0.6,0.2-0.8,0.2c-0.1,0-0.3,0.1-0.3,0.1"/>
			<path class="st8" d="M940.5,584.2L940.5,584.2L940.5,584.2c0.1,0.4,0.3,1.3,0.3,1.4c0.1,0.2,0.5,1.6,0.5,1.9
				c0.1,0.3,0.1,0.9,0.2,1.5c0.3,2.2,0.9,5.5,0.9,5.5s0,0.1,0.1,0.1"/>
			<path class="st8" d="M943.5,594.7c0,0,0.1,0.3,0.1,0.7c0.1,0.4,0.1,0.9,0.2,1c0,0.1,0.1,0.2,0.1,0.2"/>
			<path class="st8" d="M945.3,594.4C945.3,594.4,945.3,594.4,945.3,594.4c0,0.2,0,0.3,0.1,0.5c0.1,0.2,0.1,0.8,0.2,0.9
				c0.1,0.2,0.1,0.4,0.1,0.5"/>
			<path class="st8" d="M941.9,583.9L941.9,583.9c-0.2-0.5-0.4-1.3-0.4-1.4c0-0.1,0-0.2-0.1-0.3"/>
			<path class="st8" d="M943.8,583.9c-0.1-0.1-0.1-0.1-0.1-0.2c0-0.1-0.1-0.3-0.1-0.5c-0.1-0.8-0.2-1.2-0.3-1.3"/>
			<path class="st8" d="M914,583.2C913.9,583.2,913.9,583.2,914,583.2h-0.1v-0.3l-0.1-2.3c0.1-0.1,0.3-0.1,0.6-0.1
				c0.9,0.1,1.5,0.1,2.1,0.1c0.2,0,0.5,0,0.5,0.1c0.1,0.2,0.1,1.8-0.1,2.4c0,0.1,0,0.2-0.1,0.2c-0.1,0.1-0.2,0.1-0.5,0.1
				c-0.4,0-1.8,0.1-1.9,0.1C914.3,583.4,914.2,583.4,914,583.2"/>
			<path class="st8" d="M914.7,582.1c0,0.1,0.2,0.1,0.4,0.1c0.1,0,0.4,0,0.5-0.1c0.1,0,0.1,0,0.2-0.1"/>
			<path class="st8" d="M913.9,583L913.9,583C913.8,583,913.8,583,913.9,583c-0.1,0-0.1,0-0.2,0c-0.2,0-0.9,0-0.9-0.1
				c0,0-0.1,0-0.1-0.1"/>
			<path class="st8" d="M912.5,581L912.5,581c0.2,0-0.1-0.2-0.1-0.3c-0.1-0.1-0.1-0.1,0-0.1c0.2,0,1.3,0.1,1.3,0.1"/>
			<path class="st8" d="M912.6,581L912.6,581L912.6,581"/>
			<path class="st8" d="M912.5,579.6c0.1,0,0.4,0.1,0.6,0.1c0.7,0.1,1.2,0.1,1.6,0.1c0.2,0,0.9,0.1,1,0.1c0.1,0,0.2,0,0.3,0
				c0.5,0,1.2-0.1,1.6-0.1c0.3,0,0.6-0.1,0.6-0.1c0,0,0.1,0,0.1,0"/>
			<path class="st8" d="M917.1,583.1L917.1,583.1c0.1,0,0.2,0,0.3,0c0.1,0,0.3,0,0.3,0c0.1,0,0.1,0,0.2-0.1c0,0,0,0,0.1,0h0.1"/>
			<line class="st8" x1="917.1" y1="583.1" x2="917.1" y2="583.1"/>
			<path class="st8" d="M917,580.8c0,0,0.5-0.2,0.7-0.1c0,0,0.4,0,0.6,0c0.1,0,0.1,0,0.1,0"/>
			<path class="st8" d="M927.4,597.3L927.4,597.3c0.1,0.5,0,1.2-0.1,1.7c-0.1,0.6-0.3,1-0.6,1.7c-0.4,1-1,2.6-1.5,3.9
				c-0.8,2-1.9,5.2-2.4,6.2c-0.5,1.1-1.4,2.9-1.9,3.8c-0.1,0.2-0.3,0.7-0.3,0.8s0.1,0.4,0.2,0.6s0.4,0.6,0.5,0.8
				c0.1,0.1,0.1,0.2,0.1,0.3c0,0.1-0.1,0.2-0.1,0.3c-0.1,0.1-0.3,0.3-0.6,0.5c-0.2,0.1-0.3,0.3-0.3,0.5c0,0.2,0.3,1.1,0.3,1.2
				s0,0.2-0.1,0.3"/>
			<path class="st8" d="M913.3,621.7c-0.2,0-0.4,0.1-0.6,0.1c-0.1,0-0.1,0-0.1,0c-0.3,0.1-0.6,0.1-0.7-0.1c-0.1-0.1-0.1-0.2-0.1-0.3
				c0.1-0.3,0.8-1.4,0.8-1.5c0-0.1,0.1-0.2,0.1-0.3c0-0.1-0.1-0.3-0.4-0.7c-0.2-0.2-0.3-0.6-0.3-0.8c0-0.2,0.2-1.9,0.2-2.1
				c0-0.1,0-2.9-0.1-4c0-2.1,0.1-6.5,0.1-8.8c0-1.2,0-3.3,0.1-4.7c0-0.8,0-1.3,0-1.4c0-0.2,0.1-1.4,0.2-1.4"/>
			<path class="st8" d="M913.3,621.7c0.1,0,0.1,0,0.2,0"/>
			<path class="st8" d="M909.4,621.1L909.4,621.1c0.1,0,0.2,0,0.3,0c0.2,0,0.3-0.1,0.5-0.1c0.1-0.1,0.2-0.2,0.2-0.3
				c0.1-0.2,0-0.6-0.1-0.8c-0.1-0.2-0.8-0.9-0.8-1c0-0.1,0.5-1.2,0.6-1.7c0.1-0.7,0.3-2.6,0.4-3.9c0.2-2.1,0.8-7.5,0.9-8.4
				c0.1-1.7,0.2-3,0.3-3.9c0-0.2,0.2-1.6,0.3-2.1c0-0.1,0-0.1,0.1-0.2"/>
			<path class="st8" d="M901.9,620C901.9,620,901.9,620,901.9,620c0-0.1,0-0.1-0.1-0.1c-0.1-0.1-0.5-0.3-0.7-0.5
				c-0.2-0.1-0.6-0.4-0.7-0.5s-0.2-0.6-0.2-0.8c0.1-0.1,0.4-0.6,0.5-0.8c0.1-0.1,0.2-0.3,0.2-0.4c0-0.2-0.1-0.4-0.4-0.8
				c-0.3-0.3-0.5-0.6-0.6-0.8c-0.2-0.3-0.4-1-0.6-1.9c-0.2-0.8-0.4-1.4-0.6-1.9c-0.2-0.4-1.4-3.2-1.6-3.5c-0.9-1.8-1.1-2.3-1.2-2.8
				c0-0.1,0-0.1-0.1-0.2"/>
			<path class="st8" d="M910.8,593.5c-0.1,0-0.2,0-0.4,0c-0.2,0-0.6,0-0.9,0.1c-0.5,0.1-1.7,0.4-2,0.5c-0.3,0.1-1.1,0.5-1.5,0.8
				c-0.2,0.1-0.5,0.3-0.5,0.4"/>
			<path class="st8" d="M910.3,592.5c-0.1,0-0.1,0-0.1,0s-0.4-0.3-0.6-0.3c-0.5-0.2-2.6-0.8-3.1-0.9c-0.1,0-0.3-0.1-0.5-0.1"/>
			<path class="st8" d="M913.8,593.9l-0.2,0.1v0.1c0.1,0.1,1.6,0.5,1.9,0.6c0.2,0.1,1.3,0.6,1.7,0.9c0.5,0.3,0.9,0.6,1.1,0.8"/>
			<path class="st8" d="M913.7,592.9c0.3,0,1.4-0.3,2-0.4c0.4-0.1,1.6-0.5,1.7-0.5c0.3-0.1,1.1-0.2,1.2-0.2"/>
			<path class="st8" d="M917.8,619.6l-0.1-0.1c0-0.1,0.2-0.4,0.3-0.6c0.1-0.1,0.1-0.3,0.1-0.5s-0.1-0.3-0.1-0.5
				c-0.1-0.1-0.5-0.6-0.5-0.6c-0.1-0.1-0.2-0.3-0.2-0.4c0-0.2,0.2-0.5,0.5-0.8c0.2-0.3,0.3-0.5,0.4-0.6c0.1-0.2,0.2-0.5,0.2-0.6
				c0-0.5,0.1-1.5,0.1-2c0.2-1.1,0.6-3,0.9-4.3c0.2-1,0.6-2.3,0.6-2.6"/>
			<path class="st8" d="M904.8,619.7L904.8,619.7L904.8,619.7c0.1,0-0.7-0.1-0.7-0.1c-0.1-0.1-0.3-0.1-0.4-0.2
				c-0.1-0.1-0.1-0.5-0.1-0.8c0.1-0.2,0.3-1,0.3-1.2c0-0.1,0-0.2-0.1-0.3c-0.1-0.1-0.5-0.4-0.5-0.6c-0.1-0.1-0.3-1.3-0.4-1.7
				c-0.3-1-1-3.1-1.3-4.1c-0.2-0.5-0.7-3.1-0.9-3.7c-0.1-0.1-0.9-2.3-0.9-2.5c-0.1-0.2-0.2-0.7-0.3-0.8"/>
			<path class="st8" d="M913.3,621.7L913.3,621.7c0-0.1,0-0.1,0.1-0.1c0.2-0.2,0.3-0.3,0.6-0.4c0.5-0.2,1.1-0.6,1.9-0.9
				c0.3-0.1,0.7-0.2,0.9-0.2c1.1-0.1,3.2-0.3,3.2-0.3c0.1,0,0.3,0,0.5,0.1"/>
			<path class="st8" d="M917.1,623.2L917.1,623.2c-0.1,0,0.1-0.3,0.3-0.6c0.3-0.3,0.9-0.9,1.4-1.5c0.4-0.4,1-0.9,1.2-1
				c0.1-0.1,0.2-0.1,0.5-0.2c0.1,0,0.1-0.1,0.1-0.1c0.4-0.2,0.9-0.3,1.1-0.4c0.5-0.2,1.5-0.3,1.8-0.4c0.2,0,1.6-0.1,1.9-0.1
				c0.6,0.1,1.2,0.1,1.8,0.2c0.5,0.1,1.5,0.3,1.9,0.5c0.4,0.2,1.2,0.6,1.4,0.9c0.3,0.3,0.9,1,1,1.3c0.2,0.4,0.4,1.2,0.5,1.6
				c0.3,1.7,0.3,2.4,0.3,2.7c0,0.1,0,0.2,0,0.3c0,0.1,0,0.1,0,0.1"/>
			<path class="st8" d="M916.5,625.9L916.5,625.9l-0.1,0.9c-0.1,0-1.2-0.2-1.4-0.2c-1.7-0.5-2.2-0.6-2.3-0.7
				c-0.1-0.1-0.2-0.5-0.3-0.8c0-0.1,0-0.2,0-0.3c0.1,0,0.1,0,0.1,0c0,0,0.1,0,0.1,0.1c0.2,0.1,0.6,0.5,0.8,0.5
				c0.2,0.1,2.1,0.6,2.2,0.6c0,0,0.1,0,0.2,0"/>
			<path class="st8" d="M916,625.9L916,625.9C916,625.9,916,625.9,916,625.9c-0.1,0-0.1-0.1-0.1-0.2c0-0.2-0.1-0.8-0.1-1
				c0.1,0,0.2,0.1,0.4,0.3c0.5,0.5,1,0.8,1.5,1c0.5,0.2,1.4,0.8,1.8,0.9c0.3,0.1,1.2,0.3,1.7,0.4c0.5,0.1,1.6,0.3,1.8,0.3
				c0.4,0.1,1.7,0,1.9,0c1,0,3-0.1,4.2-0.3c0.5-0.1,1.6-0.2,2-0.3c0.2-0.1,1-0.3,1.4-0.5c0.2-0.1,0.3-0.1,0.3-0.1
				c0.1,0,0.2,0,0.3,0.1c0.1,0.1,0.1,0.4,0.1,0.6c0,0.1-0.1,0.2-0.2,0.3c-0.1,0.1-0.5,0.2-0.7,0.3c-0.2,0.1-1.3,0.2-1.7,0.2
				c-0.5,0-0.9,0.1-2,0.3c-0.4,0.1-1.2,0.1-1.9,0.1c-0.8-0.1-1.2,0-2.1,0.1c-0.4,0-1.4,0.1-1.7,0.1c-0.7,0-1.4-0.1-1.9-0.2
				c-0.9-0.3-3.2-1.1-3.4-1.2c-0.3-0.2-0.6-0.5-0.7-0.7c-0.2-0.4-0.2-0.5-0.2-0.5"/>
			<path class="st8" d="M912.8,624.6h-0.1c-0.1-0.3-0.2-0.5-0.2-0.8c-0.2-1,0-1.7,0-1.7c0,0,0.1-0.1,0.1-0.2"/>
			<path class="st8" d="M906.8,623.8L906.8,623.8c-0.1-0.1-0.1-0.1-0.1-0.1c-0.2-0.3-1-1-1.1-1.2l0,0c-0.3-0.3-0.9-0.9-1.4-1.4
				c-0.5-0.4-0.8-0.6-1.2-0.8c-0.3-0.1-0.6-0.3-0.8-0.3c-0.1,0-0.2-0.1-0.3-0.1c-0.5-0.1-1.2-0.1-1.6-0.1c-0.6,0.1-1.4,0.2-2,0.3
				c-0.6,0.1-1.7,0.4-2,0.5c-0.4,0.2-1.2,0.8-1.5,1c-0.5,0.4-1,1-1.3,1.4c-0.2,0.3-0.6,1.1-0.9,1.6c-0.2,0.5-0.4,1.2-0.5,1.8
				c-0.1,0.3-0.2,1.8-0.2,1.8s0,0.1,0.1,0.1"/>
			<path class="st8" d="M891.8,628.3L891.8,628.3L891.8,628.3c0,0.1,0.1,0.1,0.1,0.1c0.1,0,0.1,0,0.1,0c0.1,0,0.3,0.1,0.3,0.1
				c0.1,0,1.4,0.2,2,0.2c1.1,0,3,0.3,3.9,0.3c0.4,0.1,1.5,0.1,1.7,0.1c0.4,0,3.3-0.1,3.9-0.2c0.5-0.1,1.4-0.2,1.9-0.3
				c1.3-0.3,2.3-0.8,2.7-1c0.1-0.1,0.3-0.2,0.4-0.2c0.1,0,0.1-0.1,0.2-0.1"/>
			<path class="st8" d="M908.9,627.4c0.2-0.1,0.3-0.3,0.3-0.5c0,0,0.4-0.8,0.5-0.9c0.1,0.2,0.2,0.6,0.2,0.8c0,0.2,0.1,0.6,0.1,0.8
				l0.1-0.1"/>
			<path class="st8" d="M910.1,627.6L910.1,627.6L910.1,627.6L910.1,627.6c0,0.1,0.2-0.1,0.6-0.2c0.4-0.2,0.9-0.4,1-0.5
				c0.1,0,0.1-0.1,0.2-0.1"/>
			<path class="st8" d="M905.6,622.3L905.6,622.3c0.1,0,0.5-0.3,0.6-0.3c0.7-0.3,1.2-0.5,1.5-0.5c0.3-0.1,0.7-0.1,1-0.1
				c0.3,0,0.9,0,0.9,0"/>
			<line class="st8" x1="905.7" y1="622.3" x2="905.6" y2="622.3"/>
			<path class="st8" d="M909.7,621.2L909.7,621.2C909.8,621.2,909.8,621.2,909.7,621.2h0.1h0.1"/>
			<path class="st8" d="M909.8,621.3L909.8,621.3c0,0,0.5,0.5,0.8,1.1c0.3,0.6,0.6,1.4,0.8,1.9c0.3,0.9,0.5,1.7,0.5,2.3
				c0,0,0,0.1,0,0.1"/>
			<path class="st8" d="M891.9,628.4L891.9,628.4L891.9,628.4c-0.1,0.1-0.2-0.1-0.2-0.1h-0.1c-0.1,0-0.2,0.2-0.2,0.2
				c-0.1,0.1,0.1,0.8,0.2,1c0.1,0.1,0.2,0.2,0.2,0.2c0.2,0.1,1.3,0.1,1.8,0.1c1,0,2.8,0.2,3.8,0.2c1.1,0,3.1-0.1,4.2-0.1
				c0.6,0,1.4-0.1,1.9-0.2c0.5-0.1,1.6-0.2,2-0.3c0.2-0.1,1.6-0.5,1.9-0.6c0.2-0.1,0.5-0.3,0.9-0.5c0.3-0.2,0.6-0.4,0.8-0.6
				c0.1-0.1,0.4-0.4,0.4-0.4s0.1,0.3,0.1,0.7c0,0.1,0.1,0.2,0.1,0.2c0.2,0,0.6-0.1,0.8-0.2c0.7-0.3,1.4-0.6,1.6-0.8
				c0.1-0.1,0.2-0.6,0.2-0.7c0-0.1-0.1-0.1-0.1-0.1c0,0-0.1,0-0.2,0"/>
		</g>
	</g>
</g>
</svg>
