<svg id="Layer_1" data-name="Layer 1" xmlns="http://www.w3.org/2000/svg" viewBox="0 0 250 71.28"><defs><style>.cls-1{fill:#fdfce6;}.cls-2{fill:#f5f4bb;}.cls-3{fill:#d8e7a4;}.cls-4{fill:#afd68e;}.cls-5{fill:#79c479;}.cls-6{fill:#40ab5d;}.cls-7{fill:#3c894b;}.cls-8{fill:#228443;}.cls-9{fill:#006937;}.cls-10,.cls-12{font-size:12px;fill:#231f20;}.cls-10{font-family:FiraSans-Regular, Fira Sans;}.cls-11{fill:#014529;}.cls-12{font-family:FiraSans-Medium, Fira Sans;font-weight:500;}</style></defs><rect class="cls-1" x="7.69" y="24.66" width="23.59" height="23.59"/><rect class="cls-2" x="31.28" y="24.66" width="23.59" height="23.59"/><rect class="cls-3" x="54.87" y="24.66" width="23.59" height="23.59"/><rect class="cls-4" x="78.47" y="24.66" width="23.59" height="23.59"/><rect class="cls-5" x="102.06" y="24.66" width="23.59" height="23.59"/><rect class="cls-6" x="125.65" y="24.66" width="23.59" height="23.59"/><rect class="cls-7" x="149.24" y="24.66" width="23.59" height="23.59"/><rect class="cls-8" x="172.83" y="24.66" width="23.59" height="23.59"/><rect class="cls-9" x="196.42" y="24.66" width="23.59" height="23.59"/><text class="cls-10" transform="translate(25.34 64.39)">10</text><text class="cls-10" transform="translate(48.56 64.66)">20</text><text class="cls-10" transform="translate(72.13 64.39)">30</text><text class="cls-10" transform="translate(95.52 64.8)">40</text><text class="cls-10" transform="translate(119.3 64.93)">50</text><text class="cls-10" transform="translate(143.07 65.07)">60</text><text class="cls-10" transform="translate(166.82 65.07)">70</text><text class="cls-10" transform="translate(189.77 64.39)">80</text><text class="cls-10" transform="translate(213.52 64.39)">90</text><rect class="cls-11" x="220.01" y="24.66" width="23.59" height="23.59"/><text class="cls-12" transform="translate(7.69 16.03)">% turnout</text></svg>