<?xml version="1.0" encoding="UTF-8"?><svg id="Layer_1" xmlns="http://www.w3.org/2000/svg" width="238.79" height="48.33" viewBox="0 0 238.79 48.33"><defs><style>.cls-1{fill:#37dacf;}.cls-1,.cls-2,.cls-3,.cls-4,.cls-5,.cls-6,.cls-7,.cls-8,.cls-9,.cls-10{stroke-width:0px;}.cls-2{fill:#0bb5b5;}.cls-3{fill:#038e8e;}.cls-4{fill:#c9f4e6;}.cls-5{fill:#91eddb;}.cls-11{font-family:ArialMT, Arial;font-size:12px;}.cls-6{fill:#07a3a3;}.cls-7{fill:#0fcac7;}.cls-8{fill:#aaf2df;}.cls-9{fill:#046f7a;}.cls-10{fill:#5eead6;}</style></defs><rect class="cls-4" x=".76" y="4.03" width="23.73" height="23.73"/><rect class="cls-8" x="24.49" y="4.03" width="23.73" height="23.73"/><rect class="cls-5" x="48.21" y="4.03" width="23.73" height="23.73"/><rect class="cls-10" x="71.94" y="4.03" width="23.73" height="23.73"/><rect class="cls-1" x="95.67" y="4.03" width="23.73" height="23.73"/><rect class="cls-7" x="119.39" y="4.03" width="23.73" height="23.73"/><rect class="cls-2" x="143.12" y="4.03" width="23.73" height="23.73"/><rect class="cls-6" x="166.85" y="4.03" width="23.73" height="23.73"/><rect class="cls-3" x="190.57" y="4.03" width="23.73" height="23.73"/><rect class="cls-9" x="214.3" y="4.03" width="23.73" height="23.73"/><text class="cls-11" transform="translate(17.81 40.41)"><tspan x="0" y="0">10</tspan></text><text class="cls-11" transform="translate(41.54 40.41)"><tspan x="0" y="0">20</tspan></text><text class="cls-11" transform="translate(65.27 40.41)"><tspan x="0" y="0">30</tspan></text><text class="cls-11" transform="translate(88.99 40.41)"><tspan x="0" y="0">40</tspan></text><text class="cls-11" transform="translate(112.72 40.41)"><tspan x="0" y="0">50</tspan></text><text class="cls-11" transform="translate(136.45 40.41)"><tspan x="0" y="0">60</tspan></text><text class="cls-11" transform="translate(160.17 40.41)"><tspan x="0" y="0">70</tspan></text><text class="cls-11" transform="translate(183.9 40.41)"><tspan x="0" y="0">80</tspan></text><text class="cls-11" transform="translate(207.63 40.41)"><tspan x="0" y="0">90</tspan></text></svg>