<svg id="Layer_1" data-name="Layer 1" xmlns="http://www.w3.org/2000/svg" viewBox="0 0 710.81 137.8"><defs><style>.cls-1{fill:none;}.cls-2{fill:#fdedec;}.cls-3{fill:#ebf5fb;}.cls-4{fill:#d6eaf8;}.cls-5{fill:#aed6f1;}.cls-6{fill:#85c1e9;}.cls-7{fill:#5dade2;}.cls-8{fill:#3498db;}.cls-9{fill:#2e86c1;}.cls-10{fill:#2874a6;}.cls-11{fill:#21618c;}.cls-12{fill:#1b4f72;}.cls-13,.cls-14{isolation:isolate;font-family:Calibri;}.cls-13{font-size:19.33px;}.cls-14{font-size:21.75px;}.cls-15{letter-spacing:-0.02em;}.cls-16{letter-spacing:-0.01em;}.cls-17{letter-spacing:-0.01em;}.cls-18{letter-spacing:0em;}.cls-19{fill:#154360;}.cls-20{fill:#fadbd8;}.cls-21{fill:#f5b7b1;}.cls-22{fill:#f1948a;}.cls-23{fill:#ec7063;}.cls-24{fill:#e74c3c;}.cls-25{fill:#cb4335;}.cls-26{fill:#b03a2e;}.cls-27{fill:#943126;}.cls-28{fill:#78281f;}</style></defs><path class="cls-1" d="M641.14,54.94Z"/><path class="cls-2" d="M343.47,54.94V81.13H313.7V54.94Z"/><path class="cls-3" d="M373.24,54.94V81.13H343.47V54.94Z"/><path class="cls-4" d="M403,54.94V81.13H373.24V54.94Z"/><path class="cls-5" d="M432.77,54.94V81.13H403V54.94Z"/><path class="cls-6" d="M462.54,54.94V81.13H432.77V54.94Z"/><path class="cls-7" d="M492.31,54.94V81.13H462.54V54.94Z"/><path class="cls-8" d="M522.08,54.94V81.13H492.31V54.94Z"/><path class="cls-9" d="M551.84,54.94V81.13H522.08V54.94Z"/><path class="cls-10" d="M581.61,54.94V81.13H551.84V54.94Z"/><path class="cls-11" d="M611.38,54.94V81.13H581.61V54.94Z"/><path class="cls-12" d="M641.14,54.94V81.13H611.38V54.94Z"/><text class="cls-13" transform="translate(339.02 105.46)">0</text><text class="cls-13" transform="translate(393.32 105.46)">20</text><text class="cls-13" transform="translate(453.19 105.46)">40</text><text class="cls-13" transform="translate(511.44 105.46)">60</text><text class="cls-13" transform="translate(571.31 105.46)">80</text><text class="cls-14" transform="translate(244.84 35.28)"><tspan class="cls-15">P</tspan><tspan x="10.8" y="0">opul</tspan><tspan class="cls-16" x="50.12" y="0">a</tspan><tspan x="60.33" y="0">tion chan</tspan><tspan class="cls-17" x="142.73" y="0">g</tspan><tspan class="cls-18" x="152.79" y="0">e (%)</tspan></text><path class="cls-19" d="M670.91,54.94V81.13H641.14V54.94Z"/><text class="cls-13" transform="translate(624.76 105.46)">100+</text><path class="cls-20" d="M313.7,54.94V81.13H283.94V54.94Z"/><path class="cls-21" d="M283.94,54.94V81.13H254.17V54.94Z"/><path class="cls-22" d="M254.17,54.94V81.13H224.4V54.94Z"/><path class="cls-23" d="M224.4,54.94V81.13H194.64V54.94Z"/><path class="cls-24" d="M194.64,54.94V81.13H164.87V54.94Z"/><path class="cls-25" d="M164.87,54.94V81.13H135.1V54.94Z"/><path class="cls-26" d="M135.1,54.94V81.13H105.33V54.94Z"/><path class="cls-27" d="M105.33,54.94V81.13H75.57V54.94Z"/><path class="cls-28" d="M75.57,54.94V81.13H45.8V54.94Z"/><text class="cls-13" transform="translate(271.08 105.46)">-20</text><text class="cls-13" transform="translate(211.5 105.46)">-40</text><text class="cls-13" transform="translate(151.96 105.46)">-60</text><text class="cls-13" transform="translate(92.78 105.46)">-80</text><text class="cls-13" transform="translate(28.14 105.46)">-100</text><rect class="cls-1" width="710.81" height="137.8"/></svg>