<?xml version="1.0" encoding="UTF-8"?><svg id="Layer_1" xmlns="http://www.w3.org/2000/svg" width="235" height="60" viewBox="0 0 235 60"><defs><style>.cls-1{fill:#ff6b00;}.cls-1,.cls-2,.cls-3,.cls-4,.cls-5,.cls-6,.cls-7{stroke-width:0px;}.cls-2{fill:#ffb27b;}.cls-3{fill:#ff8e3d;}.cls-8{font-family:Arial-BoldMT, Arial;font-weight:700;}.cls-8,.cls-9{font-size:12px;}.cls-9{font-family:ArialMT, Arial;}.cls-4{fill:#ff7d1f;}.cls-5{fill:#ffd5b8;}.cls-10{letter-spacing:-.02em;}.cls-6{fill:#ffc399;}.cls-7{fill:#ffa05c;}</style></defs><rect class="cls-5" x="1.12" y="19.49" width="33.24" height="23.29"/><rect class="cls-6" x="34.44" y="19.49" width="33.24" height="23.29"/><rect class="cls-2" x="67.68" y="19.49" width="33.24" height="23.29"/><rect class="cls-7" x="100.92" y="19.49" width="33.24" height="23.29"/><rect class="cls-3" x="134.16" y="19.49" width="33.24" height="23.29"/><rect class="cls-4" x="167.4" y="19.49" width="33.24" height="23.29"/><rect class="cls-1" x="200.64" y="19.49" width="33.24" height="23.29"/><text class="cls-8" transform="translate(4.26 9.92)"><tspan x="0" y="0">% Labor and </tspan><tspan class="cls-10" x="75.34" y="0">W</tspan><tspan x="86.45" y="0">orking Families full slate</tspan></text><text class="cls-9" transform="translate(31.11 58.79)"><tspan x="0" y="0">5</tspan></text><text class="cls-9" transform="translate(61.6 58.79)"><tspan x="0" y="0">10</tspan></text><text class="cls-9" transform="translate(94.25 58.79)"><tspan x="0" y="0">15</tspan></text><text class="cls-9" transform="translate(127.2 58.79)"><tspan x="0" y="0">20</tspan></text><text class="cls-9" transform="translate(160.73 58.79)"><tspan x="0" y="0">25</tspan></text><text class="cls-9" transform="translate(194.75 58.79)"><tspan x="0" y="0">30</tspan></text></svg>