<?xml version="1.0" encoding="UTF-8"?><svg id="Layer_1" xmlns="http://www.w3.org/2000/svg" viewBox="0 0 447.06 111.88"><defs><style>.cls-1{fill:#fa5a83;}.cls-2{fill:#ea031f;}.cls-3{fill:#ff9195;}.cls-4{font-family:Arial-BoldMT, Arial;font-size:20px;font-weight:700;}.cls-5{fill:#ff6c71;}.cls-6{fill:#8e0005;}.cls-7{fill:#ffdadc;}.cls-8{fill:#b30007;}.cls-9{fill:#ff474e;}.cls-10{fill:#f82359;}.cls-11{fill:#fee3ea;}.cls-12{fill:#d70008;}.cls-13{fill:#fb91ac;}.cls-14{fill:#fcacc1;}.cls-15{fill:#fdc8d6;}.cls-16{font-family:ArialMT, Arial;font-size:14px;}.cls-17{fill:#ffb5b8;}.cls-18{letter-spacing:-.02em;}.cls-19{fill:#f93e6e;}.cls-20{fill:#fb7597;}.cls-21{fill:#ff222b;}</style></defs><rect class="cls-8" x="342.96" y="36.15" width="41.54" height="41.54"/><text class="cls-16" transform="translate(40.5 98.32)"><tspan x="0" y="0">500</tspan></text><text class="cls-16" transform="translate(6.74 98.32)"><tspan x="0" y="0">0</tspan></text><text class="cls-16" transform="translate(119.69 98.32)"><tspan x="0" y="0">1500</tspan></text><text class="cls-16" transform="translate(161.23 98.32)"><tspan x="0" y="0">2000</tspan></text><text class="cls-16" transform="translate(202.77 98.32)"><tspan x="0" y="0">2500</tspan></text><text class="cls-16" transform="translate(244.31 98.32)"><tspan x="0" y="0">3000</tspan></text><text class="cls-4" transform="translate(113.08 24.17)"><tspan class="cls-18" x="0" y="0">T</tspan><tspan x="11.86" y="0">ickets issued 2019–22</tspan></text><rect class="cls-11" x="10.63" y="36.15" width="41.54" height="41.54"/><rect class="cls-14" x="93.72" y="36.15" width="41.54" height="41.54"/><rect class="cls-15" x="52.18" y="36.15" width="41.54" height="41.54"/><rect class="cls-10" x="301.42" y="36.15" width="41.54" height="41.54"/><rect class="cls-19" x="259.88" y="36.15" width="41.54" height="41.54"/><rect class="cls-1" x="218.34" y="36.15" width="41.54" height="41.54"/><rect class="cls-20" x="176.8" y="36.15" width="41.54" height="41.54"/><rect class="cls-13" x="135.26" y="36.15" width="41.54" height="41.54"/><rect class="cls-6" x="384.5" y="36.15" width="41.54" height="41.54"/><text class="cls-16" transform="translate(287.16 98.32)"><tspan x="0" y="0">3500</tspan></text><text class="cls-16" transform="translate(327.38 98.32)"><tspan x="0" y="0">4000</tspan></text><text class="cls-16" transform="translate(368.92 98.32)"><tspan x="0" y="0">4500</tspan></text><text class="cls-16" transform="translate(410.46 98.32)"><tspan x="0" y="0">5000</tspan></text><text class="cls-16" transform="translate(78.15 98.32)"><tspan x="0" y="0">1000</tspan></text><rect class="cls-12" x="301.42" y="36.15" width="41.54" height="41.54"/><rect class="cls-17" x="52.19" y="36.15" width="41.54" height="41.54"/><rect class="cls-7" x="10.65" y="36.15" width="41.54" height="41.54"/><rect class="cls-2" x="259.88" y="36.15" width="41.54" height="41.54"/><rect class="cls-21" x="218.34" y="36.15" width="41.54" height="41.54"/><rect class="cls-9" x="176.8" y="36.15" width="41.54" height="41.54"/><rect class="cls-5" x="135.27" y="36.15" width="41.54" height="41.54"/><rect class="cls-3" x="93.73" y="36.15" width="41.54" height="41.54"/></svg>