<?xml version="1.0" encoding="UTF-8"?><svg id="Layer_1" xmlns="http://www.w3.org/2000/svg" viewBox="0 0 589.79 164.06"><defs><style>.cls-1{fill:none;stroke:#231f20;stroke-miterlimit:10;}.cls-2{fill:#0dd6c7;}.cls-3{fill:#65ead0;}.cls-4{fill:#900;}.cls-5{fill:#e02214;}.cls-6{fill:#0dc1d3;}.cls-7{fill:#ef9f6a;}.cls-8{fill:#ee7651;}.cls-9{font-family:Arial-BoldMT, Arial;font-size:24px;}.cls-10{fill:#00a4bf;}.cls-11{fill:#007dbc;}.cls-12{fill:#9df4d9;}.cls-13{font-family:ArialMT, Arial;font-size:20px;}.cls-14{letter-spacing:-.06em;}.cls-15{fill:#ffcb78;}.cls-16{fill:#231f20;}.cls-17{fill:#e54c4c;}</style></defs><rect class="cls-15" x="247.67" y="41.63" width="47.07" height="47.07"/><rect class="cls-12" x="294.74" y="41.63" width="47.07" height="47.07"/><rect class="cls-3" x="341.82" y="41.63" width="47.07" height="47.07"/><rect class="cls-6" x="435.97" y="41.63" width="47.07" height="47.07"/><rect class="cls-5" x="59.37" y="41.63" width="47.07" height="47.07"/><rect class="cls-17" x="106.45" y="41.63" width="47.07" height="47.07"/><rect class="cls-8" x="153.52" y="41.63" width="47.07" height="47.07"/><rect class="cls-7" x="200.6" y="41.63" width="47.07" height="47.07"/><rect class="cls-4" x="12.3" y="41.63" width="47.07" height="47.07"/><rect class="cls-10" x="483.04" y="41.63" width="47.07" height="47.07"/><rect class="cls-2" x="388.89" y="41.63" width="47.07" height="47.07"/><rect class="cls-11" x="530.12" y="41.63" width="47.07" height="47.07"/><text class="cls-9" transform="translate(12.3 29.4)"><tspan x="0" y="0">No</tspan></text><text class="cls-9" transform="translate(535.16 29.4)"><tspan class="cls-14" x="0" y="0">Y</tspan><tspan x="14.68" y="0">es</tspan></text><text class="cls-13" transform="translate(289.18 115.07)"><tspan x="0" y="0">0</tspan></text><text class="cls-13" transform="translate(377.77 115.55)"><tspan x="0" y="0">20</tspan></text><text class="cls-13" transform="translate(236.55 115.31)"><tspan x="0" y="0">10</tspan></text><text class="cls-13" transform="translate(330.7 115.07)"><tspan x="0" y="0">10</tspan></text><text class="cls-13" transform="translate(189.47 115.55)"><tspan x="0" y="0">20</tspan></text><text class="cls-13" transform="translate(424.85 115.55)"><tspan x="0" y="0">30</tspan></text><text class="cls-13" transform="translate(142.4 115.07)"><tspan x="0" y="0">30</tspan></text><text class="cls-13" transform="translate(95.32 115.07)"><tspan x="0" y="0">40</tspan></text><text class="cls-13" transform="translate(48.25 115.07)"><tspan x="0" y="0">50</tspan></text><text class="cls-13" transform="translate(471.92 115.79)"><tspan x="0" y="0">40</tspan></text><text class="cls-13" transform="translate(518.99 115.07)"><tspan x="0" y="0">50</tspan></text><text class="cls-13" transform="translate(252.51 147.02)"><tspan x="0" y="0">% margin</tspan></text><g><line class="cls-1" x1="429.93" y1="141.53" x2="343.45" y2="141.53"/><path class="cls-16" d="M435.97,141.53c-2.84-1.05-6.36-2.85-8.55-4.76l1.72,4.76-1.72,4.75c2.18-1.9,5.71-3.7,8.55-4.75Z"/></g><g><line class="cls-1" x1="159.56" y1="141.53" x2="247.67" y2="141.53"/><path class="cls-16" d="M153.52,141.53c2.84,1.05,6.36,2.85,8.55,4.76l-1.72-4.76,1.72-4.75c-2.18,1.9-5.71,3.7-8.55,4.75Z"/></g></svg>