<?xml version="1.0" encoding="UTF-8"?><svg id="Layer_1" xmlns="http://www.w3.org/2000/svg" viewBox="0 0 564.89 111.88"><defs><style>.cls-1{font-family:ArialMT, Arial;font-size:20px;isolation:isolate;}.cls-2{fill:none;stroke:#231f20;stroke-miterlimit:10;}.cls-3{fill:#0dd6c7;}.cls-4{fill:#65ead0;}.cls-5{fill:#900;}.cls-6{fill:#e02214;}.cls-7{fill:#0dc1d3;}.cls-8{fill:#ef9f6a;}.cls-9{fill:#ee7651;}.cls-10{fill:#00a4bf;}.cls-11{fill:#007dbc;}.cls-12{fill:#9df4d9;}.cls-13{fill:#ffcb78;}.cls-14{fill:#231f20;}.cls-15{fill:#e54c4c;}</style></defs><rect class="cls-13" x="282.45" width="47.07" height="47.07"/><rect class="cls-12" x="235.38" width="47.07" height="47.07"/><rect class="cls-4" x="188.3" width="47.07" height="47.07"/><rect class="cls-7" x="94.15" width="47.07" height="47.07"/><rect class="cls-6" x="470.75" width="47.07" height="47.07"/><rect class="cls-15" x="423.67" width="47.07" height="47.07"/><rect class="cls-9" x="376.6" width="47.07" height="47.07"/><rect class="cls-8" x="329.52" width="47.07" height="47.07"/><rect class="cls-5" x="517.82" width="47.07" height="47.07"/><rect class="cls-10" x="47.08" width="47.07" height="47.07"/><rect class="cls-3" x="141.23" width="47.07" height="47.07"/><rect class="cls-11" width="47.07" height="47.07"/><text class="cls-1" transform="translate(276.88 73.44)"><tspan x="0" y="0">0</tspan></text><text class="cls-1" transform="translate(365.47 73.92)"><tspan x="0" y="0">10</tspan></text><text class="cls-1" transform="translate(224.25 73.68)"><tspan x="0" y="0">-5</tspan></text><text class="cls-1" transform="translate(318.4 73.44)"><tspan x="0" y="0">5</tspan></text><text class="cls-1" transform="translate(177.17 73.92)"><tspan x="0" y="0">-10</tspan></text><text class="cls-1" transform="translate(412.55 73.92)"><tspan x="0" y="0">15</tspan></text><text class="cls-1" transform="translate(130.1 73.44)"><tspan x="0" y="0">-15</tspan></text><text class="cls-1" transform="translate(83.02 73.44)"><tspan x="0" y="0">-20</tspan></text><text class="cls-1" transform="translate(35.95 73.44)"><tspan x="0" y="0">-25</tspan></text><text class="cls-1" transform="translate(459.62 74.16)"><tspan x="0" y="0">20</tspan></text><text class="cls-1" transform="translate(506.69 73.44)"><tspan x="0" y="0">25</tspan></text><g><text class="cls-1" transform="translate(240.36 105.39)"><tspan x="0" y="0">% change</tspan></text><line class="cls-2" x1="421.78" y1="99.9" x2="335.3" y2="99.9"/><path class="cls-14" d="m423.82,99.9c-2.84-1.05-6.36-2.85-8.55-4.76l1.72,4.76-1.72,4.75c2.18-1.9,5.71-3.7,8.55-4.75Z"/><line class="cls-2" x1="147.41" y1="99.9" x2="235.52" y2="99.9"/><path class="cls-14" d="m141.37,99.9c2.84,1.05,6.36,2.85,8.55,4.76l-1.72-4.76,1.72-4.75c-2.18,1.9-5.71,3.7-8.55,4.75Z"/></g></svg>