<?xml version="1.0" encoding="utf-8"?>
<!-- Generator: Adobe Illustrator 27.9.0, SVG Export Plug-In . SVG Version: 6.00 Build 0)  -->
<svg version="1.1" id="Layer_1" xmlns="http://www.w3.org/2000/svg" xmlns:xlink="http://www.w3.org/1999/xlink" x="0px" y="0px"
	 viewBox="0 0 100 100" style="enable-background:new 0 0 100 100;" xml:space="preserve">
<style type="text/css">
	.st0{fill:none;stroke:#231F20;stroke-width:1.96;stroke-miterlimit:10;}
	.st1{enable-background:new    ;}
</style>
<circle class="st0" cx="50" cy="50" r="49"/>
<g class="st1">
	<path d="M14.2,61.6V38.7h3.1l12,18v-18h2.9v22.9h-3.1l-12-18v18H14.2z"/>
	<path d="M35.9,53.3c0-3.1,0.9-5.3,2.6-6.8c1.4-1.2,3.2-1.8,5.2-1.8c2.3,0,4.1,0.7,5.6,2.2c1.4,1.5,2.2,3.6,2.2,6.2
		c0,2.1-0.3,3.8-1,5c-0.6,1.2-1.6,2.2-2.8,2.9c-1.2,0.7-2.6,1-4,1c-2.3,0-4.2-0.7-5.6-2.2C36.6,58.3,35.9,56.1,35.9,53.3z
		 M38.8,53.3c0,2.1,0.5,3.7,1.4,4.8c0.9,1.1,2.1,1.6,3.5,1.6c1.4,0,2.6-0.5,3.5-1.6c0.9-1.1,1.4-2.7,1.4-4.9c0-2.1-0.5-3.6-1.4-4.7
		c-0.9-1.1-2.1-1.6-3.5-1.6c-1.4,0-2.6,0.5-3.5,1.6C39.3,49.6,38.8,51.2,38.8,53.3z"/>
	<path d="M54.8,61.6V45h2.5v2.4c1.2-1.8,3-2.7,5.3-2.7c1,0,1.9,0.2,2.8,0.5s1.5,0.8,1.9,1.4c0.4,0.6,0.7,1.3,0.9,2.1
		c0.1,0.5,0.2,1.4,0.2,2.7v10.2h-2.8V51.5c0-1.1-0.1-2-0.3-2.6c-0.2-0.6-0.6-1-1.2-1.4c-0.6-0.3-1.2-0.5-2-0.5
		c-1.2,0-2.2,0.4-3.1,1.1c-0.9,0.8-1.3,2.2-1.3,4.3v9.1H54.8z"/>
	<path d="M83.9,56.3l2.9,0.4c-0.5,1.7-1.3,3-2.5,4S81.5,62,79.5,62c-2.4,0-4.4-0.7-5.8-2.2c-1.4-1.5-2.1-3.6-2.1-6.3
		c0-2.8,0.7-5,2.2-6.5c1.4-1.5,3.3-2.3,5.6-2.3c2.2,0,4,0.8,5.4,2.3c1.4,1.5,2.1,3.6,2.1,6.4c0,0.2,0,0.4,0,0.8H74.5
		c0.1,1.8,0.6,3.2,1.5,4.2s2.1,1.5,3.5,1.5c1,0,1.9-0.3,2.6-0.8C82.9,58.4,83.5,57.5,83.9,56.3z M74.7,51.8H84
		c-0.1-1.4-0.5-2.4-1.1-3.1C82,47.5,80.8,47,79.4,47c-1.3,0-2.4,0.4-3.3,1.3C75.3,49.1,74.8,50.3,74.7,51.8z"/>
</g>
</svg>
