<svg id="Layer_1" data-name="Layer 1" xmlns="http://www.w3.org/2000/svg" viewBox="0 0 278.3 77.36"><defs><style>.cls-1{fill:#982c1f;}.cls-2{fill:#b55e27;}.cls-3{fill:#e99747;}.cls-4{fill:#eabe77;}.cls-5{fill:#ffeea3;}.cls-6{fill:#d9ecd2;}.cls-7{fill:#a7d5a0;}.cls-8{fill:#59ae60;}.cls-9{fill:#1c793d;}.cls-10{fill:#0d4420;}.cls-11,.cls-12{font-size:12px;fill:#231f20;}.cls-11{font-family:FiraSans-Regular, Fira Sans;}.cls-12{font-family:FiraSans-Medium, Fira Sans;font-weight:500;}</style></defs><rect class="cls-1" x="17.87" y="25.94" width="24.5" height="24.5"/><rect class="cls-2" x="42.37" y="25.94" width="24.5" height="24.5"/><rect class="cls-3" x="66.87" y="25.94" width="24.5" height="24.5"/><rect class="cls-4" x="91.37" y="25.94" width="24.5" height="24.5"/><rect class="cls-5" x="115.87" y="25.94" width="24.5" height="24.5"/><rect class="cls-6" x="140.37" y="25.94" width="24.5" height="24.5"/><rect class="cls-7" x="164.87" y="25.94" width="24.5" height="24.5"/><rect class="cls-8" x="189.37" y="25.94" width="24.5" height="24.5"/><rect class="cls-9" x="213.87" y="25.94" width="24.5" height="24.5"/><rect class="cls-10" x="238.37" y="25.94" width="24.5" height="24.5"/><text class="cls-11" transform="translate(137.02 67.15)">0</text><text class="cls-11" transform="translate(108.93 67.15)">10</text><text class="cls-11" transform="translate(85.05 67.15)">20</text><text class="cls-11" transform="translate(60.53 67.15)">30</text><text class="cls-11" transform="translate(35.83 67.15)">40</text><text class="cls-11" transform="translate(11.52 67.15)">50</text><text class="cls-11" transform="translate(158.93 67.15)">10</text><text class="cls-11" transform="translate(183.05 67.15)">20</text><text class="cls-11" transform="translate(207.53 67.15)">30</text><text class="cls-11" transform="translate(231.83 67.15)">40</text><text class="cls-11" transform="translate(256.52 67.15)">50</text><text class="cls-12" transform="translate(193.02 16.41)">Yes on recall</text><text class="cls-12" transform="translate(17.87 16.41)">No on recall</text></svg>