<svg id="Layer_1" data-name="Layer 1" xmlns="http://www.w3.org/2000/svg" viewBox="0 0 278.3 77.36"><defs><style>.cls-1{fill:#3f124b;}.cls-2{fill:#762a83;}.cls-3{fill:#9970ab;}.cls-4{fill:#c2a5cf;}.cls-5{fill:#e7d4e8;}.cls-6{fill:#d9ecd2;}.cls-7{fill:#a7d5a0;}.cls-8{fill:#59ae60;}.cls-9{fill:#1c793d;}.cls-10{fill:#0d4420;}.cls-11,.cls-12{font-size:12px;fill:#231f20;}.cls-11{font-family:FiraSans-Regular, Fira Sans;}.cls-12{font-family:FiraSans-Medium, Fira Sans;font-weight:500;}.cls-13{letter-spacing:-0.06em;}.cls-14{letter-spacing:-0.03em;}.cls-15{letter-spacing:-0.01em;}.cls-16{letter-spacing:0em;}.cls-17{letter-spacing:-0.03em;}</style></defs><rect class="cls-1" x="17.87" y="25.94" width="24.5" height="24.5"/><rect class="cls-2" x="42.37" y="25.94" width="24.5" height="24.5"/><rect class="cls-3" x="66.87" y="25.94" width="24.5" height="24.5"/><rect class="cls-4" x="91.37" y="25.94" width="24.5" height="24.5"/><rect class="cls-5" x="115.87" y="25.94" width="24.5" height="24.5"/><rect class="cls-6" x="140.37" y="25.94" width="24.5" height="24.5"/><rect class="cls-7" x="164.87" y="25.94" width="24.5" height="24.5"/><rect class="cls-8" x="189.37" y="25.94" width="24.5" height="24.5"/><rect class="cls-9" x="213.87" y="25.94" width="24.5" height="24.5"/><rect class="cls-10" x="238.37" y="25.94" width="24.5" height="24.5"/><text class="cls-11" transform="translate(137.02 67.15)">0</text><text class="cls-11" transform="translate(111.87 67.15)">5</text><text class="cls-11" transform="translate(85.43 67.15)">10</text><text class="cls-11" transform="translate(61.27 67.15)">15</text><text class="cls-11" transform="translate(36.05 67.15)">20</text><text class="cls-11" transform="translate(11.9 67.15)">25</text><text class="cls-11" transform="translate(161.87 67.15)">5</text><text class="cls-11" transform="translate(183.43 67.15)">10</text><text class="cls-11" transform="translate(208.27 67.15)">15</text><text class="cls-11" transform="translate(232.05 67.15)">20</text><text class="cls-11" transform="translate(256.9 67.15)">25</text><text class="cls-12" transform="translate(194.38 16.41)"><tspan class="cls-13">Y</tspan><tspan x="6.13" y="0">es on </tspan><tspan class="cls-14" x="38.41" y="0">r</tspan><tspan x="42.78" y="0">e</tspan><tspan class="cls-15" x="49.37" y="0">ca</tspan><tspan class="cls-16" x="61.42" y="0">ll</tspan></text><text class="cls-12" transform="translate(17.87 16.41)">No on <tspan class="cls-17" x="35.05" y="0">r</tspan><tspan x="39.42" y="0">e</tspan><tspan class="cls-15" x="46.01" y="0">ca</tspan><tspan x="58.06" y="0">ll</tspan></text></svg>